<?xml version="1.0" encoding="UTF-8" standalone="no"?>
<!DOCTYPE svg PUBLIC "-//W3C//DTD SVG 1.1//EN"
 "http://www.w3.org/Graphics/SVG/1.1/DTD/svg11.dtd">
<!-- Generated by graphviz version 2.40.1 (20161225.0304)
 -->
<!-- Title: /home/etienne/Projects/avcpp/av/_iocontext.h Pages: 1 -->
<svg width="1328pt" height="95pt"
 viewBox="0.00 0.00 1327.50 95.00" xmlns="http://www.w3.org/2000/svg" xmlns:xlink="http://www.w3.org/1999/xlink">
<g id="graph0" class="graph" transform="scale(1 1) rotate(0) translate(4 91)">
<title>/home/etienne/Projects/avcpp/av/_iocontext.h</title>
<polygon fill="#ffffff" stroke="transparent" points="-4,4 -4,-91 1323.5,-91 1323.5,4 -4,4"/>
<!-- Node0 -->
<g id="node1" class="node">
<title>Node0</title>
<polygon fill="#bfbfbf" stroke="#000000" points="548.5,-56.5 548.5,-86.5 677.5,-86.5 677.5,-56.5 548.5,-56.5"/>
<text text-anchor="start" x="556.5" y="-74.5" font-family="Helvetica,sans-Serif" font-size="10.00" fill="#000000">/home/etienne/Projects</text>
<text text-anchor="middle" x="613" y="-63.5" font-family="Helvetica,sans-Serif" font-size="10.00" fill="#000000">/avcpp/av/_iocontext.h</text>
</g>
<!-- Node1 -->
<g id="node2" class="node">
<title>Node1</title>
<polygon fill="#ffffff" stroke="#bfbfbf" points="0,-.5 0,-19.5 60,-19.5 60,-.5 0,-.5"/>
<text text-anchor="middle" x="30" y="-7.5" font-family="Helvetica,sans-Serif" font-size="10.00" fill="#000000">iostream</text>
</g>
<!-- Node0&#45;&gt;Node1 -->
<g id="edge1" class="edge">
<title>Node0&#45;&gt;Node1</title>
<path fill="none" stroke="#191970" d="M548.0827,-68.6456C447.5404,-63.5011 248.0686,-50.4114 70.1966,-19.9685"/>
<polygon fill="#191970" stroke="#191970" points="70.5833,-16.4834 60.1323,-18.2233 69.3872,-23.3805 70.5833,-16.4834"/>
</g>
<!-- Node2 -->
<g id="node3" class="node">
<title>Node2</title>
<polygon fill="#ffffff" stroke="#bfbfbf" points="78,-.5 78,-19.5 122,-19.5 122,-.5 78,-.5"/>
<text text-anchor="middle" x="100" y="-7.5" font-family="Helvetica,sans-Serif" font-size="10.00" fill="#000000">string</text>
</g>
<!-- Node0&#45;&gt;Node2 -->
<g id="edge2" class="edge">
<title>Node0&#45;&gt;Node2</title>
<path fill="none" stroke="#191970" d="M548.4065,-68.8179C457.2968,-64.1056 285.9193,-51.8335 132.2949,-19.8983"/>
<polygon fill="#191970" stroke="#191970" points="132.7102,-16.4088 122.2027,-17.7662 131.2633,-23.2577 132.7102,-16.4088"/>
</g>
<!-- Node3 -->
<g id="node4" class="node">
<title>Node3</title>
<polygon fill="#ffffff" stroke="#bfbfbf" points="140.5,-.5 140.5,-19.5 271.5,-19.5 271.5,-.5 140.5,-.5"/>
<text text-anchor="middle" x="206" y="-7.5" font-family="Helvetica,sans-Serif" font-size="10.00" fill="#000000">libavformat/avformat.h</text>
</g>
<!-- Node0&#45;&gt;Node3 -->
<g id="edge3" class="edge">
<title>Node0&#45;&gt;Node3</title>
<path fill="none" stroke="#191970" d="M548.0596,-61.6871C474.7106,-50.6037 355.6253,-32.6092 279.081,-21.0429"/>
<polygon fill="#191970" stroke="#191970" points="279.4469,-17.5586 269.0362,-19.5251 278.401,-24.48 279.4469,-17.5586"/>
</g>
<!-- Node4 -->
<g id="node5" class="node">
<title>Node4</title>
<polygon fill="#ffffff" stroke="#bfbfbf" points="289.5,-.5 289.5,-19.5 396.5,-19.5 396.5,-.5 289.5,-.5"/>
<text text-anchor="middle" x="343" y="-7.5" font-family="Helvetica,sans-Serif" font-size="10.00" fill="#000000">libavformat/avio.h</text>
</g>
<!-- Node0&#45;&gt;Node4 -->
<g id="edge4" class="edge">
<title>Node0&#45;&gt;Node4</title>
<path fill="none" stroke="#191970" d="M548.3283,-56.7692C501.2891,-46.0547 438.4451,-31.7403 394.724,-21.7816"/>
<polygon fill="#191970" stroke="#191970" points="395.3992,-18.3458 384.8716,-19.5374 393.8445,-25.171 395.3992,-18.3458"/>
</g>
<!-- Node5 -->
<g id="node6" class="node">
<title>Node5</title>
<polygon fill="#ffffff" stroke="#bfbfbf" points="415,-.5 415,-19.5 537,-19.5 537,-.5 415,-.5"/>
<text text-anchor="middle" x="476" y="-7.5" font-family="Helvetica,sans-Serif" font-size="10.00" fill="#000000">libavcodec/avcodec.h</text>
</g>
<!-- Node0&#45;&gt;Node5 -->
<g id="edge5" class="edge">
<title>Node0&#45;&gt;Node5</title>
<path fill="none" stroke="#191970" d="M579.486,-56.4554C557.2288,-46.464 528.2353,-33.4487 506.6015,-23.7372"/>
<polygon fill="#191970" stroke="#191970" points="507.7865,-20.4327 497.2301,-19.5303 504.9197,-26.8187 507.7865,-20.4327"/>
</g>
<!-- Node6 -->
<g id="node7" class="node">
<title>Node6</title>
<polygon fill="#ffffff" stroke="#bfbfbf" points="555,-.5 555,-19.5 671,-19.5 671,-.5 555,-.5"/>
<text text-anchor="middle" x="613" y="-7.5" font-family="Helvetica,sans-Serif" font-size="10.00" fill="#000000">libavutil/audio_fifo.h</text>
</g>
<!-- Node0&#45;&gt;Node6 -->
<g id="edge6" class="edge">
<title>Node0&#45;&gt;Node6</title>
<path fill="none" stroke="#191970" d="M613,-56.2977C613,-48.3834 613,-38.6043 613,-30.0759"/>
<polygon fill="#191970" stroke="#191970" points="616.5001,-29.8469 613,-19.8469 609.5001,-29.847 616.5001,-29.8469"/>
</g>
<!-- Node7 -->
<g id="node8" class="node">
<title>Node7</title>
<polygon fill="#ffffff" stroke="#bfbfbf" points="689,-.5 689,-19.5 799,-19.5 799,-.5 689,-.5"/>
<text text-anchor="middle" x="744" y="-7.5" font-family="Helvetica,sans-Serif" font-size="10.00" fill="#000000">libavutil/avassert.h</text>
</g>
<!-- Node0&#45;&gt;Node7 -->
<g id="edge7" class="edge">
<title>Node0&#45;&gt;Node7</title>
<path fill="none" stroke="#191970" d="M645.0462,-56.4554C666.2328,-46.509 693.8028,-33.5659 714.4588,-23.8686"/>
<polygon fill="#191970" stroke="#191970" points="716.1349,-26.9483 723.6996,-19.5303 713.1601,-20.6118 716.1349,-26.9483"/>
</g>
<!-- Node8 -->
<g id="node9" class="node">
<title>Node8</title>
<polygon fill="#ffffff" stroke="#bfbfbf" points="817,-.5 817,-19.5 925,-19.5 925,-.5 817,-.5"/>
<text text-anchor="middle" x="871" y="-7.5" font-family="Helvetica,sans-Serif" font-size="10.00" fill="#000000">libavutil/avstring.h</text>
</g>
<!-- Node0&#45;&gt;Node8 -->
<g id="edge8" class="edge">
<title>Node0&#45;&gt;Node8</title>
<path fill="none" stroke="#191970" d="M676.1139,-56.4554C720.7667,-45.8114 779.8166,-31.7356 821.1692,-21.8783"/>
<polygon fill="#191970" stroke="#191970" points="822.1033,-25.2538 831.0192,-19.5303 820.4801,-18.4445 822.1033,-25.2538"/>
</g>
<!-- Node9 -->
<g id="node10" class="node">
<title>Node9</title>
<polygon fill="#ffffff" stroke="#bfbfbf" points="943,-.5 943,-19.5 1041,-19.5 1041,-.5 943,-.5"/>
<text text-anchor="middle" x="992" y="-7.5" font-family="Helvetica,sans-Serif" font-size="10.00" fill="#000000">libavutil/frame.h</text>
</g>
<!-- Node0&#45;&gt;Node9 -->
<g id="edge9" class="edge">
<title>Node0&#45;&gt;Node9</title>
<path fill="none" stroke="#191970" d="M677.5938,-61.3633C740.2259,-51.483 838.2167,-35.8894 932.9188,-20.1662"/>
<polygon fill="#191970" stroke="#191970" points="933.6687,-23.5897 942.9591,-18.4967 932.5204,-16.6845 933.6687,-23.5897"/>
</g>
<!-- Node10 -->
<g id="node11" class="node">
<title>Node10</title>
<polygon fill="#ffffff" stroke="#bfbfbf" points="1059,-.5 1059,-19.5 1143,-19.5 1143,-.5 1059,-.5"/>
<text text-anchor="middle" x="1101" y="-7.5" font-family="Helvetica,sans-Serif" font-size="10.00" fill="#000000">libavutil/opt.h</text>
</g>
<!-- Node0&#45;&gt;Node10 -->
<g id="edge10" class="edge">
<title>Node0&#45;&gt;Node10</title>
<path fill="none" stroke="#191970" d="M677.6285,-65.4405C761.097,-57.2673 911.065,-41.4068 1048.8451,-20.0878"/>
<polygon fill="#191970" stroke="#191970" points="1049.4023,-23.5433 1058.7432,-18.5435 1048.3231,-16.627 1049.4023,-23.5433"/>
</g>
<!-- Node11 -->
<g id="node12" class="node">
<title>Node11</title>
<polygon fill="#ffffff" stroke="#bfbfbf" points="1160.5,-.5 1160.5,-19.5 1319.5,-19.5 1319.5,-.5 1160.5,-.5"/>
<text text-anchor="middle" x="1240" y="-7.5" font-family="Helvetica,sans-Serif" font-size="10.00" fill="#000000">libswresample/swresample.h</text>
</g>
<!-- Node0&#45;&gt;Node11 -->
<g id="edge11" class="edge">
<title>Node0&#45;&gt;Node11</title>
<path fill="none" stroke="#191970" d="M677.7526,-65.6902C777.116,-56.6915 973.4502,-38.5814 1150.369,-20.1574"/>
<polygon fill="#191970" stroke="#191970" points="1150.7991,-23.6316 1160.3816,-19.1122 1150.0722,-16.6694 1150.7991,-23.6316"/>
</g>
</g>
</svg>
