<?xml version="1.0" encoding="UTF-8" standalone="no"?>
<!DOCTYPE svg PUBLIC "-//W3C//DTD SVG 1.1//EN"
 "http://www.w3.org/Graphics/SVG/1.1/DTD/svg11.dtd">
<!-- Generated by graphviz version 2.38.0 (20140413.2041)
 -->
<!-- Title: /home/etienne/Projects/avcpp/av/_iocontext.h Pages: 1 -->
<svg width="1205pt" height="95pt"
 viewBox="0.00 0.00 1204.50 95.00" xmlns="http://www.w3.org/2000/svg" xmlns:xlink="http://www.w3.org/1999/xlink">
<g id="graph0" class="graph" transform="scale(1 1) rotate(0) translate(4 91)">
<title>/home/etienne/Projects/avcpp/av/_iocontext.h</title>
<polygon fill="white" stroke="none" points="-4,4 -4,-91 1200.5,-91 1200.5,4 -4,4"/>
<!-- Node0 -->
<g id="node1" class="node"><title>Node0</title>
<polygon fill="#bfbfbf" stroke="black" points="498.5,-56.5 498.5,-86.5 615.5,-86.5 615.5,-56.5 498.5,-56.5"/>
<text text-anchor="start" x="506.5" y="-74.5" font-family="Helvetica,sans-Serif" font-size="10.00">/home/etienne/Projects</text>
<text text-anchor="middle" x="557" y="-63.5" font-family="Helvetica,sans-Serif" font-size="10.00">/avcpp/av/_iocontext.h</text>
</g>
<!-- Node1 -->
<g id="node2" class="node"><title>Node1</title>
<polygon fill="white" stroke="#bfbfbf" points="0,-0.5 0,-19.5 54,-19.5 54,-0.5 0,-0.5"/>
<text text-anchor="middle" x="27" y="-7.5" font-family="Helvetica,sans-Serif" font-size="10.00">iostream</text>
</g>
<!-- Node0&#45;&gt;Node1 -->
<g id="edge1" class="edge"><title>Node0&#45;&gt;Node1</title>
<path fill="none" stroke="midnightblue" d="M498.452,-67.2351C407.488,-61.5657 226.648,-47.9106 64.2154,-19.9739"/>
<polygon fill="midnightblue" stroke="midnightblue" points="64.4903,-16.4692 54.0379,-18.2003 63.2885,-23.3652 64.4903,-16.4692"/>
</g>
<!-- Node2 -->
<g id="node3" class="node"><title>Node2</title>
<polygon fill="white" stroke="#bfbfbf" points="72.5,-0.5 72.5,-19.5 113.5,-19.5 113.5,-0.5 72.5,-0.5"/>
<text text-anchor="middle" x="93" y="-7.5" font-family="Helvetica,sans-Serif" font-size="10.00">string</text>
</g>
<!-- Node0&#45;&gt;Node2 -->
<g id="edge2" class="edge"><title>Node0&#45;&gt;Node2</title>
<path fill="none" stroke="midnightblue" d="M498.216,-66.9467C416.257,-61.2686 263.002,-48.0242 123.55,-19.7412"/>
<polygon fill="midnightblue" stroke="midnightblue" points="124.035,-16.2677 113.535,-17.6787 122.624,-23.1238 124.035,-16.2677"/>
</g>
<!-- Node3 -->
<g id="node4" class="node"><title>Node3</title>
<polygon fill="white" stroke="#bfbfbf" points="132,-0.5 132,-19.5 246,-19.5 246,-0.5 132,-0.5"/>
<text text-anchor="middle" x="189" y="-7.5" font-family="Helvetica,sans-Serif" font-size="10.00">libavformat/avformat.h</text>
</g>
<!-- Node0&#45;&gt;Node3 -->
<g id="edge3" class="edge"><title>Node0&#45;&gt;Node3</title>
<path fill="none" stroke="midnightblue" d="M498.282,-61.0063C430.879,-50.1081 320.76,-32.3035 251.718,-21.1406"/>
<polygon fill="midnightblue" stroke="midnightblue" points="252.27,-17.6845 241.84,-19.5434 251.153,-24.5947 252.27,-17.6845"/>
</g>
<!-- Node4 -->
<g id="node5" class="node"><title>Node4</title>
<polygon fill="white" stroke="#bfbfbf" points="264,-0.5 264,-19.5 358,-19.5 358,-0.5 264,-0.5"/>
<text text-anchor="middle" x="311" y="-7.5" font-family="Helvetica,sans-Serif" font-size="10.00">libavformat/avio.h</text>
</g>
<!-- Node0&#45;&gt;Node4 -->
<g id="edge4" class="edge"><title>Node0&#45;&gt;Node4</title>
<path fill="none" stroke="midnightblue" d="M499.013,-56.4747C455.276,-45.8959 396.148,-31.5946 355.958,-21.874"/>
<polygon fill="midnightblue" stroke="midnightblue" points="356.712,-18.4554 346.169,-19.5064 355.066,-25.2593 356.712,-18.4554"/>
</g>
<!-- Node5 -->
<g id="node6" class="node"><title>Node5</title>
<polygon fill="white" stroke="#bfbfbf" points="376.5,-0.5 376.5,-19.5 487.5,-19.5 487.5,-0.5 376.5,-0.5"/>
<text text-anchor="middle" x="432" y="-7.5" font-family="Helvetica,sans-Serif" font-size="10.00">libavcodec/avcodec.h</text>
</g>
<!-- Node0&#45;&gt;Node5 -->
<g id="edge5" class="edge"><title>Node0&#45;&gt;Node5</title>
<path fill="none" stroke="midnightblue" d="M527.377,-56.3993C506.778,-46.5945 479.52,-33.6194 459.42,-24.052"/>
<polygon fill="midnightblue" stroke="midnightblue" points="460.722,-20.7955 450.189,-19.6578 457.714,-27.116 460.722,-20.7955"/>
</g>
<!-- Node6 -->
<g id="node7" class="node"><title>Node6</title>
<polygon fill="white" stroke="#bfbfbf" points="505.5,-0.5 505.5,-19.5 608.5,-19.5 608.5,-0.5 505.5,-0.5"/>
<text text-anchor="middle" x="557" y="-7.5" font-family="Helvetica,sans-Serif" font-size="10.00">libavutil/audio_fifo.h</text>
</g>
<!-- Node0&#45;&gt;Node6 -->
<g id="edge6" class="edge"><title>Node0&#45;&gt;Node6</title>
<path fill="none" stroke="midnightblue" d="M557,-56.3993C557,-48.4664 557,-38.458 557,-29.8583"/>
<polygon fill="midnightblue" stroke="midnightblue" points="560.5,-29.6577 557,-19.6578 553.5,-29.6578 560.5,-29.6577"/>
</g>
<!-- Node7 -->
<g id="node8" class="node"><title>Node7</title>
<polygon fill="white" stroke="#bfbfbf" points="627,-0.5 627,-19.5 725,-19.5 725,-0.5 627,-0.5"/>
<text text-anchor="middle" x="676" y="-7.5" font-family="Helvetica,sans-Serif" font-size="10.00">libavutil/avassert.h</text>
</g>
<!-- Node0&#45;&gt;Node7 -->
<g id="edge7" class="edge"><title>Node0&#45;&gt;Node7</title>
<path fill="none" stroke="midnightblue" d="M585.201,-56.3993C604.722,-46.6391 630.525,-33.7373 649.635,-24.1826"/>
<polygon fill="midnightblue" stroke="midnightblue" points="651.305,-27.2605 658.684,-19.6578 648.175,-20.9995 651.305,-27.2605"/>
</g>
<!-- Node8 -->
<g id="node9" class="node"><title>Node8</title>
<polygon fill="white" stroke="#bfbfbf" points="743.5,-0.5 743.5,-19.5 838.5,-19.5 838.5,-0.5 743.5,-0.5"/>
<text text-anchor="middle" x="791" y="-7.5" font-family="Helvetica,sans-Serif" font-size="10.00">libavutil/avstring.h</text>
</g>
<!-- Node0&#45;&gt;Node8 -->
<g id="edge8" class="edge"><title>Node0&#45;&gt;Node8</title>
<path fill="none" stroke="midnightblue" d="M612.158,-56.4747C653.586,-45.9408 709.53,-31.7158 747.748,-21.9978"/>
<polygon fill="midnightblue" stroke="midnightblue" points="748.717,-25.3628 757.546,-19.5064 746.992,-18.5787 748.717,-25.3628"/>
</g>
<!-- Node9 -->
<g id="node10" class="node"><title>Node9</title>
<polygon fill="white" stroke="#bfbfbf" points="857,-0.5 857,-19.5 943,-19.5 943,-0.5 857,-0.5"/>
<text text-anchor="middle" x="900" y="-7.5" font-family="Helvetica,sans-Serif" font-size="10.00">libavutil/frame.h</text>
</g>
<!-- Node0&#45;&gt;Node9 -->
<g id="edge9" class="edge"><title>Node0&#45;&gt;Node9</title>
<path fill="none" stroke="midnightblue" d="M615.574,-60.3392C680.461,-49.0833 784.171,-31.0928 846.809,-20.227"/>
<polygon fill="midnightblue" stroke="midnightblue" points="847.62,-23.6386 856.875,-18.4809 846.424,-16.7416 847.62,-23.6386"/>
</g>
<!-- Node10 -->
<g id="node11" class="node"><title>Node10</title>
<polygon fill="white" stroke="#bfbfbf" points="961,-0.5 961,-19.5 1035,-19.5 1035,-0.5 961,-0.5"/>
<text text-anchor="middle" x="998" y="-7.5" font-family="Helvetica,sans-Serif" font-size="10.00">libavutil/opt.h</text>
</g>
<!-- Node0&#45;&gt;Node10 -->
<g id="edge10" class="edge"><title>Node0&#45;&gt;Node10</title>
<path fill="none" stroke="midnightblue" d="M615.733,-64.218C691.003,-55.8941 825.734,-40.0768 950.747,-20.1119"/>
<polygon fill="midnightblue" stroke="midnightblue" points="951.564,-23.5256 960.881,-18.4809 950.451,-16.6145 951.564,-23.5256"/>
</g>
<!-- Node11 -->
<g id="node12" class="node"><title>Node11</title>
<polygon fill="white" stroke="#bfbfbf" points="1053.5,-0.5 1053.5,-19.5 1196.5,-19.5 1196.5,-0.5 1053.5,-0.5"/>
<text text-anchor="middle" x="1125" y="-7.5" font-family="Helvetica,sans-Serif" font-size="10.00">libswresample/swresample.h</text>
</g>
<!-- Node0&#45;&gt;Node11 -->
<g id="edge11" class="edge"><title>Node0&#45;&gt;Node11</title>
<path fill="none" stroke="midnightblue" d="M615.862,-64.5369C705.556,-55.4191 882.116,-37.3492 1043.34,-20.0635"/>
<polygon fill="midnightblue" stroke="midnightblue" points="1043.88,-23.5261 1053.45,-18.9788 1043.13,-16.566 1043.88,-23.5261"/>
</g>
</g>
</svg>
