<?xml version="1.0" encoding="UTF-8" standalone="no"?>
<!DOCTYPE svg PUBLIC "-//W3C//DTD SVG 1.1//EN"
 "http://www.w3.org/Graphics/SVG/1.1/DTD/svg11.dtd">
<!-- Generated by graphviz version 2.38.0 (20140413.2041)
 -->
<!-- Title: /home/etienne/Projects/avcpp/av/av.h Pages: 1 -->
<svg width="1049pt" height="319pt"
 viewBox="0.00 0.00 1048.50 319.00" xmlns="http://www.w3.org/2000/svg" xmlns:xlink="http://www.w3.org/1999/xlink">
<g id="graph0" class="graph" transform="scale(1 1) rotate(0) translate(4 315)">
<title>/home/etienne/Projects/avcpp/av/av.h</title>
<polygon fill="white" stroke="none" points="-4,4 -4,-315 1044.5,-315 1044.5,4 -4,4"/>
<!-- Node0 -->
<g id="node1" class="node"><title>Node0</title>
<polygon fill="#bfbfbf" stroke="black" points="130.5,-280.5 130.5,-310.5 247.5,-310.5 247.5,-280.5 130.5,-280.5"/>
<text text-anchor="start" x="138.5" y="-298.5" font-family="Helvetica,sans-Serif" font-size="10.00">/home/etienne/Projects</text>
<text text-anchor="middle" x="189" y="-287.5" font-family="Helvetica,sans-Serif" font-size="10.00">/avcpp/av/av.h</text>
</g>
<!-- Node1 -->
<g id="node2" class="node"><title>Node1</title>
<g id="a_node2"><a xlink:href="averrc_8h.html" target="_top" xlink:title="averrc.h">
<polygon fill="white" stroke="black" points="111,-224.5 111,-243.5 163,-243.5 163,-224.5 111,-224.5"/>
<text text-anchor="middle" x="137" y="-231.5" font-family="Helvetica,sans-Serif" font-size="10.00">averrc.h</text>
</a>
</g>
</g>
<!-- Node0&#45;&gt;Node1 -->
<g id="edge1" class="edge"><title>Node0&#45;&gt;Node1</title>
<path fill="none" stroke="midnightblue" d="M176.677,-280.399C169.043,-271.664 159.209,-260.413 151.242,-251.296"/>
<polygon fill="midnightblue" stroke="midnightblue" points="153.782,-248.884 144.566,-243.658 148.512,-253.491 153.782,-248.884"/>
</g>
<!-- Node3 -->
<g id="node4" class="node"><title>Node3</title>
<g id="a_node4"><a xlink:href="codec_8h.html" target="_top" xlink:title="codec.h">
<polygon fill="white" stroke="black" points="260.5,-168.5 260.5,-187.5 311.5,-187.5 311.5,-168.5 260.5,-168.5"/>
<text text-anchor="middle" x="286" y="-175.5" font-family="Helvetica,sans-Serif" font-size="10.00">codec.h</text>
</a>
</g>
</g>
<!-- Node0&#45;&gt;Node3 -->
<g id="edge3" class="edge"><title>Node0&#45;&gt;Node3</title>
<path fill="none" stroke="midnightblue" d="M200.894,-280.337C218.927,-258.865 253.102,-218.172 272.202,-195.429"/>
<polygon fill="midnightblue" stroke="midnightblue" points="274.968,-197.578 278.719,-187.669 269.608,-193.076 274.968,-197.578"/>
</g>
<!-- Node8 -->
<g id="node9" class="node"><title>Node8</title>
<g id="a_node9"><a xlink:href="frame_8h.html" target="_top" xlink:title="frame.h">
<polygon fill="white" stroke="black" points="0,-112.5 0,-131.5 50,-131.5 50,-112.5 0,-112.5"/>
<text text-anchor="middle" x="25" y="-119.5" font-family="Helvetica,sans-Serif" font-size="10.00">frame.h</text>
</a>
</g>
</g>
<!-- Node0&#45;&gt;Node8 -->
<g id="edge22" class="edge"><title>Node0&#45;&gt;Node8</title>
<path fill="none" stroke="midnightblue" d="M156.761,-280.448C139.198,-271.711 117.874,-259.239 102,-244 69.7942,-213.082 44.9301,-166.119 32.9217,-140.752"/>
<polygon fill="midnightblue" stroke="midnightblue" points="36.0669,-139.214 28.7047,-131.595 29.7087,-142.142 36.0669,-139.214"/>
</g>
<!-- Node17 -->
<g id="node18" class="node"><title>Node17</title>
<g id="a_node18"><a xlink:href="format_8h.html" target="_top" xlink:title="format.h">
<polygon fill="white" stroke="black" points="588.5,-224.5 588.5,-243.5 641.5,-243.5 641.5,-224.5 588.5,-224.5"/>
<text text-anchor="middle" x="615" y="-231.5" font-family="Helvetica,sans-Serif" font-size="10.00">format.h</text>
</a>
</g>
</g>
<!-- Node0&#45;&gt;Node17 -->
<g id="edge23" class="edge"><title>Node0&#45;&gt;Node17</title>
<path fill="none" stroke="midnightblue" d="M247.786,-286.289C336.981,-273.831 503.939,-250.512 577.995,-240.169"/>
<polygon fill="midnightblue" stroke="midnightblue" points="578.807,-243.589 588.227,-238.739 577.839,-236.656 578.807,-243.589"/>
</g>
<!-- Node2 -->
<g id="node3" class="node"><title>Node2</title>
<polygon fill="white" stroke="#bfbfbf" points="118,-56.5 118,-75.5 192,-75.5 192,-56.5 118,-56.5"/>
<text text-anchor="middle" x="155" y="-63.5" font-family="Helvetica,sans-Serif" font-size="10.00">system_error</text>
</g>
<!-- Node1&#45;&gt;Node2 -->
<g id="edge2" class="edge"><title>Node1&#45;&gt;Node2</title>
<path fill="none" stroke="midnightblue" d="M136.348,-224.406C135.022,-204.47 132.718,-153.604 140,-112 141.579,-102.976 144.619,-93.2964 147.551,-85.2357"/>
<polygon fill="midnightblue" stroke="midnightblue" points="150.872,-86.3522 151.212,-75.7628 144.343,-83.8287 150.872,-86.3522"/>
</g>
<!-- Node3&#45;&gt;Node2 -->
<g id="edge8" class="edge"><title>Node3&#45;&gt;Node2</title>
<path fill="none" stroke="midnightblue" d="M268.287,-168.436C252.393,-160.29 228.885,-147.065 211,-132 193.992,-117.673 177.775,-97.9498 167.212,-83.9968"/>
<polygon fill="midnightblue" stroke="midnightblue" points="169.894,-81.7368 161.135,-75.7758 164.265,-85.8978 169.894,-81.7368"/>
</g>
<!-- Node4 -->
<g id="node5" class="node"><title>Node4</title>
<polygon fill="white" stroke="#bfbfbf" points="220,-112.5 220,-131.5 258,-131.5 258,-112.5 220,-112.5"/>
<text text-anchor="middle" x="239" y="-119.5" font-family="Helvetica,sans-Serif" font-size="10.00">array</text>
</g>
<!-- Node3&#45;&gt;Node4 -->
<g id="edge4" class="edge"><title>Node3&#45;&gt;Node4</title>
<path fill="none" stroke="midnightblue" d="M278.239,-168.083C271.463,-160.298 261.457,-148.801 253.245,-139.367"/>
<polygon fill="midnightblue" stroke="midnightblue" points="255.822,-136.996 246.617,-131.751 250.542,-141.592 255.822,-136.996"/>
</g>
<!-- Node5 -->
<g id="node6" class="node"><title>Node5</title>
<polygon fill="white" stroke="#bfbfbf" points="455.5,-112.5 455.5,-131.5 514.5,-131.5 514.5,-112.5 455.5,-112.5"/>
<text text-anchor="middle" x="485" y="-119.5" font-family="Helvetica,sans-Serif" font-size="10.00">functional</text>
</g>
<!-- Node3&#45;&gt;Node5 -->
<g id="edge5" class="edge"><title>Node3&#45;&gt;Node5</title>
<path fill="none" stroke="midnightblue" d="M311.608,-170.051C345.504,-160.853 405.608,-144.544 445.383,-133.75"/>
<polygon fill="midnightblue" stroke="midnightblue" points="446.543,-137.062 455.277,-131.065 444.71,-130.307 446.543,-137.062"/>
</g>
<!-- Node6 -->
<g id="node7" class="node"><title>Node6</title>
<polygon fill="white" stroke="#bfbfbf" points="533,-112.5 533,-131.5 587,-131.5 587,-112.5 533,-112.5"/>
<text text-anchor="middle" x="560" y="-119.5" font-family="Helvetica,sans-Serif" font-size="10.00">iostream</text>
</g>
<!-- Node3&#45;&gt;Node6 -->
<g id="edge6" class="edge"><title>Node3&#45;&gt;Node6</title>
<path fill="none" stroke="midnightblue" d="M311.688,-172.565C355.278,-164.941 446.455,-148.565 523,-132 523.101,-131.978 523.202,-131.956 523.303,-131.934"/>
<polygon fill="midnightblue" stroke="midnightblue" points="523.98,-135.37 532.959,-129.746 522.432,-128.543 523.98,-135.37"/>
</g>
<!-- Node7 -->
<g id="node8" class="node"><title>Node7</title>
<polygon fill="white" stroke="#bfbfbf" points="260,-0.5 260,-19.5 312,-19.5 312,-0.5 260,-0.5"/>
<text text-anchor="middle" x="286" y="-7.5" font-family="Helvetica,sans-Serif" font-size="10.00">memory</text>
</g>
<!-- Node3&#45;&gt;Node7 -->
<g id="edge7" class="edge"><title>Node3&#45;&gt;Node7</title>
<path fill="none" stroke="midnightblue" d="M286,-168.075C286,-141.945 286,-65.2106 286,-29.577"/>
<polygon fill="midnightblue" stroke="midnightblue" points="289.5,-29.5681 286,-19.5681 282.5,-29.5681 289.5,-29.5681"/>
</g>
<!-- Node3&#45;&gt;Node8 -->
<g id="edge9" class="edge"><title>Node3&#45;&gt;Node8</title>
<path fill="none" stroke="midnightblue" d="M260.315,-172.026C218.919,-163.957 134.91,-147.366 64,-132 62.7394,-131.727 61.4565,-131.446 60.1613,-131.16"/>
<polygon fill="midnightblue" stroke="midnightblue" points="60.6774,-127.689 50.153,-128.909 59.1412,-134.518 60.6774,-127.689"/>
</g>
<!-- Node9 -->
<g id="node10" class="node"><title>Node9</title>
<g id="a_node10"><a xlink:href="utils_8h.html" target="_top" xlink:title="utils.h">
<polygon fill="white" stroke="black" points="56.5,-56.5 56.5,-75.5 99.5,-75.5 99.5,-56.5 56.5,-56.5"/>
<text text-anchor="middle" x="78" y="-63.5" font-family="Helvetica,sans-Serif" font-size="10.00">utils.h</text>
</a>
</g>
</g>
<!-- Node3&#45;&gt;Node9 -->
<g id="edge21" class="edge"><title>Node3&#45;&gt;Node9</title>
<path fill="none" stroke="midnightblue" d="M265.203,-168.347C244.946,-159.732 213.429,-145.832 187,-132 156.084,-115.819 121.703,-94.7815 99.9764,-81.0892"/>
<polygon fill="midnightblue" stroke="midnightblue" points="101.807,-78.1054 91.4869,-75.7064 98.0582,-84.0173 101.807,-78.1054"/>
</g>
<!-- Node10 -->
<g id="node11" class="node"><title>Node10</title>
<g id="a_node11"><a xlink:href="packet_8h.html" target="_top" xlink:title="packet.h">
<polygon fill="white" stroke="black" points="314,-112.5 314,-131.5 368,-131.5 368,-112.5 314,-112.5"/>
<text text-anchor="middle" x="341" y="-119.5" font-family="Helvetica,sans-Serif" font-size="10.00">packet.h</text>
</a>
</g>
</g>
<!-- Node3&#45;&gt;Node10 -->
<g id="edge13" class="edge"><title>Node3&#45;&gt;Node10</title>
<path fill="none" stroke="midnightblue" d="M295.082,-168.083C303.171,-160.141 315.195,-148.335 324.91,-138.797"/>
<polygon fill="midnightblue" stroke="midnightblue" points="327.403,-141.254 332.087,-131.751 322.499,-136.26 327.403,-141.254"/>
</g>
<!-- Node13 -->
<g id="node14" class="node"><title>Node13</title>
<g id="a_node14"><a xlink:href="option_8h.html" target="_top" xlink:title="option.h">
<polygon fill="white" stroke="black" points="386.5,-112.5 386.5,-131.5 437.5,-131.5 437.5,-112.5 386.5,-112.5"/>
<text text-anchor="middle" x="412" y="-119.5" font-family="Helvetica,sans-Serif" font-size="10.00">option.h</text>
</a>
</g>
</g>
<!-- Node3&#45;&gt;Node13 -->
<g id="edge17" class="edge"><title>Node3&#45;&gt;Node13</title>
<path fill="none" stroke="midnightblue" d="M305.965,-168.444C326.609,-159.596 359.063,-145.687 382.632,-135.586"/>
<polygon fill="midnightblue" stroke="midnightblue" points="384.316,-138.673 392.128,-131.516 381.558,-132.239 384.316,-138.673"/>
</g>
<!-- Node8&#45;&gt;Node2 -->
<g id="edge10" class="edge"><title>Node8&#45;&gt;Node2</title>
<path fill="none" stroke="midnightblue" d="M45.5989,-112.444C66.9934,-103.557 100.681,-89.5632 125.024,-79.4514"/>
<polygon fill="midnightblue" stroke="midnightblue" points="126.605,-82.5848 134.497,-75.5164 123.92,-76.1203 126.605,-82.5848"/>
</g>
<!-- Node8&#45;&gt;Node9 -->
<g id="edge11" class="edge"><title>Node8&#45;&gt;Node9</title>
<path fill="none" stroke="midnightblue" d="M33.7519,-112.083C41.4697,-104.22 52.9047,-92.5688 62.2165,-83.0813"/>
<polygon fill="midnightblue" stroke="midnightblue" points="64.9042,-85.3396 69.411,-75.7511 59.9084,-80.4363 64.9042,-85.3396"/>
</g>
<!-- Node9&#45;&gt;Node7 -->
<g id="edge12" class="edge"><title>Node9&#45;&gt;Node7</title>
<path fill="none" stroke="midnightblue" d="M99.6541,-58.6128C102.785,-57.7186 105.972,-56.8243 109,-56 157.589,-42.7741 214.016,-28.6386 249.853,-19.8127"/>
<polygon fill="midnightblue" stroke="midnightblue" points="250.96,-23.1448 259.836,-17.3602 249.29,-16.3469 250.96,-23.1448"/>
</g>
<!-- Node10&#45;&gt;Node2 -->
<g id="edge16" class="edge"><title>Node10&#45;&gt;Node2</title>
<path fill="none" stroke="midnightblue" d="M313.954,-113.148C282.457,-104.004 230.165,-88.8222 194.214,-78.3847"/>
<polygon fill="midnightblue" stroke="midnightblue" points="195.117,-75.0025 184.538,-75.5756 193.166,-81.725 195.117,-75.0025"/>
</g>
<!-- Node11 -->
<g id="node12" class="node"><title>Node11</title>
<polygon fill="white" stroke="#bfbfbf" points="381.5,-56.5 381.5,-75.5 430.5,-75.5 430.5,-56.5 381.5,-56.5"/>
<text text-anchor="middle" x="406" y="-63.5" font-family="Helvetica,sans-Serif" font-size="10.00">cstddef</text>
</g>
<!-- Node10&#45;&gt;Node11 -->
<g id="edge14" class="edge"><title>Node10&#45;&gt;Node11</title>
<path fill="none" stroke="midnightblue" d="M351.443,-112.324C361.146,-104.263 375.815,-92.0765 387.5,-82.3695"/>
<polygon fill="midnightblue" stroke="midnightblue" points="389.911,-84.9163 395.367,-75.8339 385.438,-79.532 389.911,-84.9163"/>
</g>
<!-- Node12 -->
<g id="node13" class="node"><title>Node12</title>
<polygon fill="white" stroke="#bfbfbf" points="314.5,-56.5 314.5,-75.5 363.5,-75.5 363.5,-56.5 314.5,-56.5"/>
<text text-anchor="middle" x="339" y="-63.5" font-family="Helvetica,sans-Serif" font-size="10.00">stdint.h</text>
</g>
<!-- Node10&#45;&gt;Node12 -->
<g id="edge15" class="edge"><title>Node10&#45;&gt;Node12</title>
<path fill="none" stroke="midnightblue" d="M340.67,-112.083C340.408,-105.006 340.032,-94.8611 339.703,-85.9865"/>
<polygon fill="midnightblue" stroke="midnightblue" points="343.192,-85.6147 339.324,-75.7511 336.197,-85.8738 343.192,-85.6147"/>
</g>
<!-- Node14 -->
<g id="node15" class="node"><title>Node14</title>
<polygon fill="white" stroke="#bfbfbf" points="594.5,-56.5 594.5,-75.5 635.5,-75.5 635.5,-56.5 594.5,-56.5"/>
<text text-anchor="middle" x="615" y="-63.5" font-family="Helvetica,sans-Serif" font-size="10.00">string</text>
</g>
<!-- Node13&#45;&gt;Node14 -->
<g id="edge18" class="edge"><title>Node13&#45;&gt;Node14</title>
<path fill="none" stroke="midnightblue" d="M437.71,-114.161C475.201,-104.188 544.745,-85.6885 584.682,-75.0649"/>
<polygon fill="midnightblue" stroke="midnightblue" points="585.633,-78.4336 594.398,-72.4805 583.834,-71.6689 585.633,-78.4336"/>
</g>
<!-- Node15 -->
<g id="node16" class="node"><title>Node15</title>
<polygon fill="white" stroke="#bfbfbf" points="793,-56.5 793,-75.5 837,-75.5 837,-56.5 793,-56.5"/>
<text text-anchor="middle" x="815" y="-63.5" font-family="Helvetica,sans-Serif" font-size="10.00">vector</text>
</g>
<!-- Node13&#45;&gt;Node15 -->
<g id="edge19" class="edge"><title>Node13&#45;&gt;Node15</title>
<path fill="none" stroke="midnightblue" d="M437.533,-113.839C440.377,-113.161 443.242,-112.531 446,-112 569.113,-88.315 717.863,-74.6637 782.449,-69.4567"/>
<polygon fill="midnightblue" stroke="midnightblue" points="783.099,-72.9163 792.791,-68.6375 782.546,-65.9381 783.099,-72.9163"/>
</g>
<!-- Node16 -->
<g id="node17" class="node"><title>Node16</title>
<polygon fill="white" stroke="#bfbfbf" points="448.5,-56.5 448.5,-75.5 507.5,-75.5 507.5,-56.5 448.5,-56.5"/>
<text text-anchor="middle" x="478" y="-63.5" font-family="Helvetica,sans-Serif" font-size="10.00">stdexcept</text>
</g>
<!-- Node13&#45;&gt;Node16 -->
<g id="edge20" class="edge"><title>Node13&#45;&gt;Node16</title>
<path fill="none" stroke="midnightblue" d="M422.604,-112.324C432.456,-104.263 447.351,-92.0765 459.215,-82.3695"/>
<polygon fill="midnightblue" stroke="midnightblue" points="461.68,-84.8752 467.203,-75.8339 457.247,-79.4575 461.68,-84.8752"/>
</g>
<!-- Node17&#45;&gt;Node2 -->
<g id="edge29" class="edge"><title>Node17&#45;&gt;Node2</title>
<path fill="none" stroke="midnightblue" d="M588.313,-231.729C514.937,-227.915 311.588,-215.123 251,-188 216.503,-172.557 210.015,-161.981 187,-132 176.001,-117.672 167.272,-98.9641 161.728,-85.2995"/>
<polygon fill="midnightblue" stroke="midnightblue" points="164.85,-83.6689 157.981,-75.6019 158.32,-86.1913 164.85,-83.6689"/>
</g>
<!-- Node17&#45;&gt;Node3 -->
<g id="edge31" class="edge"><title>Node17&#45;&gt;Node3</title>
<path fill="none" stroke="midnightblue" d="M588.355,-228.627C529.401,-218.95 387.895,-195.724 321.511,-184.829"/>
<polygon fill="midnightblue" stroke="midnightblue" points="321.961,-181.356 311.526,-183.19 320.827,-188.263 321.961,-181.356"/>
</g>
<!-- Node17&#45;&gt;Node5 -->
<g id="edge25" class="edge"><title>Node17&#45;&gt;Node5</title>
<path fill="none" stroke="midnightblue" d="M604.799,-224.368C582.776,-205.733 530.538,-161.532 502.885,-138.134"/>
<polygon fill="midnightblue" stroke="midnightblue" points="505.048,-135.379 495.153,-131.591 500.527,-140.723 505.048,-135.379"/>
</g>
<!-- Node17&#45;&gt;Node7 -->
<g id="edge27" class="edge"><title>Node17&#45;&gt;Node7</title>
<path fill="none" stroke="midnightblue" d="M641.583,-231.29C677.31,-227.887 741.57,-217.787 787,-188 840.739,-152.765 889.581,-103.224 846,-56 810.484,-17.5152 440.422,-11.9313 322.137,-11.131"/>
<polygon fill="midnightblue" stroke="midnightblue" points="322.153,-7.63113 312.132,-11.0708 322.11,-14.631 322.153,-7.63113"/>
</g>
<!-- Node17&#45;&gt;Node10 -->
<g id="edge32" class="edge"><title>Node17&#45;&gt;Node10</title>
<path fill="none" stroke="midnightblue" d="M593.5,-224.368C545.181,-204.97 427.857,-157.87 371.806,-135.367"/>
<polygon fill="midnightblue" stroke="midnightblue" points="372.985,-132.069 362.4,-131.591 370.377,-138.565 372.985,-132.069"/>
</g>
<!-- Node17&#45;&gt;Node14 -->
<g id="edge28" class="edge"><title>Node17&#45;&gt;Node14</title>
<path fill="none" stroke="midnightblue" d="M615,-224.075C615,-197.945 615,-121.211 615,-85.577"/>
<polygon fill="midnightblue" stroke="midnightblue" points="618.5,-85.5681 615,-75.5681 611.5,-85.5681 618.5,-85.5681"/>
</g>
<!-- Node17&#45;&gt;Node15 -->
<g id="edge30" class="edge"><title>Node17&#45;&gt;Node15</title>
<path fill="none" stroke="midnightblue" d="M641.763,-229.167C687.738,-220.93 780.133,-196.724 815,-132 822.61,-117.874 821.766,-99.3876 819.512,-85.7425"/>
<polygon fill="midnightblue" stroke="midnightblue" points="822.875,-84.7168 817.442,-75.6212 816.017,-86.1198 822.875,-84.7168"/>
</g>
<!-- Node18 -->
<g id="node19" class="node"><title>Node18</title>
<polygon fill="white" stroke="#bfbfbf" points="919,-168.5 919,-187.5 975,-187.5 975,-168.5 919,-168.5"/>
<text text-anchor="middle" x="947" y="-175.5" font-family="Helvetica,sans-Serif" font-size="10.00">algorithm</text>
</g>
<!-- Node17&#45;&gt;Node18 -->
<g id="edge24" class="edge"><title>Node17&#45;&gt;Node18</title>
<path fill="none" stroke="midnightblue" d="M641.874,-229.353C693.176,-222.276 808.551,-205.802 905,-188 906.237,-187.772 907.494,-187.534 908.763,-187.29"/>
<polygon fill="midnightblue" stroke="midnightblue" points="909.462,-190.72 918.578,-185.32 908.084,-183.856 909.462,-190.72"/>
</g>
<!-- Node19 -->
<g id="node20" class="node"><title>Node19</title>
<polygon fill="white" stroke="#bfbfbf" points="993.5,-168.5 993.5,-187.5 1040.5,-187.5 1040.5,-168.5 993.5,-168.5"/>
<text text-anchor="middle" x="1017" y="-175.5" font-family="Helvetica,sans-Serif" font-size="10.00">iterator</text>
</g>
<!-- Node17&#45;&gt;Node19 -->
<g id="edge26" class="edge"><title>Node17&#45;&gt;Node19</title>
<path fill="none" stroke="midnightblue" d="M641.606,-231.086C701.108,-226.523 849.541,-213.574 983.292,-187.859"/>
<polygon fill="midnightblue" stroke="midnightblue" points="984.16,-191.255 993.304,-185.904 982.819,-184.385 984.16,-191.255"/>
</g>
<!-- Node20 -->
<g id="node21" class="node"><title>Node20</title>
<g id="a_node21"><a xlink:href="metadata_8h.html" target="_top" xlink:title="metadata.h">
<polygon fill="white" stroke="black" points="655.5,-168.5 655.5,-187.5 720.5,-187.5 720.5,-168.5 655.5,-168.5"/>
<text text-anchor="middle" x="688" y="-175.5" font-family="Helvetica,sans-Serif" font-size="10.00">metadata.h</text>
</a>
</g>
</g>
<!-- Node17&#45;&gt;Node20 -->
<g id="edge33" class="edge"><title>Node17&#45;&gt;Node20</title>
<path fill="none" stroke="midnightblue" d="M626.729,-224.324C637.837,-216.107 654.742,-203.602 667.983,-193.807"/>
<polygon fill="midnightblue" stroke="midnightblue" points="670.1,-196.595 676.058,-187.834 665.937,-190.967 670.1,-196.595"/>
</g>
<!-- Node20&#45;&gt;Node6 -->
<g id="edge35" class="edge"><title>Node20&#45;&gt;Node6</title>
<path fill="none" stroke="midnightblue" d="M667.718,-168.444C646.653,-159.557 613.483,-145.563 589.514,-135.451"/>
<polygon fill="midnightblue" stroke="midnightblue" points="590.761,-132.179 580.187,-131.516 588.04,-138.628 590.761,-132.179"/>
</g>
<!-- Node20&#45;&gt;Node14 -->
<g id="edge36" class="edge"><title>Node20&#45;&gt;Node14</title>
<path fill="none" stroke="midnightblue" d="M682.272,-168.368C670.225,-150.215 642.077,-107.802 626.275,-83.9902"/>
<polygon fill="midnightblue" stroke="midnightblue" points="629.147,-81.9882 620.702,-75.5914 623.315,-85.8589 629.147,-81.9882"/>
</g>
<!-- Node20&#45;&gt;Node15 -->
<g id="edge38" class="edge"><title>Node20&#45;&gt;Node15</title>
<path fill="none" stroke="midnightblue" d="M720.725,-171.21C744.757,-165.307 776.49,-153.793 796,-132 807.386,-119.282 811.968,-100.083 813.802,-85.8447"/>
<polygon fill="midnightblue" stroke="midnightblue" points="817.303,-85.9931 814.761,-75.7079 810.335,-85.3339 817.303,-85.9931"/>
</g>
<!-- Node21 -->
<g id="node22" class="node"><title>Node21</title>
<polygon fill="white" stroke="#bfbfbf" points="681.5,-112.5 681.5,-131.5 716.5,-131.5 716.5,-112.5 681.5,-112.5"/>
<text text-anchor="middle" x="699" y="-119.5" font-family="Helvetica,sans-Serif" font-size="10.00">map</text>
</g>
<!-- Node20&#45;&gt;Node21 -->
<g id="edge34" class="edge"><title>Node20&#45;&gt;Node21</title>
<path fill="none" stroke="midnightblue" d="M689.816,-168.083C691.274,-160.927 693.371,-150.635 695.193,-141.691"/>
<polygon fill="midnightblue" stroke="midnightblue" points="698.651,-142.248 697.217,-131.751 691.792,-140.851 698.651,-142.248"/>
</g>
<!-- Node22 -->
<g id="node23" class="node"><title>Node22</title>
<polygon fill="white" stroke="#bfbfbf" points="735,-112.5 735,-131.5 787,-131.5 787,-112.5 735,-112.5"/>
<text text-anchor="middle" x="761" y="-119.5" font-family="Helvetica,sans-Serif" font-size="10.00">sstream</text>
</g>
<!-- Node20&#45;&gt;Node22 -->
<g id="edge37" class="edge"><title>Node20&#45;&gt;Node22</title>
<path fill="none" stroke="midnightblue" d="M699.729,-168.324C710.837,-160.107 727.742,-147.602 740.983,-137.807"/>
<polygon fill="midnightblue" stroke="midnightblue" points="743.1,-140.595 749.058,-131.834 738.937,-134.967 743.1,-140.595"/>
</g>
</g>
</svg>
