<?xml version="1.0" encoding="UTF-8" standalone="no"?>
<!DOCTYPE svg PUBLIC "-//W3C//DTD SVG 1.1//EN"
 "http://www.w3.org/Graphics/SVG/1.1/DTD/svg11.dtd">
<!-- Generated by graphviz version 2.38.0 (20140413.2041)
 -->
<!-- Title: /home/etienne/Projects/avcpp/av/av.h Pages: 1 -->
<!--zoomable 319 -->
<svg id="main" version="1.1" xmlns="http://www.w3.org/2000/svg" xmlns:xlink="http://www.w3.org/1999/xlink" xml:space="preserve" onload="init(evt)">
<style type="text/css"><![CDATA[
.edge:hover path { stroke: red; }
.edge:hover polygon { stroke: red; fill: red; }
]]></style>
<script type="text/javascript"><![CDATA[
var edges = document.getElementsByTagName('g');
if (edges && edges.length) {
  for (var i=0;i<edges.length;i++) {
    if (edges[i].id.substr(0,4)=='edge') {
      edges[i].setAttribute('class','edge');
    }
  }
}
]]></script>
        <defs>
                <circle id="rim" cx="0" cy="0" r="7"/>
                <circle id="rim2" cx="0" cy="0" r="3.5"/>
                <g id="zoomPlus">
                        <use xlink:href="#rim" fill="#404040">
                                <set attributeName="fill" to="#808080" begin="zoomplus.mouseover" end="zoomplus.mouseout"/>
                        </use>
                        <path d="M-4,0h8M0,-4v8" fill="none" stroke="white" stroke-width="1.5" pointer-events="none"/>
                </g>
                <g id="zoomMin">
                        <use xlink:href="#rim" fill="#404040">
                                <set attributeName="fill" to="#808080" begin="zoomminus.mouseover" end="zoomminus.mouseout"/>
                        </use>
                        <path d="M-4,0h8" fill="none" stroke="white" stroke-width="1.5" pointer-events="none"/>
                </g>
                <g id="dirArrow">
                        <path fill="none" stroke="white" stroke-width="1.5" d="M0,-3.0v7 M-2.5,-0.5L0,-3.0L2.5,-0.5"/>
                </g>
               <g id="resetDef">
                       <use xlink:href="#rim2" fill="#404040">
                               <set attributeName="fill" to="#808080" begin="reset.mouseover" end="reset.mouseout"/>
                       </use>
               </g>
        </defs>

<script type="text/javascript">
var viewWidth = 1150;
var viewHeight = 319;
var sectionId = 'dynsection-0';
</script>
<script xlink:href="svgpan.js"/>
<svg id="graph" class="graph">
<g id="viewport">
<title>/home/etienne/Projects/avcpp/av/av.h</title>
<polygon fill="white" stroke="none" points="-4,4 -4,-315 1146,-315 1146,4 -4,4"/>
<!-- Node0 -->
<g id="node1" class="node"><title>Node0</title>
<polygon fill="#bfbfbf" stroke="black" points="322.5,-280.5 322.5,-310.5 439.5,-310.5 439.5,-280.5 322.5,-280.5"/>
<text text-anchor="start" x="330.5" y="-298.5" font-family="Helvetica,sans-Serif" font-size="10.00">/home/etienne/Projects</text>
<text text-anchor="middle" x="381" y="-287.5" font-family="Helvetica,sans-Serif" font-size="10.00">/avcpp/av/av.h</text>
</g>
<!-- Node1 -->
<g id="node2" class="node"><title>Node1</title>
<g id="a_node2"><a xlink:href="averrc_8h.html" target="_top" xlink:title="averrc.h">
<polygon fill="white" stroke="black" points="1090,-224.5 1090,-243.5 1142,-243.5 1142,-224.5 1090,-224.5"/>
<text text-anchor="middle" x="1116" y="-231.5" font-family="Helvetica,sans-Serif" font-size="10.00">averrc.h</text>
</a>
</g>
</g>
<!-- Node0&#45;&gt;Node1 -->
<g id="edge1" class="edge"><title>Node0&#45;&gt;Node1</title>
<path fill="none" stroke="midnightblue" d="M439.835,-291.878C557.914,-286.231 832.061,-271.179 1061,-244 1067.03,-243.284 1073.41,-242.378 1079.61,-241.418"/>
<polygon fill="midnightblue" stroke="midnightblue" points="1080.46,-244.827 1089.77,-239.776 1079.34,-237.916 1080.46,-244.827"/>
</g>
<!-- Node3 -->
<g id="node4" class="node"><title>Node3</title>
<g id="a_node4"><a xlink:href="codec_8h.html" target="_top" xlink:title="codec.h">
<polygon fill="white" stroke="black" points="324.5,-168.5 324.5,-187.5 375.5,-187.5 375.5,-168.5 324.5,-168.5"/>
<text text-anchor="middle" x="350" y="-175.5" font-family="Helvetica,sans-Serif" font-size="10.00">codec.h</text>
</a>
</g>
</g>
<!-- Node0&#45;&gt;Node3 -->
<g id="edge3" class="edge"><title>Node0&#45;&gt;Node3</title>
<path fill="none" stroke="midnightblue" d="M377.199,-280.337C371.613,-259.527 361.182,-220.663 354.988,-197.583"/>
<polygon fill="midnightblue" stroke="midnightblue" points="358.3,-196.42 352.327,-187.669 351.539,-198.235 358.3,-196.42"/>
</g>
<!-- Node8 -->
<g id="node9" class="node"><title>Node8</title>
<g id="a_node9"><a xlink:href="frame_8h.html" target="_top" xlink:title="frame.h">
<polygon fill="white" stroke="black" points="54,-112.5 54,-131.5 104,-131.5 104,-112.5 54,-112.5"/>
<text text-anchor="middle" x="79" y="-119.5" font-family="Helvetica,sans-Serif" font-size="10.00">frame.h</text>
</a>
</g>
</g>
<!-- Node0&#45;&gt;Node8 -->
<g id="edge23" class="edge"><title>Node0&#45;&gt;Node8</title>
<path fill="none" stroke="midnightblue" d="M356.286,-280.465C299.29,-248.099 159.222,-168.556 102.963,-136.608"/>
<polygon fill="midnightblue" stroke="midnightblue" points="104.497,-133.454 94.0731,-131.56 101.04,-139.541 104.497,-133.454"/>
</g>
<!-- Node9 -->
<g id="node10" class="node"><title>Node9</title>
<g id="a_node10"><a xlink:href="utils_8h.html" target="_top" xlink:title="utils.h">
<polygon fill="white" stroke="black" points="110.5,-56.5 110.5,-75.5 153.5,-75.5 153.5,-56.5 110.5,-56.5"/>
<text text-anchor="middle" x="132" y="-63.5" font-family="Helvetica,sans-Serif" font-size="10.00">utils.h</text>
</a>
</g>
</g>
<!-- Node0&#45;&gt;Node9 -->
<g id="edge43" class="edge"><title>Node0&#45;&gt;Node9</title>
<path fill="none" stroke="midnightblue" d="M322.396,-285.787C243.057,-270.464 104.559,-230.393 45,-132 28.8779,-105.366 69.7525,-86.0469 100.802,-75.6879"/>
<polygon fill="midnightblue" stroke="midnightblue" points="101.97,-78.9894 110.453,-72.6415 99.8633,-72.314 101.97,-78.9894"/>
</g>
<!-- Node17 -->
<g id="node18" class="node"><title>Node17</title>
<g id="a_node18"><a xlink:href="format_8h.html" target="_top" xlink:title="format.h">
<polygon fill="white" stroke="black" points="609.5,-224.5 609.5,-243.5 662.5,-243.5 662.5,-224.5 609.5,-224.5"/>
<text text-anchor="middle" x="636" y="-231.5" font-family="Helvetica,sans-Serif" font-size="10.00">format.h</text>
</a>
</g>
</g>
<!-- Node0&#45;&gt;Node17 -->
<g id="edge24" class="edge"><title>Node0&#45;&gt;Node17</title>
<path fill="none" stroke="midnightblue" d="M439.502,-280.849C488.812,-269.344 557.825,-253.241 599.577,-243.499"/>
<polygon fill="midnightblue" stroke="midnightblue" points="600.38,-246.906 609.323,-241.225 598.789,-240.089 600.38,-246.906"/>
</g>
<!-- Node23 -->
<g id="node24" class="node"><title>Node23</title>
<g id="a_node24"><a xlink:href="scale_8h.html" target="_top" xlink:title="scale.h">
<polygon fill="white" stroke="black" points="160,-112.5 160,-131.5 208,-131.5 208,-112.5 160,-112.5"/>
<text text-anchor="middle" x="184" y="-119.5" font-family="Helvetica,sans-Serif" font-size="10.00">scale.h</text>
</a>
</g>
</g>
<!-- Node0&#45;&gt;Node23 -->
<g id="edge40" class="edge"><title>Node0&#45;&gt;Node23</title>
<path fill="none" stroke="midnightblue" d="M364.879,-280.465C328.314,-248.634 239.336,-171.173 201.496,-138.231"/>
<polygon fill="midnightblue" stroke="midnightblue" points="203.673,-135.486 193.832,-131.56 199.077,-140.766 203.673,-135.486"/>
</g>
<!-- Node24 -->
<g id="node25" class="node"><title>Node24</title>
<g id="a_node25"><a xlink:href="cuesheet_8h.html" target="_top" xlink:title="cuesheet.h">
<polygon fill="white" stroke="black" points="1030.5,-112.5 1030.5,-131.5 1095.5,-131.5 1095.5,-112.5 1030.5,-112.5"/>
<text text-anchor="middle" x="1063" y="-119.5" font-family="Helvetica,sans-Serif" font-size="10.00">cuesheet.h</text>
</a>
</g>
</g>
<!-- Node0&#45;&gt;Node24 -->
<g id="edge44" class="edge"><title>Node0&#45;&gt;Node24</title>
<path fill="none" stroke="midnightblue" d="M439.752,-290.33C578.062,-279.623 919.776,-247.721 1016,-188 1033.88,-176.902 1047.03,-156.255 1054.8,-141.201"/>
<polygon fill="midnightblue" stroke="midnightblue" points="1058.12,-142.385 1059.32,-131.858 1051.81,-139.34 1058.12,-142.385"/>
</g>
<!-- Node26 -->
<g id="node27" class="node"><title>Node26</title>
<g id="a_node27"><a xlink:href="dynamicrange_8h.html" target="_top" xlink:title="dynamicrange.h">
<polygon fill="white" stroke="black" points="470,-112.5 470,-131.5 556,-131.5 556,-112.5 470,-112.5"/>
<text text-anchor="middle" x="513" y="-119.5" font-family="Helvetica,sans-Serif" font-size="10.00">dynamicrange.h</text>
</a>
</g>
</g>
<!-- Node0&#45;&gt;Node26 -->
<g id="edge48" class="edge"><title>Node0&#45;&gt;Node26</title>
<path fill="none" stroke="midnightblue" d="M391.802,-280.465C415.994,-249.035 474.425,-173.118 500.302,-139.498"/>
<polygon fill="midnightblue" stroke="midnightblue" points="503.086,-141.619 506.412,-131.56 497.539,-137.349 503.086,-141.619"/>
</g>
<!-- Node2 -->
<g id="node3" class="node"><title>Node2</title>
<polygon fill="white" stroke="#bfbfbf" points="370,-0.5 370,-19.5 444,-19.5 444,-0.5 370,-0.5"/>
<text text-anchor="middle" x="407" y="-7.5" font-family="Helvetica,sans-Serif" font-size="10.00">system_error</text>
</g>
<!-- Node1&#45;&gt;Node2 -->
<g id="edge2" class="edge"><title>Node1&#45;&gt;Node2</title>
<path fill="none" stroke="midnightblue" d="M1119.63,-224.143C1130.77,-195.42 1161,-103.95 1116,-56 1093.34,-31.8514 609.487,-16.5445 454.389,-12.2443"/>
<polygon fill="midnightblue" stroke="midnightblue" points="454.32,-8.74122 444.228,-11.9654 454.128,-15.7386 454.32,-8.74122"/>
</g>
<!-- Node3&#45;&gt;Node2 -->
<g id="edge8" class="edge"><title>Node3&#45;&gt;Node2</title>
<path fill="none" stroke="midnightblue" d="M339.01,-168.365C329.547,-160.171 316.564,-146.917 311,-132 303.865,-112.874 313.177,-65.4295 320,-56 331,-40.7985 348.681,-30.3412 365.24,-23.3625"/>
<polygon fill="midnightblue" stroke="midnightblue" points="366.748,-26.5314 374.8,-19.646 364.212,-20.007 366.748,-26.5314"/>
</g>
<!-- Node4 -->
<g id="node5" class="node"><title>Node4</title>
<polygon fill="white" stroke="#bfbfbf" points="226,-112.5 226,-131.5 264,-131.5 264,-112.5 226,-112.5"/>
<text text-anchor="middle" x="245" y="-119.5" font-family="Helvetica,sans-Serif" font-size="10.00">array</text>
</g>
<!-- Node3&#45;&gt;Node4 -->
<g id="edge4" class="edge"><title>Node3&#45;&gt;Node4</title>
<path fill="none" stroke="midnightblue" d="M333.13,-168.324C316.291,-159.664 290.193,-146.242 270.762,-136.249"/>
<polygon fill="midnightblue" stroke="midnightblue" points="272.322,-133.116 261.828,-131.655 269.12,-139.341 272.322,-133.116"/>
</g>
<!-- Node5 -->
<g id="node6" class="node"><title>Node5</title>
<polygon fill="white" stroke="#bfbfbf" points="320.5,-112.5 320.5,-131.5 379.5,-131.5 379.5,-112.5 320.5,-112.5"/>
<text text-anchor="middle" x="350" y="-119.5" font-family="Helvetica,sans-Serif" font-size="10.00">functional</text>
</g>
<!-- Node3&#45;&gt;Node5 -->
<g id="edge5" class="edge"><title>Node3&#45;&gt;Node5</title>
<path fill="none" stroke="midnightblue" d="M350,-168.083C350,-161.006 350,-150.861 350,-141.986"/>
<polygon fill="midnightblue" stroke="midnightblue" points="353.5,-141.751 350,-131.751 346.5,-141.751 353.5,-141.751"/>
</g>
<!-- Node6 -->
<g id="node7" class="node"><title>Node6</title>
<polygon fill="white" stroke="#bfbfbf" points="644,-112.5 644,-131.5 698,-131.5 698,-112.5 644,-112.5"/>
<text text-anchor="middle" x="671" y="-119.5" font-family="Helvetica,sans-Serif" font-size="10.00">iostream</text>
</g>
<!-- Node3&#45;&gt;Node6 -->
<g id="edge6" class="edge"><title>Node3&#45;&gt;Node6</title>
<path fill="none" stroke="midnightblue" d="M375.582,-173.659C425.498,-166.982 539.288,-150.99 634,-132 634.101,-131.98 634.203,-131.959 634.304,-131.939"/>
<polygon fill="midnightblue" stroke="midnightblue" points="634.947,-135.381 643.979,-129.842 633.464,-128.54 634.947,-135.381"/>
</g>
<!-- Node7 -->
<g id="node8" class="node"><title>Node7</title>
<polygon fill="white" stroke="#bfbfbf" points="0,-0.5 0,-19.5 52,-19.5 52,-0.5 0,-0.5"/>
<text text-anchor="middle" x="26" y="-7.5" font-family="Helvetica,sans-Serif" font-size="10.00">memory</text>
</g>
<!-- Node3&#45;&gt;Node7 -->
<g id="edge7" class="edge"><title>Node3&#45;&gt;Node7</title>
<path fill="none" stroke="midnightblue" d="M324.442,-174.955C254.672,-169.137 64.8193,-151.636 45,-132 17.772,-105.023 19.4671,-56.0484 22.8543,-29.4272"/>
<polygon fill="midnightblue" stroke="midnightblue" points="26.319,-29.9225 24.3301,-19.516 19.3954,-28.8915 26.319,-29.9225"/>
</g>
<!-- Node3&#45;&gt;Node8 -->
<g id="edge9" class="edge"><title>Node3&#45;&gt;Node8</title>
<path fill="none" stroke="midnightblue" d="M324.192,-172.301C281.295,-164.422 192.649,-147.848 118,-132 116.738,-131.732 115.454,-131.456 114.158,-131.174"/>
<polygon fill="midnightblue" stroke="midnightblue" points="114.669,-127.701 104.146,-128.94 113.144,-134.533 114.669,-127.701"/>
</g>
<!-- Node3&#45;&gt;Node9 -->
<g id="edge22" class="edge"><title>Node3&#45;&gt;Node9</title>
<path fill="none" stroke="midnightblue" d="M324.301,-174.419C276.366,-169.099 175.907,-155.409 151,-132 138.426,-120.183 134.025,-100.551 132.558,-85.9494"/>
<polygon fill="midnightblue" stroke="midnightblue" points="136.026,-85.3256 131.911,-75.5628 129.04,-85.7611 136.026,-85.3256"/>
</g>
<!-- Node10 -->
<g id="node11" class="node"><title>Node10</title>
<g id="a_node11"><a xlink:href="packet_8h.html" target="_top" xlink:title="packet.h">
<polygon fill="white" stroke="black" points="398,-112.5 398,-131.5 452,-131.5 452,-112.5 398,-112.5"/>
<text text-anchor="middle" x="425" y="-119.5" font-family="Helvetica,sans-Serif" font-size="10.00">packet.h</text>
</a>
</g>
</g>
<!-- Node3&#45;&gt;Node10 -->
<g id="edge14" class="edge"><title>Node3&#45;&gt;Node10</title>
<path fill="none" stroke="midnightblue" d="M362.05,-168.324C373.463,-160.107 390.831,-147.602 404.435,-137.807"/>
<polygon fill="midnightblue" stroke="midnightblue" points="406.66,-140.517 412.731,-131.834 402.57,-134.837 406.66,-140.517"/>
</g>
<!-- Node13 -->
<g id="node14" class="node"><title>Node13</title>
<g id="a_node14"><a xlink:href="option_8h.html" target="_top" xlink:title="option.h">
<polygon fill="white" stroke="black" points="574.5,-112.5 574.5,-131.5 625.5,-131.5 625.5,-112.5 574.5,-112.5"/>
<text text-anchor="middle" x="600" y="-119.5" font-family="Helvetica,sans-Serif" font-size="10.00">option.h</text>
</a>
</g>
</g>
<!-- Node3&#45;&gt;Node13 -->
<g id="edge18" class="edge"><title>Node3&#45;&gt;Node13</title>
<path fill="none" stroke="midnightblue" d="M375.567,-172.039C414.198,-164.459 489.97,-149.265 564.404,-132.051"/>
<polygon fill="midnightblue" stroke="midnightblue" points="565.472,-135.396 574.419,-129.721 563.886,-128.578 565.472,-135.396"/>
</g>
<!-- Node8&#45;&gt;Node2 -->
<g id="edge10" class="edge"><title>Node8&#45;&gt;Node2</title>
<path fill="none" stroke="midnightblue" d="M79.2183,-112.262C80.0806,-98.0755 83.9837,-70.1943 101,-56 139.348,-24.0118 283.509,-14.7513 359.478,-12.0786"/>
<polygon fill="midnightblue" stroke="midnightblue" points="359.847,-15.5685 369.727,-11.7435 359.618,-8.57225 359.847,-15.5685"/>
</g>
<!-- Node8&#45;&gt;Node9 -->
<g id="edge11" class="edge"><title>Node8&#45;&gt;Node9</title>
<path fill="none" stroke="midnightblue" d="M87.7519,-112.083C95.4697,-104.22 106.905,-92.5688 116.217,-83.0813"/>
<polygon fill="midnightblue" stroke="midnightblue" points="118.904,-85.3396 123.411,-75.7511 113.908,-80.4363 118.904,-85.3396"/>
</g>
<!-- Node9&#45;&gt;Node2 -->
<g id="edge13" class="edge"><title>Node9&#45;&gt;Node2</title>
<path fill="none" stroke="midnightblue" d="M153.579,-60.7627C197.746,-52.0899 299.359,-32.1368 359.642,-20.2993"/>
<polygon fill="midnightblue" stroke="midnightblue" points="360.533,-23.6914 369.671,-18.3301 359.184,-16.8226 360.533,-23.6914"/>
</g>
<!-- Node9&#45;&gt;Node7 -->
<g id="edge12" class="edge"><title>Node9&#45;&gt;Node7</title>
<path fill="none" stroke="midnightblue" d="M114.969,-56.324C97.9702,-47.6641 71.6239,-34.2424 52.0074,-24.249"/>
<polygon fill="midnightblue" stroke="midnightblue" points="53.4876,-21.0752 42.9885,-19.6545 50.3101,-27.3125 53.4876,-21.0752"/>
</g>
<!-- Node10&#45;&gt;Node2 -->
<g id="edge17" class="edge"><title>Node10&#45;&gt;Node2</title>
<path fill="none" stroke="midnightblue" d="M423.588,-112.368C420.683,-94.617 413.982,-53.6664 410.043,-29.5974"/>
<polygon fill="midnightblue" stroke="midnightblue" points="413.475,-28.8949 408.406,-19.5914 406.567,-30.0254 413.475,-28.8949"/>
</g>
<!-- Node11 -->
<g id="node12" class="node"><title>Node11</title>
<polygon fill="white" stroke="#bfbfbf" points="435.5,-56.5 435.5,-75.5 484.5,-75.5 484.5,-56.5 435.5,-56.5"/>
<text text-anchor="middle" x="460" y="-63.5" font-family="Helvetica,sans-Serif" font-size="10.00">cstddef</text>
</g>
<!-- Node10&#45;&gt;Node11 -->
<g id="edge15" class="edge"><title>Node10&#45;&gt;Node11</title>
<path fill="none" stroke="midnightblue" d="M430.78,-112.083C435.672,-104.534 442.827,-93.4948 448.833,-84.2298"/>
<polygon fill="midnightblue" stroke="midnightblue" points="451.826,-86.0463 454.328,-75.7511 445.952,-82.239 451.826,-86.0463"/>
</g>
<!-- Node12 -->
<g id="node13" class="node"><title>Node12</title>
<polygon fill="white" stroke="#bfbfbf" points="329.5,-56.5 329.5,-75.5 378.5,-75.5 378.5,-56.5 329.5,-56.5"/>
<text text-anchor="middle" x="354" y="-63.5" font-family="Helvetica,sans-Serif" font-size="10.00">stdint.h</text>
</g>
<!-- Node10&#45;&gt;Node12 -->
<g id="edge16" class="edge"><title>Node10&#45;&gt;Node12</title>
<path fill="none" stroke="midnightblue" d="M413.593,-112.324C402.891,-104.185 386.659,-91.8395 373.837,-82.0874"/>
<polygon fill="midnightblue" stroke="midnightblue" points="375.693,-79.1018 365.615,-75.8339 371.456,-84.6734 375.693,-79.1018"/>
</g>
<!-- Node14 -->
<g id="node15" class="node"><title>Node14</title>
<polygon fill="white" stroke="#bfbfbf" points="829.5,-56.5 829.5,-75.5 870.5,-75.5 870.5,-56.5 829.5,-56.5"/>
<text text-anchor="middle" x="850" y="-63.5" font-family="Helvetica,sans-Serif" font-size="10.00">string</text>
</g>
<!-- Node13&#45;&gt;Node14 -->
<g id="edge19" class="edge"><title>Node13&#45;&gt;Node14</title>
<path fill="none" stroke="midnightblue" d="M625.581,-114.279C628.748,-113.489 631.945,-112.712 635,-112 700.427,-96.7492 777.619,-81.1785 819.402,-72.9501"/>
<polygon fill="midnightblue" stroke="midnightblue" points="820.338,-76.3332 829.477,-70.9732 818.99,-69.4641 820.338,-76.3332"/>
</g>
<!-- Node15 -->
<g id="node16" class="node"><title>Node15</title>
<polygon fill="white" stroke="#bfbfbf" points="904,-56.5 904,-75.5 948,-75.5 948,-56.5 904,-56.5"/>
<text text-anchor="middle" x="926" y="-63.5" font-family="Helvetica,sans-Serif" font-size="10.00">vector</text>
</g>
<!-- Node13&#45;&gt;Node15 -->
<g id="edge20" class="edge"><title>Node13&#45;&gt;Node15</title>
<path fill="none" stroke="midnightblue" d="M625.543,-114.101C628.716,-113.342 631.925,-112.62 635,-112 742.453,-90.3203 770.922,-94.3123 879,-76 883.766,-75.1924 888.794,-74.287 893.718,-73.3699"/>
<polygon fill="midnightblue" stroke="midnightblue" points="894.392,-76.8045 903.563,-71.4988 893.085,-69.9276 894.392,-76.8045"/>
</g>
<!-- Node16 -->
<g id="node17" class="node"><title>Node16</title>
<polygon fill="white" stroke="#bfbfbf" points="570.5,-56.5 570.5,-75.5 629.5,-75.5 629.5,-56.5 570.5,-56.5"/>
<text text-anchor="middle" x="600" y="-63.5" font-family="Helvetica,sans-Serif" font-size="10.00">stdexcept</text>
</g>
<!-- Node13&#45;&gt;Node16 -->
<g id="edge21" class="edge"><title>Node13&#45;&gt;Node16</title>
<path fill="none" stroke="midnightblue" d="M600,-112.083C600,-105.006 600,-94.8611 600,-85.9865"/>
<polygon fill="midnightblue" stroke="midnightblue" points="603.5,-85.751 600,-75.7511 596.5,-85.7511 603.5,-85.751"/>
</g>
<!-- Node17&#45;&gt;Node2 -->
<g id="edge30" class="edge"><title>Node17&#45;&gt;Node2</title>
<path fill="none" stroke="midnightblue" d="M662.636,-231.32C737.38,-226.337 944.947,-210.573 965,-188 1004.04,-144.06 1000.14,-95.9138 957,-56 920.49,-22.2229 581.305,-13.6338 454.517,-11.5945"/>
<polygon fill="midnightblue" stroke="midnightblue" points="454.392,-8.09226 444.339,-11.4376 454.284,-15.0914 454.392,-8.09226"/>
</g>
<!-- Node17&#45;&gt;Node3 -->
<g id="edge32" class="edge"><title>Node17&#45;&gt;Node3</title>
<path fill="none" stroke="midnightblue" d="M609.351,-227.968C557.678,-218.212 443.847,-196.719 385.704,-185.741"/>
<polygon fill="midnightblue" stroke="midnightblue" points="386.335,-182.299 375.859,-183.882 385.036,-189.177 386.335,-182.299"/>
</g>
<!-- Node17&#45;&gt;Node5 -->
<g id="edge26" class="edge"><title>Node17&#45;&gt;Node5</title>
<path fill="none" stroke="midnightblue" d="M630.853,-224.187C622.005,-209.893 602.479,-181.861 578,-168 506.28,-127.388 474.967,-147.987 389.616,-131.96"/>
<polygon fill="midnightblue" stroke="midnightblue" points="390.276,-128.523 379.784,-129.998 388.906,-135.387 390.276,-128.523"/>
</g>
<!-- Node17&#45;&gt;Node7 -->
<g id="edge28" class="edge"><title>Node17&#45;&gt;Node7</title>
<path fill="none" stroke="midnightblue" d="M609.345,-232.53C503.103,-230.084 111.564,-215.459 28,-132 1.08527,-105.119 11.2408,-55.7373 19.4936,-29.1276"/>
<polygon fill="midnightblue" stroke="midnightblue" points="22.8462,-30.1379 22.6946,-19.5442 16.2068,-27.9203 22.8462,-30.1379"/>
</g>
<!-- Node17&#45;&gt;Node10 -->
<g id="edge33" class="edge"><title>Node17&#45;&gt;Node10</title>
<path fill="none" stroke="midnightblue" d="M635.353,-224.408C633.824,-210.432 628.739,-182.847 612,-168 562.704,-124.276 530.969,-146.163 462.09,-132.054"/>
<polygon fill="midnightblue" stroke="midnightblue" points="462.643,-128.591 452.119,-129.813 461.108,-135.421 462.643,-128.591"/>
</g>
<!-- Node17&#45;&gt;Node14 -->
<g id="edge29" class="edge"><title>Node17&#45;&gt;Node14</title>
<path fill="none" stroke="midnightblue" d="M662.525,-230.72C697.187,-226.706 758.681,-215.952 803,-188 830.727,-170.513 839.627,-162.744 851,-132 856.506,-117.115 855.662,-98.9693 853.782,-85.637"/>
<polygon fill="midnightblue" stroke="midnightblue" points="857.225,-85.0066 852.076,-75.7471 850.326,-86.1966 857.225,-85.0066"/>
</g>
<!-- Node17&#45;&gt;Node15 -->
<g id="edge31" class="edge"><title>Node17&#45;&gt;Node15</title>
<path fill="none" stroke="midnightblue" d="M662.578,-233.354C730.647,-233.636 908.472,-230.233 945,-188 970.175,-158.893 950.26,-110.469 936.425,-84.5856"/>
<polygon fill="midnightblue" stroke="midnightblue" points="939.308,-82.5705 931.357,-75.5678 933.205,-86.0001 939.308,-82.5705"/>
</g>
<!-- Node18 -->
<g id="node19" class="node"><title>Node18</title>
<polygon fill="white" stroke="#bfbfbf" points="880,-168.5 880,-187.5 936,-187.5 936,-168.5 880,-168.5"/>
<text text-anchor="middle" x="908" y="-175.5" font-family="Helvetica,sans-Serif" font-size="10.00">algorithm</text>
</g>
<!-- Node17&#45;&gt;Node18 -->
<g id="edge25" class="edge"><title>Node17&#45;&gt;Node18</title>
<path fill="none" stroke="midnightblue" d="M662.593,-227.957C705.456,-219.793 792.46,-203.072 866,-188 867.233,-187.747 868.486,-187.489 869.75,-187.226"/>
<polygon fill="midnightblue" stroke="midnightblue" points="870.481,-190.649 879.548,-185.169 869.042,-183.799 870.481,-190.649"/>
</g>
<!-- Node19 -->
<g id="node20" class="node"><title>Node19</title>
<polygon fill="white" stroke="#bfbfbf" points="522.5,-168.5 522.5,-187.5 569.5,-187.5 569.5,-168.5 522.5,-168.5"/>
<text text-anchor="middle" x="546" y="-175.5" font-family="Helvetica,sans-Serif" font-size="10.00">iterator</text>
</g>
<!-- Node17&#45;&gt;Node19 -->
<g id="edge27" class="edge"><title>Node17&#45;&gt;Node19</title>
<path fill="none" stroke="midnightblue" d="M621.54,-224.324C607.5,-215.9 585.952,-202.971 569.457,-193.074"/>
<polygon fill="midnightblue" stroke="midnightblue" points="570.8,-189.798 560.424,-187.655 567.198,-195.801 570.8,-189.798"/>
</g>
<!-- Node20 -->
<g id="node21" class="node"><title>Node20</title>
<g id="a_node21"><a xlink:href="metadata_8h.html" target="_top" xlink:title="metadata.h">
<polygon fill="white" stroke="black" points="729.5,-168.5 729.5,-187.5 794.5,-187.5 794.5,-168.5 729.5,-168.5"/>
<text text-anchor="middle" x="762" y="-175.5" font-family="Helvetica,sans-Serif" font-size="10.00">metadata.h</text>
</a>
</g>
</g>
<!-- Node17&#45;&gt;Node20 -->
<g id="edge34" class="edge"><title>Node17&#45;&gt;Node20</title>
<path fill="none" stroke="midnightblue" d="M655.965,-224.444C676.609,-215.596 709.063,-201.687 732.632,-191.586"/>
<polygon fill="midnightblue" stroke="midnightblue" points="734.316,-194.673 742.128,-187.516 731.558,-188.239 734.316,-194.673"/>
</g>
<!-- Node20&#45;&gt;Node6 -->
<g id="edge36" class="edge"><title>Node20&#45;&gt;Node6</title>
<path fill="none" stroke="midnightblue" d="M747.379,-168.324C733.051,-159.822 710.987,-146.729 694.251,-136.797"/>
<polygon fill="midnightblue" stroke="midnightblue" points="695.97,-133.748 685.584,-131.655 692.398,-139.768 695.97,-133.748"/>
</g>
<!-- Node20&#45;&gt;Node14 -->
<g id="edge37" class="edge"><title>Node20&#45;&gt;Node14</title>
<path fill="none" stroke="midnightblue" d="M782.695,-168.347C798.144,-160.876 818.638,-148.65 831,-132 840.965,-118.578 845.722,-100.014 847.982,-86.16"/>
<polygon fill="midnightblue" stroke="midnightblue" points="851.504,-86.2211 849.352,-75.8471 844.565,-85.2988 851.504,-86.2211"/>
</g>
<!-- Node20&#45;&gt;Node15 -->
<g id="edge39" class="edge"><title>Node20&#45;&gt;Node15</title>
<path fill="none" stroke="midnightblue" d="M782.223,-168.497C800.79,-160.298 828.717,-146.956 851,-132 872.97,-117.255 895.569,-96.8108 910.137,-82.8107"/>
<polygon fill="midnightblue" stroke="midnightblue" points="912.637,-85.262 917.35,-75.773 907.748,-80.2519 912.637,-85.262"/>
</g>
<!-- Node21 -->
<g id="node22" class="node"><title>Node21</title>
<polygon fill="white" stroke="#bfbfbf" points="716.5,-112.5 716.5,-131.5 751.5,-131.5 751.5,-112.5 716.5,-112.5"/>
<text text-anchor="middle" x="734" y="-119.5" font-family="Helvetica,sans-Serif" font-size="10.00">map</text>
</g>
<!-- Node20&#45;&gt;Node21 -->
<g id="edge35" class="edge"><title>Node20&#45;&gt;Node21</title>
<path fill="none" stroke="midnightblue" d="M757.376,-168.083C753.544,-160.691 747.976,-149.953 743.235,-140.811"/>
<polygon fill="midnightblue" stroke="midnightblue" points="746.248,-139.018 738.538,-131.751 740.034,-142.24 746.248,-139.018"/>
</g>
<!-- Node22 -->
<g id="node23" class="node"><title>Node22</title>
<polygon fill="white" stroke="#bfbfbf" points="770,-112.5 770,-131.5 822,-131.5 822,-112.5 770,-112.5"/>
<text text-anchor="middle" x="796" y="-119.5" font-family="Helvetica,sans-Serif" font-size="10.00">sstream</text>
</g>
<!-- Node20&#45;&gt;Node22 -->
<g id="edge38" class="edge"><title>Node20&#45;&gt;Node22</title>
<path fill="none" stroke="midnightblue" d="M767.614,-168.083C772.367,-160.534 779.318,-149.495 785.152,-140.23"/>
<polygon fill="midnightblue" stroke="midnightblue" points="788.124,-142.078 790.49,-131.751 782.2,-138.349 788.124,-142.078"/>
</g>
<!-- Node23&#45;&gt;Node2 -->
<g id="edge41" class="edge"><title>Node23&#45;&gt;Node2</title>
<path fill="none" stroke="midnightblue" d="M194.401,-112.393C211.134,-98.8851 245.456,-72.5441 278,-56 305.906,-41.8136 339.325,-30.2942 365.156,-22.4625"/>
<polygon fill="midnightblue" stroke="midnightblue" points="366.418,-25.739 375.01,-19.541 364.428,-19.0277 366.418,-25.739"/>
</g>
<!-- Node23&#45;&gt;Node9 -->
<g id="edge42" class="edge"><title>Node23&#45;&gt;Node9</title>
<path fill="none" stroke="midnightblue" d="M175.413,-112.083C167.841,-104.22 156.622,-92.5688 147.486,-83.0813"/>
<polygon fill="midnightblue" stroke="midnightblue" points="149.885,-80.5266 140.427,-75.7511 144.842,-85.3821 149.885,-80.5266"/>
</g>
<!-- Node24&#45;&gt;Node2 -->
<g id="edge46" class="edge"><title>Node24&#45;&gt;Node2</title>
<path fill="none" stroke="midnightblue" d="M1058.29,-112.343C1049.82,-97.743 1030.49,-68.5892 1005,-56 956.146,-31.8759 587.346,-17.1159 454.504,-12.5361"/>
<polygon fill="midnightblue" stroke="midnightblue" points="454.355,-9.02907 444.242,-12.1864 454.117,-16.025 454.355,-9.02907"/>
</g>
<!-- Node24&#45;&gt;Node15 -->
<g id="edge47" class="edge"><title>Node24&#45;&gt;Node15</title>
<path fill="none" stroke="midnightblue" d="M1041.29,-112.444C1018.65,-103.517 982.928,-89.4387 957.248,-79.3168"/>
<polygon fill="midnightblue" stroke="midnightblue" points="958.193,-75.9273 947.606,-75.5164 955.626,-82.4397 958.193,-75.9273"/>
</g>
<!-- Node25 -->
<g id="node26" class="node"><title>Node25</title>
<polygon fill="white" stroke="#bfbfbf" points="1057.5,-56.5 1057.5,-75.5 1106.5,-75.5 1106.5,-56.5 1057.5,-56.5"/>
<text text-anchor="middle" x="1082" y="-63.5" font-family="Helvetica,sans-Serif" font-size="10.00">istream</text>
</g>
<!-- Node24&#45;&gt;Node25 -->
<g id="edge45" class="edge"><title>Node24&#45;&gt;Node25</title>
<path fill="none" stroke="midnightblue" d="M1066.14,-112.083C1068.68,-104.849 1072.36,-94.4087 1075.53,-85.3968"/>
<polygon fill="midnightblue" stroke="midnightblue" points="1078.9,-86.3459 1078.92,-75.7511 1072.3,-84.0225 1078.9,-86.3459"/>
</g>
<!-- Node26&#45;&gt;Node2 -->
<g id="edge49" class="edge"><title>Node26&#45;&gt;Node2</title>
<path fill="none" stroke="midnightblue" d="M512.44,-112.432C511.145,-98.9757 506.889,-72.705 493,-56 480.662,-41.1606 462.152,-30.5925 445.461,-23.4438"/>
<polygon fill="midnightblue" stroke="midnightblue" points="446.49,-20.0856 435.905,-19.6235 443.891,-26.5854 446.49,-20.0856"/>
</g>
<!-- Node26&#45;&gt;Node9 -->
<g id="edge50" class="edge"><title>Node26&#45;&gt;Node9</title>
<path fill="none" stroke="midnightblue" d="M469.889,-113.417C466.883,-112.926 463.897,-112.449 461,-112 352.126,-95.1378 222.46,-78.3739 163.717,-70.9583"/>
<polygon fill="midnightblue" stroke="midnightblue" points="163.954,-67.4606 153.595,-69.6845 163.08,-74.4058 163.954,-67.4606"/>
</g>
</g>
</svg>
        <g id="navigator" transform="translate(0 0)" fill="#404254">
                <rect fill="#f2f5e9" fill-opacity="0.5" stroke="#606060" stroke-width=".5" x="0" y="0" width="60" height="60"/>
                <use id="zoomplus" xlink:href="#zoomPlus" x="17" y="9" onmousedown="handleZoom(evt,'in')"/>
                <use id="zoomminus" xlink:href="#zoomMin" x="42" y="9" onmousedown="handleZoom(evt,'out')"/>
                <use id="reset" xlink:href="#resetDef" x="30" y="36" onmousedown="handleReset()"/>
                <g id="arrowUp" xlink:href="#dirArrow" transform="translate(30 24)" onmousedown="handlePan(0,-1)">
                  <use xlink:href="#rim" fill="#404040">
                        <set attributeName="fill" to="#808080" begin="arrowUp.mouseover" end="arrowUp.mouseout"/>
                  </use>
                  <path fill="none" stroke="white" stroke-width="1.5" d="M0,-3.0v7 M-2.5,-0.5L0,-3.0L2.5,-0.5"/>
                </g>
                <g id="arrowRight" xlink:href="#dirArrow" transform="rotate(90) translate(36 -43)" onmousedown="handlePan(1,0)">
                  <use xlink:href="#rim" fill="#404040">
                        <set attributeName="fill" to="#808080" begin="arrowRight.mouseover" end="arrowRight.mouseout"/>
                  </use>
                  <path fill="none" stroke="white" stroke-width="1.5" d="M0,-3.0v7 M-2.5,-0.5L0,-3.0L2.5,-0.5"/>
                </g>
                <g id="arrowDown" xlink:href="#dirArrow" transform="rotate(180) translate(-30 -48)" onmousedown="handlePan(0,1)">
                  <use xlink:href="#rim" fill="#404040">
                        <set attributeName="fill" to="#808080" begin="arrowDown.mouseover" end="arrowDown.mouseout"/>
                  </use>
                  <path fill="none" stroke="white" stroke-width="1.5" d="M0,-3.0v7 M-2.5,-0.5L0,-3.0L2.5,-0.5"/>
                </g>
                <g id="arrowLeft" xlink:href="#dirArrow" transform="rotate(270) translate(-36 17)" onmousedown="handlePan(-1,0)">
                  <use xlink:href="#rim" fill="#404040">
                        <set attributeName="fill" to="#808080" begin="arrowLeft.mouseover" end="arrowLeft.mouseout"/>
                  </use>
                  <path fill="none" stroke="white" stroke-width="1.5" d="M0,-3.0v7 M-2.5,-0.5L0,-3.0L2.5,-0.5"/>
                </g>
        </g>
        <svg viewBox="0 0 15 15" width="100%" height="30px" preserveAspectRatio="xMaxYMin meet">
         <g id="arrow_out" transform="scale(0.3 0.3)">
          <a xlink:href="av_8h__incl_org.svg" target="_base">
           <rect id="button" ry="5" rx="5" y="6" x="6" height="38" width="38"
                fill="#f2f5e9" fill-opacity="0.5" stroke="#606060" stroke-width="1.0"/>
           <path id="arrow"
             d="M 11.500037,31.436501 C 11.940474,20.09759 22.043105,11.32322 32.158766,21.979434 L 37.068811,17.246167 C 37.068811,17.246167 37.088388,32 37.088388,32 L 22.160133,31.978069 C 22.160133,31.978069 26.997745,27.140456 26.997745,27.140456 C 18.528582,18.264221 13.291696,25.230495 11.500037,31.436501 z"
             style="fill:#404040;"/>
          </a>
         </g>
        </svg>
</svg>
