<?xml version="1.0" encoding="UTF-8" standalone="no"?>
<!DOCTYPE svg PUBLIC "-//W3C//DTD SVG 1.1//EN"
 "http://www.w3.org/Graphics/SVG/1.1/DTD/svg11.dtd">
<!-- Generated by graphviz version 2.40.1 (20161225.0304)
 -->
<!-- Title: /home/etienne/Projects/avcpp/av/av.h Pages: 1 -->
<!--zoomable 319 -->
<svg id="main" version="1.1" xmlns="http://www.w3.org/2000/svg" xmlns:xlink="http://www.w3.org/1999/xlink" xml:space="preserve" onload="init(evt)">
<style type="text/css"><![CDATA[
.edge:hover path { stroke: red; }
.edge:hover polygon { stroke: red; fill: red; }
]]></style>
<script type="text/javascript"><![CDATA[
var edges = document.getElementsByTagName('g');
if (edges && edges.length) {
  for (var i=0;i<edges.length;i++) {
    if (edges[i].id.substr(0,4)=='edge') {
      edges[i].setAttribute('class','edge');
    }
  }
}
]]></script>
        <defs>
                <circle id="rim" cx="0" cy="0" r="7"/>
                <circle id="rim2" cx="0" cy="0" r="3.5"/>
                <g id="zoomPlus">
                        <use xlink:href="#rim" fill="#404040">
                                <set attributeName="fill" to="#808080" begin="zoomplus.mouseover" end="zoomplus.mouseout"/>
                        </use>
                        <path d="M-4,0h8M0,-4v8" fill="none" stroke="white" stroke-width="1.5" pointer-events="none"/>
                </g>
                <g id="zoomMin">
                        <use xlink:href="#rim" fill="#404040">
                                <set attributeName="fill" to="#808080" begin="zoomminus.mouseover" end="zoomminus.mouseout"/>
                        </use>
                        <path d="M-4,0h8" fill="none" stroke="white" stroke-width="1.5" pointer-events="none"/>
                </g>
                <g id="dirArrow">
                        <path fill="none" stroke="white" stroke-width="1.5" d="M0,-3.0v7 M-2.5,-0.5L0,-3.0L2.5,-0.5"/>
                </g>
               <g id="resetDef">
                       <use xlink:href="#rim2" fill="#404040">
                               <set attributeName="fill" to="#808080" begin="reset.mouseover" end="reset.mouseout"/>
                       </use>
               </g>
        </defs>

<script type="text/javascript">
var viewWidth = 1329;
var viewHeight = 319;
var sectionId = 'dynsection-0';
</script>
<script xlink:href="svgpan.js"/>
<svg id="graph" class="graph">
<g id="viewport">
<title>/home/etienne/Projects/avcpp/av/av.h</title>
<polygon fill="#ffffff" stroke="transparent" points="-4,4 -4,-315 1324.5,-315 1324.5,4 -4,4"/>
<!-- Node0 -->
<g id="node1" class="node">
<title>Node0</title>
<polygon fill="#bfbfbf" stroke="#000000" points="228.5,-280.5 228.5,-310.5 357.5,-310.5 357.5,-280.5 228.5,-280.5"/>
<text text-anchor="start" x="236.5" y="-298.5" font-family="Helvetica,sans-Serif" font-size="10.00" fill="#000000">/home/etienne/Projects</text>
<text text-anchor="middle" x="293" y="-287.5" font-family="Helvetica,sans-Serif" font-size="10.00" fill="#000000">/avcpp/av/av.h</text>
</g>
<!-- Node1 -->
<g id="node2" class="node">
<title>Node1</title>
<g id="a_node2"><a xlink:href="averrc_8h.html" target="_top" xlink:title="averrc.h">
<polygon fill="#ffffff" stroke="#000000" points="0,-224.5 0,-243.5 56,-243.5 56,-224.5 0,-224.5"/>
<text text-anchor="middle" x="28" y="-231.5" font-family="Helvetica,sans-Serif" font-size="10.00" fill="#000000">averrc.h</text>
</a>
</g>
</g>
<!-- Node0&#45;&gt;Node1 -->
<g id="edge1" class="edge">
<title>Node0&#45;&gt;Node1</title>
<path fill="none" stroke="#191970" d="M228.1737,-280.4554C177.3549,-268.6616 108.381,-252.6545 66.0958,-242.8411"/>
<polygon fill="#191970" stroke="#191970" points="66.7381,-239.3972 56.2057,-240.5458 65.1555,-246.216 66.7381,-239.3972"/>
</g>
<!-- Node3 -->
<g id="node4" class="node">
<title>Node3</title>
<g id="a_node4"><a xlink:href="codec_8h.html" target="_top" xlink:title="codec.h">
<polygon fill="#ffffff" stroke="#000000" points="496,-168.5 496,-187.5 550,-187.5 550,-168.5 496,-168.5"/>
<text text-anchor="middle" x="523" y="-175.5" font-family="Helvetica,sans-Serif" font-size="10.00" fill="#000000">codec.h</text>
</a>
</g>
</g>
<!-- Node0&#45;&gt;Node3 -->
<g id="edge3" class="edge">
<title>Node0&#45;&gt;Node3</title>
<path fill="none" stroke="#191970" d="M322.5976,-280.3795C367.3587,-257.5124 451.6651,-214.4428 495.2862,-192.1581"/>
<polygon fill="#191970" stroke="#191970" points="496.8866,-195.2709 504.1995,-187.6046 493.7019,-189.0372 496.8866,-195.2709"/>
</g>
<!-- Node8 -->
<g id="node9" class="node">
<title>Node8</title>
<g id="a_node9"><a xlink:href="frame_8h.html" target="_top" xlink:title="frame.h">
<polygon fill="#ffffff" stroke="#000000" points="265.5,-112.5 265.5,-131.5 320.5,-131.5 320.5,-112.5 265.5,-112.5"/>
<text text-anchor="middle" x="293" y="-119.5" font-family="Helvetica,sans-Serif" font-size="10.00" fill="#000000">frame.h</text>
</a>
</g>
</g>
<!-- Node0&#45;&gt;Node8 -->
<g id="edge23" class="edge">
<title>Node0&#45;&gt;Node8</title>
<path fill="none" stroke="#191970" d="M293,-280.4065C293,-249.1485 293,-177.3214 293,-142.1492"/>
<polygon fill="#191970" stroke="#191970" points="296.5001,-141.738 293,-131.738 289.5001,-141.738 296.5001,-141.738"/>
</g>
<!-- Node9 -->
<g id="node10" class="node">
<title>Node9</title>
<g id="a_node10"><a xlink:href="utils_8h.html" target="_top" xlink:title="utils.h">
<polygon fill="#ffffff" stroke="#000000" points="303.5,-56.5 303.5,-75.5 350.5,-75.5 350.5,-56.5 303.5,-56.5"/>
<text text-anchor="middle" x="327" y="-63.5" font-family="Helvetica,sans-Serif" font-size="10.00" fill="#000000">utils.h</text>
</a>
</g>
</g>
<!-- Node0&#45;&gt;Node9 -->
<g id="edge43" class="edge">
<title>Node0&#45;&gt;Node9</title>
<path fill="none" stroke="#191970" d="M297.4534,-280.2491C300.3591,-270.0378 304.131,-256.2701 307,-244 318.55,-194.6033 324.088,-182.4906 329,-132 329.8607,-123.1529 329.1931,-120.8868 329,-112 328.8114,-103.3189 328.4227,-93.7229 328.0378,-85.5513"/>
<polygon fill="#191970" stroke="#191970" points="331.5308,-85.3229 327.5343,-75.5108 324.5396,-85.6736 331.5308,-85.3229"/>
</g>
<!-- Node17 -->
<g id="node18" class="node">
<title>Node17</title>
<g id="a_node18"><a xlink:href="format_8h.html" target="_top" xlink:title="format.h">
<polygon fill="#ffffff" stroke="#000000" points="767.5,-224.5 767.5,-243.5 826.5,-243.5 826.5,-224.5 767.5,-224.5"/>
<text text-anchor="middle" x="797" y="-231.5" font-family="Helvetica,sans-Serif" font-size="10.00" fill="#000000">format.h</text>
</a>
</g>
</g>
<!-- Node0&#45;&gt;Node17 -->
<g id="edge24" class="edge">
<title>Node0&#45;&gt;Node17</title>
<path fill="none" stroke="#191970" d="M357.6004,-287.6172C463.3993,-274.7072 670.5114,-249.4346 757.2746,-238.8474"/>
<polygon fill="#191970" stroke="#191970" points="757.7416,-242.3165 767.244,-237.6309 756.8937,-235.3681 757.7416,-242.3165"/>
</g>
<!-- Node23 -->
<g id="node24" class="node">
<title>Node23</title>
<g id="a_node24"><a xlink:href="scale_8h.html" target="_top" xlink:title="scale.h">
<polygon fill="#ffffff" stroke="#000000" points="44.5,-112.5 44.5,-131.5 95.5,-131.5 95.5,-112.5 44.5,-112.5"/>
<text text-anchor="middle" x="70" y="-119.5" font-family="Helvetica,sans-Serif" font-size="10.00" fill="#000000">scale.h</text>
</a>
</g>
</g>
<!-- Node0&#45;&gt;Node23 -->
<g id="edge40" class="edge">
<title>Node0&#45;&gt;Node23</title>
<path fill="none" stroke="#191970" d="M273.6003,-280.4065C231.6658,-247.7803 132.9228,-170.9557 90.2406,-137.7477"/>
<polygon fill="#191970" stroke="#191970" points="92.2959,-134.9123 82.2541,-131.534 87.9975,-140.4371 92.2959,-134.9123"/>
</g>
<!-- Node24 -->
<g id="node25" class="node">
<title>Node24</title>
<g id="a_node25"><a xlink:href="dynamicrange_8h.html" target="_top" xlink:title="dynamicrange.h">
<polygon fill="#ffffff" stroke="#000000" points="113.5,-112.5 113.5,-131.5 208.5,-131.5 208.5,-112.5 113.5,-112.5"/>
<text text-anchor="middle" x="161" y="-119.5" font-family="Helvetica,sans-Serif" font-size="10.00" fill="#000000">dynamicrange.h</text>
</a>
</g>
</g>
<!-- Node0&#45;&gt;Node24 -->
<g id="edge44" class="edge">
<title>Node0&#45;&gt;Node24</title>
<path fill="none" stroke="#191970" d="M281.5168,-280.4065C257.2185,-248.469 200.6984,-174.1793 174.6246,-139.9081"/>
<polygon fill="#191970" stroke="#191970" points="177.2492,-137.5773 168.4087,-131.738 171.6782,-141.8158 177.2492,-137.5773"/>
</g>
<!-- Node2 -->
<g id="node3" class="node">
<title>Node2</title>
<polygon fill="#ffffff" stroke="#bfbfbf" points="215.5,-.5 215.5,-19.5 296.5,-19.5 296.5,-.5 215.5,-.5"/>
<text text-anchor="middle" x="256" y="-7.5" font-family="Helvetica,sans-Serif" font-size="10.00" fill="#000000">system_error</text>
</g>
<!-- Node1&#45;&gt;Node2 -->
<g id="edge2" class="edge">
<title>Node1&#45;&gt;Node2</title>
<path fill="none" stroke="#191970" d="M25.5747,-224.4522C20.5819,-202.4957 11.488,-147.5754 35,-112 73.1165,-54.327 152.7669,-28.7108 205.3021,-17.7323"/>
<polygon fill="#191970" stroke="#191970" points="206.298,-21.1031 215.4273,-15.7266 204.9377,-14.2365 206.298,-21.1031"/>
</g>
<!-- Node3&#45;&gt;Node2 -->
<g id="edge8" class="edge">
<title>Node3&#45;&gt;Node2</title>
<path fill="none" stroke="#191970" d="M495.8411,-172.537C470.3482,-166.2892 432.3019,-153.9643 406,-132 375.5163,-106.5436 388.8977,-82.1422 359,-56 342.0996,-41.2225 319.682,-30.4557 300.077,-23.0709"/>
<polygon fill="#191970" stroke="#191970" points="301.0158,-19.6895 290.4213,-19.6145 298.6566,-26.28 301.0158,-19.6895"/>
</g>
<!-- Node4 -->
<g id="node5" class="node">
<title>Node4</title>
<polygon fill="#ffffff" stroke="#bfbfbf" points="415,-112.5 415,-131.5 457,-131.5 457,-112.5 415,-112.5"/>
<text text-anchor="middle" x="436" y="-119.5" font-family="Helvetica,sans-Serif" font-size="10.00" fill="#000000">array</text>
</g>
<!-- Node3&#45;&gt;Node4 -->
<g id="edge4" class="edge">
<title>Node3&#45;&gt;Node4</title>
<path fill="none" stroke="#191970" d="M507.8458,-168.2455C494.4973,-159.6534 474.8414,-147.0014 459.4617,-137.1018"/>
<polygon fill="#191970" stroke="#191970" points="461.2836,-134.1121 450.9806,-131.6427 457.4949,-139.9982 461.2836,-134.1121"/>
</g>
<!-- Node5 -->
<g id="node6" class="node">
<title>Node5</title>
<polygon fill="#ffffff" stroke="#bfbfbf" points="703.5,-112.5 703.5,-131.5 768.5,-131.5 768.5,-112.5 703.5,-112.5"/>
<text text-anchor="middle" x="736" y="-119.5" font-family="Helvetica,sans-Serif" font-size="10.00" fill="#000000">functional</text>
</g>
<!-- Node3&#45;&gt;Node5 -->
<g id="edge5" class="edge">
<title>Node3&#45;&gt;Node5</title>
<path fill="none" stroke="#191970" d="M550.41,-170.7936C586.713,-161.2492 651.1044,-144.32 693.6771,-133.1271"/>
<polygon fill="#191970" stroke="#191970" points="694.6883,-136.4803 703.4697,-130.5526 692.9084,-129.7104 694.6883,-136.4803"/>
</g>
<!-- Node6 -->
<g id="node7" class="node">
<title>Node6</title>
<polygon fill="#ffffff" stroke="#bfbfbf" points="825,-112.5 825,-131.5 885,-131.5 885,-112.5 825,-112.5"/>
<text text-anchor="middle" x="855" y="-119.5" font-family="Helvetica,sans-Serif" font-size="10.00" fill="#000000">iostream</text>
</g>
<!-- Node3&#45;&gt;Node6 -->
<g id="edge6" class="edge">
<title>Node3&#45;&gt;Node6</title>
<path fill="none" stroke="#191970" d="M550.169,-173.4173C608.5014,-163.5781 745.9853,-140.388 814.5914,-128.8159"/>
<polygon fill="#191970" stroke="#191970" points="815.3139,-132.2436 824.5925,-127.129 814.1496,-125.3411 815.3139,-132.2436"/>
</g>
<!-- Node7 -->
<g id="node8" class="node">
<title>Node7</title>
<polygon fill="#ffffff" stroke="#bfbfbf" points="476,-.5 476,-19.5 534,-19.5 534,-.5 476,-.5"/>
<text text-anchor="middle" x="505" y="-7.5" font-family="Helvetica,sans-Serif" font-size="10.00" fill="#000000">memory</text>
</g>
<!-- Node3&#45;&gt;Node7 -->
<g id="edge7" class="edge">
<title>Node3&#45;&gt;Node7</title>
<path fill="none" stroke="#191970" d="M521.9807,-168.4862C519.1353,-141.9293 511.0606,-66.5651 507.1606,-30.1655"/>
<polygon fill="#191970" stroke="#191970" points="510.5985,-29.3981 506.053,-19.8279 503.6383,-30.1439 510.5985,-29.3981"/>
</g>
<!-- Node3&#45;&gt;Node8 -->
<g id="edge9" class="edge">
<title>Node3&#45;&gt;Node8</title>
<path fill="none" stroke="#191970" d="M495.7128,-171.3562C454.6703,-161.3632 376.9305,-142.4352 330.5622,-131.1456"/>
<polygon fill="#191970" stroke="#191970" points="331.1536,-127.6874 320.6094,-128.7223 329.4976,-134.4887 331.1536,-127.6874"/>
</g>
<!-- Node3&#45;&gt;Node9 -->
<g id="edge22" class="edge">
<title>Node3&#45;&gt;Node9</title>
<path fill="none" stroke="#191970" d="M517.2085,-168.4812C508.0554,-154.2084 488.9116,-127.3079 466,-112 433.5753,-90.3361 390.095,-78.1176 360.4539,-71.8038"/>
<polygon fill="#191970" stroke="#191970" points="361.0825,-68.3601 350.5875,-69.811 359.6966,-75.2216 361.0825,-68.3601"/>
</g>
<!-- Node10 -->
<g id="node11" class="node">
<title>Node10</title>
<g id="a_node11"><a xlink:href="packet_8h.html" target="_top" xlink:title="packet.h">
<polygon fill="#ffffff" stroke="#000000" points="551.5,-112.5 551.5,-131.5 610.5,-131.5 610.5,-112.5 551.5,-112.5"/>
<text text-anchor="middle" x="581" y="-119.5" font-family="Helvetica,sans-Serif" font-size="10.00" fill="#000000">packet.h</text>
</a>
</g>
</g>
<!-- Node3&#45;&gt;Node10 -->
<g id="edge14" class="edge">
<title>Node3&#45;&gt;Node10</title>
<path fill="none" stroke="#191970" d="M533.1028,-168.2455C541.5028,-160.1352 553.6494,-148.4075 563.6084,-138.7919"/>
<polygon fill="#191970" stroke="#191970" points="566.25,-141.1066 571.0129,-131.6427 561.3878,-136.0707 566.25,-141.1066"/>
</g>
<!-- Node13 -->
<g id="node14" class="node">
<title>Node13</title>
<g id="a_node14"><a xlink:href="option_8h.html" target="_top" xlink:title="option.h">
<polygon fill="#ffffff" stroke="#000000" points="629,-112.5 629,-131.5 685,-131.5 685,-112.5 629,-112.5"/>
<text text-anchor="middle" x="657" y="-119.5" font-family="Helvetica,sans-Serif" font-size="10.00" fill="#000000">option.h</text>
</a>
</g>
</g>
<!-- Node3&#45;&gt;Node13 -->
<g id="edge18" class="edge">
<title>Node3&#45;&gt;Node13</title>
<path fill="none" stroke="#191970" d="M546.0354,-168.3733C567.7388,-159.3032 600.4618,-145.6279 624.755,-135.4755"/>
<polygon fill="#191970" stroke="#191970" points="626.3881,-138.5865 634.2652,-131.5011 623.6889,-132.1278 626.3881,-138.5865"/>
</g>
<!-- Node8&#45;&gt;Node2 -->
<g id="edge10" class="edge">
<title>Node8&#45;&gt;Node2</title>
<path fill="none" stroke="#191970" d="M289.8454,-112.4509C283.7562,-94.0186 270.2798,-53.2254 262.291,-29.043"/>
<polygon fill="#191970" stroke="#191970" points="265.6069,-27.9223 259.1466,-19.5249 258.9602,-30.1181 265.6069,-27.9223"/>
</g>
<!-- Node8&#45;&gt;Node9 -->
<g id="edge11" class="edge">
<title>Node8&#45;&gt;Node9</title>
<path fill="none" stroke="#191970" d="M298.9223,-112.2455C303.6027,-104.5367 310.2673,-93.5598 315.9289,-84.2348"/>
<polygon fill="#191970" stroke="#191970" points="318.9475,-86.007 321.1455,-75.6427 312.9639,-82.3741 318.9475,-86.007"/>
</g>
<!-- Node9&#45;&gt;Node2 -->
<g id="edge13" class="edge">
<title>Node9&#45;&gt;Node2</title>
<path fill="none" stroke="#191970" d="M314.6327,-56.2455C304.0446,-47.8943 288.5936,-35.7076 276.2107,-25.9408"/>
<polygon fill="#191970" stroke="#191970" points="278.2447,-23.0875 268.2255,-19.6427 273.9097,-28.5837 278.2447,-23.0875"/>
</g>
<!-- Node9&#45;&gt;Node7 -->
<g id="edge12" class="edge">
<title>Node9&#45;&gt;Node7</title>
<path fill="none" stroke="#191970" d="M350.637,-58.5636C380.0739,-49.3026 430.7723,-33.3525 465.9999,-22.2697"/>
<polygon fill="#191970" stroke="#191970" points="467.4559,-25.4808 475.9445,-19.141 465.3551,-18.8035 467.4559,-25.4808"/>
</g>
<!-- Node10&#45;&gt;Node2 -->
<g id="edge17" class="edge">
<title>Node10&#45;&gt;Node2</title>
<path fill="none" stroke="#191970" d="M556.0818,-112.4668C521.4544,-99.3099 456.7476,-75.0527 401,-56 366.2379,-44.1195 326.4429,-31.5688 297.3473,-22.5837"/>
<polygon fill="#191970" stroke="#191970" points="298.115,-19.1581 287.5279,-19.5613 296.0557,-25.8483 298.115,-19.1581"/>
</g>
<!-- Node11 -->
<g id="node12" class="node">
<title>Node11</title>
<polygon fill="#ffffff" stroke="#bfbfbf" points="571.5,-56.5 571.5,-75.5 624.5,-75.5 624.5,-56.5 571.5,-56.5"/>
<text text-anchor="middle" x="598" y="-63.5" font-family="Helvetica,sans-Serif" font-size="10.00" fill="#000000">cstddef</text>
</g>
<!-- Node10&#45;&gt;Node11 -->
<g id="edge15" class="edge">
<title>Node10&#45;&gt;Node11</title>
<path fill="none" stroke="#191970" d="M583.9612,-112.2455C586.2038,-104.8579 589.3577,-94.4689 592.1081,-85.4087"/>
<polygon fill="#191970" stroke="#191970" points="595.517,-86.2282 595.0728,-75.6427 588.8188,-84.1948 595.517,-86.2282"/>
</g>
<!-- Node12 -->
<g id="node13" class="node">
<title>Node12</title>
<polygon fill="#ffffff" stroke="#bfbfbf" points="642.5,-56.5 642.5,-75.5 695.5,-75.5 695.5,-56.5 642.5,-56.5"/>
<text text-anchor="middle" x="669" y="-63.5" font-family="Helvetica,sans-Serif" font-size="10.00" fill="#000000">stdint.h</text>
</g>
<!-- Node10&#45;&gt;Node12 -->
<g id="edge16" class="edge">
<title>Node10&#45;&gt;Node12</title>
<path fill="none" stroke="#191970" d="M596.3284,-112.2455C609.8303,-103.6534 629.7122,-91.0014 645.2686,-81.1018"/>
<polygon fill="#191970" stroke="#191970" points="647.2897,-83.9643 653.8472,-75.6427 643.5315,-78.0587 647.2897,-83.9643"/>
</g>
<!-- Node14 -->
<g id="node15" class="node">
<title>Node14</title>
<polygon fill="#ffffff" stroke="#bfbfbf" points="797,-56.5 797,-75.5 841,-75.5 841,-56.5 797,-56.5"/>
<text text-anchor="middle" x="819" y="-63.5" font-family="Helvetica,sans-Serif" font-size="10.00" fill="#000000">string</text>
</g>
<!-- Node13&#45;&gt;Node14 -->
<g id="edge19" class="edge">
<title>Node13&#45;&gt;Node14</title>
<path fill="none" stroke="#191970" d="M684.8488,-112.3733C713.3771,-102.5116 757.6545,-87.2059 787.4581,-76.9034"/>
<polygon fill="#191970" stroke="#191970" points="788.6591,-80.1915 796.9669,-73.6164 786.3721,-73.5756 788.6591,-80.1915"/>
</g>
<!-- Node15 -->
<g id="node16" class="node">
<title>Node15</title>
<polygon fill="#ffffff" stroke="#bfbfbf" points="965.5,-56.5 965.5,-75.5 1012.5,-75.5 1012.5,-56.5 965.5,-56.5"/>
<text text-anchor="middle" x="989" y="-63.5" font-family="Helvetica,sans-Serif" font-size="10.00" fill="#000000">vector</text>
</g>
<!-- Node13&#45;&gt;Node15 -->
<g id="edge20" class="edge">
<title>Node13&#45;&gt;Node15</title>
<path fill="none" stroke="#191970" d="M685.2046,-114.0364C688.1637,-113.3031 691.1361,-112.6084 694,-112 787.6416,-92.1071 899.7089,-76.9755 954.8784,-70.0889"/>
<polygon fill="#191970" stroke="#191970" points="955.6358,-73.522 965.1313,-68.8225 954.7777,-66.5748 955.6358,-73.522"/>
</g>
<!-- Node16 -->
<g id="node17" class="node">
<title>Node16</title>
<polygon fill="#ffffff" stroke="#bfbfbf" points="713.5,-56.5 713.5,-75.5 778.5,-75.5 778.5,-56.5 713.5,-56.5"/>
<text text-anchor="middle" x="746" y="-63.5" font-family="Helvetica,sans-Serif" font-size="10.00" fill="#000000">stdexcept</text>
</g>
<!-- Node13&#45;&gt;Node16 -->
<g id="edge21" class="edge">
<title>Node13&#45;&gt;Node16</title>
<path fill="none" stroke="#191970" d="M672.5026,-112.2455C686.158,-103.6534 706.2657,-91.0014 721.9989,-81.1018"/>
<polygon fill="#191970" stroke="#191970" points="724.0751,-83.9307 730.675,-75.6427 720.3471,-78.006 724.0751,-83.9307"/>
</g>
<!-- Node17&#45;&gt;Node2 -->
<g id="edge30" class="edge">
<title>Node17&#45;&gt;Node2</title>
<path fill="none" stroke="#191970" d="M767.2636,-233.2837C663.4613,-230.086 320.0375,-213.4166 256,-132 232.8558,-102.5747 241.6705,-55.625 249.346,-29.3765"/>
<polygon fill="#191970" stroke="#191970" points="252.7893,-30.096 252.4693,-19.506 246.1155,-27.9842 252.7893,-30.096"/>
</g>
<!-- Node17&#45;&gt;Node3 -->
<g id="edge32" class="edge">
<title>Node17&#45;&gt;Node3</title>
<path fill="none" stroke="#191970" d="M767.4169,-227.9538C717.1064,-217.6714 615.003,-196.8035 560.0306,-185.5683"/>
<polygon fill="#191970" stroke="#191970" points="560.514,-182.0948 550.0157,-183.5214 559.1123,-188.953 560.514,-182.0948"/>
</g>
<!-- Node17&#45;&gt;Node5 -->
<g id="edge26" class="edge">
<title>Node17&#45;&gt;Node5</title>
<path fill="none" stroke="#191970" d="M791.7992,-224.4509C781.6701,-205.8533 759.1429,-164.4919 746.0195,-140.3964"/>
<polygon fill="#191970" stroke="#191970" points="749.0444,-138.6328 741.1877,-131.5249 742.8971,-141.9809 749.0444,-138.6328"/>
</g>
<!-- Node17&#45;&gt;Node7 -->
<g id="edge28" class="edge">
<title>Node17&#45;&gt;Node7</title>
<path fill="none" stroke="#191970" d="M811.7434,-224.242C834.5049,-208.1804 877.3159,-173.7547 894,-132 908.4821,-95.756 883.8966,-75.3489 850,-56 798.5213,-26.6148 623.3185,-15.2526 544.264,-11.5474"/>
<polygon fill="#191970" stroke="#191970" points="544.3649,-8.0485 534.2172,-11.0937 544.0491,-15.0414 544.3649,-8.0485"/>
</g>
<!-- Node17&#45;&gt;Node10 -->
<g id="edge33" class="edge">
<title>Node17&#45;&gt;Node10</title>
<path fill="none" stroke="#191970" d="M778.584,-224.4509C740.5651,-204.7375 653.2183,-159.4465 608.4905,-136.2543"/>
<polygon fill="#191970" stroke="#191970" points="609.8581,-133.021 599.3694,-131.5249 606.6359,-139.2353 609.8581,-133.021"/>
</g>
<!-- Node17&#45;&gt;Node14 -->
<g id="edge29" class="edge">
<title>Node17&#45;&gt;Node14</title>
<path fill="none" stroke="#191970" d="M798.2458,-224.4862C801.7235,-197.9293 811.5927,-122.5651 816.3593,-86.1655"/>
<polygon fill="#191970" stroke="#191970" points="819.8849,-86.1977 817.713,-75.8279 812.9441,-85.2887 819.8849,-86.1977"/>
</g>
<!-- Node17&#45;&gt;Node15 -->
<g id="edge31" class="edge">
<title>Node17&#45;&gt;Node15</title>
<path fill="none" stroke="#191970" d="M826.6,-230.149C903.305,-219.4513 1104.8576,-186.5179 1138,-132 1165.2928,-87.1046 1074.5807,-72.6138 1022.7065,-68.0409"/>
<polygon fill="#191970" stroke="#191970" points="1022.837,-64.5402 1012.5894,-67.2303 1022.2779,-71.5179 1022.837,-64.5402"/>
</g>
<!-- Node18 -->
<g id="node19" class="node">
<title>Node18</title>
<polygon fill="#ffffff" stroke="#bfbfbf" points="1185,-168.5 1185,-187.5 1249,-187.5 1249,-168.5 1185,-168.5"/>
<text text-anchor="middle" x="1217" y="-175.5" font-family="Helvetica,sans-Serif" font-size="10.00" fill="#000000">algorithm</text>
</g>
<!-- Node17&#45;&gt;Node18 -->
<g id="edge25" class="edge">
<title>Node17&#45;&gt;Node18</title>
<path fill="none" stroke="#191970" d="M826.7091,-231.2804C890.1828,-225.2653 1043.6196,-209.6324 1171,-188 1172.269,-187.7845 1173.556,-187.5576 1174.854,-187.3217"/>
<polygon fill="#191970" stroke="#191970" points="1175.7528,-190.7126 1184.9024,-185.3707 1174.4186,-183.8409 1175.7528,-190.7126"/>
</g>
<!-- Node19 -->
<g id="node20" class="node">
<title>Node19</title>
<polygon fill="#ffffff" stroke="#bfbfbf" points="1267.5,-168.5 1267.5,-187.5 1320.5,-187.5 1320.5,-168.5 1267.5,-168.5"/>
<text text-anchor="middle" x="1294" y="-175.5" font-family="Helvetica,sans-Serif" font-size="10.00" fill="#000000">iterator</text>
</g>
<!-- Node17&#45;&gt;Node19 -->
<g id="edge27" class="edge">
<title>Node17&#45;&gt;Node19</title>
<path fill="none" stroke="#191970" d="M826.6428,-232.8048C898.7878,-229.5228 1089.2854,-218.6151 1257.3663,-187.8066"/>
<polygon fill="#191970" stroke="#191970" points="1258.1928,-191.2129 1267.3832,-185.9417 1256.9115,-184.3312 1258.1928,-191.2129"/>
</g>
<!-- Node20 -->
<g id="node21" class="node">
<title>Node20</title>
<g id="a_node21"><a xlink:href="metadata_8h.html" target="_top" xlink:title="metadata.h">
<polygon fill="#ffffff" stroke="#000000" points="947.5,-168.5 947.5,-187.5 1020.5,-187.5 1020.5,-168.5 947.5,-168.5"/>
<text text-anchor="middle" x="984" y="-175.5" font-family="Helvetica,sans-Serif" font-size="10.00" fill="#000000">metadata.h</text>
</a>
</g>
</g>
<!-- Node17&#45;&gt;Node20 -->
<g id="edge34" class="edge">
<title>Node17&#45;&gt;Node20</title>
<path fill="none" stroke="#191970" d="M826.6307,-225.1266C857.7502,-215.8074 906.9511,-201.0735 942.0516,-190.5621"/>
<polygon fill="#191970" stroke="#191970" points="943.4274,-193.8037 952.003,-187.582 941.4192,-187.0979 943.4274,-193.8037"/>
</g>
<!-- Node20&#45;&gt;Node6 -->
<g id="edge36" class="edge">
<title>Node20&#45;&gt;Node6</title>
<path fill="none" stroke="#191970" d="M961.8241,-168.3733C941.0234,-159.3435 909.7083,-145.7494 886.3542,-135.6111"/>
<polygon fill="#191970" stroke="#191970" points="887.4532,-132.2727 876.8865,-131.5011 884.6657,-138.6938 887.4532,-132.2727"/>
</g>
<!-- Node20&#45;&gt;Node14 -->
<g id="edge37" class="edge">
<title>Node20&#45;&gt;Node14</title>
<path fill="none" stroke="#191970" d="M971.7112,-168.4866C954.5951,-155.3529 922.4699,-131.1223 894,-112 877.8775,-101.171 859.2689,-89.7515 844.6209,-80.9994"/>
<polygon fill="#191970" stroke="#191970" points="846.019,-77.7592 835.633,-75.6662 842.4469,-83.7792 846.019,-77.7592"/>
</g>
<!-- Node20&#45;&gt;Node15 -->
<g id="edge39" class="edge">
<title>Node20&#45;&gt;Node15</title>
<path fill="none" stroke="#191970" d="M984.4263,-168.4509C985.2418,-150.184 987.0377,-109.9553 988.1206,-85.6976"/>
<polygon fill="#191970" stroke="#191970" points="991.6252,-85.6711 988.5748,-75.5249 984.6322,-85.3588 991.6252,-85.6711"/>
</g>
<!-- Node21 -->
<g id="node22" class="node">
<title>Node21</title>
<polygon fill="#ffffff" stroke="#bfbfbf" points="1091,-112.5 1091,-131.5 1129,-131.5 1129,-112.5 1091,-112.5"/>
<text text-anchor="middle" x="1110" y="-119.5" font-family="Helvetica,sans-Serif" font-size="10.00" fill="#000000">map</text>
</g>
<!-- Node20&#45;&gt;Node21 -->
<g id="edge35" class="edge">
<title>Node20&#45;&gt;Node21</title>
<path fill="none" stroke="#191970" d="M1005.6602,-168.3733C1026.5928,-159.0699 1058.4271,-144.9213 1081.4268,-134.6992"/>
<polygon fill="#191970" stroke="#191970" points="1082.9687,-137.8441 1090.6854,-130.5843 1080.1257,-131.4474 1082.9687,-137.8441"/>
</g>
<!-- Node22 -->
<g id="node23" class="node">
<title>Node22</title>
<polygon fill="#ffffff" stroke="#bfbfbf" points="1017,-112.5 1017,-131.5 1073,-131.5 1073,-112.5 1017,-112.5"/>
<text text-anchor="middle" x="1045" y="-119.5" font-family="Helvetica,sans-Serif" font-size="10.00" fill="#000000">sstream</text>
</g>
<!-- Node20&#45;&gt;Node22 -->
<g id="edge38" class="edge">
<title>Node20&#45;&gt;Node22</title>
<path fill="none" stroke="#191970" d="M994.6254,-168.2455C1003.5473,-160.0549 1016.488,-148.1749 1027.0192,-138.5069"/>
<polygon fill="#191970" stroke="#191970" points="1029.4968,-140.9837 1034.4964,-131.6427 1024.7629,-135.8271 1029.4968,-140.9837"/>
</g>
<!-- Node23&#45;&gt;Node2 -->
<g id="edge41" class="edge">
<title>Node23&#45;&gt;Node2</title>
<path fill="none" stroke="#191970" d="M85.8583,-112.4509C118.3908,-92.8615 192.8676,-48.0152 231.5966,-24.6945"/>
<polygon fill="#191970" stroke="#191970" points="233.4206,-27.6818 240.1819,-19.5249 229.8096,-21.6851 233.4206,-27.6818"/>
</g>
<!-- Node23&#45;&gt;Node9 -->
<g id="edge42" class="edge">
<title>Node23&#45;&gt;Node9</title>
<path fill="none" stroke="#191970" d="M95.5578,-114.237C98.3972,-113.448 101.2541,-112.6858 104,-112 170.6103,-95.3644 249.4804,-80.1285 293.3162,-72.0501"/>
<polygon fill="#191970" stroke="#191970" points="294.2119,-75.4444 303.4183,-70.201 292.9515,-68.5587 294.2119,-75.4444"/>
</g>
<!-- Node24&#45;&gt;Node2 -->
<g id="edge45" class="edge">
<title>Node24&#45;&gt;Node2</title>
<path fill="none" stroke="#191970" d="M169.0996,-112.4509C185.0847,-93.6054 220.8968,-51.3849 241.2056,-27.4419"/>
<polygon fill="#191970" stroke="#191970" points="244.1214,-29.415 247.9209,-19.5249 238.7831,-24.887 244.1214,-29.415"/>
</g>
<!-- Node24&#45;&gt;Node9 -->
<g id="edge46" class="edge">
<title>Node24&#45;&gt;Node9</title>
<path fill="none" stroke="#191970" d="M189.5364,-112.3733C218.436,-102.624 263.1078,-87.554 293.6295,-77.2575"/>
<polygon fill="#191970" stroke="#191970" points="295.038,-80.4762 303.3946,-73.9633 292.8004,-73.8435 295.038,-80.4762"/>
</g>
</g>
</svg>
        <g id="navigator" transform="translate(0 0)" fill="#404254">
                <rect fill="#f2f5e9" fill-opacity="0.5" stroke="#606060" stroke-width=".5" x="0" y="0" width="60" height="60"/>
                <use id="zoomplus" xlink:href="#zoomPlus" x="17" y="9" onmousedown="handleZoom(evt,'in')"/>
                <use id="zoomminus" xlink:href="#zoomMin" x="42" y="9" onmousedown="handleZoom(evt,'out')"/>
                <use id="reset" xlink:href="#resetDef" x="30" y="36" onmousedown="handleReset()"/>
                <g id="arrowUp" xlink:href="#dirArrow" transform="translate(30 24)" onmousedown="handlePan(0,-1)">
                  <use xlink:href="#rim" fill="#404040">
                        <set attributeName="fill" to="#808080" begin="arrowUp.mouseover" end="arrowUp.mouseout"/>
                  </use>
                  <path fill="none" stroke="white" stroke-width="1.5" d="M0,-3.0v7 M-2.5,-0.5L0,-3.0L2.5,-0.5"/>
                </g>
                <g id="arrowRight" xlink:href="#dirArrow" transform="rotate(90) translate(36 -43)" onmousedown="handlePan(1,0)">
                  <use xlink:href="#rim" fill="#404040">
                        <set attributeName="fill" to="#808080" begin="arrowRight.mouseover" end="arrowRight.mouseout"/>
                  </use>
                  <path fill="none" stroke="white" stroke-width="1.5" d="M0,-3.0v7 M-2.5,-0.5L0,-3.0L2.5,-0.5"/>
                </g>
                <g id="arrowDown" xlink:href="#dirArrow" transform="rotate(180) translate(-30 -48)" onmousedown="handlePan(0,1)">
                  <use xlink:href="#rim" fill="#404040">
                        <set attributeName="fill" to="#808080" begin="arrowDown.mouseover" end="arrowDown.mouseout"/>
                  </use>
                  <path fill="none" stroke="white" stroke-width="1.5" d="M0,-3.0v7 M-2.5,-0.5L0,-3.0L2.5,-0.5"/>
                </g>
                <g id="arrowLeft" xlink:href="#dirArrow" transform="rotate(270) translate(-36 17)" onmousedown="handlePan(-1,0)">
                  <use xlink:href="#rim" fill="#404040">
                        <set attributeName="fill" to="#808080" begin="arrowLeft.mouseover" end="arrowLeft.mouseout"/>
                  </use>
                  <path fill="none" stroke="white" stroke-width="1.5" d="M0,-3.0v7 M-2.5,-0.5L0,-3.0L2.5,-0.5"/>
                </g>
        </g>
        <svg viewBox="0 0 15 15" width="100%" height="30px" preserveAspectRatio="xMaxYMin meet">
         <g id="arrow_out" transform="scale(0.3 0.3)">
          <a xlink:href="av_8h__incl_org.svg" target="_base">
           <rect id="button" ry="5" rx="5" y="6" x="6" height="38" width="38"
                fill="#f2f5e9" fill-opacity="0.5" stroke="#606060" stroke-width="1.0"/>
           <path id="arrow"
             d="M 11.500037,31.436501 C 11.940474,20.09759 22.043105,11.32322 32.158766,21.979434 L 37.068811,17.246167 C 37.068811,17.246167 37.088388,32 37.088388,32 L 22.160133,31.978069 C 22.160133,31.978069 26.997745,27.140456 26.997745,27.140456 C 18.528582,18.264221 13.291696,25.230495 11.500037,31.436501 z"
             style="fill:#404040;"/>
          </a>
         </g>
        </svg>
</svg>
