<?xml version="1.0" encoding="UTF-8" standalone="no"?>
<!DOCTYPE svg PUBLIC "-//W3C//DTD SVG 1.1//EN"
 "http://www.w3.org/Graphics/SVG/1.1/DTD/svg11.dtd">
<!-- Generated by graphviz version 2.40.1 (20161225.0304)
 -->
<!-- Title: /home/etienne/Projects/avcpp/av/discid/cddb.h Pages: 1 -->
<svg width="399pt" height="263pt"
 viewBox="0.00 0.00 398.50 263.00" xmlns="http://www.w3.org/2000/svg" xmlns:xlink="http://www.w3.org/1999/xlink">
<g id="graph0" class="graph" transform="scale(1 1) rotate(0) translate(4 259)">
<title>/home/etienne/Projects/avcpp/av/discid/cddb.h</title>
<polygon fill="#ffffff" stroke="transparent" points="-4,4 -4,-259 394.5,-259 394.5,4 -4,4"/>
<!-- Node0 -->
<g id="node1" class="node">
<title>Node0</title>
<polygon fill="#bfbfbf" stroke="#000000" points="132.5,-224.5 132.5,-254.5 263.5,-254.5 263.5,-224.5 132.5,-224.5"/>
<text text-anchor="start" x="140.5" y="-242.5" font-family="Helvetica,sans-Serif" font-size="10.00" fill="#000000">/home/etienne/Projects</text>
<text text-anchor="middle" x="198" y="-231.5" font-family="Helvetica,sans-Serif" font-size="10.00" fill="#000000">/avcpp/av/discid/cddb.h</text>
</g>
<!-- Node1 -->
<g id="node2" class="node">
<title>Node1</title>
<polygon fill="#ffffff" stroke="#bfbfbf" points="0,-.5 0,-19.5 44,-19.5 44,-.5 0,-.5"/>
<text text-anchor="middle" x="22" y="-7.5" font-family="Helvetica,sans-Serif" font-size="10.00" fill="#000000">string</text>
</g>
<!-- Node0&#45;&gt;Node1 -->
<g id="edge1" class="edge">
<title>Node0&#45;&gt;Node1</title>
<path fill="none" stroke="#191970" d="M172.2097,-224.3591C142.4006,-205.7817 93.4238,-171.8034 62,-132 37.8168,-101.3681 28.0024,-55.568 24.2142,-29.6772"/>
<polygon fill="#191970" stroke="#191970" points="27.6645,-29.0684 22.9013,-19.6047 20.7233,-29.9732 27.6645,-29.0684"/>
</g>
<!-- Node2 -->
<g id="node3" class="node">
<title>Node2</title>
<g id="a_node3"><a xlink:href="discid_8h.html" target="_top" xlink:title="discid.h">
<polygon fill="#ffffff" stroke="#000000" points="171,-168.5 171,-187.5 225,-187.5 225,-168.5 171,-168.5"/>
<text text-anchor="middle" x="198" y="-175.5" font-family="Helvetica,sans-Serif" font-size="10.00" fill="#000000">discid.h</text>
</a>
</g>
</g>
<!-- Node0&#45;&gt;Node2 -->
<g id="edge2" class="edge">
<title>Node0&#45;&gt;Node2</title>
<path fill="none" stroke="#191970" d="M198,-224.2977C198,-216.3834 198,-206.6043 198,-198.0759"/>
<polygon fill="#191970" stroke="#191970" points="201.5001,-197.8469 198,-187.8469 194.5001,-197.847 201.5001,-197.8469"/>
</g>
<!-- Node5 -->
<g id="node6" class="node">
<title>Node5</title>
<g id="a_node6"><a xlink:href="toc_8h.html" target="_top" xlink:title="toc.h">
<polygon fill="#ffffff" stroke="#000000" points="349.5,-112.5 349.5,-131.5 390.5,-131.5 390.5,-112.5 349.5,-112.5"/>
<text text-anchor="middle" x="370" y="-119.5" font-family="Helvetica,sans-Serif" font-size="10.00" fill="#000000">toc.h</text>
</a>
</g>
</g>
<!-- Node0&#45;&gt;Node5 -->
<g id="edge16" class="edge">
<title>Node0&#45;&gt;Node5</title>
<path fill="none" stroke="#191970" d="M220.1339,-224.3795C252.9758,-201.9439 314.2853,-160.0609 347.3963,-137.4415"/>
<polygon fill="#191970" stroke="#191970" points="349.6576,-140.1355 355.9405,-131.6046 345.709,-134.3554 349.6576,-140.1355"/>
</g>
<!-- Node2&#45;&gt;Node1 -->
<g id="edge3" class="edge">
<title>Node2&#45;&gt;Node1</title>
<path fill="none" stroke="#191970" d="M170.778,-173.546C144.4093,-167.9619 104.7374,-156.0391 79,-132 63.1056,-117.1544 40.2054,-59.4423 28.8793,-29.0172"/>
<polygon fill="#191970" stroke="#191970" points="32.1198,-27.6882 25.3862,-19.5084 25.5492,-30.102 32.1198,-27.6882"/>
</g>
<!-- Node3 -->
<g id="node4" class="node">
<title>Node3</title>
<polygon fill="#ffffff" stroke="#bfbfbf" points="270.5,-.5 270.5,-19.5 317.5,-19.5 317.5,-.5 270.5,-.5"/>
<text text-anchor="middle" x="294" y="-7.5" font-family="Helvetica,sans-Serif" font-size="10.00" fill="#000000">vector</text>
</g>
<!-- Node2&#45;&gt;Node3 -->
<g id="edge4" class="edge">
<title>Node2&#45;&gt;Node3</title>
<path fill="none" stroke="#191970" d="M199.6582,-168.192C202.156,-154.9277 207.6183,-130.7719 217,-112 233.3303,-79.3245 260.5028,-46.4905 277.818,-27.2163"/>
<polygon fill="#191970" stroke="#191970" points="280.6228,-29.3356 284.7903,-19.5948 275.458,-24.6107 280.6228,-29.3356"/>
</g>
<!-- Node4 -->
<g id="node5" class="node">
<title>Node4</title>
<polygon fill="#ffffff" stroke="#bfbfbf" points="88.5,-112.5 88.5,-131.5 169.5,-131.5 169.5,-112.5 88.5,-112.5"/>
<text text-anchor="middle" x="129" y="-119.5" font-family="Helvetica,sans-Serif" font-size="10.00" fill="#000000">system_error</text>
</g>
<!-- Node2&#45;&gt;Node4 -->
<g id="edge5" class="edge">
<title>Node2&#45;&gt;Node4</title>
<path fill="none" stroke="#191970" d="M185.9811,-168.2455C175.7902,-159.9746 160.9638,-147.9416 148.9893,-138.2232"/>
<polygon fill="#191970" stroke="#191970" points="150.8514,-135.2268 140.8812,-131.6427 146.4402,-140.662 150.8514,-135.2268"/>
</g>
<!-- Node2&#45;&gt;Node5 -->
<g id="edge6" class="edge">
<title>Node2&#45;&gt;Node5</title>
<path fill="none" stroke="#191970" d="M225.203,-169.435C252.0994,-160.926 294.6605,-147.3534 339.7643,-132.3718"/>
<polygon fill="#191970" stroke="#191970" points="341.0413,-135.6355 349.4229,-129.1548 338.8293,-128.9942 341.0413,-135.6355"/>
</g>
<!-- Node11 -->
<g id="node12" class="node">
<title>Node11</title>
<polygon fill="#ffffff" stroke="#bfbfbf" points="226.5,-112.5 226.5,-131.5 331.5,-131.5 331.5,-112.5 226.5,-112.5"/>
<text text-anchor="middle" x="279" y="-119.5" font-family="Helvetica,sans-Serif" font-size="10.00" fill="#000000">gtest/gtest_prod.h</text>
</g>
<!-- Node2&#45;&gt;Node11 -->
<g id="edge15" class="edge">
<title>Node2&#45;&gt;Node11</title>
<path fill="none" stroke="#191970" d="M212.1091,-168.2455C224.4209,-159.7337 242.4958,-147.2375 256.7538,-137.3801"/>
<polygon fill="#191970" stroke="#191970" points="258.8174,-140.2085 265.0526,-131.6427 254.8366,-134.4506 258.8174,-140.2085"/>
</g>
<!-- Node5&#45;&gt;Node3 -->
<g id="edge8" class="edge">
<title>Node5&#45;&gt;Node3</title>
<path fill="none" stroke="#191970" d="M369.0525,-112.2771C367.3389,-98.6836 362.7385,-73.6826 351,-56 342.8977,-43.7949 330.5446,-33.2592 319.4072,-25.362"/>
<polygon fill="#191970" stroke="#191970" points="321.0943,-22.2791 310.8404,-19.6129 317.1935,-28.0916 321.0943,-22.2791"/>
</g>
<!-- Node6 -->
<g id="node7" class="node">
<title>Node6</title>
<polygon fill="#ffffff" stroke="#bfbfbf" points="288,-56.5 288,-75.5 342,-75.5 342,-56.5 288,-56.5"/>
<text text-anchor="middle" x="315" y="-63.5" font-family="Helvetica,sans-Serif" font-size="10.00" fill="#000000">istream</text>
</g>
<!-- Node5&#45;&gt;Node6 -->
<g id="edge7" class="edge">
<title>Node5&#45;&gt;Node6</title>
<path fill="none" stroke="#191970" d="M360.4197,-112.2455C352.4542,-104.1352 340.9359,-92.4075 331.4921,-82.7919"/>
<polygon fill="#191970" stroke="#191970" points="333.9747,-80.3247 324.4705,-75.6427 328.9805,-85.2297 333.9747,-80.3247"/>
</g>
<!-- Node7 -->
<g id="node8" class="node">
<title>Node7</title>
<g id="a_node8"><a xlink:href="metadata_8h.html" target="_top" xlink:title="../metadata.h">
<polygon fill="#ffffff" stroke="#000000" points="88,-56.5 88,-75.5 170,-75.5 170,-56.5 88,-56.5"/>
<text text-anchor="middle" x="129" y="-63.5" font-family="Helvetica,sans-Serif" font-size="10.00" fill="#000000">../metadata.h</text>
</a>
</g>
</g>
<!-- Node5&#45;&gt;Node7 -->
<g id="edge9" class="edge">
<title>Node5&#45;&gt;Node7</title>
<path fill="none" stroke="#191970" d="M349.4996,-114.5947C346.6609,-113.668 343.7695,-112.775 341,-112 286.7734,-96.825 223.5744,-83.685 180.3801,-75.3791"/>
<polygon fill="#191970" stroke="#191970" points="180.8706,-71.9096 170.3922,-73.4761 179.5604,-78.7859 180.8706,-71.9096"/>
</g>
<!-- Node7&#45;&gt;Node1 -->
<g id="edge12" class="edge">
<title>Node7&#45;&gt;Node1</title>
<path fill="none" stroke="#191970" d="M110.362,-56.2455C93.5614,-47.4527 68.6366,-34.4079 49.5382,-24.4125"/>
<polygon fill="#191970" stroke="#191970" points="50.9073,-21.1787 40.4244,-19.6427 47.6614,-27.3807 50.9073,-21.1787"/>
</g>
<!-- Node7&#45;&gt;Node3 -->
<g id="edge14" class="edge">
<title>Node7&#45;&gt;Node3</title>
<path fill="none" stroke="#191970" d="M157.3645,-56.3733C186.0072,-46.6521 230.2369,-31.6408 260.5679,-21.3467"/>
<polygon fill="#191970" stroke="#191970" points="261.934,-24.5792 270.2786,-18.0509 259.6842,-17.9505 261.934,-24.5792"/>
</g>
<!-- Node8 -->
<g id="node9" class="node">
<title>Node8</title>
<polygon fill="#ffffff" stroke="#bfbfbf" points="136,-.5 136,-19.5 174,-19.5 174,-.5 136,-.5"/>
<text text-anchor="middle" x="155" y="-7.5" font-family="Helvetica,sans-Serif" font-size="10.00" fill="#000000">map</text>
</g>
<!-- Node7&#45;&gt;Node8 -->
<g id="edge10" class="edge">
<title>Node7&#45;&gt;Node8</title>
<path fill="none" stroke="#191970" d="M133.5289,-56.2455C137.0334,-48.6973 141.9927,-38.0158 146.2623,-28.8197"/>
<polygon fill="#191970" stroke="#191970" points="149.4864,-30.1867 150.523,-19.6427 143.1373,-27.2389 149.4864,-30.1867"/>
</g>
<!-- Node9 -->
<g id="node10" class="node">
<title>Node9</title>
<polygon fill="#ffffff" stroke="#bfbfbf" points="192,-.5 192,-19.5 252,-19.5 252,-.5 192,-.5"/>
<text text-anchor="middle" x="222" y="-7.5" font-family="Helvetica,sans-Serif" font-size="10.00" fill="#000000">iostream</text>
</g>
<!-- Node7&#45;&gt;Node9 -->
<g id="edge11" class="edge">
<title>Node7&#45;&gt;Node9</title>
<path fill="none" stroke="#191970" d="M145.1994,-56.2455C159.6018,-47.5731 180.8732,-34.7645 197.3799,-24.825"/>
<polygon fill="#191970" stroke="#191970" points="199.225,-27.7996 205.9863,-19.6427 195.614,-21.8028 199.225,-27.7996"/>
</g>
<!-- Node10 -->
<g id="node11" class="node">
<title>Node10</title>
<polygon fill="#ffffff" stroke="#bfbfbf" points="62,-.5 62,-19.5 118,-19.5 118,-.5 62,-.5"/>
<text text-anchor="middle" x="90" y="-7.5" font-family="Helvetica,sans-Serif" font-size="10.00" fill="#000000">sstream</text>
</g>
<!-- Node7&#45;&gt;Node10 -->
<g id="edge13" class="edge">
<title>Node7&#45;&gt;Node10</title>
<path fill="none" stroke="#191970" d="M122.2067,-56.2455C116.7822,-48.4564 109.0339,-37.3308 102.4967,-27.9439"/>
<polygon fill="#191970" stroke="#191970" points="105.3025,-25.8485 96.7154,-19.6427 99.5583,-29.849 105.3025,-25.8485"/>
</g>
</g>
</svg>
