<?xml version="1.0" encoding="UTF-8" standalone="no"?>
<!DOCTYPE svg PUBLIC "-//W3C//DTD SVG 1.1//EN"
 "http://www.w3.org/Graphics/SVG/1.1/DTD/svg11.dtd">
<!-- Generated by graphviz version 2.38.0 (20140413.2041)
 -->
<!-- Title: av::Frame::Frame Pages: 1 -->
<svg width="270pt" height="256pt"
 viewBox="0.00 0.00 270.00 256.00" xmlns="http://www.w3.org/2000/svg" xmlns:xlink="http://www.w3.org/1999/xlink">
<g id="graph0" class="graph" transform="scale(1 1) rotate(0) translate(4 252)">
<title>av::Frame::Frame</title>
<polygon fill="white" stroke="none" points="-4,4 -4,-252 266,-252 266,4 -4,4"/>
<!-- Node0 -->
<g id="node1" class="node"><title>Node0</title>
<polygon fill="#bfbfbf" stroke="black" points="0,-114.5 0,-133.5 95,-133.5 95,-114.5 0,-114.5"/>
<text text-anchor="middle" x="47.5" y="-121.5" font-family="Helvetica,sans-Serif" font-size="10.00">av::Frame::Frame</text>
</g>
<!-- Node1 -->
<g id="node2" class="node"><title>Node1</title>
<g id="a_node2"><a xlink:href="classav_1_1_frame.html#ad9a4951ae1ab73e3f2ddeece49fb0415" target="_top" xlink:title="av::Frame::~Frame">
<polygon fill="white" stroke="black" points="146,-228.5 146,-247.5 247,-247.5 247,-228.5 146,-228.5"/>
<text text-anchor="middle" x="196.5" y="-235.5" font-family="Helvetica,sans-Serif" font-size="10.00">av::Frame::~Frame</text>
</a>
</g>
</g>
<!-- Node0&#45;&gt;Node1 -->
<g id="edge1" class="edge"><title>Node0&#45;&gt;Node1</title>
<path fill="none" stroke="midnightblue" d="M54.216,-133.689C66.0538,-152.907 95.1633,-195.975 131,-219 134.183,-221.045 137.593,-222.877 141.123,-224.516"/>
<polygon fill="midnightblue" stroke="midnightblue" points="140.089,-227.875 150.669,-228.422 142.74,-221.396 140.089,-227.875"/>
</g>
<!-- Node2 -->
<g id="node3" class="node"><title>Node2</title>
<g id="a_node3"><a xlink:href="classav_1_1_frame.html#aab6b790ce90bf86ad810ec416ea9840c" target="_top" xlink:title="av::Frame::operator=">
<polygon fill="white" stroke="black" points="142.5,-190.5 142.5,-209.5 250.5,-209.5 250.5,-190.5 142.5,-190.5"/>
<text text-anchor="middle" x="196.5" y="-197.5" font-family="Helvetica,sans-Serif" font-size="10.00">av::Frame::operator=</text>
</a>
</g>
</g>
<!-- Node0&#45;&gt;Node2 -->
<g id="edge2" class="edge"><title>Node0&#45;&gt;Node2</title>
<path fill="none" stroke="midnightblue" d="M59.7945,-133.565C75.0506,-146.056 103.508,-167.871 131,-181 135.872,-183.327 141.089,-185.433 146.367,-187.322"/>
<polygon fill="midnightblue" stroke="midnightblue" points="145.279,-190.649 155.872,-190.49 147.492,-184.008 145.279,-190.649"/>
</g>
<!-- Node3 -->
<g id="node4" class="node"><title>Node3</title>
<g id="a_node4"><a xlink:href="classav_1_1_frame.html#a2a83133bffc6dbdf4a7b13318ce4fe0a" target="_top" xlink:title="number of audio samples (per channel) described by this frame. ">
<polygon fill="white" stroke="black" points="137,-152.5 137,-171.5 256,-171.5 256,-152.5 137,-152.5"/>
<text text-anchor="middle" x="196.5" y="-159.5" font-family="Helvetica,sans-Serif" font-size="10.00">av::Frame::nb_samples</text>
</a>
</g>
</g>
<!-- Node0&#45;&gt;Node3 -->
<g id="edge3" class="edge"><title>Node0&#45;&gt;Node3</title>
<path fill="none" stroke="midnightblue" d="M85.5943,-133.589C104.818,-138.558 128.486,-144.677 148.929,-149.961"/>
<polygon fill="midnightblue" stroke="midnightblue" points="148.115,-153.366 158.672,-152.48 149.867,-146.588 148.115,-153.366"/>
</g>
<!-- Node4 -->
<g id="node5" class="node"><title>Node4</title>
<g id="a_node5"><a xlink:href="classav_1_1_frame.html#a88b3c5f5846557ecf6445b7048fe1e8e" target="_top" xlink:title="av::Frame::data">
<polygon fill="white" stroke="black" points="153.5,-114.5 153.5,-133.5 239.5,-133.5 239.5,-114.5 153.5,-114.5"/>
<text text-anchor="middle" x="196.5" y="-121.5" font-family="Helvetica,sans-Serif" font-size="10.00">av::Frame::data</text>
</a>
</g>
</g>
<!-- Node0&#45;&gt;Node4 -->
<g id="edge4" class="edge"><title>Node0&#45;&gt;Node4</title>
<path fill="none" stroke="midnightblue" d="M95.0117,-124C110.33,-124 127.464,-124 143.184,-124"/>
<polygon fill="midnightblue" stroke="midnightblue" points="143.277,-127.5 153.277,-124 143.277,-120.5 143.277,-127.5"/>
</g>
<!-- Node5 -->
<g id="node6" class="node"><title>Node5</title>
<g id="a_node6"><a xlink:href="classav_1_1_frame.html#a18bb63c366095d58a5394bf7e9d7d179" target="_top" xlink:title="av::Frame::extended_data">
<polygon fill="white" stroke="black" points="131,-76.5 131,-95.5 262,-95.5 262,-76.5 131,-76.5"/>
<text text-anchor="middle" x="196.5" y="-83.5" font-family="Helvetica,sans-Serif" font-size="10.00">av::Frame::extended_data</text>
</a>
</g>
</g>
<!-- Node0&#45;&gt;Node5 -->
<g id="edge5" class="edge"><title>Node0&#45;&gt;Node5</title>
<path fill="none" stroke="midnightblue" d="M85.5943,-114.411C104.818,-109.442 128.486,-103.323 148.929,-98.0387"/>
<polygon fill="midnightblue" stroke="midnightblue" points="149.867,-101.412 158.672,-95.5201 148.115,-94.6343 149.867,-101.412"/>
</g>
<!-- Node6 -->
<g id="node7" class="node"><title>Node6</title>
<g id="a_node7"><a xlink:href="classav_1_1_frame.html#a7a1e295aec63ae279e519f571f45fdbd" target="_top" xlink:title="av::Frame::linesize">
<polygon fill="white" stroke="black" points="146.5,-38.5 146.5,-57.5 246.5,-57.5 246.5,-38.5 146.5,-38.5"/>
<text text-anchor="middle" x="196.5" y="-45.5" font-family="Helvetica,sans-Serif" font-size="10.00">av::Frame::linesize</text>
</a>
</g>
</g>
<!-- Node0&#45;&gt;Node6 -->
<g id="edge6" class="edge"><title>Node0&#45;&gt;Node6</title>
<path fill="none" stroke="midnightblue" d="M59.7945,-114.435C75.0506,-101.944 103.508,-80.1289 131,-67 135.872,-64.6733 141.089,-62.5672 146.367,-60.6779"/>
<polygon fill="midnightblue" stroke="midnightblue" points="147.492,-63.9923 155.872,-57.5104 145.279,-57.3513 147.492,-63.9923"/>
</g>
<!-- Node7 -->
<g id="node8" class="node"><title>Node7</title>
<g id="a_node8"><a xlink:href="classav_1_1_frame.html#a84568abc84ab700b8c60acb7d182624f" target="_top" xlink:title="av::Frame::writeable">
<polygon fill="white" stroke="black" points="143.5,-0.5 143.5,-19.5 249.5,-19.5 249.5,-0.5 143.5,-0.5"/>
<text text-anchor="middle" x="196.5" y="-7.5" font-family="Helvetica,sans-Serif" font-size="10.00">av::Frame::writeable</text>
</a>
</g>
</g>
<!-- Node0&#45;&gt;Node7 -->
<g id="edge7" class="edge"><title>Node0&#45;&gt;Node7</title>
<path fill="none" stroke="midnightblue" d="M54.216,-114.311C66.0538,-95.0934 95.1633,-52.0252 131,-29 134.183,-26.9551 137.593,-25.1235 141.123,-23.4839"/>
<polygon fill="midnightblue" stroke="midnightblue" points="142.74,-26.604 150.669,-19.5777 140.089,-20.1254 142.74,-26.604"/>
</g>
</g>
</svg>
