<?xml version="1.0" encoding="UTF-8" standalone="no"?>
<!DOCTYPE svg PUBLIC "-//W3C//DTD SVG 1.1//EN"
 "http://www.w3.org/Graphics/SVG/1.1/DTD/svg11.dtd">
<!-- Generated by graphviz version 2.38.0 (20140413.2041)
 -->
<!-- Title: av::IoContext Pages: 1 -->
<svg width="228pt" height="277pt"
 viewBox="0.00 0.00 227.50 277.00" xmlns="http://www.w3.org/2000/svg" xmlns:xlink="http://www.w3.org/1999/xlink">
<g id="graph0" class="graph" transform="scale(1 1) rotate(0) translate(4 273)">
<title>av::IoContext</title>
<polygon fill="white" stroke="none" points="-4,4 -4,-273 223.5,-273 223.5,4 -4,4"/>
<!-- Node1 -->
<g id="node1" class="node"><title>Node1</title>
<polygon fill="#bfbfbf" stroke="black" points="86,-0.5 86,-19.5 162,-19.5 162,-0.5 86,-0.5"/>
<text text-anchor="middle" x="124" y="-7.5" font-family="Helvetica,sans-Serif" font-size="10.00">av::IoContext</text>
</g>
<!-- Node2 -->
<g id="node2" class="node"><title>Node2</title>
<g id="a_node2"><a xlink:title="STL class. ">
<polygon fill="white" stroke="#bfbfbf" points="36,-67.5 36,-86.5 104,-86.5 104,-67.5 36,-67.5"/>
<text text-anchor="middle" x="70" y="-74.5" font-family="Helvetica,sans-Serif" font-size="10.00">std::istream</text>
</a>
</g>
</g>
<!-- Node2&#45;&gt;Node1 -->
<g id="edge1" class="edge"><title>Node2&#45;&gt;Node1</title>
<path fill="none" stroke="#9a32cd" stroke-dasharray="5,2" d="M83.8984,-59.2705C94.4269,-46.5972 108.464,-29.701 116.833,-19.6273"/>
<polygon fill="#9a32cd" stroke="#9a32cd" points="80.9807,-57.3053 77.2827,-67.2338 86.3651,-61.7785 80.9807,-57.3053"/>
<text text-anchor="middle" x="118.5" y="-41" font-family="Helvetica,sans-Serif" font-size="10.00"> datafile</text>
</g>
<!-- Node3 -->
<g id="node3" class="node"><title>Node3</title>
<g id="a_node3"><a xlink:title="STL class. ">
<polygon fill="white" stroke="#bfbfbf" points="9.5,-124.5 9.5,-154.5 106.5,-154.5 106.5,-124.5 9.5,-124.5"/>
<text text-anchor="start" x="17.5" y="-142.5" font-family="Helvetica,sans-Serif" font-size="10.00">std::basic_istream</text>
<text text-anchor="middle" x="58" y="-131.5" font-family="Helvetica,sans-Serif" font-size="10.00">&lt; char &gt;</text>
</a>
</g>
</g>
<!-- Node3&#45;&gt;Node2 -->
<g id="edge2" class="edge"><title>Node3&#45;&gt;Node2</title>
<path fill="none" stroke="midnightblue" d="M62.7896,-114.352C64.7412,-104.513 66.871,-93.7753 68.3061,-86.5399"/>
<polygon fill="midnightblue" stroke="midnightblue" points="59.2957,-113.978 60.7832,-124.468 66.162,-115.34 59.2957,-113.978"/>
</g>
<!-- Node4 -->
<g id="node4" class="node"><title>Node4</title>
<g id="a_node4"><a xlink:title="STL class. ">
<polygon fill="white" stroke="#bfbfbf" points="0,-192.5 0,-211.5 116,-211.5 116,-192.5 0,-192.5"/>
<text text-anchor="middle" x="58" y="-199.5" font-family="Helvetica,sans-Serif" font-size="10.00">std::basic_ios&lt; Char &gt;</text>
</a>
</g>
</g>
<!-- Node4&#45;&gt;Node3 -->
<g id="edge3" class="edge"><title>Node4&#45;&gt;Node3</title>
<path fill="none" stroke="midnightblue" d="M58,-182.215C58,-173.356 58,-162.958 58,-154.759"/>
<polygon fill="midnightblue" stroke="midnightblue" points="54.5001,-182.332 58,-192.332 61.5001,-182.332 54.5001,-182.332"/>
</g>
<!-- Node5 -->
<g id="node5" class="node"><title>Node5</title>
<g id="a_node5"><a xlink:title="STL class. ">
<polygon fill="white" stroke="#bfbfbf" points="20.5,-249.5 20.5,-268.5 95.5,-268.5 95.5,-249.5 20.5,-249.5"/>
<text text-anchor="middle" x="58" y="-256.5" font-family="Helvetica,sans-Serif" font-size="10.00">std::ios_base</text>
</a>
</g>
</g>
<!-- Node5&#45;&gt;Node4 -->
<g id="edge4" class="edge"><title>Node5&#45;&gt;Node4</title>
<path fill="none" stroke="midnightblue" d="M58,-239.117C58,-229.817 58,-219.056 58,-211.715"/>
<polygon fill="midnightblue" stroke="midnightblue" points="54.5001,-239.406 58,-249.406 61.5001,-239.406 54.5001,-239.406"/>
</g>
<!-- Node6 -->
<g id="node6" class="node"><title>Node6</title>
<g id="a_node6"><a xlink:title="STL class. ">
<polygon fill="white" stroke="#bfbfbf" points="138,-67.5 138,-86.5 198,-86.5 198,-67.5 138,-67.5"/>
<text text-anchor="middle" x="168" y="-74.5" font-family="Helvetica,sans-Serif" font-size="10.00">std::string</text>
</a>
</g>
</g>
<!-- Node6&#45;&gt;Node1 -->
<g id="edge5" class="edge"><title>Node6&#45;&gt;Node1</title>
<path fill="none" stroke="#9a32cd" stroke-dasharray="5,2" d="M156.427,-58.9037C147.877,-46.2729 136.594,-29.6041 129.84,-19.6273"/>
<polygon fill="#9a32cd" stroke="#9a32cd" points="153.562,-60.9147 162.066,-67.2338 159.359,-56.9907 153.562,-60.9147"/>
<text text-anchor="middle" x="163.5" y="-41" font-family="Helvetica,sans-Serif" font-size="10.00"> output</text>
</g>
<!-- Node7 -->
<g id="node7" class="node"><title>Node7</title>
<g id="a_node7"><a xlink:title="STL class. ">
<polygon fill="white" stroke="#bfbfbf" points="124.5,-124.5 124.5,-154.5 219.5,-154.5 219.5,-124.5 124.5,-124.5"/>
<text text-anchor="start" x="132.5" y="-142.5" font-family="Helvetica,sans-Serif" font-size="10.00">std::basic_string&lt;</text>
<text text-anchor="middle" x="172" y="-131.5" font-family="Helvetica,sans-Serif" font-size="10.00"> char &gt;</text>
</a>
</g>
</g>
<!-- Node7&#45;&gt;Node6 -->
<g id="edge6" class="edge"><title>Node7&#45;&gt;Node6</title>
<path fill="none" stroke="midnightblue" d="M170.403,-114.352C169.753,-104.513 169.043,-93.7753 168.565,-86.5399"/>
<polygon fill="midnightblue" stroke="midnightblue" points="166.92,-114.721 171.072,-124.468 173.905,-114.259 166.92,-114.721"/>
</g>
</g>
</svg>
