<?xml version="1.0" encoding="UTF-8" standalone="no"?>
<!DOCTYPE svg PUBLIC "-//W3C//DTD SVG 1.1//EN"
 "http://www.w3.org/Graphics/SVG/1.1/DTD/svg11.dtd">
<!-- Generated by graphviz version 2.38.0 (20140413.2041)
 -->
<!-- Title: av::IoContext::IoContext Pages: 1 -->
<svg width="300pt" height="165pt"
 viewBox="0.00 0.00 300.00 164.50" xmlns="http://www.w3.org/2000/svg" xmlns:xlink="http://www.w3.org/1999/xlink">
<g id="graph0" class="graph" transform="scale(1 1) rotate(0) translate(4 160.5)">
<title>av::IoContext::IoContext</title>
<polygon fill="white" stroke="none" points="-4,4 -4,-160.5 296,-160.5 296,4 -4,4"/>
<!-- Node0 -->
<g id="node1" class="node"><title>Node0</title>
<polygon fill="#bfbfbf" stroke="black" points="0,-77 0,-96 125,-96 125,-77 0,-77"/>
<text text-anchor="middle" x="62.5" y="-84" font-family="Helvetica,sans-Serif" font-size="10.00">av::IoContext::IoContext</text>
</g>
<!-- Node1 -->
<g id="node2" class="node"><title>Node1</title>
<g id="a_node2"><a xlink:href="classav_1_1_io_context.html#a589c6ed33e725a44925641c20e4fff50" target="_top" xlink:title="av::IoContext::operator=">
<polygon fill="white" stroke="black" points="165,-137 165,-156 288,-156 288,-137 165,-137"/>
<text text-anchor="middle" x="226.5" y="-144" font-family="Helvetica,sans-Serif" font-size="10.00">av::IoContext::operator=</text>
</a>
</g>
</g>
<!-- Node0&#45;&gt;Node1 -->
<g id="edge1" class="edge"><title>Node0&#45;&gt;Node1</title>
<path fill="none" stroke="midnightblue" d="M84.534,-96.1491C104.101,-104.932 134.189,-117.947 161,-127.5 167.354,-129.764 174.125,-131.974 180.802,-134.039"/>
<polygon fill="midnightblue" stroke="midnightblue" points="179.873,-137.414 190.458,-136.95 181.894,-130.712 179.873,-137.414"/>
</g>
<!-- Node2 -->
<g id="node3" class="node"><title>Node2</title>
<g id="a_node3"><a xlink:href="classav_1_1_io_context.html#a00dc4003b82b3a07a5a55d8bbadd3faf" target="_top" xlink:title="av::IoContext::~IoContext">
<polygon fill="white" stroke="black" points="161,-99 161,-118 292,-118 292,-99 161,-99"/>
<text text-anchor="middle" x="226.5" y="-106" font-family="Helvetica,sans-Serif" font-size="10.00">av::IoContext::~IoContext</text>
</a>
</g>
</g>
<!-- Node0&#45;&gt;Node2 -->
<g id="edge2" class="edge"><title>Node0&#45;&gt;Node2</title>
<path fill="none" stroke="midnightblue" d="M125.207,-94.88C133.562,-96.0146 142.208,-97.1887 150.76,-98.3501"/>
<polygon fill="midnightblue" stroke="midnightblue" points="150.353,-101.827 160.733,-99.7045 151.295,-94.8906 150.353,-101.827"/>
</g>
<!-- Node3 -->
<g id="node4" class="node"><title>Node3</title>
<g id="a_node4"><a xlink:href="classav_1_1_io_context.html#a029866eac4ae9e1ca27672715bf47b4a" target="_top" xlink:title="av::IoContext::init\l_input_format_context">
<polygon fill="white" stroke="black" points="170,-49.5 170,-79.5 283,-79.5 283,-49.5 170,-49.5"/>
<text text-anchor="start" x="178" y="-67.5" font-family="Helvetica,sans-Serif" font-size="10.00">av::IoContext::init</text>
<text text-anchor="middle" x="226.5" y="-56.5" font-family="Helvetica,sans-Serif" font-size="10.00">_input_format_context</text>
</a>
</g>
</g>
<!-- Node0&#45;&gt;Node3 -->
<g id="edge3" class="edge"><title>Node0&#45;&gt;Node3</title>
<path fill="none" stroke="midnightblue" d="M125.207,-78.12C136.549,-76.5797 148.427,-74.9667 159.879,-73.4115"/>
<polygon fill="midnightblue" stroke="midnightblue" points="160.371,-76.8769 169.809,-72.063 159.429,-69.9406 160.371,-76.8769"/>
</g>
<!-- Node4 -->
<g id="node5" class="node"><title>Node4</title>
<g id="a_node5"><a xlink:href="classav_1_1_io_context.html#a44a97b1f71e037c14fb1acbd617f0d46" target="_top" xlink:title="av::IoContext::init\l_output_format_context">
<polygon fill="white" stroke="black" points="167,-0.5 167,-30.5 286,-30.5 286,-0.5 167,-0.5"/>
<text text-anchor="start" x="175" y="-18.5" font-family="Helvetica,sans-Serif" font-size="10.00">av::IoContext::init</text>
<text text-anchor="middle" x="226.5" y="-7.5" font-family="Helvetica,sans-Serif" font-size="10.00">_output_format_context</text>
</a>
</g>
</g>
<!-- Node0&#45;&gt;Node4 -->
<g id="edge4" class="edge"><title>Node0&#45;&gt;Node4</title>
<path fill="none" stroke="midnightblue" d="M82.7395,-76.9267C102.274,-67.3245 133.48,-52.3076 161,-40.5 165.775,-38.4512 170.778,-36.3809 175.797,-34.3548"/>
<polygon fill="midnightblue" stroke="midnightblue" points="177.411,-37.4794 185.409,-30.5303 174.823,-30.9753 177.411,-37.4794"/>
</g>
</g>
</svg>
