<?xml version="1.0" encoding="UTF-8" standalone="no"?>
<!DOCTYPE svg PUBLIC "-//W3C//DTD SVG 1.1//EN"
 "http://www.w3.org/Graphics/SVG/1.1/DTD/svg11.dtd">
<!-- Generated by graphviz version 2.40.1 (20161225.0304)
 -->
<!-- Title: av::Frame::Frame Pages: 1 -->
<svg width="287pt" height="256pt"
 viewBox="0.00 0.00 287.00 256.00" xmlns="http://www.w3.org/2000/svg" xmlns:xlink="http://www.w3.org/1999/xlink">
<g id="graph0" class="graph" transform="scale(1 1) rotate(0) translate(4 252)">
<title>av::Frame::Frame</title>
<polygon fill="#ffffff" stroke="transparent" points="-4,4 -4,-252 283,-252 283,4 -4,4"/>
<!-- Node0 -->
<g id="node1" class="node">
<title>Node0</title>
<polygon fill="#bfbfbf" stroke="#000000" points="0,-114.5 0,-133.5 100,-133.5 100,-114.5 0,-114.5"/>
<text text-anchor="middle" x="50" y="-121.5" font-family="Helvetica,sans-Serif" font-size="10.00" fill="#000000">av::Frame::Frame</text>
</g>
<!-- Node1 -->
<g id="node2" class="node">
<title>Node1</title>
<g id="a_node2"><a xlink:href="classav_1_1_frame.html#ad9a4951ae1ab73e3f2ddeece49fb0415" target="_top" xlink:title="av::Frame::~Frame">
<polygon fill="#ffffff" stroke="#000000" points="153.5,-228.5 153.5,-247.5 261.5,-247.5 261.5,-228.5 153.5,-228.5"/>
<text text-anchor="middle" x="207.5" y="-235.5" font-family="Helvetica,sans-Serif" font-size="10.00" fill="#000000">av::Frame::~Frame</text>
</a>
</g>
</g>
<!-- Node0&#45;&gt;Node1 -->
<g id="edge1" class="edge">
<title>Node0&#45;&gt;Node1</title>
<path fill="none" stroke="#191970" d="M56.012,-133.7652C68.4481,-153.1191 98.9569,-196.4207 136,-219 139.578,-221.181 143.4054,-223.1146 147.3603,-224.8286"/>
<polygon fill="#191970" stroke="#191970" points="146.1729,-228.1218 156.7629,-228.4422 148.6841,-221.5877 146.1729,-228.1218"/>
</g>
<!-- Node2 -->
<g id="node3" class="node">
<title>Node2</title>
<g id="a_node3"><a xlink:href="classav_1_1_frame.html#aab6b790ce90bf86ad810ec416ea9840c" target="_top" xlink:title="av::Frame::operator=">
<polygon fill="#ffffff" stroke="#000000" points="148,-190.5 148,-209.5 267,-209.5 267,-190.5 148,-190.5"/>
<text text-anchor="middle" x="207.5" y="-197.5" font-family="Helvetica,sans-Serif" font-size="10.00" fill="#000000">av::Frame::operator=</text>
</a>
</g>
</g>
<!-- Node0&#45;&gt;Node2 -->
<g id="edge2" class="edge">
<title>Node0&#45;&gt;Node2</title>
<path fill="none" stroke="#191970" d="M61.7942,-133.6476C77.7202,-146.2297 107.4102,-168.146 136,-181 141.3282,-183.3956 147.0202,-185.5397 152.7785,-187.4461"/>
<polygon fill="#191970" stroke="#191970" points="151.8921,-190.8352 162.4792,-190.4324 153.9516,-184.1451 151.8921,-190.8352"/>
</g>
<!-- Node3 -->
<g id="node4" class="node">
<title>Node3</title>
<g id="a_node4"><a xlink:href="classav_1_1_frame.html#a2a83133bffc6dbdf4a7b13318ce4fe0a" target="_top" xlink:title="number of audio samples (per channel) described by this frame. ">
<polygon fill="#ffffff" stroke="#000000" points="143.5,-152.5 143.5,-171.5 271.5,-171.5 271.5,-152.5 143.5,-152.5"/>
<text text-anchor="middle" x="207.5" y="-159.5" font-family="Helvetica,sans-Serif" font-size="10.00" fill="#000000">av::Frame::nb_samples</text>
</a>
</g>
</g>
<!-- Node0&#45;&gt;Node3 -->
<g id="edge3" class="edge">
<title>Node0&#45;&gt;Node3</title>
<path fill="none" stroke="#191970" d="M89.7439,-133.589C110.5277,-138.6035 136.1611,-144.7881 158.1995,-150.1053"/>
<polygon fill="#191970" stroke="#191970" points="157.4999,-153.5368 168.0419,-152.4799 159.1417,-146.7321 157.4999,-153.5368"/>
</g>
<!-- Node4 -->
<g id="node5" class="node">
<title>Node4</title>
<g id="a_node5"><a xlink:href="classav_1_1_frame.html#a88b3c5f5846557ecf6445b7048fe1e8e" target="_top" xlink:title="av::Frame::data">
<polygon fill="#ffffff" stroke="#000000" points="161.5,-114.5 161.5,-133.5 253.5,-133.5 253.5,-114.5 161.5,-114.5"/>
<text text-anchor="middle" x="207.5" y="-121.5" font-family="Helvetica,sans-Serif" font-size="10.00" fill="#000000">av::Frame::data</text>
</a>
</g>
</g>
<!-- Node0&#45;&gt;Node4 -->
<g id="edge4" class="edge">
<title>Node0&#45;&gt;Node4</title>
<path fill="none" stroke="#191970" d="M100.267,-124C116.5196,-124 134.6428,-124 151.2968,-124"/>
<polygon fill="#191970" stroke="#191970" points="151.4466,-127.5001 161.4466,-124 151.4465,-120.5001 151.4466,-127.5001"/>
</g>
<!-- Node5 -->
<g id="node6" class="node">
<title>Node5</title>
<g id="a_node6"><a xlink:href="classav_1_1_frame.html#a18bb63c366095d58a5394bf7e9d7d179" target="_top" xlink:title="av::Frame::extended_data">
<polygon fill="#ffffff" stroke="#000000" points="136,-76.5 136,-95.5 279,-95.5 279,-76.5 136,-76.5"/>
<text text-anchor="middle" x="207.5" y="-83.5" font-family="Helvetica,sans-Serif" font-size="10.00" fill="#000000">av::Frame::extended_data</text>
</a>
</g>
</g>
<!-- Node0&#45;&gt;Node5 -->
<g id="edge5" class="edge">
<title>Node0&#45;&gt;Node5</title>
<path fill="none" stroke="#191970" d="M89.7439,-114.411C110.5277,-109.3965 136.1611,-103.2119 158.1995,-97.8947"/>
<polygon fill="#191970" stroke="#191970" points="159.1417,-101.2679 168.0419,-95.5201 157.4999,-94.4632 159.1417,-101.2679"/>
</g>
<!-- Node6 -->
<g id="node7" class="node">
<title>Node6</title>
<g id="a_node7"><a xlink:href="classav_1_1_frame.html#a7a1e295aec63ae279e519f571f45fdbd" target="_top" xlink:title="av::Frame::linesize">
<polygon fill="#ffffff" stroke="#000000" points="154,-38.5 154,-57.5 261,-57.5 261,-38.5 154,-38.5"/>
<text text-anchor="middle" x="207.5" y="-45.5" font-family="Helvetica,sans-Serif" font-size="10.00" fill="#000000">av::Frame::linesize</text>
</a>
</g>
</g>
<!-- Node0&#45;&gt;Node6 -->
<g id="edge6" class="edge">
<title>Node0&#45;&gt;Node6</title>
<path fill="none" stroke="#191970" d="M61.7942,-114.3524C77.7202,-101.7703 107.4102,-79.854 136,-67 141.3282,-64.6044 147.0202,-62.4603 152.7785,-60.5539"/>
<polygon fill="#191970" stroke="#191970" points="153.9516,-63.8549 162.4792,-57.5676 151.8921,-57.1648 153.9516,-63.8549"/>
</g>
<!-- Node7 -->
<g id="node8" class="node">
<title>Node7</title>
<g id="a_node8"><a xlink:href="classav_1_1_frame.html#a84568abc84ab700b8c60acb7d182624f" target="_top" xlink:title="av::Frame::writeable">
<polygon fill="#ffffff" stroke="#000000" points="149.5,-.5 149.5,-19.5 265.5,-19.5 265.5,-.5 149.5,-.5"/>
<text text-anchor="middle" x="207.5" y="-7.5" font-family="Helvetica,sans-Serif" font-size="10.00" fill="#000000">av::Frame::writeable</text>
</a>
</g>
</g>
<!-- Node0&#45;&gt;Node7 -->
<g id="edge7" class="edge">
<title>Node0&#45;&gt;Node7</title>
<path fill="none" stroke="#191970" d="M56.012,-114.2348C68.4481,-94.8809 98.9569,-51.5793 136,-29 139.578,-26.819 143.4054,-24.8854 147.3603,-23.1714"/>
<polygon fill="#191970" stroke="#191970" points="148.6841,-26.4123 156.7629,-19.5578 146.1729,-19.8782 148.6841,-26.4123"/>
</g>
</g>
</svg>
