<?xml version="1.0" encoding="UTF-8" standalone="no"?>
<!DOCTYPE svg PUBLIC "-//W3C//DTD SVG 1.1//EN"
 "http://www.w3.org/Graphics/SVG/1.1/DTD/svg11.dtd">
<!-- Generated by graphviz version 2.40.1 (20161225.0304)
 -->
<!-- Title: /home/etienne/Projects/avcpp/av/codec.h Pages: 1 -->
<svg width="284pt" height="173pt"
 viewBox="0.00 0.00 284.00 173.00" xmlns="http://www.w3.org/2000/svg" xmlns:xlink="http://www.w3.org/1999/xlink">
<g id="graph0" class="graph" transform="scale(1 1) rotate(0) translate(4 169)">
<title>/home/etienne/Projects/avcpp/av/codec.h</title>
<polygon fill="#ffffff" stroke="transparent" points="-4,4 -4,-169 280,-169 280,4 -4,4"/>
<!-- Node15 -->
<g id="node1" class="node">
<title>Node15</title>
<polygon fill="#bfbfbf" stroke="#000000" points="46,-134.5 46,-164.5 175,-164.5 175,-134.5 46,-134.5"/>
<text text-anchor="start" x="54" y="-152.5" font-family="Helvetica,sans-Serif" font-size="10.00" fill="#000000">/home/etienne/Projects</text>
<text text-anchor="middle" x="110.5" y="-141.5" font-family="Helvetica,sans-Serif" font-size="10.00" fill="#000000">/avcpp/av/codec.h</text>
</g>
<!-- Node16 -->
<g id="node2" class="node">
<title>Node16</title>
<g id="a_node2"><a xlink:href="av_8h.html" target="_top" xlink:title="/home/etienne/Projects\l/avcpp/av/av.h">
<polygon fill="#ffffff" stroke="#000000" points="0,-.5 0,-30.5 129,-30.5 129,-.5 0,-.5"/>
<text text-anchor="start" x="8" y="-18.5" font-family="Helvetica,sans-Serif" font-size="10.00" fill="#000000">/home/etienne/Projects</text>
<text text-anchor="middle" x="64.5" y="-7.5" font-family="Helvetica,sans-Serif" font-size="10.00" fill="#000000">/avcpp/av/av.h</text>
</a>
</g>
</g>
<!-- Node15&#45;&gt;Node16 -->
<g id="edge1" class="edge">
<title>Node15&#45;&gt;Node16</title>
<path fill="none" stroke="#191970" d="M96.8016,-125.2231C92.4351,-116.7905 87.8682,-107.1511 84.5,-98 76.1005,-75.1794 70.22,-47.5038 67.1008,-30.7117"/>
<polygon fill="#191970" stroke="#191970" points="93.7689,-126.974 101.572,-134.1407 99.9412,-123.6721 93.7689,-126.974"/>
</g>
<!-- Node17 -->
<g id="node3" class="node">
<title>Node17</title>
<g id="a_node3"><a xlink:href="format_8h.html" target="_top" xlink:title="/home/etienne/Projects\l/avcpp/av/format.h">
<polygon fill="#ffffff" stroke="#000000" points="93,-67.5 93,-97.5 222,-97.5 222,-67.5 93,-67.5"/>
<text text-anchor="start" x="101" y="-85.5" font-family="Helvetica,sans-Serif" font-size="10.00" fill="#000000">/home/etienne/Projects</text>
<text text-anchor="middle" x="157.5" y="-74.5" font-family="Helvetica,sans-Serif" font-size="10.00" fill="#000000">/avcpp/av/format.h</text>
</a>
</g>
</g>
<!-- Node15&#45;&gt;Node17 -->
<g id="edge2" class="edge">
<title>Node15&#45;&gt;Node17</title>
<path fill="none" stroke="#191970" d="M126.9412,-126.0626C133.557,-116.6315 140.9955,-106.0276 146.8772,-97.6432"/>
<polygon fill="#191970" stroke="#191970" points="124.0426,-124.1001 121.165,-134.2967 129.7732,-128.1201 124.0426,-124.1001"/>
</g>
<!-- Node17&#45;&gt;Node16 -->
<g id="edge3" class="edge">
<title>Node17&#45;&gt;Node16</title>
<path fill="none" stroke="#191970" d="M128.1382,-61.3469C114.3002,-51.3776 98.1078,-39.7121 85.5196,-30.6432"/>
<polygon fill="#191970" stroke="#191970" points="126.2373,-64.2911 136.3969,-67.2967 130.329,-58.6115 126.2373,-64.2911"/>
</g>
<!-- Node18 -->
<g id="node4" class="node">
<title>Node18</title>
<g id="a_node4"><a xlink:href="resample_8h.html" target="_top" xlink:title="/home/etienne/Projects\l/avcpp/av/resample.h">
<polygon fill="#ffffff" stroke="#000000" points="147,-.5 147,-30.5 276,-30.5 276,-.5 147,-.5"/>
<text text-anchor="start" x="155" y="-18.5" font-family="Helvetica,sans-Serif" font-size="10.00" fill="#000000">/home/etienne/Projects</text>
<text text-anchor="middle" x="211.5" y="-7.5" font-family="Helvetica,sans-Serif" font-size="10.00" fill="#000000">/avcpp/av/resample.h</text>
</a>
</g>
</g>
<!-- Node17&#45;&gt;Node18 -->
<g id="edge4" class="edge">
<title>Node17&#45;&gt;Node18</title>
<path fill="none" stroke="#191970" d="M176.1575,-59.3509C183.8164,-49.8482 192.4685,-39.1132 199.2951,-30.6432"/>
<polygon fill="#191970" stroke="#191970" points="173.3036,-57.3143 169.7534,-67.2967 178.7538,-61.707 173.3036,-57.3143"/>
</g>
</g>
</svg>
