<?xml version="1.0" encoding="UTF-8" standalone="no"?>
<!DOCTYPE svg PUBLIC "-//W3C//DTD SVG 1.1//EN"
 "http://www.w3.org/Graphics/SVG/1.1/DTD/svg11.dtd">
<!-- Generated by graphviz version 2.40.1 (20161225.0304)
 -->
<!-- Title: /home/etienne/Projects/avcpp/av/codec.h Pages: 1 -->
<!--zoomable 207 -->
<svg id="main" version="1.1" xmlns="http://www.w3.org/2000/svg" xmlns:xlink="http://www.w3.org/1999/xlink" xml:space="preserve" onload="init(evt)">
<style type="text/css"><![CDATA[
.edge:hover path { stroke: red; }
.edge:hover polygon { stroke: red; fill: red; }
]]></style>
<script type="text/javascript"><![CDATA[
var edges = document.getElementsByTagName('g');
if (edges && edges.length) {
  for (var i=0;i<edges.length;i++) {
    if (edges[i].id.substr(0,4)=='edge') {
      edges[i].setAttribute('class','edge');
    }
  }
}
]]></script>
        <defs>
                <circle id="rim" cx="0" cy="0" r="7"/>
                <circle id="rim2" cx="0" cy="0" r="3.5"/>
                <g id="zoomPlus">
                        <use xlink:href="#rim" fill="#404040">
                                <set attributeName="fill" to="#808080" begin="zoomplus.mouseover" end="zoomplus.mouseout"/>
                        </use>
                        <path d="M-4,0h8M0,-4v8" fill="none" stroke="white" stroke-width="1.5" pointer-events="none"/>
                </g>
                <g id="zoomMin">
                        <use xlink:href="#rim" fill="#404040">
                                <set attributeName="fill" to="#808080" begin="zoomminus.mouseover" end="zoomminus.mouseout"/>
                        </use>
                        <path d="M-4,0h8" fill="none" stroke="white" stroke-width="1.5" pointer-events="none"/>
                </g>
                <g id="dirArrow">
                        <path fill="none" stroke="white" stroke-width="1.5" d="M0,-3.0v7 M-2.5,-0.5L0,-3.0L2.5,-0.5"/>
                </g>
               <g id="resetDef">
                       <use xlink:href="#rim2" fill="#404040">
                               <set attributeName="fill" to="#808080" begin="reset.mouseover" end="reset.mouseout"/>
                       </use>
               </g>
        </defs>

<script type="text/javascript">
var viewWidth = 781;
var viewHeight = 207;
var sectionId = 'dynsection-0';
</script>
<script xlink:href="svgpan.js"/>
<svg id="graph" class="graph">
<g id="viewport">
<title>/home/etienne/Projects/avcpp/av/codec.h</title>
<polygon fill="#ffffff" stroke="transparent" points="-4,4 -4,-203 777,-203 777,4 -4,4"/>
<!-- Node0 -->
<g id="node1" class="node">
<title>Node0</title>
<polygon fill="#bfbfbf" stroke="#000000" points="210.5,-168.5 210.5,-198.5 339.5,-198.5 339.5,-168.5 210.5,-168.5"/>
<text text-anchor="start" x="218.5" y="-186.5" font-family="Helvetica,sans-Serif" font-size="10.00" fill="#000000">/home/etienne/Projects</text>
<text text-anchor="middle" x="275" y="-175.5" font-family="Helvetica,sans-Serif" font-size="10.00" fill="#000000">/avcpp/av/codec.h</text>
</g>
<!-- Node1 -->
<g id="node2" class="node">
<title>Node1</title>
<polygon fill="#ffffff" stroke="#bfbfbf" points="0,-112.5 0,-131.5 42,-131.5 42,-112.5 0,-112.5"/>
<text text-anchor="middle" x="21" y="-119.5" font-family="Helvetica,sans-Serif" font-size="10.00" fill="#000000">array</text>
</g>
<!-- Node0&#45;&gt;Node1 -->
<g id="edge1" class="edge">
<title>Node0&#45;&gt;Node1</title>
<path fill="none" stroke="#191970" d="M210.3769,-170.3579C167.7779,-161.2992 110.6162,-148.3957 52.024,-132.107"/>
<polygon fill="#191970" stroke="#191970" points="52.8014,-128.69 42.2275,-129.3552 50.9084,-135.4292 52.8014,-128.69"/>
</g>
<!-- Node2 -->
<g id="node3" class="node">
<title>Node2</title>
<polygon fill="#ffffff" stroke="#bfbfbf" points="60.5,-112.5 60.5,-131.5 125.5,-131.5 125.5,-112.5 60.5,-112.5"/>
<text text-anchor="middle" x="93" y="-119.5" font-family="Helvetica,sans-Serif" font-size="10.00" fill="#000000">functional</text>
</g>
<!-- Node0&#45;&gt;Node2 -->
<g id="edge2" class="edge">
<title>Node0&#45;&gt;Node2</title>
<path fill="none" stroke="#191970" d="M230.4778,-168.4554C199.9774,-158.149 159.955,-144.6249 130.9642,-134.8286"/>
<polygon fill="#191970" stroke="#191970" points="131.7978,-131.4159 121.2035,-131.5303 129.5568,-138.0475 131.7978,-131.4159"/>
</g>
<!-- Node3 -->
<g id="node4" class="node">
<title>Node3</title>
<polygon fill="#ffffff" stroke="#bfbfbf" points="144,-112.5 144,-131.5 204,-131.5 204,-112.5 144,-112.5"/>
<text text-anchor="middle" x="174" y="-119.5" font-family="Helvetica,sans-Serif" font-size="10.00" fill="#000000">iostream</text>
</g>
<!-- Node0&#45;&gt;Node3 -->
<g id="edge3" class="edge">
<title>Node0&#45;&gt;Node3</title>
<path fill="none" stroke="#191970" d="M250.2926,-168.4554C234.4753,-158.8241 214.0433,-146.3828 198.3051,-136.7996"/>
<polygon fill="#191970" stroke="#191970" points="200.0129,-133.7418 189.6514,-131.5303 196.3723,-139.7206 200.0129,-133.7418"/>
</g>
<!-- Node4 -->
<g id="node5" class="node">
<title>Node4</title>
<polygon fill="#ffffff" stroke="#bfbfbf" points="227,-.5 227,-19.5 285,-19.5 285,-.5 227,-.5"/>
<text text-anchor="middle" x="256" y="-7.5" font-family="Helvetica,sans-Serif" font-size="10.00" fill="#000000">memory</text>
</g>
<!-- Node0&#45;&gt;Node4 -->
<g id="edge4" class="edge">
<title>Node0&#45;&gt;Node4</title>
<path fill="none" stroke="#191970" d="M268.7971,-168.3734C259.7665,-144.6797 244.4395,-97.2528 248,-56 248.7476,-47.3385 250.2729,-37.8607 251.793,-29.7708"/>
<polygon fill="#191970" stroke="#191970" points="255.2567,-30.2991 253.7893,-19.8064 248.3931,-28.924 255.2567,-30.2991"/>
</g>
<!-- Node5 -->
<g id="node6" class="node">
<title>Node5</title>
<polygon fill="#ffffff" stroke="#bfbfbf" points="311.5,-.5 311.5,-19.5 392.5,-19.5 392.5,-.5 311.5,-.5"/>
<text text-anchor="middle" x="352" y="-7.5" font-family="Helvetica,sans-Serif" font-size="10.00" fill="#000000">system_error</text>
</g>
<!-- Node0&#45;&gt;Node5 -->
<g id="edge5" class="edge">
<title>Node0&#45;&gt;Node5</title>
<path fill="none" stroke="#191970" d="M339.9151,-170.4951C374.7942,-162.1215 417.9185,-149.492 454,-132 492.4013,-113.3834 512.5182,-113.9697 532,-76 536.0578,-68.0914 537.452,-63.0205 532,-56 516.2416,-35.708 450.3885,-22.8575 402.8919,-16.0451"/>
<polygon fill="#191970" stroke="#191970" points="403.1457,-12.5469 392.7602,-14.6424 402.1858,-19.4808 403.1457,-12.5469"/>
</g>
<!-- Node6 -->
<g id="node7" class="node">
<title>Node6</title>
<g id="a_node7"><a xlink:href="frame_8h.html" target="_top" xlink:title="frame.h">
<polygon fill="#ffffff" stroke="#000000" points="303.5,-112.5 303.5,-131.5 358.5,-131.5 358.5,-112.5 303.5,-112.5"/>
<text text-anchor="middle" x="331" y="-119.5" font-family="Helvetica,sans-Serif" font-size="10.00" fill="#000000">frame.h</text>
</a>
</g>
</g>
<!-- Node0&#45;&gt;Node6 -->
<g id="edge6" class="edge">
<title>Node0&#45;&gt;Node6</title>
<path fill="none" stroke="#191970" d="M288.8427,-168.2977C296.859,-159.4941 306.9762,-148.3833 315.29,-139.2529"/>
<polygon fill="#191970" stroke="#191970" points="317.8888,-141.5974 322.0337,-131.8469 312.7131,-136.8845 317.8888,-141.5974"/>
</g>
<!-- Node7 -->
<g id="node8" class="node">
<title>Node7</title>
<g id="a_node8"><a xlink:href="utils_8h.html" target="_top" xlink:title="utils.h">
<polygon fill="#ffffff" stroke="#000000" points="257.5,-56.5 257.5,-75.5 304.5,-75.5 304.5,-56.5 257.5,-56.5"/>
<text text-anchor="middle" x="281" y="-63.5" font-family="Helvetica,sans-Serif" font-size="10.00" fill="#000000">utils.h</text>
</a>
</g>
</g>
<!-- Node0&#45;&gt;Node7 -->
<g id="edge19" class="edge">
<title>Node0&#45;&gt;Node7</title>
<path fill="none" stroke="#191970" d="M275.7844,-168.1389C276.8654,-146.9692 278.8136,-108.8174 279.9986,-85.6112"/>
<polygon fill="#191970" stroke="#191970" points="283.4972,-85.725 280.5119,-75.5595 276.5063,-85.3679 283.4972,-85.725"/>
</g>
<!-- Node8 -->
<g id="node9" class="node">
<title>Node8</title>
<g id="a_node9"><a xlink:href="packet_8h.html" target="_top" xlink:title="packet.h">
<polygon fill="#ffffff" stroke="#000000" points="386.5,-112.5 386.5,-131.5 445.5,-131.5 445.5,-112.5 386.5,-112.5"/>
<text text-anchor="middle" x="416" y="-119.5" font-family="Helvetica,sans-Serif" font-size="10.00" fill="#000000">packet.h</text>
</a>
</g>
</g>
<!-- Node0&#45;&gt;Node8 -->
<g id="edge11" class="edge">
<title>Node0&#45;&gt;Node8</title>
<path fill="none" stroke="#191970" d="M309.4925,-168.4554C332.5028,-158.419 362.5086,-145.3314 384.8055,-135.6061"/>
<polygon fill="#191970" stroke="#191970" points="386.3833,-138.7364 394.15,-131.5303 383.5846,-132.3202 386.3833,-138.7364"/>
</g>
<!-- Node11 -->
<g id="node12" class="node">
<title>Node11</title>
<g id="a_node12"><a xlink:href="option_8h.html" target="_top" xlink:title="option.h">
<polygon fill="#ffffff" stroke="#000000" points="615,-112.5 615,-131.5 671,-131.5 671,-112.5 615,-112.5"/>
<text text-anchor="middle" x="643" y="-119.5" font-family="Helvetica,sans-Serif" font-size="10.00" fill="#000000">option.h</text>
</a>
</g>
</g>
<!-- Node0&#45;&gt;Node11 -->
<g id="edge15" class="edge">
<title>Node0&#45;&gt;Node11</title>
<path fill="none" stroke="#191970" d="M339.5218,-172.7171C416.2606,-159.8926 541.8471,-138.9046 604.6771,-128.4045"/>
<polygon fill="#191970" stroke="#191970" points="605.2813,-131.8522 614.5676,-126.7516 604.1274,-124.9479 605.2813,-131.8522"/>
</g>
<!-- Node6&#45;&gt;Node5 -->
<g id="edge7" class="edge">
<title>Node6&#45;&gt;Node5</title>
<path fill="none" stroke="#191970" d="M332.7904,-112.4509C336.231,-94.1013 343.8267,-53.5908 348.3683,-29.3693"/>
<polygon fill="#191970" stroke="#191970" points="351.8112,-29.9986 350.2141,-19.5249 344.9311,-28.7086 351.8112,-29.9986"/>
</g>
<!-- Node6&#45;&gt;Node7 -->
<g id="edge8" class="edge">
<title>Node6&#45;&gt;Node7</title>
<path fill="none" stroke="#191970" d="M322.2907,-112.2455C315.1927,-104.2958 304.9916,-92.8706 296.505,-83.3656"/>
<polygon fill="#191970" stroke="#191970" points="298.8805,-80.771 289.6095,-75.6427 293.6589,-85.4331 298.8805,-80.771"/>
</g>
<!-- Node7&#45;&gt;Node4 -->
<g id="edge9" class="edge">
<title>Node7&#45;&gt;Node4</title>
<path fill="none" stroke="#191970" d="M276.6453,-56.2455C273.2756,-48.6973 268.507,-38.0158 264.4017,-28.8197"/>
<polygon fill="#191970" stroke="#191970" points="267.5773,-27.3473 260.3048,-19.6427 261.1853,-30.2009 267.5773,-27.3473"/>
</g>
<!-- Node7&#45;&gt;Node5 -->
<g id="edge10" class="edge">
<title>Node7&#45;&gt;Node5</title>
<path fill="none" stroke="#191970" d="M293.3673,-56.2455C303.9554,-47.8943 319.4064,-35.7076 331.7893,-25.9408"/>
<polygon fill="#191970" stroke="#191970" points="334.0903,-28.5837 339.7745,-19.6427 329.7553,-23.0875 334.0903,-28.5837"/>
</g>
<!-- Node8&#45;&gt;Node5 -->
<g id="edge14" class="edge">
<title>Node8&#45;&gt;Node5</title>
<path fill="none" stroke="#191970" d="M410.5434,-112.4509C399.9162,-93.8533 376.2811,-52.4919 362.5122,-28.3964"/>
<polygon fill="#191970" stroke="#191970" points="365.4431,-26.4708 357.4428,-19.5249 359.3654,-29.9438 365.4431,-26.4708"/>
</g>
<!-- Node9 -->
<g id="node10" class="node">
<title>Node9</title>
<polygon fill="#ffffff" stroke="#bfbfbf" points="399.5,-56.5 399.5,-75.5 452.5,-75.5 452.5,-56.5 399.5,-56.5"/>
<text text-anchor="middle" x="426" y="-63.5" font-family="Helvetica,sans-Serif" font-size="10.00" fill="#000000">cstddef</text>
</g>
<!-- Node8&#45;&gt;Node9 -->
<g id="edge12" class="edge">
<title>Node8&#45;&gt;Node9</title>
<path fill="none" stroke="#191970" d="M417.7419,-112.2455C419.0467,-104.9382 420.876,-94.6944 422.4813,-85.7046"/>
<polygon fill="#191970" stroke="#191970" points="425.9656,-86.1022 424.2781,-75.6427 419.0746,-84.8717 425.9656,-86.1022"/>
</g>
<!-- Node10 -->
<g id="node11" class="node">
<title>Node10</title>
<polygon fill="#ffffff" stroke="#bfbfbf" points="470.5,-56.5 470.5,-75.5 523.5,-75.5 523.5,-56.5 470.5,-56.5"/>
<text text-anchor="middle" x="497" y="-63.5" font-family="Helvetica,sans-Serif" font-size="10.00" fill="#000000">stdint.h</text>
</g>
<!-- Node8&#45;&gt;Node10 -->
<g id="edge13" class="edge">
<title>Node8&#45;&gt;Node10</title>
<path fill="none" stroke="#191970" d="M430.1091,-112.2455C442.4209,-103.7337 460.4958,-91.2375 474.7538,-81.3801"/>
<polygon fill="#191970" stroke="#191970" points="476.8174,-84.2085 483.0526,-75.6427 472.8366,-78.4506 476.8174,-84.2085"/>
</g>
<!-- Node12 -->
<g id="node13" class="node">
<title>Node12</title>
<polygon fill="#ffffff" stroke="#bfbfbf" points="729,-56.5 729,-75.5 773,-75.5 773,-56.5 729,-56.5"/>
<text text-anchor="middle" x="751" y="-63.5" font-family="Helvetica,sans-Serif" font-size="10.00" fill="#000000">string</text>
</g>
<!-- Node11&#45;&gt;Node12 -->
<g id="edge16" class="edge">
<title>Node11&#45;&gt;Node12</title>
<path fill="none" stroke="#191970" d="M661.8122,-112.2455C678.8473,-103.4125 704.1575,-90.2887 723.4681,-80.2758"/>
<polygon fill="#191970" stroke="#191970" points="725.137,-83.353 732.4034,-75.6427 721.9147,-77.1388 725.137,-83.353"/>
</g>
<!-- Node13 -->
<g id="node14" class="node">
<title>Node13</title>
<polygon fill="#ffffff" stroke="#bfbfbf" points="580.5,-56.5 580.5,-75.5 627.5,-75.5 627.5,-56.5 580.5,-56.5"/>
<text text-anchor="middle" x="604" y="-63.5" font-family="Helvetica,sans-Serif" font-size="10.00" fill="#000000">vector</text>
</g>
<!-- Node11&#45;&gt;Node13 -->
<g id="edge17" class="edge">
<title>Node11&#45;&gt;Node13</title>
<path fill="none" stroke="#191970" d="M636.2067,-112.2455C630.7822,-104.4564 623.0339,-93.3308 616.4967,-83.9439"/>
<polygon fill="#191970" stroke="#191970" points="619.3025,-81.8485 610.7154,-75.6427 613.5583,-85.849 619.3025,-81.8485"/>
</g>
<!-- Node14 -->
<g id="node15" class="node">
<title>Node14</title>
<polygon fill="#ffffff" stroke="#bfbfbf" points="645.5,-56.5 645.5,-75.5 710.5,-75.5 710.5,-56.5 645.5,-56.5"/>
<text text-anchor="middle" x="678" y="-63.5" font-family="Helvetica,sans-Serif" font-size="10.00" fill="#000000">stdexcept</text>
</g>
<!-- Node11&#45;&gt;Node14 -->
<g id="edge18" class="edge">
<title>Node11&#45;&gt;Node14</title>
<path fill="none" stroke="#191970" d="M649.0965,-112.2455C653.9145,-104.5367 660.7751,-93.5598 666.6032,-84.2348"/>
<polygon fill="#191970" stroke="#191970" points="669.6413,-85.9777 671.9733,-75.6427 663.7053,-82.2677 669.6413,-85.9777"/>
</g>
</g>
</svg>
        <g id="navigator" transform="translate(0 0)" fill="#404254">
                <rect fill="#f2f5e9" fill-opacity="0.5" stroke="#606060" stroke-width=".5" x="0" y="0" width="60" height="60"/>
                <use id="zoomplus" xlink:href="#zoomPlus" x="17" y="9" onmousedown="handleZoom(evt,'in')"/>
                <use id="zoomminus" xlink:href="#zoomMin" x="42" y="9" onmousedown="handleZoom(evt,'out')"/>
                <use id="reset" xlink:href="#resetDef" x="30" y="36" onmousedown="handleReset()"/>
                <g id="arrowUp" xlink:href="#dirArrow" transform="translate(30 24)" onmousedown="handlePan(0,-1)">
                  <use xlink:href="#rim" fill="#404040">
                        <set attributeName="fill" to="#808080" begin="arrowUp.mouseover" end="arrowUp.mouseout"/>
                  </use>
                  <path fill="none" stroke="white" stroke-width="1.5" d="M0,-3.0v7 M-2.5,-0.5L0,-3.0L2.5,-0.5"/>
                </g>
                <g id="arrowRight" xlink:href="#dirArrow" transform="rotate(90) translate(36 -43)" onmousedown="handlePan(1,0)">
                  <use xlink:href="#rim" fill="#404040">
                        <set attributeName="fill" to="#808080" begin="arrowRight.mouseover" end="arrowRight.mouseout"/>
                  </use>
                  <path fill="none" stroke="white" stroke-width="1.5" d="M0,-3.0v7 M-2.5,-0.5L0,-3.0L2.5,-0.5"/>
                </g>
                <g id="arrowDown" xlink:href="#dirArrow" transform="rotate(180) translate(-30 -48)" onmousedown="handlePan(0,1)">
                  <use xlink:href="#rim" fill="#404040">
                        <set attributeName="fill" to="#808080" begin="arrowDown.mouseover" end="arrowDown.mouseout"/>
                  </use>
                  <path fill="none" stroke="white" stroke-width="1.5" d="M0,-3.0v7 M-2.5,-0.5L0,-3.0L2.5,-0.5"/>
                </g>
                <g id="arrowLeft" xlink:href="#dirArrow" transform="rotate(270) translate(-36 17)" onmousedown="handlePan(-1,0)">
                  <use xlink:href="#rim" fill="#404040">
                        <set attributeName="fill" to="#808080" begin="arrowLeft.mouseover" end="arrowLeft.mouseout"/>
                  </use>
                  <path fill="none" stroke="white" stroke-width="1.5" d="M0,-3.0v7 M-2.5,-0.5L0,-3.0L2.5,-0.5"/>
                </g>
        </g>
        <svg viewBox="0 0 15 15" width="100%" height="30px" preserveAspectRatio="xMaxYMin meet">
         <g id="arrow_out" transform="scale(0.3 0.3)">
          <a xlink:href="codec_8h__incl_org.svg" target="_base">
           <rect id="button" ry="5" rx="5" y="6" x="6" height="38" width="38"
                fill="#f2f5e9" fill-opacity="0.5" stroke="#606060" stroke-width="1.0"/>
           <path id="arrow"
             d="M 11.500037,31.436501 C 11.940474,20.09759 22.043105,11.32322 32.158766,21.979434 L 37.068811,17.246167 C 37.068811,17.246167 37.088388,32 37.088388,32 L 22.160133,31.978069 C 22.160133,31.978069 26.997745,27.140456 26.997745,27.140456 C 18.528582,18.264221 13.291696,25.230495 11.500037,31.436501 z"
             style="fill:#404040;"/>
          </a>
         </g>
        </svg>
</svg>
