<?xml version="1.0" encoding="UTF-8" standalone="no"?>
<!DOCTYPE svg PUBLIC "-//W3C//DTD SVG 1.1//EN"
 "http://www.w3.org/Graphics/SVG/1.1/DTD/svg11.dtd">
<!-- Generated by graphviz version 2.38.0 (20140413.2041)
 -->
<!-- Title: /home/etienne/Projects/avcpp/av/codec.h Pages: 1 -->
<svg width="741pt" height="207pt"
 viewBox="0.00 0.00 740.50 207.00" xmlns="http://www.w3.org/2000/svg" xmlns:xlink="http://www.w3.org/1999/xlink">
<g id="graph0" class="graph" transform="scale(1 1) rotate(0) translate(4 203)">
<title>/home/etienne/Projects/avcpp/av/codec.h</title>
<polygon fill="white" stroke="none" points="-4,4 -4,-203 736.5,-203 736.5,4 -4,4"/>
<!-- Node0 -->
<g id="node1" class="node"><title>Node0</title>
<polygon fill="#bfbfbf" stroke="black" points="199.5,-168.5 199.5,-198.5 316.5,-198.5 316.5,-168.5 199.5,-168.5"/>
<text text-anchor="start" x="207.5" y="-186.5" font-family="Helvetica,sans-Serif" font-size="10.00">/home/etienne/Projects</text>
<text text-anchor="middle" x="258" y="-175.5" font-family="Helvetica,sans-Serif" font-size="10.00">/avcpp/av/codec.h</text>
</g>
<!-- Node1 -->
<g id="node2" class="node"><title>Node1</title>
<polygon fill="white" stroke="#bfbfbf" points="0,-112.5 0,-131.5 38,-131.5 38,-112.5 0,-112.5"/>
<text text-anchor="middle" x="19" y="-119.5" font-family="Helvetica,sans-Serif" font-size="10.00">array</text>
</g>
<!-- Node0&#45;&gt;Node1 -->
<g id="edge1" class="edge"><title>Node0&#45;&gt;Node1</title>
<path fill="none" stroke="midnightblue" d="M199.479,-169.751C159.284,-160.706 104.528,-147.821 48.04,-132.14"/>
<polygon fill="midnightblue" stroke="midnightblue" points="48.7949,-128.717 38.2215,-129.391 46.9073,-135.458 48.7949,-128.717"/>
</g>
<!-- Node2 -->
<g id="node3" class="node"><title>Node2</title>
<polygon fill="white" stroke="#bfbfbf" points="56.5,-112.5 56.5,-131.5 115.5,-131.5 115.5,-112.5 56.5,-112.5"/>
<text text-anchor="middle" x="86" y="-119.5" font-family="Helvetica,sans-Serif" font-size="10.00">functional</text>
</g>
<!-- Node0&#45;&gt;Node2 -->
<g id="edge2" class="edge"><title>Node0&#45;&gt;Node2</title>
<path fill="none" stroke="midnightblue" d="M217.238,-168.399C187.776,-158.207 148.411,-144.59 120.501,-134.935"/>
<polygon fill="midnightblue" stroke="midnightblue" points="121.371,-131.533 110.776,-131.571 119.083,-138.148 121.371,-131.533"/>
</g>
<!-- Node3 -->
<g id="node4" class="node"><title>Node3</title>
<polygon fill="white" stroke="#bfbfbf" points="134,-112.5 134,-131.5 188,-131.5 188,-112.5 134,-112.5"/>
<text text-anchor="middle" x="161" y="-119.5" font-family="Helvetica,sans-Serif" font-size="10.00">iostream</text>
</g>
<!-- Node0&#45;&gt;Node3 -->
<g id="edge3" class="edge"><title>Node0&#45;&gt;Node3</title>
<path fill="none" stroke="midnightblue" d="M235.012,-168.399C219.609,-158.951 199.407,-146.559 184.001,-137.109"/>
<polygon fill="midnightblue" stroke="midnightblue" points="185.469,-133.903 175.114,-131.658 181.808,-139.87 185.469,-133.903"/>
</g>
<!-- Node4 -->
<g id="node5" class="node"><title>Node4</title>
<polygon fill="white" stroke="#bfbfbf" points="216,-0.5 216,-19.5 268,-19.5 268,-0.5 216,-0.5"/>
<text text-anchor="middle" x="242" y="-7.5" font-family="Helvetica,sans-Serif" font-size="10.00">memory</text>
</g>
<!-- Node0&#45;&gt;Node4 -->
<g id="edge4" class="edge"><title>Node0&#45;&gt;Node4</title>
<path fill="none" stroke="midnightblue" d="M252.356,-168.217C243.792,-144.923 228.919,-97.2136 233,-56 233.874,-47.1697 235.691,-37.5054 237.465,-29.4041"/>
<polygon fill="midnightblue" stroke="midnightblue" points="240.901,-30.0846 239.765,-19.5508 234.084,-28.4935 240.901,-30.0846"/>
</g>
<!-- Node5 -->
<g id="node6" class="node"><title>Node5</title>
<polygon fill="white" stroke="#bfbfbf" points="295,-0.5 295,-19.5 369,-19.5 369,-0.5 295,-0.5"/>
<text text-anchor="middle" x="332" y="-7.5" font-family="Helvetica,sans-Serif" font-size="10.00">system_error</text>
</g>
<!-- Node0&#45;&gt;Node5 -->
<g id="edge5" class="edge"><title>Node0&#45;&gt;Node5</title>
<path fill="none" stroke="midnightblue" d="M316.549,-177.726C377.966,-169.06 470.302,-144.667 505,-76 530.458,-25.6181 439.214,-13.7858 379.65,-11.3127"/>
<polygon fill="midnightblue" stroke="midnightblue" points="379.409,-7.80263 369.296,-10.9621 379.172,-14.7986 379.409,-7.80263"/>
</g>
<!-- Node6 -->
<g id="node7" class="node"><title>Node6</title>
<g id="a_node7"><a xlink:href="frame_8h.html" target="_top" xlink:title="frame.h">
<polygon fill="white" stroke="black" points="286,-112.5 286,-131.5 336,-131.5 336,-112.5 286,-112.5"/>
<text text-anchor="middle" x="311" y="-119.5" font-family="Helvetica,sans-Serif" font-size="10.00">frame.h</text>
</a>
</g>
</g>
<!-- Node0&#45;&gt;Node6 -->
<g id="edge6" class="edge"><title>Node0&#45;&gt;Node6</title>
<path fill="none" stroke="midnightblue" d="M270.56,-168.399C278.341,-159.664 288.364,-148.413 296.484,-139.296"/>
<polygon fill="midnightblue" stroke="midnightblue" points="299.25,-141.453 303.288,-131.658 294.023,-136.797 299.25,-141.453"/>
</g>
<!-- Node7 -->
<g id="node8" class="node"><title>Node7</title>
<g id="a_node8"><a xlink:href="utils_8h.html" target="_top" xlink:title="utils.h">
<polygon fill="white" stroke="black" points="241.5,-56.5 241.5,-75.5 284.5,-75.5 284.5,-56.5 241.5,-56.5"/>
<text text-anchor="middle" x="263" y="-63.5" font-family="Helvetica,sans-Serif" font-size="10.00">utils.h</text>
</a>
</g>
</g>
<!-- Node0&#45;&gt;Node7 -->
<g id="edge19" class="edge"><title>Node0&#45;&gt;Node7</title>
<path fill="none" stroke="midnightblue" d="M258.613,-168.337C259.51,-147.622 261.181,-109.016 262.182,-85.8991"/>
<polygon fill="midnightblue" stroke="midnightblue" points="265.689,-85.8115 262.625,-75.6695 258.695,-85.5087 265.689,-85.8115"/>
</g>
<!-- Node8 -->
<g id="node9" class="node"><title>Node8</title>
<g id="a_node9"><a xlink:href="packet_8h.html" target="_top" xlink:title="packet.h">
<polygon fill="white" stroke="black" points="366,-112.5 366,-131.5 420,-131.5 420,-112.5 366,-112.5"/>
<text text-anchor="middle" x="393" y="-119.5" font-family="Helvetica,sans-Serif" font-size="10.00">packet.h</text>
</a>
</g>
</g>
<!-- Node0&#45;&gt;Node8 -->
<g id="edge11" class="edge"><title>Node0&#45;&gt;Node8</title>
<path fill="none" stroke="midnightblue" d="M289.993,-168.399C312.442,-158.505 342.215,-145.383 363.976,-135.792"/>
<polygon fill="midnightblue" stroke="midnightblue" points="365.617,-138.894 373.356,-131.658 362.794,-132.488 365.617,-138.894"/>
</g>
<!-- Node11 -->
<g id="node12" class="node"><title>Node11</title>
<g id="a_node12"><a xlink:href="option_8h.html" target="_top" xlink:title="option.h">
<polygon fill="white" stroke="black" points="585.5,-112.5 585.5,-131.5 636.5,-131.5 636.5,-112.5 585.5,-112.5"/>
<text text-anchor="middle" x="611" y="-119.5" font-family="Helvetica,sans-Serif" font-size="10.00">option.h</text>
</a>
</g>
</g>
<!-- Node0&#45;&gt;Node11 -->
<g id="edge15" class="edge"><title>Node0&#45;&gt;Node11</title>
<path fill="none" stroke="midnightblue" d="M316.687,-172.608C390.447,-160.175 514.728,-139.227 575.451,-128.992"/>
<polygon fill="midnightblue" stroke="midnightblue" points="576.051,-132.44 585.33,-127.327 574.887,-125.538 576.051,-132.44"/>
</g>
<!-- Node6&#45;&gt;Node5 -->
<g id="edge7" class="edge"><title>Node6&#45;&gt;Node5</title>
<path fill="none" stroke="midnightblue" d="M312.648,-112.368C316.037,-94.617 323.855,-53.6664 328.45,-29.5974"/>
<polygon fill="midnightblue" stroke="midnightblue" points="331.922,-30.0704 330.36,-19.5914 325.047,-28.7577 331.922,-30.0704"/>
</g>
<!-- Node6&#45;&gt;Node7 -->
<g id="edge8" class="edge"><title>Node6&#45;&gt;Node7</title>
<path fill="none" stroke="midnightblue" d="M303.074,-112.083C296.154,-104.298 285.935,-92.8015 277.548,-83.3665"/>
<polygon fill="midnightblue" stroke="midnightblue" points="280.038,-80.8999 270.779,-75.7511 274.806,-85.5505 280.038,-80.8999"/>
</g>
<!-- Node7&#45;&gt;Node4 -->
<g id="edge9" class="edge"><title>Node7&#45;&gt;Node4</title>
<path fill="none" stroke="midnightblue" d="M259.532,-56.083C256.688,-48.77 252.571,-38.1814 249.04,-29.1034"/>
<polygon fill="midnightblue" stroke="midnightblue" points="252.29,-27.8025 245.403,-19.7511 245.766,-30.3397 252.29,-27.8025"/>
</g>
<!-- Node7&#45;&gt;Node5 -->
<g id="edge10" class="edge"><title>Node7&#45;&gt;Node5</title>
<path fill="none" stroke="midnightblue" d="M274.086,-56.324C284.486,-48.1849 300.261,-35.8395 312.722,-26.0874"/>
<polygon fill="midnightblue" stroke="midnightblue" points="314.994,-28.7533 320.712,-19.8339 310.68,-23.2407 314.994,-28.7533"/>
</g>
<!-- Node8&#45;&gt;Node5 -->
<g id="edge14" class="edge"><title>Node8&#45;&gt;Node5</title>
<path fill="none" stroke="midnightblue" d="M388.213,-112.368C378.236,-94.376 355.042,-52.5503 341.775,-28.6267"/>
<polygon fill="midnightblue" stroke="midnightblue" points="344.675,-26.6393 336.764,-19.5914 338.553,-30.0342 344.675,-26.6393"/>
</g>
<!-- Node9 -->
<g id="node10" class="node"><title>Node9</title>
<polygon fill="white" stroke="#bfbfbf" points="379.5,-56.5 379.5,-75.5 428.5,-75.5 428.5,-56.5 379.5,-56.5"/>
<text text-anchor="middle" x="404" y="-63.5" font-family="Helvetica,sans-Serif" font-size="10.00">cstddef</text>
</g>
<!-- Node8&#45;&gt;Node9 -->
<g id="edge12" class="edge"><title>Node8&#45;&gt;Node9</title>
<path fill="none" stroke="midnightblue" d="M394.816,-112.083C396.274,-104.927 398.371,-94.6353 400.193,-85.6911"/>
<polygon fill="midnightblue" stroke="midnightblue" points="403.651,-86.2485 402.217,-75.7511 396.792,-84.8512 403.651,-86.2485"/>
</g>
<!-- Node10 -->
<g id="node11" class="node"><title>Node10</title>
<polygon fill="white" stroke="#bfbfbf" points="446.5,-56.5 446.5,-75.5 495.5,-75.5 495.5,-56.5 446.5,-56.5"/>
<text text-anchor="middle" x="471" y="-63.5" font-family="Helvetica,sans-Serif" font-size="10.00">stdint.h</text>
</g>
<!-- Node8&#45;&gt;Node10 -->
<g id="edge13" class="edge"><title>Node8&#45;&gt;Node10</title>
<path fill="none" stroke="midnightblue" d="M405.532,-112.324C417.586,-103.979 436.027,-91.2122 450.269,-81.3524"/>
<polygon fill="midnightblue" stroke="midnightblue" points="452.269,-84.2243 458.499,-75.6545 448.285,-78.469 452.269,-84.2243"/>
</g>
<!-- Node12 -->
<g id="node13" class="node"><title>Node12</title>
<polygon fill="white" stroke="#bfbfbf" points="691.5,-56.5 691.5,-75.5 732.5,-75.5 732.5,-56.5 691.5,-56.5"/>
<text text-anchor="middle" x="712" y="-63.5" font-family="Helvetica,sans-Serif" font-size="10.00">string</text>
</g>
<!-- Node11&#45;&gt;Node12 -->
<g id="edge16" class="edge"><title>Node11&#45;&gt;Node12</title>
<path fill="none" stroke="midnightblue" d="M627.227,-112.324C643.351,-103.703 668.3,-90.3643 686.964,-80.3855"/>
<polygon fill="midnightblue" stroke="midnightblue" points="688.644,-83.456 695.813,-75.6545 685.344,-77.283 688.644,-83.456"/>
</g>
<!-- Node13 -->
<g id="node14" class="node"><title>Node13</title>
<polygon fill="white" stroke="#bfbfbf" points="552,-56.5 552,-75.5 596,-75.5 596,-56.5 552,-56.5"/>
<text text-anchor="middle" x="574" y="-63.5" font-family="Helvetica,sans-Serif" font-size="10.00">vector</text>
</g>
<!-- Node11&#45;&gt;Node13 -->
<g id="edge17" class="edge"><title>Node11&#45;&gt;Node13</title>
<path fill="none" stroke="midnightblue" d="M604.89,-112.083C599.718,-104.534 592.154,-93.4948 585.806,-84.2298"/>
<polygon fill="midnightblue" stroke="midnightblue" points="588.536,-82.0221 579.996,-75.7511 582.761,-85.9787 588.536,-82.0221"/>
</g>
<!-- Node14 -->
<g id="node15" class="node"><title>Node14</title>
<polygon fill="white" stroke="#bfbfbf" points="614.5,-56.5 614.5,-75.5 673.5,-75.5 673.5,-56.5 614.5,-56.5"/>
<text text-anchor="middle" x="644" y="-63.5" font-family="Helvetica,sans-Serif" font-size="10.00">stdexcept</text>
</g>
<!-- Node11&#45;&gt;Node14 -->
<g id="edge18" class="edge"><title>Node11&#45;&gt;Node14</title>
<path fill="none" stroke="midnightblue" d="M616.449,-112.083C621.014,-104.613 627.668,-93.7244 633.293,-84.5199"/>
<polygon fill="midnightblue" stroke="midnightblue" points="636.424,-86.109 638.652,-75.7511 630.451,-82.4588 636.424,-86.109"/>
</g>
</g>
</svg>
