<?xml version="1.0" encoding="UTF-8" standalone="no"?>
<!DOCTYPE svg PUBLIC "-//W3C//DTD SVG 1.1//EN"
 "http://www.w3.org/Graphics/SVG/1.1/DTD/svg11.dtd">
<!-- Generated by graphviz version 2.38.0 (20140413.2041)
 -->
<!-- Title: /home/etienne/Projects/avcpp/av/constant.h Pages: 1 -->
<svg width="184pt" height="95pt"
 viewBox="0.00 0.00 183.50 95.00" xmlns="http://www.w3.org/2000/svg" xmlns:xlink="http://www.w3.org/1999/xlink">
<g id="graph0" class="graph" transform="scale(1 1) rotate(0) translate(4 91)">
<title>/home/etienne/Projects/avcpp/av/constant.h</title>
<polygon fill="white" stroke="none" points="-4,4 -4,-91 179.5,-91 179.5,4 -4,4"/>
<!-- Node0 -->
<g id="node1" class="node"><title>Node0</title>
<polygon fill="#bfbfbf" stroke="black" points="31.5,-56.5 31.5,-86.5 148.5,-86.5 148.5,-56.5 31.5,-56.5"/>
<text text-anchor="start" x="39.5" y="-74.5" font-family="Helvetica,sans-Serif" font-size="10.00">/home/etienne/Projects</text>
<text text-anchor="middle" x="90" y="-63.5" font-family="Helvetica,sans-Serif" font-size="10.00">/avcpp/av/constant.h</text>
</g>
<!-- Node1 -->
<g id="node2" class="node"><title>Node1</title>
<polygon fill="white" stroke="#bfbfbf" points="0,-0.5 0,-19.5 46,-19.5 46,-0.5 0,-0.5"/>
<text text-anchor="middle" x="23" y="-7.5" font-family="Helvetica,sans-Serif" font-size="10.00">cstdint</text>
</g>
<!-- Node0&#45;&gt;Node1 -->
<g id="edge1" class="edge"><title>Node0&#45;&gt;Node1</title>
<path fill="none" stroke="midnightblue" d="M74.1219,-56.3993C63.9846,-47.3967 50.8375,-35.7214 40.4146,-26.4652"/>
<polygon fill="midnightblue" stroke="midnightblue" points="42.5504,-23.681 32.7491,-19.6578 37.9022,-28.915 42.5504,-23.681"/>
</g>
<!-- Node2 -->
<g id="node3" class="node"><title>Node2</title>
<polygon fill="white" stroke="#bfbfbf" points="64,-0.5 64,-19.5 116,-19.5 116,-0.5 64,-0.5"/>
<text text-anchor="middle" x="90" y="-7.5" font-family="Helvetica,sans-Serif" font-size="10.00">sstream</text>
</g>
<!-- Node0&#45;&gt;Node2 -->
<g id="edge2" class="edge"><title>Node0&#45;&gt;Node2</title>
<path fill="none" stroke="midnightblue" d="M90,-56.3993C90,-48.4664 90,-38.458 90,-29.8583"/>
<polygon fill="midnightblue" stroke="midnightblue" points="93.5001,-29.6577 90,-19.6578 86.5001,-29.6578 93.5001,-29.6577"/>
</g>
<!-- Node3 -->
<g id="node4" class="node"><title>Node3</title>
<polygon fill="white" stroke="#bfbfbf" points="134.5,-0.5 134.5,-19.5 175.5,-19.5 175.5,-0.5 134.5,-0.5"/>
<text text-anchor="middle" x="155" y="-7.5" font-family="Helvetica,sans-Serif" font-size="10.00">string</text>
</g>
<!-- Node0&#45;&gt;Node3 -->
<g id="edge3" class="edge"><title>Node0&#45;&gt;Node3</title>
<path fill="none" stroke="midnightblue" d="M105.404,-56.3993C115.239,-47.3967 127.993,-35.7214 138.105,-26.4652"/>
<polygon fill="midnightblue" stroke="midnightblue" points="140.529,-28.9916 145.542,-19.6578 135.802,-23.8282 140.529,-28.9916"/>
</g>
</g>
</svg>
