<?xml version="1.0" encoding="UTF-8" standalone="no"?>
<!DOCTYPE svg PUBLIC "-//W3C//DTD SVG 1.1//EN"
 "http://www.w3.org/Graphics/SVG/1.1/DTD/svg11.dtd">
<!-- Generated by graphviz version 2.38.0 (20140413.2041)
 -->
<!-- Title: /home/etienne/Projects/avcpp/av/constant.h Pages: 1 -->
<svg width="279pt" height="374pt"
 viewBox="0.00 0.00 279.00 374.00" xmlns="http://www.w3.org/2000/svg" xmlns:xlink="http://www.w3.org/1999/xlink">
<g id="graph0" class="graph" transform="scale(1 1) rotate(0) translate(4 370)">
<title>/home/etienne/Projects/avcpp/av/constant.h</title>
<polygon fill="white" stroke="none" points="-4,4 -4,-370 275,-370 275,4 -4,4"/>
<!-- Node4 -->
<g id="node1" class="node"><title>Node4</title>
<polygon fill="#bfbfbf" stroke="black" points="72,-335.5 72,-365.5 189,-365.5 189,-335.5 72,-335.5"/>
<text text-anchor="start" x="80" y="-353.5" font-family="Helvetica,sans-Serif" font-size="10.00">/home/etienne/Projects</text>
<text text-anchor="middle" x="130.5" y="-342.5" font-family="Helvetica,sans-Serif" font-size="10.00">/avcpp/av/constant.h</text>
</g>
<!-- Node5 -->
<g id="node2" class="node"><title>Node5</title>
<g id="a_node2"><a xlink:href="codec_8h.html" target="_top" xlink:title="/home/etienne/Projects\l/avcpp/av/codec.h">
<polygon fill="white" stroke="black" points="67,-134.5 67,-164.5 184,-164.5 184,-134.5 67,-134.5"/>
<text text-anchor="start" x="75" y="-152.5" font-family="Helvetica,sans-Serif" font-size="10.00">/home/etienne/Projects</text>
<text text-anchor="middle" x="125.5" y="-141.5" font-family="Helvetica,sans-Serif" font-size="10.00">/avcpp/av/codec.h</text>
</a>
</g>
</g>
<!-- Node4&#45;&gt;Node5 -->
<g id="edge1" class="edge"><title>Node4&#45;&gt;Node5</title>
<path fill="none" stroke="midnightblue" d="M116.718,-326.077C112.58,-317.807 108.588,-308.256 106.5,-299 95.5207,-250.319 111.698,-191.128 120.473,-164.575"/>
<polygon fill="midnightblue" stroke="midnightblue" points="113.74,-327.93 121.538,-335.103 119.915,-324.633 113.74,-327.93"/>
</g>
<!-- Node9 -->
<g id="node6" class="node"><title>Node9</title>
<g id="a_node6"><a xlink:href="utils_8h.html" target="_top" xlink:title="/home/etienne/Projects\l/avcpp/av/utils.h">
<polygon fill="white" stroke="black" points="116,-268.5 116,-298.5 233,-298.5 233,-268.5 116,-268.5"/>
<text text-anchor="start" x="124" y="-286.5" font-family="Helvetica,sans-Serif" font-size="10.00">/home/etienne/Projects</text>
<text text-anchor="middle" x="174.5" y="-275.5" font-family="Helvetica,sans-Serif" font-size="10.00">/avcpp/av/utils.h</text>
</a>
</g>
</g>
<!-- Node4&#45;&gt;Node9 -->
<g id="edge6" class="edge"><title>Node4&#45;&gt;Node9</title>
<path fill="none" stroke="midnightblue" d="M145.821,-326.867C152.189,-317.459 159.382,-306.833 164.971,-298.577"/>
<polygon fill="midnightblue" stroke="midnightblue" points="142.755,-325.153 140.047,-335.396 148.551,-329.077 142.755,-325.153"/>
</g>
<!-- Node6 -->
<g id="node3" class="node"><title>Node6</title>
<g id="a_node3"><a xlink:href="av_8h.html" target="_top" xlink:title="/home/etienne/Projects\l/avcpp/av/av.h">
<polygon fill="white" stroke="black" points="135,-0.5 135,-30.5 252,-30.5 252,-0.5 135,-0.5"/>
<text text-anchor="start" x="143" y="-18.5" font-family="Helvetica,sans-Serif" font-size="10.00">/home/etienne/Projects</text>
<text text-anchor="middle" x="193.5" y="-7.5" font-family="Helvetica,sans-Serif" font-size="10.00">/avcpp/av/av.h</text>
</a>
</g>
</g>
<!-- Node5&#45;&gt;Node6 -->
<g id="edge2" class="edge"><title>Node5&#45;&gt;Node6</title>
<path fill="none" stroke="midnightblue" d="M139.246,-125.407C144.197,-116.873 149.734,-107.07 154.5,-98 166.758,-74.6721 179.723,-46.8629 187.188,-30.5007"/>
<polygon fill="midnightblue" stroke="midnightblue" points="136.203,-123.678 134.168,-134.075 142.243,-127.216 136.203,-123.678"/>
</g>
<!-- Node7 -->
<g id="node4" class="node"><title>Node7</title>
<g id="a_node4"><a xlink:href="format_8h.html" target="_top" xlink:title="/home/etienne/Projects\l/avcpp/av/format.h">
<polygon fill="white" stroke="black" points="29,-67.5 29,-97.5 146,-97.5 146,-67.5 29,-67.5"/>
<text text-anchor="start" x="37" y="-85.5" font-family="Helvetica,sans-Serif" font-size="10.00">/home/etienne/Projects</text>
<text text-anchor="middle" x="87.5" y="-74.5" font-family="Helvetica,sans-Serif" font-size="10.00">/avcpp/av/format.h</text>
</a>
</g>
</g>
<!-- Node5&#45;&gt;Node7 -->
<g id="edge3" class="edge"><title>Node5&#45;&gt;Node7</title>
<path fill="none" stroke="midnightblue" d="M112.098,-125.576C106.641,-116.241 100.507,-105.748 95.7293,-97.5765"/>
<polygon fill="midnightblue" stroke="midnightblue" points="109.186,-127.529 117.255,-134.396 115.229,-123.997 109.186,-127.529"/>
</g>
<!-- Node7&#45;&gt;Node6 -->
<g id="edge4" class="edge"><title>Node7&#45;&gt;Node6</title>
<path fill="none" stroke="midnightblue" d="M119.275,-62.0151C135.771,-51.8999 155.552,-39.7698 170.544,-30.5765"/>
<polygon fill="midnightblue" stroke="midnightblue" points="117.196,-59.1847 110.5,-67.396 120.855,-65.1521 117.196,-59.1847"/>
</g>
<!-- Node8 -->
<g id="node5" class="node"><title>Node8</title>
<g id="a_node5"><a xlink:href="resample_8h.html" target="_top" xlink:title="/home/etienne/Projects\l/avcpp/av/resample.h">
<polygon fill="white" stroke="black" points="0,-0.5 0,-30.5 117,-30.5 117,-0.5 0,-0.5"/>
<text text-anchor="start" x="8" y="-18.5" font-family="Helvetica,sans-Serif" font-size="10.00">/home/etienne/Projects</text>
<text text-anchor="middle" x="58.5" y="-7.5" font-family="Helvetica,sans-Serif" font-size="10.00">/avcpp/av/resample.h</text>
</a>
</g>
</g>
<!-- Node7&#45;&gt;Node8 -->
<g id="edge5" class="edge"><title>Node7&#45;&gt;Node8</title>
<path fill="none" stroke="midnightblue" d="M77.0112,-57.9907C72.9127,-48.8044 68.3502,-38.5781 64.7803,-30.5765"/>
<polygon fill="midnightblue" stroke="midnightblue" points="73.9366,-59.6897 81.2074,-67.396 80.3293,-56.8376 73.9366,-59.6897"/>
</g>
<!-- Node9&#45;&gt;Node5 -->
<g id="edge10" class="edge"><title>Node9&#45;&gt;Node5</title>
<path fill="none" stroke="midnightblue" d="M158.878,-259.605C153.703,-251.211 148.302,-241.449 144.5,-232 135.389,-209.356 130.054,-181.333 127.462,-164.743"/>
<polygon fill="midnightblue" stroke="midnightblue" points="155.976,-261.563 164.317,-268.095 161.87,-257.787 155.976,-261.563"/>
</g>
<!-- Node10 -->
<g id="node7" class="node"><title>Node10</title>
<g id="a_node7"><a xlink:href="frame_8h.html" target="_top" xlink:title="/home/etienne/Projects\l/avcpp/av/frame.h">
<polygon fill="white" stroke="black" points="154,-201.5 154,-231.5 271,-231.5 271,-201.5 154,-201.5"/>
<text text-anchor="start" x="162" y="-219.5" font-family="Helvetica,sans-Serif" font-size="10.00">/home/etienne/Projects</text>
<text text-anchor="middle" x="212.5" y="-208.5" font-family="Helvetica,sans-Serif" font-size="10.00">/avcpp/av/frame.h</text>
</a>
</g>
</g>
<!-- Node9&#45;&gt;Node10 -->
<g id="edge7" class="edge"><title>Node9&#45;&gt;Node10</title>
<path fill="none" stroke="midnightblue" d="M187.902,-259.576C193.359,-250.241 199.493,-239.748 204.271,-231.577"/>
<polygon fill="midnightblue" stroke="midnightblue" points="184.771,-257.997 182.745,-268.396 190.814,-261.529 184.771,-257.997"/>
</g>
<!-- Node10&#45;&gt;Node5 -->
<g id="edge8" class="edge"><title>Node10&#45;&gt;Node5</title>
<path fill="none" stroke="midnightblue" d="M185.286,-195.168C171.982,-185.228 156.304,-173.514 144.341,-164.577"/>
<polygon fill="midnightblue" stroke="midnightblue" points="183.516,-198.215 193.622,-201.396 187.706,-192.607 183.516,-198.215"/>
</g>
<!-- Node10&#45;&gt;Node6 -->
<g id="edge9" class="edge"><title>Node10&#45;&gt;Node6</title>
<path fill="none" stroke="midnightblue" d="M210.161,-190.998C206.144,-148.93 198.06,-64.2558 194.854,-30.6819"/>
<polygon fill="midnightblue" stroke="midnightblue" points="206.699,-191.566 211.134,-201.188 213.667,-190.901 206.699,-191.566"/>
</g>
</g>
</svg>
