<?xml version="1.0" encoding="UTF-8" standalone="no"?>
<!DOCTYPE svg PUBLIC "-//W3C//DTD SVG 1.1//EN"
 "http://www.w3.org/Graphics/SVG/1.1/DTD/svg11.dtd">
<!-- Generated by graphviz version 2.38.0 (20140413.2041)
 -->
<!-- Title: /home/etienne/Projects/avcpp/av/cuesheet.h Pages: 1 -->
<svg width="212pt" height="95pt"
 viewBox="0.00 0.00 211.50 95.00" xmlns="http://www.w3.org/2000/svg" xmlns:xlink="http://www.w3.org/1999/xlink">
<g id="graph0" class="graph" transform="scale(1 1) rotate(0) translate(4 91)">
<title>/home/etienne/Projects/avcpp/av/cuesheet.h</title>
<polygon fill="white" stroke="none" points="-4,4 -4,-91 207.5,-91 207.5,4 -4,4"/>
<!-- Node0 -->
<g id="node1" class="node"><title>Node0</title>
<polygon fill="#bfbfbf" stroke="black" points="46,-56.5 46,-86.5 163,-86.5 163,-56.5 46,-56.5"/>
<text text-anchor="start" x="54" y="-74.5" font-family="Helvetica,sans-Serif" font-size="10.00">/home/etienne/Projects</text>
<text text-anchor="middle" x="104.5" y="-63.5" font-family="Helvetica,sans-Serif" font-size="10.00">/avcpp/av/cuesheet.h</text>
</g>
<!-- Node1 -->
<g id="node2" class="node"><title>Node1</title>
<polygon fill="white" stroke="#bfbfbf" points="0,-0.5 0,-19.5 49,-19.5 49,-0.5 0,-0.5"/>
<text text-anchor="middle" x="24.5" y="-7.5" font-family="Helvetica,sans-Serif" font-size="10.00">istream</text>
</g>
<!-- Node0&#45;&gt;Node1 -->
<g id="edge1" class="edge"><title>Node0&#45;&gt;Node1</title>
<path fill="none" stroke="midnightblue" d="M85.5411,-56.3993C73.0773,-47.1293 56.8031,-35.0254 44.1933,-25.6469"/>
<polygon fill="midnightblue" stroke="midnightblue" points="46.2535,-22.8173 36.1407,-19.6578 42.076,-28.4341 46.2535,-22.8173"/>
</g>
<!-- Node2 -->
<g id="node3" class="node"><title>Node2</title>
<polygon fill="white" stroke="#bfbfbf" points="67.5,-0.5 67.5,-19.5 141.5,-19.5 141.5,-0.5 67.5,-0.5"/>
<text text-anchor="middle" x="104.5" y="-7.5" font-family="Helvetica,sans-Serif" font-size="10.00">system_error</text>
</g>
<!-- Node0&#45;&gt;Node2 -->
<g id="edge2" class="edge"><title>Node0&#45;&gt;Node2</title>
<path fill="none" stroke="midnightblue" d="M104.5,-56.3993C104.5,-48.4664 104.5,-38.458 104.5,-29.8583"/>
<polygon fill="midnightblue" stroke="midnightblue" points="108,-29.6577 104.5,-19.6578 101,-29.6578 108,-29.6577"/>
</g>
<!-- Node3 -->
<g id="node4" class="node"><title>Node3</title>
<polygon fill="white" stroke="#bfbfbf" points="159.5,-0.5 159.5,-19.5 203.5,-19.5 203.5,-0.5 159.5,-0.5"/>
<text text-anchor="middle" x="181.5" y="-7.5" font-family="Helvetica,sans-Serif" font-size="10.00">vector</text>
</g>
<!-- Node0&#45;&gt;Node3 -->
<g id="edge3" class="edge"><title>Node0&#45;&gt;Node3</title>
<path fill="none" stroke="midnightblue" d="M122.748,-56.3993C134.629,-47.2185 150.107,-35.2579 162.194,-25.9182"/>
<polygon fill="midnightblue" stroke="midnightblue" points="164.523,-28.5418 170.296,-19.6578 160.243,-23.0028 164.523,-28.5418"/>
</g>
</g>
</svg>
