<?xml version="1.0" encoding="UTF-8" standalone="no"?>
<!DOCTYPE svg PUBLIC "-//W3C//DTD SVG 1.1//EN"
 "http://www.w3.org/Graphics/SVG/1.1/DTD/svg11.dtd">
<!-- Generated by graphviz version 2.40.1 (20161225.0304)
 -->
<!-- Title: /home/etienne/Projects/avcpp/av/discid/discid.h Pages: 1 -->
<svg width="324pt" height="106pt"
 viewBox="0.00 0.00 324.00 106.00" xmlns="http://www.w3.org/2000/svg" xmlns:xlink="http://www.w3.org/1999/xlink">
<g id="graph0" class="graph" transform="scale(1 1) rotate(0) translate(4 102)">
<title>/home/etienne/Projects/avcpp/av/discid/discid.h</title>
<polygon fill="#ffffff" stroke="transparent" points="-4,4 -4,-102 320,-102 320,4 -4,4"/>
<!-- Node11 -->
<g id="node1" class="node">
<title>Node11</title>
<polygon fill="#bfbfbf" stroke="#000000" points="80.5,-67.5 80.5,-97.5 216.5,-97.5 216.5,-67.5 80.5,-67.5"/>
<text text-anchor="start" x="88.5" y="-85.5" font-family="Helvetica,sans-Serif" font-size="10.00" fill="#000000">/home/etienne/Projects</text>
<text text-anchor="middle" x="148.5" y="-74.5" font-family="Helvetica,sans-Serif" font-size="10.00" fill="#000000">/avcpp/av/discid/discid.h</text>
</g>
<!-- Node12 -->
<g id="node2" class="node">
<title>Node12</title>
<g id="a_node2"><a xlink:href="cddb_8h.html" target="_top" xlink:title="/home/etienne/Projects\l/avcpp/av/discid/cddb.h">
<polygon fill="#ffffff" stroke="#000000" points="0,-.5 0,-30.5 131,-30.5 131,-.5 0,-.5"/>
<text text-anchor="start" x="8" y="-18.5" font-family="Helvetica,sans-Serif" font-size="10.00" fill="#000000">/home/etienne/Projects</text>
<text text-anchor="middle" x="65.5" y="-7.5" font-family="Helvetica,sans-Serif" font-size="10.00" fill="#000000">/avcpp/av/discid/cddb.h</text>
</a>
</g>
</g>
<!-- Node11&#45;&gt;Node12 -->
<g id="edge1" class="edge">
<title>Node11&#45;&gt;Node12</title>
<path fill="none" stroke="#191970" d="M121.5942,-60.7808C109.4012,-50.9383 95.2821,-39.541 84.2595,-30.6432"/>
<polygon fill="#191970" stroke="#191970" points="119.6864,-63.7389 129.666,-67.2967 124.0832,-58.292 119.6864,-63.7389"/>
</g>
<!-- Node13 -->
<g id="node3" class="node">
<title>Node13</title>
<g id="a_node3"><a xlink:href="musicbrainz_8h.html" target="_top" xlink:title="/home/etienne/Projects\l/avcpp/av/discid/musicbrainz.h">
<polygon fill="#ffffff" stroke="#000000" points="149,-.5 149,-30.5 316,-30.5 316,-.5 149,-.5"/>
<text text-anchor="start" x="157" y="-18.5" font-family="Helvetica,sans-Serif" font-size="10.00" fill="#000000">/home/etienne/Projects</text>
<text text-anchor="middle" x="232.5" y="-7.5" font-family="Helvetica,sans-Serif" font-size="10.00" fill="#000000">/avcpp/av/discid/musicbrainz.h</text>
</a>
</g>
</g>
<!-- Node11&#45;&gt;Node13 -->
<g id="edge2" class="edge">
<title>Node11&#45;&gt;Node13</title>
<path fill="none" stroke="#191970" d="M175.73,-60.7808C188.0699,-50.9383 202.3591,-39.541 213.5145,-30.6432"/>
<polygon fill="#191970" stroke="#191970" points="173.1962,-58.3248 167.5609,-67.2967 177.5612,-63.7973 173.1962,-58.3248"/>
</g>
</g>
</svg>
