<?xml version="1.0" encoding="UTF-8" standalone="no"?>
<!DOCTYPE svg PUBLIC "-//W3C//DTD SVG 1.1//EN"
 "http://www.w3.org/Graphics/SVG/1.1/DTD/svg11.dtd">
<!-- Generated by graphviz version 2.40.1 (20161225.0304)
 -->
<!-- Title: /home/etienne/Projects/avcpp/av/discid/discid.h Pages: 1 -->
<svg width="452pt" height="207pt"
 viewBox="0.00 0.00 451.50 207.00" xmlns="http://www.w3.org/2000/svg" xmlns:xlink="http://www.w3.org/1999/xlink">
<g id="graph0" class="graph" transform="scale(1 1) rotate(0) translate(4 203)">
<title>/home/etienne/Projects/avcpp/av/discid/discid.h</title>
<polygon fill="#ffffff" stroke="transparent" points="-4,4 -4,-203 447.5,-203 447.5,4 -4,4"/>
<!-- Node0 -->
<g id="node1" class="node">
<title>Node0</title>
<polygon fill="#bfbfbf" stroke="#000000" points="173,-168.5 173,-198.5 309,-198.5 309,-168.5 173,-168.5"/>
<text text-anchor="start" x="181" y="-186.5" font-family="Helvetica,sans-Serif" font-size="10.00" fill="#000000">/home/etienne/Projects</text>
<text text-anchor="middle" x="241" y="-175.5" font-family="Helvetica,sans-Serif" font-size="10.00" fill="#000000">/avcpp/av/discid/discid.h</text>
</g>
<!-- Node1 -->
<g id="node2" class="node">
<title>Node1</title>
<polygon fill="#ffffff" stroke="#bfbfbf" points="0,-.5 0,-19.5 44,-19.5 44,-.5 0,-.5"/>
<text text-anchor="middle" x="22" y="-7.5" font-family="Helvetica,sans-Serif" font-size="10.00" fill="#000000">string</text>
</g>
<!-- Node0&#45;&gt;Node1 -->
<g id="edge1" class="edge">
<title>Node0&#45;&gt;Node1</title>
<path fill="none" stroke="#191970" d="M200.5099,-168.4924C179.3259,-159.6087 153.5897,-147.1289 133,-132 91.5096,-101.5138 53.5452,-53.6698 34.6207,-27.8891"/>
<polygon fill="#191970" stroke="#191970" points="37.4385,-25.8127 28.7463,-19.7548 31.7636,-29.9109 37.4385,-25.8127"/>
</g>
<!-- Node2 -->
<g id="node3" class="node">
<title>Node2</title>
<polygon fill="#ffffff" stroke="#bfbfbf" points="270.5,-.5 270.5,-19.5 317.5,-19.5 317.5,-.5 270.5,-.5"/>
<text text-anchor="middle" x="294" y="-7.5" font-family="Helvetica,sans-Serif" font-size="10.00" fill="#000000">vector</text>
</g>
<!-- Node0&#45;&gt;Node2 -->
<g id="edge2" class="edge">
<title>Node0&#45;&gt;Node2</title>
<path fill="none" stroke="#191970" d="M261.8824,-168.3461C272.7127,-159.1788 284.9202,-146.4768 291,-132 305.1573,-98.2898 301.5909,-54.5893 297.7627,-29.6859"/>
<polygon fill="#191970" stroke="#191970" points="301.1853,-28.9359 296.0481,-19.6699 294.2857,-30.1171 301.1853,-28.9359"/>
</g>
<!-- Node3 -->
<g id="node4" class="node">
<title>Node3</title>
<polygon fill="#ffffff" stroke="#bfbfbf" points="200.5,-112.5 200.5,-131.5 281.5,-131.5 281.5,-112.5 200.5,-112.5"/>
<text text-anchor="middle" x="241" y="-119.5" font-family="Helvetica,sans-Serif" font-size="10.00" fill="#000000">system_error</text>
</g>
<!-- Node0&#45;&gt;Node3 -->
<g id="edge3" class="edge">
<title>Node0&#45;&gt;Node3</title>
<path fill="none" stroke="#191970" d="M241,-168.2977C241,-160.3834 241,-150.6043 241,-142.0759"/>
<polygon fill="#191970" stroke="#191970" points="244.5001,-141.8469 241,-131.8469 237.5001,-141.847 244.5001,-141.8469"/>
</g>
<!-- Node4 -->
<g id="node5" class="node">
<title>Node4</title>
<g id="a_node5"><a xlink:href="toc_8h.html" target="_top" xlink:title="toc.h">
<polygon fill="#ffffff" stroke="#000000" points="141.5,-112.5 141.5,-131.5 182.5,-131.5 182.5,-112.5 141.5,-112.5"/>
<text text-anchor="middle" x="162" y="-119.5" font-family="Helvetica,sans-Serif" font-size="10.00" fill="#000000">toc.h</text>
</a>
</g>
</g>
<!-- Node0&#45;&gt;Node4 -->
<g id="edge4" class="edge">
<title>Node0&#45;&gt;Node4</title>
<path fill="none" stroke="#191970" d="M221.4719,-168.2977C209.7063,-159.1384 194.7325,-147.4816 182.7535,-138.1562"/>
<polygon fill="#191970" stroke="#191970" points="184.6898,-135.228 174.6489,-131.8469 180.3897,-140.7516 184.6898,-135.228"/>
</g>
<!-- Node10 -->
<g id="node11" class="node">
<title>Node10</title>
<polygon fill="#ffffff" stroke="#bfbfbf" points="338.5,-112.5 338.5,-131.5 443.5,-131.5 443.5,-112.5 338.5,-112.5"/>
<text text-anchor="middle" x="391" y="-119.5" font-family="Helvetica,sans-Serif" font-size="10.00" fill="#000000">gtest/gtest_prod.h</text>
</g>
<!-- Node0&#45;&gt;Node10 -->
<g id="edge13" class="edge">
<title>Node0&#45;&gt;Node10</title>
<path fill="none" stroke="#191970" d="M277.6941,-168.4554C302.3927,-158.329 334.6674,-145.0964 358.4506,-135.3453"/>
<polygon fill="#191970" stroke="#191970" points="359.8306,-138.5623 367.7553,-131.5303 357.175,-132.0855 359.8306,-138.5623"/>
</g>
<!-- Node4&#45;&gt;Node2 -->
<g id="edge6" class="edge">
<title>Node4&#45;&gt;Node2</title>
<path fill="none" stroke="#191970" d="M168.9305,-112.2123C178.928,-98.5417 198.4629,-73.4497 219,-56 233.2276,-43.9112 250.9661,-32.88 265.6196,-24.6521"/>
<polygon fill="#191970" stroke="#191970" points="267.6411,-27.5359 274.7357,-19.6672 264.2825,-21.3942 267.6411,-27.5359"/>
</g>
<!-- Node5 -->
<g id="node6" class="node">
<title>Node5</title>
<polygon fill="#ffffff" stroke="#bfbfbf" points="228,-56.5 228,-75.5 282,-75.5 282,-56.5 228,-56.5"/>
<text text-anchor="middle" x="255" y="-63.5" font-family="Helvetica,sans-Serif" font-size="10.00" fill="#000000">istream</text>
</g>
<!-- Node4&#45;&gt;Node5 -->
<g id="edge5" class="edge">
<title>Node4&#45;&gt;Node5</title>
<path fill="none" stroke="#191970" d="M178.1994,-112.2455C192.6018,-103.5731 213.8732,-90.7645 230.3799,-80.825"/>
<polygon fill="#191970" stroke="#191970" points="232.225,-83.7996 238.9863,-75.6427 228.614,-77.8028 232.225,-83.7996"/>
</g>
<!-- Node6 -->
<g id="node7" class="node">
<title>Node6</title>
<g id="a_node7"><a xlink:href="metadata_8h.html" target="_top" xlink:title="../metadata.h">
<polygon fill="#ffffff" stroke="#000000" points="90,-56.5 90,-75.5 172,-75.5 172,-56.5 90,-56.5"/>
<text text-anchor="middle" x="131" y="-63.5" font-family="Helvetica,sans-Serif" font-size="10.00" fill="#000000">../metadata.h</text>
</a>
</g>
</g>
<!-- Node4&#45;&gt;Node6 -->
<g id="edge7" class="edge">
<title>Node4&#45;&gt;Node6</title>
<path fill="none" stroke="#191970" d="M156.6002,-112.2455C152.3773,-104.617 146.3827,-93.7881 141.2559,-84.5267"/>
<polygon fill="#191970" stroke="#191970" points="144.2432,-82.6965 136.3379,-75.6427 138.119,-86.0867 144.2432,-82.6965"/>
</g>
<!-- Node6&#45;&gt;Node1 -->
<g id="edge10" class="edge">
<title>Node6&#45;&gt;Node1</title>
<path fill="none" stroke="#191970" d="M112.0136,-56.2455C94.8208,-47.4125 69.2762,-34.2887 49.7868,-24.2758"/>
<polygon fill="#191970" stroke="#191970" points="51.263,-21.0993 40.7688,-19.6427 48.0641,-27.3257 51.263,-21.0993"/>
</g>
<!-- Node6&#45;&gt;Node2 -->
<g id="edge12" class="edge">
<title>Node6&#45;&gt;Node2</title>
<path fill="none" stroke="#191970" d="M159.0207,-56.3733C187.2345,-46.6802 230.7574,-31.7275 260.713,-21.436"/>
<polygon fill="#191970" stroke="#191970" points="261.9898,-24.6982 270.31,-18.1389 259.7153,-18.078 261.9898,-24.6982"/>
</g>
<!-- Node7 -->
<g id="node8" class="node">
<title>Node7</title>
<polygon fill="#ffffff" stroke="#bfbfbf" points="62,-.5 62,-19.5 100,-19.5 100,-.5 62,-.5"/>
<text text-anchor="middle" x="81" y="-7.5" font-family="Helvetica,sans-Serif" font-size="10.00" fill="#000000">map</text>
</g>
<!-- Node6&#45;&gt;Node7 -->
<g id="edge8" class="edge">
<title>Node6&#45;&gt;Node7</title>
<path fill="none" stroke="#191970" d="M122.2907,-56.2455C115.1927,-48.2958 104.9916,-36.8706 96.505,-27.3656"/>
<polygon fill="#191970" stroke="#191970" points="98.8805,-24.771 89.6095,-19.6427 93.6589,-29.4331 98.8805,-24.771"/>
</g>
<!-- Node8 -->
<g id="node9" class="node">
<title>Node8</title>
<polygon fill="#ffffff" stroke="#bfbfbf" points="118,-.5 118,-19.5 178,-19.5 178,-.5 118,-.5"/>
<text text-anchor="middle" x="148" y="-7.5" font-family="Helvetica,sans-Serif" font-size="10.00" fill="#000000">iostream</text>
</g>
<!-- Node6&#45;&gt;Node8 -->
<g id="edge9" class="edge">
<title>Node6&#45;&gt;Node8</title>
<path fill="none" stroke="#191970" d="M133.9612,-56.2455C136.2038,-48.8579 139.3577,-38.4689 142.1081,-29.4087"/>
<polygon fill="#191970" stroke="#191970" points="145.517,-30.2282 145.0728,-19.6427 138.8188,-28.1948 145.517,-30.2282"/>
</g>
<!-- Node9 -->
<g id="node10" class="node">
<title>Node9</title>
<polygon fill="#ffffff" stroke="#bfbfbf" points="196,-.5 196,-19.5 252,-19.5 252,-.5 196,-.5"/>
<text text-anchor="middle" x="224" y="-7.5" font-family="Helvetica,sans-Serif" font-size="10.00" fill="#000000">sstream</text>
</g>
<!-- Node6&#45;&gt;Node9 -->
<g id="edge11" class="edge">
<title>Node6&#45;&gt;Node9</title>
<path fill="none" stroke="#191970" d="M147.1994,-56.2455C161.6018,-47.5731 182.8732,-34.7645 199.3799,-24.825"/>
<polygon fill="#191970" stroke="#191970" points="201.225,-27.7996 207.9863,-19.6427 197.614,-21.8028 201.225,-27.7996"/>
</g>
</g>
</svg>
