<?xml version="1.0" encoding="UTF-8" standalone="no"?>
<!DOCTYPE svg PUBLIC "-//W3C//DTD SVG 1.1//EN"
 "http://www.w3.org/Graphics/SVG/1.1/DTD/svg11.dtd">
<!-- Generated by graphviz version 2.40.1 (20161225.0304)
 -->
<!-- Title: /home/etienne/Projects/avcpp/av/dynamicrange.h Pages: 1 -->
<svg width="172pt" height="151pt"
 viewBox="0.00 0.00 172.00 151.00" xmlns="http://www.w3.org/2000/svg" xmlns:xlink="http://www.w3.org/1999/xlink">
<g id="graph0" class="graph" transform="scale(1 1) rotate(0) translate(4 147)">
<title>/home/etienne/Projects/avcpp/av/dynamicrange.h</title>
<polygon fill="#ffffff" stroke="transparent" points="-4,4 -4,-147 168,-147 168,4 -4,4"/>
<!-- Node0 -->
<g id="node1" class="node">
<title>Node0</title>
<polygon fill="#bfbfbf" stroke="#000000" points="0,-112.5 0,-142.5 146,-142.5 146,-112.5 0,-112.5"/>
<text text-anchor="start" x="8" y="-130.5" font-family="Helvetica,sans-Serif" font-size="10.00" fill="#000000">/home/etienne/Projects</text>
<text text-anchor="middle" x="73" y="-119.5" font-family="Helvetica,sans-Serif" font-size="10.00" fill="#000000">/avcpp/av/dynamicrange.h</text>
</g>
<!-- Node1 -->
<g id="node2" class="node">
<title>Node1</title>
<polygon fill="#ffffff" stroke="#bfbfbf" points="6.5,-.5 6.5,-19.5 87.5,-19.5 87.5,-.5 6.5,-.5"/>
<text text-anchor="middle" x="47" y="-7.5" font-family="Helvetica,sans-Serif" font-size="10.00" fill="#000000">system_error</text>
</g>
<!-- Node0&#45;&gt;Node1 -->
<g id="edge1" class="edge">
<title>Node0&#45;&gt;Node1</title>
<path fill="none" stroke="#191970" d="M69.601,-112.1389C64.9166,-90.9692 56.4745,-52.8174 51.3395,-29.6112"/>
<polygon fill="#191970" stroke="#191970" points="54.6932,-28.5671 49.1153,-19.5595 47.8585,-30.0795 54.6932,-28.5671"/>
</g>
<!-- Node2 -->
<g id="node3" class="node">
<title>Node2</title>
<g id="a_node3"><a xlink:href="utils_8h.html" target="_top" xlink:title="utils.h">
<polygon fill="#ffffff" stroke="#000000" points="75.5,-56.5 75.5,-75.5 122.5,-75.5 122.5,-56.5 75.5,-56.5"/>
<text text-anchor="middle" x="99" y="-63.5" font-family="Helvetica,sans-Serif" font-size="10.00" fill="#000000">utils.h</text>
</a>
</g>
</g>
<!-- Node0&#45;&gt;Node2 -->
<g id="edge2" class="edge">
<title>Node0&#45;&gt;Node2</title>
<path fill="none" stroke="#191970" d="M79.427,-112.2977C82.8857,-104.1166 87.1867,-93.943 90.8754,-85.2179"/>
<polygon fill="#191970" stroke="#191970" points="94.1668,-86.4205 94.8371,-75.8469 87.7193,-83.6947 94.1668,-86.4205"/>
</g>
<!-- Node2&#45;&gt;Node1 -->
<g id="edge4" class="edge">
<title>Node2&#45;&gt;Node1</title>
<path fill="none" stroke="#191970" d="M89.9423,-56.2455C82.4858,-48.2155 71.7366,-36.6394 62.8583,-27.0781"/>
<polygon fill="#191970" stroke="#191970" points="65.3232,-24.589 55.9539,-19.6427 60.1937,-29.3522 65.3232,-24.589"/>
</g>
<!-- Node3 -->
<g id="node4" class="node">
<title>Node3</title>
<polygon fill="#ffffff" stroke="#bfbfbf" points="106,-.5 106,-19.5 164,-19.5 164,-.5 106,-.5"/>
<text text-anchor="middle" x="135" y="-7.5" font-family="Helvetica,sans-Serif" font-size="10.00" fill="#000000">memory</text>
</g>
<!-- Node2&#45;&gt;Node3 -->
<g id="edge3" class="edge">
<title>Node2&#45;&gt;Node3</title>
<path fill="none" stroke="#191970" d="M105.2707,-56.2455C110.2264,-48.5367 117.283,-37.5598 123.2776,-28.2348"/>
<polygon fill="#191970" stroke="#191970" points="126.3376,-29.9471 128.8011,-19.6427 120.4494,-26.1618 126.3376,-29.9471"/>
</g>
</g>
</svg>
