<?xml version="1.0" encoding="UTF-8" standalone="no"?>
<!DOCTYPE svg PUBLIC "-//W3C//DTD SVG 1.1//EN"
 "http://www.w3.org/Graphics/SVG/1.1/DTD/svg11.dtd">
<!-- Generated by graphviz version 2.38.0 (20140413.2041)
 -->
<!-- Title: /home/etienne/Projects/avcpp/av/dynamicrange.h Pages: 1 -->
<svg width="156pt" height="151pt"
 viewBox="0.00 0.00 155.50 151.00" xmlns="http://www.w3.org/2000/svg" xmlns:xlink="http://www.w3.org/1999/xlink">
<g id="graph0" class="graph" transform="scale(1 1) rotate(0) translate(4 147)">
<title>/home/etienne/Projects/avcpp/av/dynamicrange.h</title>
<polygon fill="white" stroke="none" points="-4,4 -4,-147 151.5,-147 151.5,4 -4,4"/>
<!-- Node0 -->
<g id="node1" class="node"><title>Node0</title>
<polygon fill="#bfbfbf" stroke="black" points="0,-112.5 0,-142.5 131,-142.5 131,-112.5 0,-112.5"/>
<text text-anchor="start" x="8" y="-130.5" font-family="Helvetica,sans-Serif" font-size="10.00">/home/etienne/Projects</text>
<text text-anchor="middle" x="65.5" y="-119.5" font-family="Helvetica,sans-Serif" font-size="10.00">/avcpp/av/dynamicrange.h</text>
</g>
<!-- Node1 -->
<g id="node2" class="node"><title>Node1</title>
<polygon fill="white" stroke="#bfbfbf" points="3.5,-0.5 3.5,-19.5 77.5,-19.5 77.5,-0.5 3.5,-0.5"/>
<text text-anchor="middle" x="40.5" y="-7.5" font-family="Helvetica,sans-Serif" font-size="10.00">system_error</text>
</g>
<!-- Node0&#45;&gt;Node1 -->
<g id="edge1" class="edge"><title>Node0&#45;&gt;Node1</title>
<path fill="none" stroke="midnightblue" d="M62.4345,-112.337C57.9301,-91.5271 49.518,-52.6632 44.5224,-29.5834"/>
<polygon fill="midnightblue" stroke="midnightblue" points="47.9129,-28.7027 42.3765,-19.6695 41.0713,-30.1836 47.9129,-28.7027"/>
</g>
<!-- Node2 -->
<g id="node3" class="node"><title>Node2</title>
<g id="a_node3"><a xlink:href="utils_8h.html" target="_top" xlink:title="utils.h">
<polygon fill="white" stroke="black" points="69,-56.5 69,-75.5 112,-75.5 112,-56.5 69,-56.5"/>
<text text-anchor="middle" x="90.5" y="-63.5" font-family="Helvetica,sans-Serif" font-size="10.00">utils.h</text>
</a>
</g>
</g>
<!-- Node0&#45;&gt;Node2 -->
<g id="edge2" class="edge"><title>Node0&#45;&gt;Node2</title>
<path fill="none" stroke="midnightblue" d="M71.4247,-112.399C74.8702,-104.199 79.2475,-93.7809 82.9397,-84.9936"/>
<polygon fill="midnightblue" stroke="midnightblue" points="86.2153,-86.2328 86.8623,-75.6578 79.7618,-83.5213 86.2153,-86.2328"/>
</g>
<!-- Node2&#45;&gt;Node1 -->
<g id="edge4" class="edge"><title>Node2&#45;&gt;Node1</title>
<path fill="none" stroke="midnightblue" d="M82.2435,-56.083C75.0353,-48.2982 64.3902,-36.8015 55.6542,-27.3665"/>
<polygon fill="midnightblue" stroke="midnightblue" points="57.9651,-24.7108 48.6028,-19.7511 52.8288,-29.4666 57.9651,-24.7108"/>
</g>
<!-- Node3 -->
<g id="node4" class="node"><title>Node3</title>
<polygon fill="white" stroke="#bfbfbf" points="95.5,-0.5 95.5,-19.5 147.5,-19.5 147.5,-0.5 95.5,-0.5"/>
<text text-anchor="middle" x="121.5" y="-7.5" font-family="Helvetica,sans-Serif" font-size="10.00">memory</text>
</g>
<!-- Node2&#45;&gt;Node3 -->
<g id="edge3" class="edge"><title>Node2&#45;&gt;Node3</title>
<path fill="none" stroke="midnightblue" d="M95.619,-56.083C99.9075,-48.6127 106.158,-37.7244 111.442,-28.5199"/>
<polygon fill="midnightblue" stroke="midnightblue" points="114.533,-30.1662 116.476,-19.7511 108.462,-26.6811 114.533,-30.1662"/>
</g>
</g>
</svg>
