<?xml version="1.0" encoding="UTF-8" standalone="no"?>
<!DOCTYPE svg PUBLIC "-//W3C//DTD SVG 1.1//EN"
 "http://www.w3.org/Graphics/SVG/1.1/DTD/svg11.dtd">
<!-- Generated by graphviz version 2.38.0 (20140413.2041)
 -->
<!-- Title: /home/etienne/Projects/avcpp/av/format.h Pages: 1 -->
<svg width="1012pt" height="263pt"
 viewBox="0.00 0.00 1011.50 263.00" xmlns="http://www.w3.org/2000/svg" xmlns:xlink="http://www.w3.org/1999/xlink">
<g id="graph0" class="graph" transform="scale(1 1) rotate(0) translate(4 259)">
<title>/home/etienne/Projects/avcpp/av/format.h</title>
<polygon fill="white" stroke="none" points="-4,4 -4,-259 1007.5,-259 1007.5,4 -4,4"/>
<!-- Node0 -->
<g id="node1" class="node"><title>Node0</title>
<polygon fill="#bfbfbf" stroke="black" points="392.5,-224.5 392.5,-254.5 509.5,-254.5 509.5,-224.5 392.5,-224.5"/>
<text text-anchor="start" x="400.5" y="-242.5" font-family="Helvetica,sans-Serif" font-size="10.00">/home/etienne/Projects</text>
<text text-anchor="middle" x="451" y="-231.5" font-family="Helvetica,sans-Serif" font-size="10.00">/avcpp/av/format.h</text>
</g>
<!-- Node1 -->
<g id="node2" class="node"><title>Node1</title>
<polygon fill="white" stroke="#bfbfbf" points="0,-168.5 0,-187.5 56,-187.5 56,-168.5 0,-168.5"/>
<text text-anchor="middle" x="28" y="-175.5" font-family="Helvetica,sans-Serif" font-size="10.00">algorithm</text>
</g>
<!-- Node0&#45;&gt;Node1 -->
<g id="edge1" class="edge"><title>Node0&#45;&gt;Node1</title>
<path fill="none" stroke="midnightblue" d="M392.364,-232.191C317.362,-223.785 183.577,-207.664 70,-188 68.76,-187.785 67.5011,-187.56 66.231,-187.326"/>
<polygon fill="midnightblue" stroke="midnightblue" points="66.8928,-183.889 56.4071,-185.406 65.5503,-190.759 66.8928,-183.889"/>
</g>
<!-- Node2 -->
<g id="node3" class="node"><title>Node2</title>
<polygon fill="white" stroke="#bfbfbf" points="150.5,-112.5 150.5,-131.5 209.5,-131.5 209.5,-112.5 150.5,-112.5"/>
<text text-anchor="middle" x="180" y="-119.5" font-family="Helvetica,sans-Serif" font-size="10.00">functional</text>
</g>
<!-- Node0&#45;&gt;Node2 -->
<g id="edge2" class="edge"><title>Node0&#45;&gt;Node2</title>
<path fill="none" stroke="midnightblue" d="M418.041,-224.453C364.747,-201.739 260.488,-157.304 209.5,-135.573"/>
<polygon fill="midnightblue" stroke="midnightblue" points="210.615,-132.243 200.043,-131.542 207.87,-138.683 210.615,-132.243"/>
</g>
<!-- Node3 -->
<g id="node4" class="node"><title>Node3</title>
<polygon fill="white" stroke="#bfbfbf" points="956.5,-168.5 956.5,-187.5 1003.5,-187.5 1003.5,-168.5 956.5,-168.5"/>
<text text-anchor="middle" x="980" y="-175.5" font-family="Helvetica,sans-Serif" font-size="10.00">iterator</text>
</g>
<!-- Node0&#45;&gt;Node3 -->
<g id="edge3" class="edge"><title>Node0&#45;&gt;Node3</title>
<path fill="none" stroke="midnightblue" d="M509.53,-234.952C601.907,-228.798 786.955,-214.219 942,-188 943.462,-187.753 944.952,-187.482 946.454,-187.194"/>
<polygon fill="midnightblue" stroke="midnightblue" points="947.32,-190.588 956.38,-185.096 945.873,-183.739 947.32,-190.588"/>
</g>
<!-- Node4 -->
<g id="node5" class="node"><title>Node4</title>
<polygon fill="white" stroke="#bfbfbf" points="172,-0.5 172,-19.5 224,-19.5 224,-0.5 172,-0.5"/>
<text text-anchor="middle" x="198" y="-7.5" font-family="Helvetica,sans-Serif" font-size="10.00">memory</text>
</g>
<!-- Node0&#45;&gt;Node4 -->
<g id="edge4" class="edge"><title>Node0&#45;&gt;Node4</title>
<path fill="none" stroke="midnightblue" d="M392.462,-232.67C322.419,-224.867 210.067,-209.478 174,-188 140.273,-167.915 117.412,-149.505 129,-112 139.43,-78.2424 165.448,-45.7025 182.386,-27.0564"/>
<polygon fill="midnightblue" stroke="midnightblue" points="184.96,-29.4287 189.23,-19.7323 179.845,-24.6496 184.96,-29.4287"/>
</g>
<!-- Node5 -->
<g id="node6" class="node"><title>Node5</title>
<polygon fill="white" stroke="#bfbfbf" points="669.5,-56.5 669.5,-75.5 710.5,-75.5 710.5,-56.5 669.5,-56.5"/>
<text text-anchor="middle" x="690" y="-63.5" font-family="Helvetica,sans-Serif" font-size="10.00">string</text>
</g>
<!-- Node0&#45;&gt;Node5 -->
<g id="edge5" class="edge"><title>Node0&#45;&gt;Node5</title>
<path fill="none" stroke="midnightblue" d="M509.514,-236.498C572.147,-232.608 673.383,-221.223 754,-188 793.791,-171.602 813.238,-170.232 833,-132 856.391,-86.7477 769.512,-72.9267 720.83,-68.7612"/>
<polygon fill="midnightblue" stroke="midnightblue" points="721.028,-65.2662 710.789,-67.9916 720.493,-72.2457 721.028,-65.2662"/>
</g>
<!-- Node6 -->
<g id="node7" class="node"><title>Node6</title>
<polygon fill="white" stroke="#bfbfbf" points="299,-0.5 299,-19.5 373,-19.5 373,-0.5 299,-0.5"/>
<text text-anchor="middle" x="336" y="-7.5" font-family="Helvetica,sans-Serif" font-size="10.00">system_error</text>
</g>
<!-- Node0&#45;&gt;Node6 -->
<g id="edge6" class="edge"><title>Node0&#45;&gt;Node6</title>
<path fill="none" stroke="midnightblue" d="M392.305,-237.757C319.148,-233.259 196.946,-213.181 141,-132 99.3032,-71.4955 218.894,-35.3683 289.021,-19.897"/>
<polygon fill="midnightblue" stroke="midnightblue" points="289.938,-23.28 298.984,-17.7638 288.473,-16.4352 289.938,-23.28"/>
</g>
<!-- Node7 -->
<g id="node8" class="node"><title>Node7</title>
<polygon fill="white" stroke="#bfbfbf" points="868,-56.5 868,-75.5 912,-75.5 912,-56.5 868,-56.5"/>
<text text-anchor="middle" x="890" y="-63.5" font-family="Helvetica,sans-Serif" font-size="10.00">vector</text>
</g>
<!-- Node0&#45;&gt;Node7 -->
<g id="edge7" class="edge"><title>Node0&#45;&gt;Node7</title>
<path fill="none" stroke="midnightblue" d="M509.669,-233.777C593.506,-226.36 742.884,-210.471 792,-188 826.675,-172.136 833.479,-162.013 857,-132 868.322,-117.553 877.407,-98.6133 883.156,-84.9081"/>
<polygon fill="midnightblue" stroke="midnightblue" points="886.411,-86.1935 886.883,-75.6092 879.914,-83.5888 886.411,-86.1935"/>
</g>
<!-- Node8 -->
<g id="node9" class="node"><title>Node8</title>
<g id="a_node9"><a xlink:href="codec_8h.html" target="_top" xlink:title="codec.h">
<polygon fill="white" stroke="black" points="370.5,-168.5 370.5,-187.5 421.5,-187.5 421.5,-168.5 370.5,-168.5"/>
<text text-anchor="middle" x="396" y="-175.5" font-family="Helvetica,sans-Serif" font-size="10.00">codec.h</text>
</a>
</g>
</g>
<!-- Node0&#45;&gt;Node8 -->
<g id="edge8" class="edge"><title>Node0&#45;&gt;Node8</title>
<path fill="none" stroke="midnightblue" d="M437.966,-224.399C429.809,-215.575 419.278,-204.183 410.806,-195.018"/>
<polygon fill="midnightblue" stroke="midnightblue" points="413.361,-192.625 404.003,-187.658 408.221,-197.377 413.361,-192.625"/>
</g>
<!-- Node13 -->
<g id="node14" class="node"><title>Node13</title>
<g id="a_node14"><a xlink:href="packet_8h.html" target="_top" xlink:title="packet.h">
<polygon fill="white" stroke="black" points="466,-112.5 466,-131.5 520,-131.5 520,-112.5 466,-112.5"/>
<text text-anchor="middle" x="493" y="-119.5" font-family="Helvetica,sans-Serif" font-size="10.00">packet.h</text>
</a>
</g>
</g>
<!-- Node0&#45;&gt;Node13 -->
<g id="edge28" class="edge"><title>Node0&#45;&gt;Node13</title>
<path fill="none" stroke="midnightblue" d="M456.15,-224.337C463.752,-203.433 477.978,-164.31 486.356,-141.27"/>
<polygon fill="midnightblue" stroke="midnightblue" points="489.719,-142.264 489.847,-131.669 483.141,-139.871 489.719,-142.264"/>
</g>
<!-- Node18 -->
<g id="node19" class="node"><title>Node18</title>
<g id="a_node19"><a xlink:href="metadata_8h.html" target="_top" xlink:title="metadata.h">
<polygon fill="white" stroke="black" points="680.5,-168.5 680.5,-187.5 745.5,-187.5 745.5,-168.5 680.5,-168.5"/>
<text text-anchor="middle" x="713" y="-175.5" font-family="Helvetica,sans-Serif" font-size="10.00">metadata.h</text>
</a>
</g>
</g>
<!-- Node0&#45;&gt;Node18 -->
<g id="edge29" class="edge"><title>Node0&#45;&gt;Node18</title>
<path fill="none" stroke="midnightblue" d="M509.798,-225.147C558.544,-214.077 626.688,-198.601 670.335,-188.689"/>
<polygon fill="midnightblue" stroke="midnightblue" points="671.361,-192.045 680.338,-186.418 669.811,-185.219 671.361,-192.045"/>
</g>
<!-- Node8&#45;&gt;Node2 -->
<g id="edge10" class="edge"><title>Node8&#45;&gt;Node2</title>
<path fill="none" stroke="midnightblue" d="M370.374,-170.593C333.051,-161.263 263.414,-143.854 219.502,-132.876"/>
<polygon fill="midnightblue" stroke="midnightblue" points="220.287,-129.464 209.736,-130.434 218.589,-136.255 220.287,-129.464"/>
</g>
<!-- Node8&#45;&gt;Node4 -->
<g id="edge12" class="edge"><title>Node8&#45;&gt;Node4</title>
<path fill="none" stroke="midnightblue" d="M370.043,-171.237C345.62,-164.822 309.013,-152.553 283,-132 246.546,-103.196 219.153,-54.6461 206.229,-28.6637"/>
<polygon fill="midnightblue" stroke="midnightblue" points="209.358,-27.0939 201.86,-19.6086 203.053,-30.136 209.358,-27.0939"/>
</g>
<!-- Node8&#45;&gt;Node6 -->
<g id="edge13" class="edge"><title>Node8&#45;&gt;Node6</title>
<path fill="none" stroke="midnightblue" d="M392.774,-168.075C383.289,-141.832 355.354,-64.5453 342.548,-29.1165"/>
<polygon fill="midnightblue" stroke="midnightblue" points="345.788,-27.7829 339.097,-19.5681 339.205,-30.1624 345.788,-27.7829"/>
</g>
<!-- Node9 -->
<g id="node10" class="node"><title>Node9</title>
<polygon fill="white" stroke="#bfbfbf" points="410,-112.5 410,-131.5 448,-131.5 448,-112.5 410,-112.5"/>
<text text-anchor="middle" x="429" y="-119.5" font-family="Helvetica,sans-Serif" font-size="10.00">array</text>
</g>
<!-- Node8&#45;&gt;Node9 -->
<g id="edge9" class="edge"><title>Node8&#45;&gt;Node9</title>
<path fill="none" stroke="midnightblue" d="M401.449,-168.083C406.014,-160.613 412.668,-149.724 418.293,-140.52"/>
<polygon fill="midnightblue" stroke="midnightblue" points="421.424,-142.109 423.652,-131.751 415.451,-138.459 421.424,-142.109"/>
</g>
<!-- Node10 -->
<g id="node11" class="node"><title>Node10</title>
<polygon fill="white" stroke="#bfbfbf" points="608,-112.5 608,-131.5 662,-131.5 662,-112.5 608,-112.5"/>
<text text-anchor="middle" x="635" y="-119.5" font-family="Helvetica,sans-Serif" font-size="10.00">iostream</text>
</g>
<!-- Node8&#45;&gt;Node10 -->
<g id="edge11" class="edge"><title>Node8&#45;&gt;Node10</title>
<path fill="none" stroke="midnightblue" d="M421.546,-171.476C459.911,-163.141 534.665,-146.756 598,-132 598.101,-131.977 598.201,-131.953 598.302,-131.93"/>
<polygon fill="midnightblue" stroke="midnightblue" points="599.013,-135.358 607.937,-129.647 597.399,-128.547 599.013,-135.358"/>
</g>
<!-- Node11 -->
<g id="node12" class="node"><title>Node11</title>
<g id="a_node12"><a xlink:href="frame_8h.html" target="_top" xlink:title="frame.h">
<polygon fill="white" stroke="black" points="304,-112.5 304,-131.5 354,-131.5 354,-112.5 304,-112.5"/>
<text text-anchor="middle" x="329" y="-119.5" font-family="Helvetica,sans-Serif" font-size="10.00">frame.h</text>
</a>
</g>
</g>
<!-- Node8&#45;&gt;Node11 -->
<g id="edge14" class="edge"><title>Node8&#45;&gt;Node11</title>
<path fill="none" stroke="midnightblue" d="M385.235,-168.324C375.234,-160.263 360.113,-148.077 348.07,-138.369"/>
<polygon fill="midnightblue" stroke="midnightblue" points="349.943,-135.384 339.961,-131.834 345.55,-140.834 349.943,-135.384"/>
</g>
<!-- Node12 -->
<g id="node13" class="node"><title>Node12</title>
<g id="a_node13"><a xlink:href="utils_8h.html" target="_top" xlink:title="utils.h">
<polygon fill="white" stroke="black" points="264.5,-56.5 264.5,-75.5 307.5,-75.5 307.5,-56.5 264.5,-56.5"/>
<text text-anchor="middle" x="286" y="-63.5" font-family="Helvetica,sans-Serif" font-size="10.00">utils.h</text>
</a>
</g>
</g>
<!-- Node8&#45;&gt;Node12 -->
<g id="edge27" class="edge"><title>Node8&#45;&gt;Node12</title>
<path fill="none" stroke="midnightblue" d="M370.494,-172.824C346.994,-167.558 313.11,-156.09 295,-132 285.061,-118.779 283.501,-99.6472 284.012,-85.5616"/>
<polygon fill="midnightblue" stroke="midnightblue" points="287.505,-85.7858 284.746,-75.5565 280.524,-85.2736 287.505,-85.7858"/>
</g>
<!-- Node8&#45;&gt;Node13 -->
<g id="edge19" class="edge"><title>Node8&#45;&gt;Node13</title>
<path fill="none" stroke="midnightblue" d="M411.585,-168.324C426.999,-159.743 450.812,-146.486 468.71,-136.522"/>
<polygon fill="midnightblue" stroke="midnightblue" points="470.419,-139.577 477.454,-131.655 467.014,-133.461 470.419,-139.577"/>
</g>
<!-- Node16 -->
<g id="node17" class="node"><title>Node16</title>
<g id="a_node17"><a xlink:href="option_8h.html" target="_top" xlink:title="option.h">
<polygon fill="white" stroke="black" points="538.5,-112.5 538.5,-131.5 589.5,-131.5 589.5,-112.5 538.5,-112.5"/>
<text text-anchor="middle" x="564" y="-119.5" font-family="Helvetica,sans-Serif" font-size="10.00">option.h</text>
</a>
</g>
</g>
<!-- Node8&#45;&gt;Node16 -->
<g id="edge23" class="edge"><title>Node8&#45;&gt;Node16</title>
<path fill="none" stroke="midnightblue" d="M421.516,-168.799C450.008,-159.64 496.324,-144.753 528.379,-134.45"/>
<polygon fill="midnightblue" stroke="midnightblue" points="529.795,-137.671 538.244,-131.279 527.653,-131.007 529.795,-137.671"/>
</g>
<!-- Node11&#45;&gt;Node6 -->
<g id="edge15" class="edge"><title>Node11&#45;&gt;Node6</title>
<path fill="none" stroke="midnightblue" d="M329.549,-112.368C330.679,-94.617 333.285,-53.6664 334.817,-29.5974"/>
<polygon fill="midnightblue" stroke="midnightblue" points="338.311,-29.7935 335.453,-19.5914 331.325,-29.3489 338.311,-29.7935"/>
</g>
<!-- Node11&#45;&gt;Node12 -->
<g id="edge16" class="edge"><title>Node11&#45;&gt;Node12</title>
<path fill="none" stroke="midnightblue" d="M321.899,-112.083C315.763,-104.377 306.73,-93.0333 299.261,-83.6531"/>
<polygon fill="midnightblue" stroke="midnightblue" points="301.936,-81.3936 292.968,-75.7511 296.46,-85.7542 301.936,-81.3936"/>
</g>
<!-- Node12&#45;&gt;Node4 -->
<g id="edge17" class="edge"><title>Node12&#45;&gt;Node4</title>
<path fill="none" stroke="midnightblue" d="M271.861,-56.324C258.134,-47.9002 237.064,-34.9709 220.936,-25.0741"/>
<polygon fill="midnightblue" stroke="midnightblue" points="222.457,-21.9016 212.104,-19.6545 218.796,-27.8678 222.457,-21.9016"/>
</g>
<!-- Node12&#45;&gt;Node6 -->
<g id="edge18" class="edge"><title>Node12&#45;&gt;Node6</title>
<path fill="none" stroke="midnightblue" d="M294.256,-56.083C301.465,-48.2982 312.11,-36.8015 320.846,-27.3665"/>
<polygon fill="midnightblue" stroke="midnightblue" points="323.671,-29.4666 327.897,-19.7511 318.535,-24.7108 323.671,-29.4666"/>
</g>
<!-- Node13&#45;&gt;Node6 -->
<g id="edge22" class="edge"><title>Node13&#45;&gt;Node6</title>
<path fill="none" stroke="midnightblue" d="M480.68,-112.368C453.854,-93.5728 389.906,-48.7684 356.743,-25.5334"/>
<polygon fill="midnightblue" stroke="midnightblue" points="358.461,-22.4631 348.262,-19.5914 354.444,-28.196 358.461,-22.4631"/>
</g>
<!-- Node14 -->
<g id="node15" class="node"><title>Node14</title>
<polygon fill="white" stroke="#bfbfbf" points="448.5,-56.5 448.5,-75.5 497.5,-75.5 497.5,-56.5 448.5,-56.5"/>
<text text-anchor="middle" x="473" y="-63.5" font-family="Helvetica,sans-Serif" font-size="10.00">cstddef</text>
</g>
<!-- Node13&#45;&gt;Node14 -->
<g id="edge20" class="edge"><title>Node13&#45;&gt;Node14</title>
<path fill="none" stroke="midnightblue" d="M489.697,-112.083C487.018,-104.849 483.151,-94.4087 479.814,-85.3968"/>
<polygon fill="midnightblue" stroke="midnightblue" points="482.996,-83.9129 476.241,-75.7511 476.432,-86.3442 482.996,-83.9129"/>
</g>
<!-- Node15 -->
<g id="node16" class="node"><title>Node15</title>
<polygon fill="white" stroke="#bfbfbf" points="515.5,-56.5 515.5,-75.5 564.5,-75.5 564.5,-56.5 515.5,-56.5"/>
<text text-anchor="middle" x="540" y="-63.5" font-family="Helvetica,sans-Serif" font-size="10.00">stdint.h</text>
</g>
<!-- Node13&#45;&gt;Node15 -->
<g id="edge21" class="edge"><title>Node13&#45;&gt;Node15</title>
<path fill="none" stroke="midnightblue" d="M500.761,-112.083C507.537,-104.298 517.543,-92.8015 525.755,-83.3665"/>
<polygon fill="midnightblue" stroke="midnightblue" points="528.458,-85.592 532.383,-75.7511 523.178,-80.9963 528.458,-85.592"/>
</g>
<!-- Node16&#45;&gt;Node5 -->
<g id="edge24" class="edge"><title>Node16&#45;&gt;Node5</title>
<path fill="none" stroke="midnightblue" d="M583.965,-112.444C604.609,-103.596 637.063,-89.6875 660.632,-79.5865"/>
<polygon fill="midnightblue" stroke="midnightblue" points="662.316,-82.6727 670.128,-75.5164 659.558,-76.2387 662.316,-82.6727"/>
</g>
<!-- Node16&#45;&gt;Node7 -->
<g id="edge25" class="edge"><title>Node16&#45;&gt;Node7</title>
<path fill="none" stroke="midnightblue" d="M589.547,-114.122C592.719,-113.359 595.927,-112.631 599,-112 692.423,-92.8133 804.228,-77.6925 858.006,-70.9014"/>
<polygon fill="midnightblue" stroke="midnightblue" points="858.477,-74.3698 867.966,-69.6555 857.608,-67.4239 858.477,-74.3698"/>
</g>
<!-- Node17 -->
<g id="node18" class="node"><title>Node17</title>
<polygon fill="white" stroke="#bfbfbf" points="582.5,-56.5 582.5,-75.5 641.5,-75.5 641.5,-56.5 582.5,-56.5"/>
<text text-anchor="middle" x="612" y="-63.5" font-family="Helvetica,sans-Serif" font-size="10.00">stdexcept</text>
</g>
<!-- Node16&#45;&gt;Node17 -->
<g id="edge26" class="edge"><title>Node16&#45;&gt;Node17</title>
<path fill="none" stroke="midnightblue" d="M571.926,-112.083C578.846,-104.298 589.065,-92.8015 597.452,-83.3665"/>
<polygon fill="midnightblue" stroke="midnightblue" points="600.194,-85.5505 604.221,-75.7511 594.962,-80.8999 600.194,-85.5505"/>
</g>
<!-- Node18&#45;&gt;Node5 -->
<g id="edge32" class="edge"><title>Node18&#45;&gt;Node5</title>
<path fill="none" stroke="midnightblue" d="M711.195,-168.368C707.484,-150.617 698.921,-109.666 693.889,-85.5974"/>
<polygon fill="midnightblue" stroke="midnightblue" points="697.269,-84.6634 691.796,-75.5914 690.417,-86.0961 697.269,-84.6634"/>
</g>
<!-- Node18&#45;&gt;Node7 -->
<g id="edge34" class="edge"><title>Node18&#45;&gt;Node7</title>
<path fill="none" stroke="midnightblue" d="M745.626,-169.446C771.005,-162.511 806.278,-150.472 833,-132 851.635,-119.118 868.111,-98.8309 878.495,-84.3486"/>
<polygon fill="midnightblue" stroke="midnightblue" points="881.593,-86.0222 884.401,-75.8062 875.835,-82.0414 881.593,-86.0222"/>
</g>
<!-- Node18&#45;&gt;Node10 -->
<g id="edge31" class="edge"><title>Node18&#45;&gt;Node10</title>
<path fill="none" stroke="midnightblue" d="M700.468,-168.324C688.414,-159.979 669.973,-147.212 655.731,-137.352"/>
<polygon fill="midnightblue" stroke="midnightblue" points="657.715,-134.469 647.501,-131.655 653.731,-140.224 657.715,-134.469"/>
</g>
<!-- Node19 -->
<g id="node20" class="node"><title>Node19</title>
<polygon fill="white" stroke="#bfbfbf" points="718.5,-112.5 718.5,-131.5 753.5,-131.5 753.5,-112.5 718.5,-112.5"/>
<text text-anchor="middle" x="736" y="-119.5" font-family="Helvetica,sans-Serif" font-size="10.00">map</text>
</g>
<!-- Node18&#45;&gt;Node19 -->
<g id="edge30" class="edge"><title>Node18&#45;&gt;Node19</title>
<path fill="none" stroke="midnightblue" d="M716.798,-168.083C719.913,-160.77 724.423,-150.181 728.289,-141.103"/>
<polygon fill="midnightblue" stroke="midnightblue" points="731.574,-142.323 732.273,-131.751 725.134,-139.58 731.574,-142.323"/>
</g>
<!-- Node20 -->
<g id="node21" class="node"><title>Node20</title>
<polygon fill="white" stroke="#bfbfbf" points="772,-112.5 772,-131.5 824,-131.5 824,-112.5 772,-112.5"/>
<text text-anchor="middle" x="798" y="-119.5" font-family="Helvetica,sans-Serif" font-size="10.00">sstream</text>
</g>
<!-- Node18&#45;&gt;Node20 -->
<g id="edge33" class="edge"><title>Node18&#45;&gt;Node20</title>
<path fill="none" stroke="midnightblue" d="M726.657,-168.324C739.916,-159.9 760.268,-146.971 775.846,-137.074"/>
<polygon fill="midnightblue" stroke="midnightblue" points="777.813,-139.971 784.377,-131.655 774.06,-134.063 777.813,-139.971"/>
</g>
</g>
</svg>
