<?xml version="1.0" encoding="UTF-8" standalone="no"?>
<!DOCTYPE svg PUBLIC "-//W3C//DTD SVG 1.1//EN"
 "http://www.w3.org/Graphics/SVG/1.1/DTD/svg11.dtd">
<!-- Generated by graphviz version 2.40.1 (20161225.0304)
 -->
<!-- Title: /home/etienne/Projects/avcpp/av/format.h Pages: 1 -->
<svg width="1064pt" height="263pt"
 viewBox="0.00 0.00 1063.50 263.00" xmlns="http://www.w3.org/2000/svg" xmlns:xlink="http://www.w3.org/1999/xlink">
<g id="graph0" class="graph" transform="scale(1 1) rotate(0) translate(4 259)">
<title>/home/etienne/Projects/avcpp/av/format.h</title>
<polygon fill="#ffffff" stroke="transparent" points="-4,4 -4,-259 1059.5,-259 1059.5,4 -4,4"/>
<!-- Node0 -->
<g id="node1" class="node">
<title>Node0</title>
<polygon fill="#bfbfbf" stroke="#000000" points="396.5,-224.5 396.5,-254.5 525.5,-254.5 525.5,-224.5 396.5,-224.5"/>
<text text-anchor="start" x="404.5" y="-242.5" font-family="Helvetica,sans-Serif" font-size="10.00" fill="#000000">/home/etienne/Projects</text>
<text text-anchor="middle" x="461" y="-231.5" font-family="Helvetica,sans-Serif" font-size="10.00" fill="#000000">/avcpp/av/format.h</text>
</g>
<!-- Node1 -->
<g id="node2" class="node">
<title>Node1</title>
<polygon fill="#ffffff" stroke="#bfbfbf" points="0,-168.5 0,-187.5 64,-187.5 64,-168.5 0,-168.5"/>
<text text-anchor="middle" x="32" y="-175.5" font-family="Helvetica,sans-Serif" font-size="10.00" fill="#000000">algorithm</text>
</g>
<!-- Node0&#45;&gt;Node1 -->
<g id="edge1" class="edge">
<title>Node0&#45;&gt;Node1</title>
<path fill="none" stroke="#191970" d="M396.3783,-232.4173C320.0422,-223.6798 189.3448,-207.5561 78,-188 76.7322,-187.7773 75.4463,-187.5442 74.1493,-187.3028"/>
<polygon fill="#191970" stroke="#191970" points="74.5936,-183.8231 64.1057,-185.3241 73.2406,-190.6911 74.5936,-183.8231"/>
</g>
<!-- Node2 -->
<g id="node3" class="node">
<title>Node2</title>
<polygon fill="#ffffff" stroke="#bfbfbf" points="158.5,-112.5 158.5,-131.5 223.5,-131.5 223.5,-112.5 158.5,-112.5"/>
<text text-anchor="middle" x="191" y="-119.5" font-family="Helvetica,sans-Serif" font-size="10.00" fill="#000000">functional</text>
</g>
<!-- Node0&#45;&gt;Node2 -->
<g id="edge2" class="edge">
<title>Node0&#45;&gt;Node2</title>
<path fill="none" stroke="#191970" d="M426.5301,-224.4992C373.6412,-201.4828 273.261,-157.7988 222.3278,-135.6334"/>
<polygon fill="#191970" stroke="#191970" points="223.6881,-132.4084 213.1221,-131.6272 220.8948,-138.8269 223.6881,-132.4084"/>
</g>
<!-- Node3 -->
<g id="node4" class="node">
<title>Node3</title>
<polygon fill="#ffffff" stroke="#bfbfbf" points="1002.5,-168.5 1002.5,-187.5 1055.5,-187.5 1055.5,-168.5 1002.5,-168.5"/>
<text text-anchor="middle" x="1029" y="-175.5" font-family="Helvetica,sans-Serif" font-size="10.00" fill="#000000">iterator</text>
</g>
<!-- Node0&#45;&gt;Node3 -->
<g id="edge3" class="edge">
<title>Node0&#45;&gt;Node3</title>
<path fill="none" stroke="#191970" d="M525.8876,-236.1285C625.7372,-230.2732 822.8274,-216.0679 988,-188 989.4446,-187.7545 990.9138,-187.4863 992.3948,-187.2005"/>
<polygon fill="#191970" stroke="#191970" points="993.1551,-190.6172 1002.2073,-185.1119 991.6977,-183.7706 993.1551,-190.6172"/>
</g>
<!-- Node4 -->
<g id="node5" class="node">
<title>Node4</title>
<polygon fill="#ffffff" stroke="#bfbfbf" points="184,-.5 184,-19.5 242,-19.5 242,-.5 184,-.5"/>
<text text-anchor="middle" x="213" y="-7.5" font-family="Helvetica,sans-Serif" font-size="10.00" fill="#000000">memory</text>
</g>
<!-- Node0&#45;&gt;Node4 -->
<g id="edge4" class="edge">
<title>Node0&#45;&gt;Node4</title>
<path fill="none" stroke="#191970" d="M396.4028,-230.952C330.1084,-221.4567 231.9972,-205.1853 198,-188 165.1547,-171.3971 151.8068,-165.6932 137,-132 119.1671,-91.4208 162.6691,-48.4193 190.977,-25.8928"/>
<polygon fill="#191970" stroke="#191970" points="193.3913,-28.4518 199.1897,-19.5845 189.1272,-22.9004 193.3913,-28.4518"/>
</g>
<!-- Node5 -->
<g id="node6" class="node">
<title>Node5</title>
<polygon fill="#ffffff" stroke="#bfbfbf" points="708,-56.5 708,-75.5 752,-75.5 752,-56.5 708,-56.5"/>
<text text-anchor="middle" x="730" y="-63.5" font-family="Helvetica,sans-Serif" font-size="10.00" fill="#000000">string</text>
</g>
<!-- Node0&#45;&gt;Node5 -->
<g id="edge5" class="edge">
<title>Node0&#45;&gt;Node5</title>
<path fill="none" stroke="#191970" d="M525.5447,-233.208C609.338,-224.4319 750.5789,-207.3942 799,-188 839.2895,-171.8628 858.9569,-170.4958 879,-132 903.396,-85.1437 812.9394,-71.5278 762.1922,-67.5899"/>
<polygon fill="#191970" stroke="#191970" points="762.2389,-64.0849 752.0216,-66.888 761.7569,-71.0683 762.2389,-64.0849"/>
</g>
<!-- Node6 -->
<g id="node7" class="node">
<title>Node6</title>
<polygon fill="#ffffff" stroke="#bfbfbf" points="314.5,-.5 314.5,-19.5 395.5,-19.5 395.5,-.5 314.5,-.5"/>
<text text-anchor="middle" x="355" y="-7.5" font-family="Helvetica,sans-Serif" font-size="10.00" fill="#000000">system_error</text>
</g>
<!-- Node0&#45;&gt;Node6 -->
<g id="edge6" class="edge">
<title>Node0&#45;&gt;Node6</title>
<path fill="none" stroke="#191970" d="M396.3399,-226.5567C313.6316,-208.516 177.6203,-173.3316 149,-132 105.6083,-69.3366 230.0785,-33.8479 304.1929,-18.7554"/>
<polygon fill="#191970" stroke="#191970" points="305.1616,-22.1318 314.2939,-16.7605 303.8052,-15.2645 305.1616,-22.1318"/>
</g>
<!-- Node7 -->
<g id="node8" class="node">
<title>Node7</title>
<polygon fill="#ffffff" stroke="#bfbfbf" points="912.5,-56.5 912.5,-75.5 959.5,-75.5 959.5,-56.5 912.5,-56.5"/>
<text text-anchor="middle" x="936" y="-63.5" font-family="Helvetica,sans-Serif" font-size="10.00" fill="#000000">vector</text>
</g>
<!-- Node0&#45;&gt;Node7 -->
<g id="edge7" class="edge">
<title>Node0&#45;&gt;Node7</title>
<path fill="none" stroke="#191970" d="M525.8419,-234.9325C618.0348,-227.7063 781.8335,-211.952 836,-188 871.4941,-172.3048 878.9267,-162.4409 903,-132 914.2716,-117.747 923.1836,-99.0264 928.8904,-85.1647"/>
<polygon fill="#191970" stroke="#191970" points="932.2228,-86.2537 932.6156,-75.6662 925.706,-83.6979 932.2228,-86.2537"/>
</g>
<!-- Node8 -->
<g id="node9" class="node">
<title>Node8</title>
<g id="a_node9"><a xlink:href="codec_8h.html" target="_top" xlink:title="codec.h">
<polygon fill="#ffffff" stroke="#000000" points="391,-168.5 391,-187.5 445,-187.5 445,-168.5 391,-168.5"/>
<text text-anchor="middle" x="418" y="-175.5" font-family="Helvetica,sans-Serif" font-size="10.00" fill="#000000">codec.h</text>
</a>
</g>
</g>
<!-- Node0&#45;&gt;Node8 -->
<g id="edge8" class="edge">
<title>Node0&#45;&gt;Node8</title>
<path fill="none" stroke="#191970" d="M450.3708,-224.2977C444.4019,-215.7609 436.9162,-205.0545 430.6471,-196.0883"/>
<polygon fill="#191970" stroke="#191970" points="433.4835,-194.0368 424.8848,-187.8469 427.7466,-198.048 433.4835,-194.0368"/>
</g>
<!-- Node13 -->
<g id="node14" class="node">
<title>Node13</title>
<g id="a_node14"><a xlink:href="packet_8h.html" target="_top" xlink:title="packet.h">
<polygon fill="#ffffff" stroke="#000000" points="490.5,-112.5 490.5,-131.5 549.5,-131.5 549.5,-112.5 490.5,-112.5"/>
<text text-anchor="middle" x="520" y="-119.5" font-family="Helvetica,sans-Serif" font-size="10.00" fill="#000000">packet.h</text>
</a>
</g>
</g>
<!-- Node0&#45;&gt;Node13 -->
<g id="edge28" class="edge">
<title>Node0&#45;&gt;Node13</title>
<path fill="none" stroke="#191970" d="M468.7132,-224.1389C479.4881,-202.6806 499.0242,-163.7738 510.6252,-140.6702"/>
<polygon fill="#191970" stroke="#191970" points="513.8404,-142.0667 515.1999,-131.5595 507.5847,-138.9256 513.8404,-142.0667"/>
</g>
<!-- Node18 -->
<g id="node19" class="node">
<title>Node18</title>
<g id="a_node19"><a xlink:href="metadata_8h.html" target="_top" xlink:title="metadata.h">
<polygon fill="#ffffff" stroke="#000000" points="716.5,-168.5 716.5,-187.5 789.5,-187.5 789.5,-168.5 716.5,-168.5"/>
<text text-anchor="middle" x="753" y="-175.5" font-family="Helvetica,sans-Serif" font-size="10.00" fill="#000000">metadata.h</text>
</a>
</g>
</g>
<!-- Node0&#45;&gt;Node18 -->
<g id="edge29" class="edge">
<title>Node0&#45;&gt;Node18</title>
<path fill="none" stroke="#191970" d="M525.8043,-225.8512C580.5488,-214.3211 657.6255,-198.0874 706.441,-187.8061"/>
<polygon fill="#191970" stroke="#191970" points="707.3465,-191.1922 716.4105,-185.7064 705.9038,-184.3425 707.3465,-191.1922"/>
</g>
<!-- Node8&#45;&gt;Node2 -->
<g id="edge10" class="edge">
<title>Node8&#45;&gt;Node2</title>
<path fill="none" stroke="#191970" d="M390.6185,-171.2451C351.5906,-161.6171 279.6066,-143.8589 233.582,-132.5048"/>
<polygon fill="#191970" stroke="#191970" points="234.1576,-129.042 223.6104,-130.0448 232.481,-135.8382 234.1576,-129.042"/>
</g>
<!-- Node8&#45;&gt;Node4 -->
<g id="edge12" class="edge">
<title>Node8&#45;&gt;Node4</title>
<path fill="none" stroke="#191970" d="M390.6592,-172.5775C364.4754,-166.3097 324.9302,-153.9263 297,-132 260.9292,-103.6829 234.3513,-55.6172 221.5441,-29.057"/>
<polygon fill="#191970" stroke="#191970" points="224.5837,-27.2938 217.1818,-19.7133 218.2409,-30.2551 224.5837,-27.2938"/>
</g>
<!-- Node8&#45;&gt;Node6 -->
<g id="edge13" class="edge">
<title>Node8&#45;&gt;Node6</title>
<path fill="none" stroke="#191970" d="M414.4323,-168.4862C404.3873,-141.6994 375.7212,-65.2565 362.2108,-29.2289"/>
<polygon fill="#191970" stroke="#191970" points="365.4739,-27.9622 358.6855,-19.8279 358.9196,-30.4201 365.4739,-27.9622"/>
</g>
<!-- Node9 -->
<g id="node10" class="node">
<title>Node9</title>
<polygon fill="#ffffff" stroke="#bfbfbf" points="430,-112.5 430,-131.5 472,-131.5 472,-112.5 430,-112.5"/>
<text text-anchor="middle" x="451" y="-119.5" font-family="Helvetica,sans-Serif" font-size="10.00" fill="#000000">array</text>
</g>
<!-- Node8&#45;&gt;Node9 -->
<g id="edge9" class="edge">
<title>Node8&#45;&gt;Node9</title>
<path fill="none" stroke="#191970" d="M423.7482,-168.2455C428.2435,-160.617 434.6248,-149.7881 440.0825,-140.5267"/>
<polygon fill="#191970" stroke="#191970" points="443.2561,-142.035 445.3177,-131.6427 437.2253,-138.4811 443.2561,-142.035"/>
</g>
<!-- Node10 -->
<g id="node11" class="node">
<title>Node10</title>
<polygon fill="#ffffff" stroke="#bfbfbf" points="642,-112.5 642,-131.5 702,-131.5 702,-112.5 642,-112.5"/>
<text text-anchor="middle" x="672" y="-119.5" font-family="Helvetica,sans-Serif" font-size="10.00" fill="#000000">iostream</text>
</g>
<!-- Node8&#45;&gt;Node10 -->
<g id="edge11" class="edge">
<title>Node8&#45;&gt;Node10</title>
<path fill="none" stroke="#191970" d="M445.2302,-172.5399C484.3582,-164.615 558.9721,-149.2092 631.9758,-132.176"/>
<polygon fill="#191970" stroke="#191970" points="632.8595,-135.5638 641.7959,-129.8724 631.2608,-128.7488 632.8595,-135.5638"/>
</g>
<!-- Node11 -->
<g id="node12" class="node">
<title>Node11</title>
<g id="a_node12"><a xlink:href="frame_8h.html" target="_top" xlink:title="frame.h">
<polygon fill="#ffffff" stroke="#000000" points="318.5,-112.5 318.5,-131.5 373.5,-131.5 373.5,-112.5 318.5,-112.5"/>
<text text-anchor="middle" x="346" y="-119.5" font-family="Helvetica,sans-Serif" font-size="10.00" fill="#000000">frame.h</text>
</a>
</g>
</g>
<!-- Node8&#45;&gt;Node11 -->
<g id="edge14" class="edge">
<title>Node8&#45;&gt;Node11</title>
<path fill="none" stroke="#191970" d="M405.4586,-168.2455C394.7213,-159.8943 379.0527,-147.7076 366.4953,-137.9408"/>
<polygon fill="#191970" stroke="#191970" points="368.4401,-135.0194 358.3977,-131.6427 364.1425,-140.5449 368.4401,-135.0194"/>
</g>
<!-- Node12 -->
<g id="node13" class="node">
<title>Node12</title>
<g id="a_node13"><a xlink:href="utils_8h.html" target="_top" xlink:title="utils.h">
<polygon fill="#ffffff" stroke="#000000" points="279.5,-56.5 279.5,-75.5 326.5,-75.5 326.5,-56.5 279.5,-56.5"/>
<text text-anchor="middle" x="303" y="-63.5" font-family="Helvetica,sans-Serif" font-size="10.00" fill="#000000">utils.h</text>
</a>
</g>
</g>
<!-- Node8&#45;&gt;Node12 -->
<g id="edge27" class="edge">
<title>Node8&#45;&gt;Node12</title>
<path fill="none" stroke="#191970" d="M390.7271,-174.4575C365.1798,-169.5836 328.1471,-158.2025 309,-132 299.3585,-118.8058 298.5685,-99.9364 299.776,-85.7505"/>
<polygon fill="#191970" stroke="#191970" points="303.2804,-85.9313 301.0417,-75.5757 296.334,-85.0671 303.2804,-85.9313"/>
</g>
<!-- Node8&#45;&gt;Node13 -->
<g id="edge19" class="edge">
<title>Node8&#45;&gt;Node13</title>
<path fill="none" stroke="#191970" d="M435.767,-168.2455C451.7095,-159.4928 475.3259,-146.527 493.4989,-136.5496"/>
<polygon fill="#191970" stroke="#191970" points="495.3552,-139.5233 502.4366,-131.6427 491.9863,-133.3873 495.3552,-139.5233"/>
</g>
<!-- Node16 -->
<g id="node17" class="node">
<title>Node16</title>
<g id="a_node17"><a xlink:href="option_8h.html" target="_top" xlink:title="option.h">
<polygon fill="#ffffff" stroke="#000000" points="568,-112.5 568,-131.5 624,-131.5 624,-112.5 568,-112.5"/>
<text text-anchor="middle" x="596" y="-119.5" font-family="Helvetica,sans-Serif" font-size="10.00" fill="#000000">option.h</text>
</a>
</g>
</g>
<!-- Node8&#45;&gt;Node16 -->
<g id="edge23" class="edge">
<title>Node8&#45;&gt;Node16</title>
<path fill="none" stroke="#191970" d="M445.0344,-169.4948C475.219,-159.9985 524.2817,-144.5631 558.2442,-133.8782"/>
<polygon fill="#191970" stroke="#191970" points="559.3389,-137.203 567.8276,-130.8632 557.2382,-130.5257 559.3389,-137.203"/>
</g>
<!-- Node11&#45;&gt;Node6 -->
<g id="edge15" class="edge">
<title>Node11&#45;&gt;Node6</title>
<path fill="none" stroke="#191970" d="M346.7673,-112.4509C348.2352,-94.184 351.4679,-53.9553 353.4172,-29.6976"/>
<polygon fill="#191970" stroke="#191970" points="356.9223,-29.7731 354.2346,-19.5249 349.9448,-29.2124 356.9223,-29.7731"/>
</g>
<!-- Node11&#45;&gt;Node12 -->
<g id="edge16" class="edge">
<title>Node11&#45;&gt;Node12</title>
<path fill="none" stroke="#191970" d="M338.51,-112.2455C332.4674,-104.3761 323.8097,-93.101 316.5559,-83.6542"/>
<polygon fill="#191970" stroke="#191970" points="319.2705,-81.4426 310.4042,-75.6427 313.7185,-85.7058 319.2705,-81.4426"/>
</g>
<!-- Node12&#45;&gt;Node4 -->
<g id="edge17" class="edge">
<title>Node12&#45;&gt;Node4</title>
<path fill="none" stroke="#191970" d="M287.3232,-56.2455C273.5144,-47.6534 253.1807,-35.0014 237.2708,-25.1018"/>
<polygon fill="#191970" stroke="#191970" points="238.8368,-21.954 228.4972,-19.6427 235.1387,-27.8974 238.8368,-21.954"/>
</g>
<!-- Node12&#45;&gt;Node6 -->
<g id="edge18" class="edge">
<title>Node12&#45;&gt;Node6</title>
<path fill="none" stroke="#191970" d="M312.0577,-56.2455C319.5142,-48.2155 330.2634,-36.6394 339.1417,-27.0781"/>
<polygon fill="#191970" stroke="#191970" points="341.8063,-29.3522 346.0461,-19.6427 336.6768,-24.589 341.8063,-29.3522"/>
</g>
<!-- Node13&#45;&gt;Node6 -->
<g id="edge22" class="edge">
<title>Node13&#45;&gt;Node6</title>
<path fill="none" stroke="#191970" d="M505.9322,-112.4509C477.3162,-93.0268 412.117,-48.7703 377.5247,-25.2895"/>
<polygon fill="#191970" stroke="#191970" points="379.2718,-22.2453 369.0322,-19.5249 375.3404,-28.037 379.2718,-22.2453"/>
</g>
<!-- Node14 -->
<g id="node15" class="node">
<title>Node14</title>
<polygon fill="#ffffff" stroke="#bfbfbf" points="468.5,-56.5 468.5,-75.5 521.5,-75.5 521.5,-56.5 468.5,-56.5"/>
<text text-anchor="middle" x="495" y="-63.5" font-family="Helvetica,sans-Serif" font-size="10.00" fill="#000000">cstddef</text>
</g>
<!-- Node13&#45;&gt;Node14 -->
<g id="edge20" class="edge">
<title>Node13&#45;&gt;Node14</title>
<path fill="none" stroke="#191970" d="M515.6453,-112.2455C512.2756,-104.6973 507.507,-94.0158 503.4017,-84.8197"/>
<polygon fill="#191970" stroke="#191970" points="506.5773,-83.3473 499.3048,-75.6427 500.1853,-86.2009 506.5773,-83.3473"/>
</g>
<!-- Node15 -->
<g id="node16" class="node">
<title>Node15</title>
<polygon fill="#ffffff" stroke="#bfbfbf" points="539.5,-56.5 539.5,-75.5 592.5,-75.5 592.5,-56.5 539.5,-56.5"/>
<text text-anchor="middle" x="566" y="-63.5" font-family="Helvetica,sans-Serif" font-size="10.00" fill="#000000">stdint.h</text>
</g>
<!-- Node13&#45;&gt;Node15 -->
<g id="edge21" class="edge">
<title>Node13&#45;&gt;Node15</title>
<path fill="none" stroke="#191970" d="M528.0126,-112.2455C534.4768,-104.3761 543.7385,-93.101 551.4983,-83.6542"/>
<polygon fill="#191970" stroke="#191970" points="554.4364,-85.5916 558.0792,-75.6427 549.0273,-81.1484 554.4364,-85.5916"/>
</g>
<!-- Node16&#45;&gt;Node5 -->
<g id="edge24" class="edge">
<title>Node16&#45;&gt;Node5</title>
<path fill="none" stroke="#191970" d="M619.0354,-112.3733C640.8704,-103.2482 673.8589,-89.462 698.1957,-79.2913"/>
<polygon fill="#191970" stroke="#191970" points="699.8333,-82.4004 707.7104,-75.315 697.1341,-75.9417 699.8333,-82.4004"/>
</g>
<!-- Node16&#45;&gt;Node7 -->
<g id="edge25" class="edge">
<title>Node16&#45;&gt;Node7</title>
<path fill="none" stroke="#191970" d="M624.2021,-114.0245C627.1617,-113.2935 630.1349,-112.6026 633,-112 729.8519,-91.6285 845.9288,-76.5751 902.1587,-69.8667"/>
<polygon fill="#191970" stroke="#191970" points="902.7427,-73.3222 912.2636,-68.6745 901.9224,-66.3704 902.7427,-73.3222"/>
</g>
<!-- Node17 -->
<g id="node18" class="node">
<title>Node17</title>
<polygon fill="#ffffff" stroke="#bfbfbf" points="610.5,-56.5 610.5,-75.5 675.5,-75.5 675.5,-56.5 610.5,-56.5"/>
<text text-anchor="middle" x="643" y="-63.5" font-family="Helvetica,sans-Serif" font-size="10.00" fill="#000000">stdexcept</text>
</g>
<!-- Node16&#45;&gt;Node17 -->
<g id="edge26" class="edge">
<title>Node16&#45;&gt;Node17</title>
<path fill="none" stroke="#191970" d="M604.1868,-112.2455C610.8589,-104.2958 620.4479,-92.8706 628.4253,-83.3656"/>
<polygon fill="#191970" stroke="#191970" points="631.1592,-85.5525 634.907,-75.6427 625.7974,-81.0524 631.1592,-85.5525"/>
</g>
<!-- Node18&#45;&gt;Node5 -->
<g id="edge32" class="edge">
<title>Node18&#45;&gt;Node5</title>
<path fill="none" stroke="#191970" d="M751.039,-168.4509C747.2708,-150.1013 738.9517,-109.5908 733.9776,-85.3693"/>
<polygon fill="#191970" stroke="#191970" points="737.3961,-84.6164 731.956,-75.5249 730.5392,-86.0246 737.3961,-84.6164"/>
</g>
<!-- Node18&#45;&gt;Node7 -->
<g id="edge34" class="edge">
<title>Node18&#45;&gt;Node7</title>
<path fill="none" stroke="#191970" d="M789.5162,-169.935C815.9963,-162.8855 851.7874,-150.7871 879,-132 897.5721,-119.1782 913.8416,-98.9111 924.1932,-84.2163"/>
<polygon fill="#191970" stroke="#191970" points="927.1165,-86.1416 929.8415,-75.9031 921.3265,-82.2076 927.1165,-86.1416"/>
</g>
<!-- Node18&#45;&gt;Node10 -->
<g id="edge31" class="edge">
<title>Node18&#45;&gt;Node10</title>
<path fill="none" stroke="#191970" d="M738.8909,-168.2455C726.5791,-159.7337 708.5042,-147.2375 694.2462,-137.3801"/>
<polygon fill="#191970" stroke="#191970" points="696.1634,-134.4506 685.9474,-131.6427 692.1826,-140.2085 696.1634,-134.4506"/>
</g>
<!-- Node19 -->
<g id="node20" class="node">
<title>Node19</title>
<polygon fill="#ffffff" stroke="#bfbfbf" points="758,-112.5 758,-131.5 796,-131.5 796,-112.5 758,-112.5"/>
<text text-anchor="middle" x="777" y="-119.5" font-family="Helvetica,sans-Serif" font-size="10.00" fill="#000000">map</text>
</g>
<!-- Node18&#45;&gt;Node19 -->
<g id="edge30" class="edge">
<title>Node18&#45;&gt;Node19</title>
<path fill="none" stroke="#191970" d="M757.1805,-168.2455C760.381,-160.7776 764.896,-150.2427 768.8084,-141.1137"/>
<polygon fill="#191970" stroke="#191970" points="772.1452,-142.2129 772.8674,-131.6427 765.7112,-139.4554 772.1452,-142.2129"/>
</g>
<!-- Node20 -->
<g id="node21" class="node">
<title>Node20</title>
<polygon fill="#ffffff" stroke="#bfbfbf" points="814,-112.5 814,-131.5 870,-131.5 870,-112.5 814,-112.5"/>
<text text-anchor="middle" x="842" y="-119.5" font-family="Helvetica,sans-Serif" font-size="10.00" fill="#000000">sstream</text>
</g>
<!-- Node18&#45;&gt;Node20 -->
<g id="edge33" class="edge">
<title>Node18&#45;&gt;Node20</title>
<path fill="none" stroke="#191970" d="M768.5026,-168.2455C782.158,-159.6534 802.2657,-147.0014 817.9989,-137.1018"/>
<polygon fill="#191970" stroke="#191970" points="820.0751,-139.9307 826.675,-131.6427 816.3471,-134.006 820.0751,-139.9307"/>
</g>
</g>
</svg>
