<?xml version="1.0" encoding="UTF-8" standalone="no"?>
<!DOCTYPE svg PUBLIC "-//W3C//DTD SVG 1.1//EN"
 "http://www.w3.org/Graphics/SVG/1.1/DTD/svg11.dtd">
<!-- Generated by graphviz version 2.38.0 (20140413.2041)
 -->
<!-- Title: /home/etienne/Projects/avcpp/av/format.h Pages: 1 -->
<svg width="1012pt" height="263pt"
 viewBox="0.00 0.00 1011.50 263.00" xmlns="http://www.w3.org/2000/svg" xmlns:xlink="http://www.w3.org/1999/xlink">
<g id="graph0" class="graph" transform="scale(1 1) rotate(0) translate(4 259)">
<title>/home/etienne/Projects/avcpp/av/format.h</title>
<polygon fill="white" stroke="none" points="-4,4 -4,-259 1007.5,-259 1007.5,4 -4,4"/>
<!-- Node0 -->
<g id="node1" class="node"><title>Node0</title>
<polygon fill="#bfbfbf" stroke="black" points="406.5,-224.5 406.5,-254.5 523.5,-254.5 523.5,-224.5 406.5,-224.5"/>
<text text-anchor="start" x="414.5" y="-242.5" font-family="Helvetica,sans-Serif" font-size="10.00">/home/etienne/Projects</text>
<text text-anchor="middle" x="465" y="-231.5" font-family="Helvetica,sans-Serif" font-size="10.00">/avcpp/av/format.h</text>
</g>
<!-- Node1 -->
<g id="node2" class="node"><title>Node1</title>
<polygon fill="white" stroke="#bfbfbf" points="0,-168.5 0,-187.5 56,-187.5 56,-168.5 0,-168.5"/>
<text text-anchor="middle" x="28" y="-175.5" font-family="Helvetica,sans-Serif" font-size="10.00">algorithm</text>
</g>
<!-- Node0&#45;&gt;Node1 -->
<g id="edge1" class="edge"><title>Node0&#45;&gt;Node1</title>
<path fill="none" stroke="midnightblue" d="M406.213,-232.543C328.846,-224.347 188.748,-208.277 70,-188 68.7596,-187.788 67.5001,-187.565 66.2297,-187.333"/>
<polygon fill="midnightblue" stroke="midnightblue" points="66.8881,-183.896 56.4041,-185.424 65.5528,-190.767 66.8881,-183.896"/>
</g>
<!-- Node2 -->
<g id="node3" class="node"><title>Node2</title>
<polygon fill="white" stroke="#bfbfbf" points="112.5,-112.5 112.5,-131.5 171.5,-131.5 171.5,-112.5 112.5,-112.5"/>
<text text-anchor="middle" x="142" y="-119.5" font-family="Helvetica,sans-Serif" font-size="10.00">functional</text>
</g>
<!-- Node0&#45;&gt;Node2 -->
<g id="edge2" class="edge"><title>Node0&#45;&gt;Node2</title>
<path fill="none" stroke="midnightblue" d="M425.717,-224.453C361.668,-201.55 235.857,-156.562 175.654,-135.034"/>
<polygon fill="midnightblue" stroke="midnightblue" points="176.483,-131.614 165.889,-131.542 174.126,-138.205 176.483,-131.614"/>
</g>
<!-- Node3 -->
<g id="node4" class="node"><title>Node3</title>
<polygon fill="white" stroke="#bfbfbf" points="956.5,-168.5 956.5,-187.5 1003.5,-187.5 1003.5,-168.5 956.5,-168.5"/>
<text text-anchor="middle" x="980" y="-175.5" font-family="Helvetica,sans-Serif" font-size="10.00">iterator</text>
</g>
<!-- Node0&#45;&gt;Node3 -->
<g id="edge3" class="edge"><title>Node0&#45;&gt;Node3</title>
<path fill="none" stroke="midnightblue" d="M523.705,-234.698C614.047,-228.304 792.393,-213.53 942,-188 943.462,-187.751 944.951,-187.478 946.453,-187.188"/>
<polygon fill="midnightblue" stroke="midnightblue" points="947.321,-190.582 956.379,-185.085 945.87,-183.734 947.321,-190.582"/>
</g>
<!-- Node4 -->
<g id="node5" class="node"><title>Node4</title>
<polygon fill="white" stroke="#bfbfbf" points="174,-0.5 174,-19.5 226,-19.5 226,-0.5 174,-0.5"/>
<text text-anchor="middle" x="200" y="-7.5" font-family="Helvetica,sans-Serif" font-size="10.00">memory</text>
</g>
<!-- Node0&#45;&gt;Node4 -->
<g id="edge4" class="edge"><title>Node0&#45;&gt;Node4</title>
<path fill="none" stroke="midnightblue" d="M406.219,-229.993C313.109,-215.159 138.576,-181.358 103,-132 73.9746,-91.7294 137.073,-46.702 174.653,-24.6583"/>
<polygon fill="midnightblue" stroke="midnightblue" points="176.632,-27.5591 183.586,-19.566 173.165,-21.4778 176.632,-27.5591"/>
</g>
<!-- Node5 -->
<g id="node6" class="node"><title>Node5</title>
<polygon fill="white" stroke="#bfbfbf" points="669.5,-56.5 669.5,-75.5 710.5,-75.5 710.5,-56.5 669.5,-56.5"/>
<text text-anchor="middle" x="690" y="-63.5" font-family="Helvetica,sans-Serif" font-size="10.00">string</text>
</g>
<!-- Node0&#45;&gt;Node5 -->
<g id="edge5" class="edge"><title>Node0&#45;&gt;Node5</title>
<path fill="none" stroke="midnightblue" d="M523.585,-235.829C583.514,-231.384 678.305,-219.542 754,-188 793.727,-171.446 813.238,-170.232 833,-132 856.391,-86.7477 769.512,-72.9267 720.83,-68.7612"/>
<polygon fill="midnightblue" stroke="midnightblue" points="721.028,-65.2662 710.789,-67.9916 720.493,-72.2457 721.028,-65.2662"/>
</g>
<!-- Node6 -->
<g id="node7" class="node"><title>Node6</title>
<polygon fill="white" stroke="#bfbfbf" points="308,-56.5 308,-75.5 382,-75.5 382,-56.5 308,-56.5"/>
<text text-anchor="middle" x="345" y="-63.5" font-family="Helvetica,sans-Serif" font-size="10.00">system_error</text>
</g>
<!-- Node0&#45;&gt;Node6 -->
<g id="edge6" class="edge"><title>Node0&#45;&gt;Node6</title>
<path fill="none" stroke="midnightblue" d="M463.016,-224.458C458.852,-199.388 447.146,-146.34 419,-112 407.663,-98.1678 390.885,-87.4747 376.171,-79.9897"/>
<polygon fill="midnightblue" stroke="midnightblue" points="377.407,-76.7011 366.877,-75.5335 374.381,-83.0131 377.407,-76.7011"/>
</g>
<!-- Node7 -->
<g id="node8" class="node"><title>Node7</title>
<polygon fill="white" stroke="#bfbfbf" points="830,-56.5 830,-75.5 874,-75.5 874,-56.5 830,-56.5"/>
<text text-anchor="middle" x="852" y="-63.5" font-family="Helvetica,sans-Serif" font-size="10.00">vector</text>
</g>
<!-- Node0&#45;&gt;Node7 -->
<g id="edge7" class="edge"><title>Node0&#45;&gt;Node7</title>
<path fill="none" stroke="midnightblue" d="M523.509,-233.853C604.544,-226.678 746.146,-211.252 792,-188 823.393,-172.081 833.537,-164.09 848,-132 854.533,-117.505 855.095,-99.321 854.276,-85.8747"/>
<polygon fill="midnightblue" stroke="midnightblue" points="857.758,-85.5193 853.363,-75.8792 850.787,-86.1561 857.758,-85.5193"/>
</g>
<!-- Node8 -->
<g id="node9" class="node"><title>Node8</title>
<g id="a_node9"><a xlink:href="codec_8h.html" target="_top" xlink:title="codec.h">
<polygon fill="white" stroke="black" points="338.5,-168.5 338.5,-187.5 389.5,-187.5 389.5,-168.5 338.5,-168.5"/>
<text text-anchor="middle" x="364" y="-175.5" font-family="Helvetica,sans-Serif" font-size="10.00">codec.h</text>
</a>
</g>
</g>
<!-- Node0&#45;&gt;Node8 -->
<g id="edge8" class="edge"><title>Node0&#45;&gt;Node8</title>
<path fill="none" stroke="midnightblue" d="M441.064,-224.399C424.875,-214.862 403.593,-202.325 387.497,-192.842"/>
<polygon fill="midnightblue" stroke="midnightblue" points="389.089,-189.718 378.696,-187.658 385.536,-195.749 389.089,-189.718"/>
</g>
<!-- Node13 -->
<g id="node14" class="node"><title>Node13</title>
<g id="a_node14"><a xlink:href="packet_8h.html" target="_top" xlink:title="packet.h">
<polygon fill="white" stroke="black" points="466,-112.5 466,-131.5 520,-131.5 520,-112.5 466,-112.5"/>
<text text-anchor="middle" x="493" y="-119.5" font-family="Helvetica,sans-Serif" font-size="10.00">packet.h</text>
</a>
</g>
</g>
<!-- Node0&#45;&gt;Node13 -->
<g id="edge27" class="edge"><title>Node0&#45;&gt;Node13</title>
<path fill="none" stroke="midnightblue" d="M468.433,-224.337C473.478,-203.527 482.9,-164.663 488.495,-141.583"/>
<polygon fill="midnightblue" stroke="midnightblue" points="491.944,-142.213 490.898,-131.669 485.141,-140.563 491.944,-142.213"/>
</g>
<!-- Node18 -->
<g id="node19" class="node"><title>Node18</title>
<g id="a_node19"><a xlink:href="metadata_8h.html" target="_top" xlink:title="metadata.h">
<polygon fill="white" stroke="black" points="680.5,-168.5 680.5,-187.5 745.5,-187.5 745.5,-168.5 680.5,-168.5"/>
<text text-anchor="middle" x="713" y="-175.5" font-family="Helvetica,sans-Serif" font-size="10.00">metadata.h</text>
</a>
</g>
</g>
<!-- Node0&#45;&gt;Node18 -->
<g id="edge28" class="edge"><title>Node0&#45;&gt;Node18</title>
<path fill="none" stroke="midnightblue" d="M523.458,-224.475C568.608,-213.643 630.025,-198.907 670.555,-189.183"/>
<polygon fill="midnightblue" stroke="midnightblue" points="671.479,-192.561 680.386,-186.825 669.846,-185.754 671.479,-192.561"/>
</g>
<!-- Node8&#45;&gt;Node2 -->
<g id="edge10" class="edge"><title>Node8&#45;&gt;Node2</title>
<path fill="none" stroke="midnightblue" d="M338.099,-170.7C299.5,-161.311 226.588,-143.575 181.366,-132.576"/>
<polygon fill="midnightblue" stroke="midnightblue" points="182.152,-129.165 171.608,-130.202 180.498,-135.966 182.152,-129.165"/>
</g>
<!-- Node8&#45;&gt;Node4 -->
<g id="edge12" class="edge"><title>Node8&#45;&gt;Node4</title>
<path fill="none" stroke="midnightblue" d="M338.251,-173.107C311.902,-167.909 271.21,-156.36 245,-132 215.684,-104.753 205.371,-56.6419 201.814,-30.0325"/>
<polygon fill="midnightblue" stroke="midnightblue" points="205.254,-29.3062 200.639,-19.7692 198.299,-30.1023 205.254,-29.3062"/>
</g>
<!-- Node8&#45;&gt;Node6 -->
<g id="edge13" class="edge"><title>Node8&#45;&gt;Node6</title>
<path fill="none" stroke="midnightblue" d="M362.509,-168.368C359.443,-150.617 352.37,-109.666 348.212,-85.5974"/>
<polygon fill="midnightblue" stroke="midnightblue" points="351.635,-84.8498 346.484,-75.5914 344.737,-86.0413 351.635,-84.8498"/>
</g>
<!-- Node9 -->
<g id="node10" class="node"><title>Node9</title>
<polygon fill="white" stroke="#bfbfbf" points="372,-112.5 372,-131.5 410,-131.5 410,-112.5 372,-112.5"/>
<text text-anchor="middle" x="391" y="-119.5" font-family="Helvetica,sans-Serif" font-size="10.00">array</text>
</g>
<!-- Node8&#45;&gt;Node9 -->
<g id="edge9" class="edge"><title>Node8&#45;&gt;Node9</title>
<path fill="none" stroke="midnightblue" d="M368.459,-168.083C372.154,-160.691 377.523,-149.953 382.094,-140.811"/>
<polygon fill="midnightblue" stroke="midnightblue" points="385.283,-142.261 386.624,-131.751 379.022,-139.13 385.283,-142.261"/>
</g>
<!-- Node10 -->
<g id="node11" class="node"><title>Node10</title>
<polygon fill="white" stroke="#bfbfbf" points="608,-112.5 608,-131.5 662,-131.5 662,-112.5 608,-112.5"/>
<text text-anchor="middle" x="635" y="-119.5" font-family="Helvetica,sans-Serif" font-size="10.00">iostream</text>
</g>
<!-- Node8&#45;&gt;Node10 -->
<g id="edge11" class="edge"><title>Node8&#45;&gt;Node10</title>
<path fill="none" stroke="midnightblue" d="M389.706,-172.479C432.874,-164.792 522.611,-148.408 598,-132 598.101,-131.978 598.202,-131.956 598.303,-131.934"/>
<polygon fill="midnightblue" stroke="midnightblue" points="598.982,-135.369 607.957,-129.739 597.43,-128.543 598.982,-135.369"/>
</g>
<!-- Node11 -->
<g id="node12" class="node"><title>Node11</title>
<g id="a_node12"><a xlink:href="frame_8h.html" target="_top" xlink:title="frame.h">
<polygon fill="white" stroke="black" points="266,-112.5 266,-131.5 316,-131.5 316,-112.5 266,-112.5"/>
<text text-anchor="middle" x="291" y="-119.5" font-family="Helvetica,sans-Serif" font-size="10.00">frame.h</text>
</a>
</g>
</g>
<!-- Node8&#45;&gt;Node11 -->
<g id="edge14" class="edge"><title>Node8&#45;&gt;Node11</title>
<path fill="none" stroke="midnightblue" d="M352.271,-168.324C341.163,-160.107 324.258,-147.602 311.017,-137.807"/>
<polygon fill="midnightblue" stroke="midnightblue" points="313.063,-134.967 302.942,-131.834 308.9,-140.595 313.063,-134.967"/>
</g>
<!-- Node12 -->
<g id="node13" class="node"><title>Node12</title>
<g id="a_node13"><a xlink:href="utils_8h.html" target="_top" xlink:title="utils.h">
<polygon fill="white" stroke="black" points="228.5,-56.5 228.5,-75.5 271.5,-75.5 271.5,-56.5 228.5,-56.5"/>
<text text-anchor="middle" x="250" y="-63.5" font-family="Helvetica,sans-Serif" font-size="10.00">utils.h</text>
</a>
</g>
</g>
<!-- Node8&#45;&gt;Node12 -->
<g id="edge26" class="edge"><title>Node8&#45;&gt;Node12</title>
<path fill="none" stroke="midnightblue" d="M338.268,-173.673C313.238,-168.975 276.255,-157.863 257,-132 247.159,-118.782 246.229,-99.6502 247.268,-85.5636"/>
<polygon fill="midnightblue" stroke="midnightblue" points="250.753,-85.8854 248.39,-75.5575 243.797,-85.105 250.753,-85.8854"/>
</g>
<!-- Node8&#45;&gt;Node13 -->
<g id="edge18" class="edge"><title>Node8&#45;&gt;Node13</title>
<path fill="none" stroke="midnightblue" d="M384.44,-168.444C405.67,-159.557 439.099,-145.563 463.255,-135.451"/>
<polygon fill="midnightblue" stroke="midnightblue" points="464.782,-138.606 472.655,-131.516 462.079,-132.149 464.782,-138.606"/>
</g>
<!-- Node16 -->
<g id="node17" class="node"><title>Node16</title>
<g id="a_node17"><a xlink:href="option_8h.html" target="_top" xlink:title="option.h">
<polygon fill="white" stroke="black" points="538.5,-112.5 538.5,-131.5 589.5,-131.5 589.5,-112.5 538.5,-112.5"/>
<text text-anchor="middle" x="564" y="-119.5" font-family="Helvetica,sans-Serif" font-size="10.00">option.h</text>
</a>
</g>
</g>
<!-- Node8&#45;&gt;Node16 -->
<g id="edge22" class="edge"><title>Node8&#45;&gt;Node16</title>
<path fill="none" stroke="midnightblue" d="M389.737,-170.051C425.064,-160.513 488.72,-143.326 528.539,-132.574"/>
<polygon fill="midnightblue" stroke="midnightblue" points="529.62,-135.908 538.362,-129.922 527.795,-129.15 529.62,-135.908"/>
</g>
<!-- Node11&#45;&gt;Node6 -->
<g id="edge15" class="edge"><title>Node11&#45;&gt;Node6</title>
<path fill="none" stroke="midnightblue" d="M299.917,-112.083C307.78,-104.22 319.431,-92.5688 328.919,-83.0813"/>
<polygon fill="midnightblue" stroke="midnightblue" points="331.653,-85.2971 336.249,-75.7511 326.703,-80.3473 331.653,-85.2971"/>
</g>
<!-- Node11&#45;&gt;Node12 -->
<g id="edge16" class="edge"><title>Node11&#45;&gt;Node12</title>
<path fill="none" stroke="midnightblue" d="M284.23,-112.083C278.438,-104.455 269.942,-93.2645 262.862,-83.9408"/>
<polygon fill="midnightblue" stroke="midnightblue" points="265.479,-81.5991 256.644,-75.7511 259.904,-85.8321 265.479,-81.5991"/>
</g>
<!-- Node12&#45;&gt;Node4 -->
<g id="edge17" class="edge"><title>Node12&#45;&gt;Node4</title>
<path fill="none" stroke="midnightblue" d="M241.744,-56.083C234.535,-48.2982 223.89,-36.8015 215.154,-27.3665"/>
<polygon fill="midnightblue" stroke="midnightblue" points="217.465,-24.7108 208.103,-19.7511 212.329,-29.4666 217.465,-24.7108"/>
</g>
<!-- Node13&#45;&gt;Node6 -->
<g id="edge21" class="edge"><title>Node13&#45;&gt;Node6</title>
<path fill="none" stroke="midnightblue" d="M469.549,-112.444C444.867,-103.438 405.815,-89.1891 378.023,-79.049"/>
<polygon fill="midnightblue" stroke="midnightblue" points="378.935,-75.6561 368.341,-75.5164 376.536,-82.2321 378.935,-75.6561"/>
</g>
<!-- Node14 -->
<g id="node15" class="node"><title>Node14</title>
<polygon fill="white" stroke="#bfbfbf" points="468.5,-56.5 468.5,-75.5 517.5,-75.5 517.5,-56.5 468.5,-56.5"/>
<text text-anchor="middle" x="493" y="-63.5" font-family="Helvetica,sans-Serif" font-size="10.00">cstddef</text>
</g>
<!-- Node13&#45;&gt;Node14 -->
<g id="edge19" class="edge"><title>Node13&#45;&gt;Node14</title>
<path fill="none" stroke="midnightblue" d="M493,-112.083C493,-105.006 493,-94.8611 493,-85.9865"/>
<polygon fill="midnightblue" stroke="midnightblue" points="496.5,-85.751 493,-75.7511 489.5,-85.7511 496.5,-85.751"/>
</g>
<!-- Node15 -->
<g id="node16" class="node"><title>Node15</title>
<polygon fill="white" stroke="#bfbfbf" points="401.5,-56.5 401.5,-75.5 450.5,-75.5 450.5,-56.5 401.5,-56.5"/>
<text text-anchor="middle" x="426" y="-63.5" font-family="Helvetica,sans-Serif" font-size="10.00">stdint.h</text>
</g>
<!-- Node13&#45;&gt;Node15 -->
<g id="edge20" class="edge"><title>Node13&#45;&gt;Node15</title>
<path fill="none" stroke="midnightblue" d="M482.235,-112.324C472.234,-104.263 457.113,-92.0765 445.07,-82.3695"/>
<polygon fill="midnightblue" stroke="midnightblue" points="446.943,-79.3841 436.961,-75.8339 442.55,-84.8343 446.943,-79.3841"/>
</g>
<!-- Node16&#45;&gt;Node5 -->
<g id="edge23" class="edge"><title>Node16&#45;&gt;Node5</title>
<path fill="none" stroke="midnightblue" d="M583.965,-112.444C604.609,-103.596 637.063,-89.6875 660.632,-79.5865"/>
<polygon fill="midnightblue" stroke="midnightblue" points="662.316,-82.6727 670.128,-75.5164 659.558,-76.2387 662.316,-82.6727"/>
</g>
<!-- Node16&#45;&gt;Node7 -->
<g id="edge24" class="edge"><title>Node16&#45;&gt;Node7</title>
<path fill="none" stroke="midnightblue" d="M589.561,-114.189C592.731,-113.415 595.934,-112.666 599,-112 677.833,-94.8791 771.527,-79.4932 819.756,-71.9333"/>
<polygon fill="midnightblue" stroke="midnightblue" points="820.551,-75.3519 829.893,-70.3549 819.473,-68.4352 820.551,-75.3519"/>
</g>
<!-- Node17 -->
<g id="node18" class="node"><title>Node17</title>
<polygon fill="white" stroke="#bfbfbf" points="535.5,-56.5 535.5,-75.5 594.5,-75.5 594.5,-56.5 535.5,-56.5"/>
<text text-anchor="middle" x="565" y="-63.5" font-family="Helvetica,sans-Serif" font-size="10.00">stdexcept</text>
</g>
<!-- Node16&#45;&gt;Node17 -->
<g id="edge25" class="edge"><title>Node16&#45;&gt;Node17</title>
<path fill="none" stroke="midnightblue" d="M564.165,-112.083C564.296,-105.006 564.484,-94.8611 564.648,-85.9865"/>
<polygon fill="midnightblue" stroke="midnightblue" points="568.152,-85.8142 564.838,-75.7511 561.153,-85.6845 568.152,-85.8142"/>
</g>
<!-- Node18&#45;&gt;Node5 -->
<g id="edge31" class="edge"><title>Node18&#45;&gt;Node5</title>
<path fill="none" stroke="midnightblue" d="M711.195,-168.368C707.484,-150.617 698.921,-109.666 693.889,-85.5974"/>
<polygon fill="midnightblue" stroke="midnightblue" points="697.269,-84.6634 691.796,-75.5914 690.417,-86.0961 697.269,-84.6634"/>
</g>
<!-- Node18&#45;&gt;Node7 -->
<g id="edge33" class="edge"><title>Node18&#45;&gt;Node7</title>
<path fill="none" stroke="midnightblue" d="M745.735,-172.876C772.749,-167.781 810.218,-156.542 833,-132 844.613,-119.489 849.165,-100.262 850.93,-85.9611"/>
<polygon fill="midnightblue" stroke="midnightblue" points="854.436,-86.0392 851.829,-75.7702 847.463,-85.4237 854.436,-86.0392"/>
</g>
<!-- Node18&#45;&gt;Node10 -->
<g id="edge30" class="edge"><title>Node18&#45;&gt;Node10</title>
<path fill="none" stroke="midnightblue" d="M700.468,-168.324C688.414,-159.979 669.973,-147.212 655.731,-137.352"/>
<polygon fill="midnightblue" stroke="midnightblue" points="657.715,-134.469 647.501,-131.655 653.731,-140.224 657.715,-134.469"/>
</g>
<!-- Node19 -->
<g id="node20" class="node"><title>Node19</title>
<polygon fill="white" stroke="#bfbfbf" points="718.5,-112.5 718.5,-131.5 753.5,-131.5 753.5,-112.5 718.5,-112.5"/>
<text text-anchor="middle" x="736" y="-119.5" font-family="Helvetica,sans-Serif" font-size="10.00">map</text>
</g>
<!-- Node18&#45;&gt;Node19 -->
<g id="edge29" class="edge"><title>Node18&#45;&gt;Node19</title>
<path fill="none" stroke="midnightblue" d="M716.798,-168.083C719.913,-160.77 724.423,-150.181 728.289,-141.103"/>
<polygon fill="midnightblue" stroke="midnightblue" points="731.574,-142.323 732.273,-131.751 725.134,-139.58 731.574,-142.323"/>
</g>
<!-- Node20 -->
<g id="node21" class="node"><title>Node20</title>
<polygon fill="white" stroke="#bfbfbf" points="772,-112.5 772,-131.5 824,-131.5 824,-112.5 772,-112.5"/>
<text text-anchor="middle" x="798" y="-119.5" font-family="Helvetica,sans-Serif" font-size="10.00">sstream</text>
</g>
<!-- Node18&#45;&gt;Node20 -->
<g id="edge32" class="edge"><title>Node18&#45;&gt;Node20</title>
<path fill="none" stroke="midnightblue" d="M726.657,-168.324C739.916,-159.9 760.268,-146.971 775.846,-137.074"/>
<polygon fill="midnightblue" stroke="midnightblue" points="777.813,-139.971 784.377,-131.655 774.06,-134.063 777.813,-139.971"/>
</g>
</g>
</svg>
