<?xml version="1.0" encoding="UTF-8" standalone="no"?>
<!DOCTYPE svg PUBLIC "-//W3C//DTD SVG 1.1//EN"
 "http://www.w3.org/Graphics/SVG/1.1/DTD/svg11.dtd">
<!-- Generated by graphviz version 2.38.0 (20140413.2041)
 -->
<!-- Title: /home/etienne/Projects/avcpp/av/frame.h Pages: 1 -->
<svg width="260pt" height="240pt"
 viewBox="0.00 0.00 260.00 240.00" xmlns="http://www.w3.org/2000/svg" xmlns:xlink="http://www.w3.org/1999/xlink">
<g id="graph0" class="graph" transform="scale(1 1) rotate(0) translate(4 236)">
<title>/home/etienne/Projects/avcpp/av/frame.h</title>
<polygon fill="white" stroke="none" points="-4,4 -4,-236 256,-236 256,4 -4,4"/>
<!-- Node4 -->
<g id="node1" class="node"><title>Node4</title>
<polygon fill="#bfbfbf" stroke="black" points="110,-201.5 110,-231.5 227,-231.5 227,-201.5 110,-201.5"/>
<text text-anchor="start" x="118" y="-219.5" font-family="Helvetica,sans-Serif" font-size="10.00">/home/etienne/Projects</text>
<text text-anchor="middle" x="168.5" y="-208.5" font-family="Helvetica,sans-Serif" font-size="10.00">/avcpp/av/frame.h</text>
</g>
<!-- Node5 -->
<g id="node2" class="node"><title>Node5</title>
<g id="a_node2"><a xlink:href="codec_8h.html" target="_top" xlink:title="/home/etienne/Projects\l/avcpp/av/codec.h">
<polygon fill="white" stroke="black" points="67,-134.5 67,-164.5 184,-164.5 184,-134.5 67,-134.5"/>
<text text-anchor="start" x="75" y="-152.5" font-family="Helvetica,sans-Serif" font-size="10.00">/home/etienne/Projects</text>
<text text-anchor="middle" x="125.5" y="-141.5" font-family="Helvetica,sans-Serif" font-size="10.00">/avcpp/av/codec.h</text>
</a>
</g>
</g>
<!-- Node4&#45;&gt;Node5 -->
<g id="edge1" class="edge"><title>Node4&#45;&gt;Node5</title>
<path fill="none" stroke="midnightblue" d="M153.527,-192.867C147.304,-183.459 140.274,-172.833 134.812,-164.577"/>
<polygon fill="midnightblue" stroke="midnightblue" points="150.733,-194.987 159.17,-201.396 156.571,-191.125 150.733,-194.987"/>
</g>
<!-- Node6 -->
<g id="node3" class="node"><title>Node6</title>
<g id="a_node3"><a xlink:href="av_8h.html" target="_top" xlink:title="/home/etienne/Projects\l/avcpp/av/av.h">
<polygon fill="white" stroke="black" points="135,-0.5 135,-30.5 252,-30.5 252,-0.5 135,-0.5"/>
<text text-anchor="start" x="143" y="-18.5" font-family="Helvetica,sans-Serif" font-size="10.00">/home/etienne/Projects</text>
<text text-anchor="middle" x="193.5" y="-7.5" font-family="Helvetica,sans-Serif" font-size="10.00">/avcpp/av/av.h</text>
</a>
</g>
</g>
<!-- Node4&#45;&gt;Node6 -->
<g id="edge6" class="edge"><title>Node4&#45;&gt;Node6</title>
<path fill="none" stroke="midnightblue" d="M182.711,-192.409C187.071,-184.083 191.298,-174.412 193.5,-165 204.777,-116.802 199.139,-57.3696 195.614,-30.6659"/>
<polygon fill="midnightblue" stroke="midnightblue" points="179.648,-190.716 177.832,-201.154 185.76,-194.126 179.648,-190.716"/>
</g>
<!-- Node5&#45;&gt;Node6 -->
<g id="edge2" class="edge"><title>Node5&#45;&gt;Node6</title>
<path fill="none" stroke="midnightblue" d="M139.246,-125.407C144.197,-116.873 149.734,-107.07 154.5,-98 166.758,-74.6721 179.723,-46.8629 187.188,-30.5007"/>
<polygon fill="midnightblue" stroke="midnightblue" points="136.203,-123.678 134.168,-134.075 142.243,-127.216 136.203,-123.678"/>
</g>
<!-- Node7 -->
<g id="node4" class="node"><title>Node7</title>
<g id="a_node4"><a xlink:href="format_8h.html" target="_top" xlink:title="/home/etienne/Projects\l/avcpp/av/format.h">
<polygon fill="white" stroke="black" points="29,-67.5 29,-97.5 146,-97.5 146,-67.5 29,-67.5"/>
<text text-anchor="start" x="37" y="-85.5" font-family="Helvetica,sans-Serif" font-size="10.00">/home/etienne/Projects</text>
<text text-anchor="middle" x="87.5" y="-74.5" font-family="Helvetica,sans-Serif" font-size="10.00">/avcpp/av/format.h</text>
</a>
</g>
</g>
<!-- Node5&#45;&gt;Node7 -->
<g id="edge3" class="edge"><title>Node5&#45;&gt;Node7</title>
<path fill="none" stroke="midnightblue" d="M112.098,-125.576C106.641,-116.241 100.507,-105.748 95.7293,-97.5765"/>
<polygon fill="midnightblue" stroke="midnightblue" points="109.186,-127.529 117.255,-134.396 115.229,-123.997 109.186,-127.529"/>
</g>
<!-- Node7&#45;&gt;Node6 -->
<g id="edge4" class="edge"><title>Node7&#45;&gt;Node6</title>
<path fill="none" stroke="midnightblue" d="M119.275,-62.0151C135.771,-51.8999 155.552,-39.7698 170.544,-30.5765"/>
<polygon fill="midnightblue" stroke="midnightblue" points="117.196,-59.1847 110.5,-67.396 120.855,-65.1521 117.196,-59.1847"/>
</g>
<!-- Node8 -->
<g id="node5" class="node"><title>Node8</title>
<g id="a_node5"><a xlink:href="resample_8h.html" target="_top" xlink:title="/home/etienne/Projects\l/avcpp/av/resample.h">
<polygon fill="white" stroke="black" points="0,-0.5 0,-30.5 117,-30.5 117,-0.5 0,-0.5"/>
<text text-anchor="start" x="8" y="-18.5" font-family="Helvetica,sans-Serif" font-size="10.00">/home/etienne/Projects</text>
<text text-anchor="middle" x="58.5" y="-7.5" font-family="Helvetica,sans-Serif" font-size="10.00">/avcpp/av/resample.h</text>
</a>
</g>
</g>
<!-- Node7&#45;&gt;Node8 -->
<g id="edge5" class="edge"><title>Node7&#45;&gt;Node8</title>
<path fill="none" stroke="midnightblue" d="M77.0112,-57.9907C72.9127,-48.8044 68.3502,-38.5781 64.7803,-30.5765"/>
<polygon fill="midnightblue" stroke="midnightblue" points="73.9366,-59.6897 81.2074,-67.396 80.3293,-56.8376 73.9366,-59.6897"/>
</g>
</g>
</svg>
