<?xml version="1.0" encoding="UTF-8" standalone="no"?>
<!DOCTYPE svg PUBLIC "-//W3C//DTD SVG 1.1//EN"
 "http://www.w3.org/Graphics/SVG/1.1/DTD/svg11.dtd">
<!-- Generated by graphviz version 2.40.1 (20161225.0304)
 -->
<!-- Title: /home/etienne/Projects/avcpp/av/frame.h Pages: 1 -->
<svg width="166pt" height="151pt"
 viewBox="0.00 0.00 165.50 151.00" xmlns="http://www.w3.org/2000/svg" xmlns:xlink="http://www.w3.org/1999/xlink">
<g id="graph0" class="graph" transform="scale(1 1) rotate(0) translate(4 147)">
<title>/home/etienne/Projects/avcpp/av/frame.h</title>
<polygon fill="#ffffff" stroke="transparent" points="-4,4 -4,-147 161.5,-147 161.5,4 -4,4"/>
<!-- Node0 -->
<g id="node1" class="node">
<title>Node0</title>
<polygon fill="#bfbfbf" stroke="#000000" points="2,-112.5 2,-142.5 131,-142.5 131,-112.5 2,-112.5"/>
<text text-anchor="start" x="10" y="-130.5" font-family="Helvetica,sans-Serif" font-size="10.00" fill="#000000">/home/etienne/Projects</text>
<text text-anchor="middle" x="66.5" y="-119.5" font-family="Helvetica,sans-Serif" font-size="10.00" fill="#000000">/avcpp/av/frame.h</text>
</g>
<!-- Node1 -->
<g id="node2" class="node">
<title>Node1</title>
<polygon fill="#ffffff" stroke="#bfbfbf" points="0,-.5 0,-19.5 81,-19.5 81,-.5 0,-.5"/>
<text text-anchor="middle" x="40.5" y="-7.5" font-family="Helvetica,sans-Serif" font-size="10.00" fill="#000000">system_error</text>
</g>
<!-- Node0&#45;&gt;Node1 -->
<g id="edge1" class="edge">
<title>Node0&#45;&gt;Node1</title>
<path fill="none" stroke="#191970" d="M63.101,-112.1389C58.4166,-90.9692 49.9745,-52.8174 44.8395,-29.6112"/>
<polygon fill="#191970" stroke="#191970" points="48.1932,-28.5671 42.6153,-19.5595 41.3585,-30.0795 48.1932,-28.5671"/>
</g>
<!-- Node2 -->
<g id="node3" class="node">
<title>Node2</title>
<g id="a_node3"><a xlink:href="utils_8h.html" target="_top" xlink:title="utils.h">
<polygon fill="#ffffff" stroke="#000000" points="69,-56.5 69,-75.5 116,-75.5 116,-56.5 69,-56.5"/>
<text text-anchor="middle" x="92.5" y="-63.5" font-family="Helvetica,sans-Serif" font-size="10.00" fill="#000000">utils.h</text>
</a>
</g>
</g>
<!-- Node0&#45;&gt;Node2 -->
<g id="edge2" class="edge">
<title>Node0&#45;&gt;Node2</title>
<path fill="none" stroke="#191970" d="M72.927,-112.2977C76.3857,-104.1166 80.6867,-93.943 84.3754,-85.2179"/>
<polygon fill="#191970" stroke="#191970" points="87.6668,-86.4205 88.3371,-75.8469 81.2193,-83.6947 87.6668,-86.4205"/>
</g>
<!-- Node2&#45;&gt;Node1 -->
<g id="edge4" class="edge">
<title>Node2&#45;&gt;Node1</title>
<path fill="none" stroke="#191970" d="M83.4423,-56.2455C75.9858,-48.2155 65.2366,-36.6394 56.3583,-27.0781"/>
<polygon fill="#191970" stroke="#191970" points="58.8232,-24.589 49.4539,-19.6427 53.6937,-29.3522 58.8232,-24.589"/>
</g>
<!-- Node3 -->
<g id="node4" class="node">
<title>Node3</title>
<polygon fill="#ffffff" stroke="#bfbfbf" points="99.5,-.5 99.5,-19.5 157.5,-19.5 157.5,-.5 99.5,-.5"/>
<text text-anchor="middle" x="128.5" y="-7.5" font-family="Helvetica,sans-Serif" font-size="10.00" fill="#000000">memory</text>
</g>
<!-- Node2&#45;&gt;Node3 -->
<g id="edge3" class="edge">
<title>Node2&#45;&gt;Node3</title>
<path fill="none" stroke="#191970" d="M98.7707,-56.2455C103.7264,-48.5367 110.783,-37.5598 116.7776,-28.2348"/>
<polygon fill="#191970" stroke="#191970" points="119.8376,-29.9471 122.3011,-19.6427 113.9494,-26.1618 119.8376,-29.9471"/>
</g>
</g>
</svg>
