<?xml version="1.0" encoding="UTF-8" standalone="no"?>
<!DOCTYPE svg PUBLIC "-//W3C//DTD SVG 1.1//EN"
 "http://www.w3.org/Graphics/SVG/1.1/DTD/svg11.dtd">
<!-- Generated by graphviz version 2.40.1 (20161225.0304)
 -->
<!-- Title: /home/etienne/Projects/avcpp/av/frame.h Pages: 1 -->
<svg width="284pt" height="240pt"
 viewBox="0.00 0.00 284.00 240.00" xmlns="http://www.w3.org/2000/svg" xmlns:xlink="http://www.w3.org/1999/xlink">
<g id="graph0" class="graph" transform="scale(1 1) rotate(0) translate(4 236)">
<title>/home/etienne/Projects/avcpp/av/frame.h</title>
<polygon fill="#ffffff" stroke="transparent" points="-4,4 -4,-236 280,-236 280,4 -4,4"/>
<!-- Node4 -->
<g id="node1" class="node">
<title>Node4</title>
<polygon fill="#bfbfbf" stroke="#000000" points="119,-201.5 119,-231.5 248,-231.5 248,-201.5 119,-201.5"/>
<text text-anchor="start" x="127" y="-219.5" font-family="Helvetica,sans-Serif" font-size="10.00" fill="#000000">/home/etienne/Projects</text>
<text text-anchor="middle" x="183.5" y="-208.5" font-family="Helvetica,sans-Serif" font-size="10.00" fill="#000000">/avcpp/av/frame.h</text>
</g>
<!-- Node5 -->
<g id="node2" class="node">
<title>Node5</title>
<g id="a_node2"><a xlink:href="codec_8h.html" target="_top" xlink:title="/home/etienne/Projects\l/avcpp/av/codec.h">
<polygon fill="#ffffff" stroke="#000000" points="73,-134.5 73,-164.5 202,-164.5 202,-134.5 73,-134.5"/>
<text text-anchor="start" x="81" y="-152.5" font-family="Helvetica,sans-Serif" font-size="10.00" fill="#000000">/home/etienne/Projects</text>
<text text-anchor="middle" x="137.5" y="-141.5" font-family="Helvetica,sans-Serif" font-size="10.00" fill="#000000">/avcpp/av/codec.h</text>
</a>
</g>
</g>
<!-- Node4&#45;&gt;Node5 -->
<g id="edge1" class="edge">
<title>Node4&#45;&gt;Node5</title>
<path fill="none" stroke="#191970" d="M167.2102,-192.7735C160.7852,-183.4154 153.5946,-172.9421 147.8968,-164.6432"/>
<polygon fill="#191970" stroke="#191970" points="164.5164,-195.0337 173.0619,-201.2967 170.2872,-191.0716 164.5164,-195.0337"/>
</g>
<!-- Node6 -->
<g id="node3" class="node">
<title>Node6</title>
<g id="a_node3"><a xlink:href="av_8h.html" target="_top" xlink:title="/home/etienne/Projects\l/avcpp/av/av.h">
<polygon fill="#ffffff" stroke="#000000" points="147,-.5 147,-30.5 276,-30.5 276,-.5 147,-.5"/>
<text text-anchor="start" x="155" y="-18.5" font-family="Helvetica,sans-Serif" font-size="10.00" fill="#000000">/home/etienne/Projects</text>
<text text-anchor="middle" x="211.5" y="-7.5" font-family="Helvetica,sans-Serif" font-size="10.00" fill="#000000">/avcpp/av/av.h</text>
</a>
</g>
</g>
<!-- Node4&#45;&gt;Node6 -->
<g id="edge6" class="edge">
<title>Node4&#45;&gt;Node6</title>
<path fill="none" stroke="#191970" d="M199.8331,-192.3666C204.5619,-184.0592 209.0948,-174.4594 211.5,-165 223.6524,-117.2066 217.7661,-58.0056 213.9232,-30.6568"/>
<polygon fill="#191970" stroke="#191970" points="196.7158,-190.7569 194.5139,-201.1204 202.698,-194.392 196.7158,-190.7569"/>
</g>
<!-- Node5&#45;&gt;Node6 -->
<g id="edge2" class="edge">
<title>Node5&#45;&gt;Node6</title>
<path fill="none" stroke="#191970" d="M155.1728,-126.1054C161.324,-117.4897 168.0443,-107.5096 173.5,-98 186.5263,-75.2943 198.637,-47.3462 205.5424,-30.5015"/>
<polygon fill="#191970" stroke="#191970" points="152.3368,-124.0541 149.2791,-134.1982 157.9953,-128.175 152.3368,-124.0541"/>
</g>
<!-- Node7 -->
<g id="node4" class="node">
<title>Node7</title>
<g id="a_node4"><a xlink:href="format_8h.html" target="_top" xlink:title="/home/etienne/Projects\l/avcpp/av/format.h">
<polygon fill="#ffffff" stroke="#000000" points="35,-67.5 35,-97.5 164,-97.5 164,-67.5 35,-67.5"/>
<text text-anchor="start" x="43" y="-85.5" font-family="Helvetica,sans-Serif" font-size="10.00" fill="#000000">/home/etienne/Projects</text>
<text text-anchor="middle" x="99.5" y="-74.5" font-family="Helvetica,sans-Serif" font-size="10.00" fill="#000000">/avcpp/av/format.h</text>
</a>
</g>
</g>
<!-- Node5&#45;&gt;Node7 -->
<g id="edge3" class="edge">
<title>Node5&#45;&gt;Node7</title>
<path fill="none" stroke="#191970" d="M123.8788,-125.4837C118.6132,-116.1996 112.747,-105.8565 108.0887,-97.6432"/>
<polygon fill="#191970" stroke="#191970" points="120.8993,-127.325 128.8772,-134.2967 126.9882,-123.8716 120.8993,-127.325"/>
</g>
<!-- Node7&#45;&gt;Node6 -->
<g id="edge4" class="edge">
<title>Node7&#45;&gt;Node6</title>
<path fill="none" stroke="#191970" d="M133.6415,-62.0761C150.5228,-51.9774 170.5475,-39.9983 186.0614,-30.7177"/>
<polygon fill="#191970" stroke="#191970" points="131.4199,-59.3266 124.635,-67.4639 135.0135,-65.3338 131.4199,-59.3266"/>
</g>
<!-- Node8 -->
<g id="node5" class="node">
<title>Node8</title>
<g id="a_node5"><a xlink:href="resample_8h.html" target="_top" xlink:title="/home/etienne/Projects\l/avcpp/av/resample.h">
<polygon fill="#ffffff" stroke="#000000" points="0,-.5 0,-30.5 129,-30.5 129,-.5 0,-.5"/>
<text text-anchor="start" x="8" y="-18.5" font-family="Helvetica,sans-Serif" font-size="10.00" fill="#000000">/home/etienne/Projects</text>
<text text-anchor="middle" x="64.5" y="-7.5" font-family="Helvetica,sans-Serif" font-size="10.00" fill="#000000">/avcpp/av/resample.h</text>
</a>
</g>
</g>
<!-- Node7&#45;&gt;Node8 -->
<g id="edge5" class="edge">
<title>Node7&#45;&gt;Node8</title>
<path fill="none" stroke="#191970" d="M86.8024,-58.1932C81.9918,-48.9844 76.6565,-38.771 72.4106,-30.6432"/>
<polygon fill="#191970" stroke="#191970" points="83.8255,-60.0537 91.558,-67.2967 90.03,-56.8126 83.8255,-60.0537"/>
</g>
</g>
</svg>
