<?xml version="1.0" encoding="UTF-8" standalone="no"?>
<!DOCTYPE svg PUBLIC "-//W3C//DTD SVG 1.1//EN"
 "http://www.w3.org/Graphics/SVG/1.1/DTD/svg11.dtd">
<!-- Generated by graphviz version 2.40.1 (20161225.0304)
 -->
<!-- Title: /home/etienne/Projects/avcpp/av/metadata.h Pages: 1 -->
<svg width="590pt" height="240pt"
 viewBox="0.00 0.00 590.00 240.00" xmlns="http://www.w3.org/2000/svg" xmlns:xlink="http://www.w3.org/1999/xlink">
<g id="graph0" class="graph" transform="scale(1 1) rotate(0) translate(4 236)">
<title>/home/etienne/Projects/avcpp/av/metadata.h</title>
<polygon fill="#ffffff" stroke="transparent" points="-4,4 -4,-236 586,-236 586,4 -4,4"/>
<!-- Node6 -->
<g id="node1" class="node">
<title>Node6</title>
<polygon fill="#bfbfbf" stroke="#000000" points="206,-201.5 206,-231.5 335,-231.5 335,-201.5 206,-201.5"/>
<text text-anchor="start" x="214" y="-219.5" font-family="Helvetica,sans-Serif" font-size="10.00" fill="#000000">/home/etienne/Projects</text>
<text text-anchor="middle" x="270.5" y="-208.5" font-family="Helvetica,sans-Serif" font-size="10.00" fill="#000000">/avcpp/av/metadata.h</text>
</g>
<!-- Node7 -->
<g id="node2" class="node">
<title>Node7</title>
<g id="a_node2"><a xlink:href="format_8h.html" target="_top" xlink:title="/home/etienne/Projects\l/avcpp/av/format.h">
<polygon fill="#ffffff" stroke="#000000" points="133,-134.5 133,-164.5 262,-164.5 262,-134.5 133,-134.5"/>
<text text-anchor="start" x="141" y="-152.5" font-family="Helvetica,sans-Serif" font-size="10.00" fill="#000000">/home/etienne/Projects</text>
<text text-anchor="middle" x="197.5" y="-141.5" font-family="Helvetica,sans-Serif" font-size="10.00" fill="#000000">/avcpp/av/format.h</text>
</a>
</g>
</g>
<!-- Node6&#45;&gt;Node7 -->
<g id="edge1" class="edge">
<title>Node6&#45;&gt;Node7</title>
<path fill="none" stroke="#191970" d="M246.526,-194.4965C235.8733,-184.7193 223.6007,-173.4554 213.9993,-164.6432"/>
<polygon fill="#191970" stroke="#191970" points="244.2011,-197.1134 253.9352,-201.2967 248.9344,-191.9562 244.2011,-197.1134"/>
</g>
<!-- Node10 -->
<g id="node5" class="node">
<title>Node10</title>
<g id="a_node5"><a xlink:href="toc_8h.html" target="_top" xlink:title="/home/etienne/Projects\l/avcpp/av/discid/toc.h">
<polygon fill="#ffffff" stroke="#000000" points="280,-134.5 280,-164.5 409,-164.5 409,-134.5 280,-134.5"/>
<text text-anchor="start" x="288" y="-152.5" font-family="Helvetica,sans-Serif" font-size="10.00" fill="#000000">/home/etienne/Projects</text>
<text text-anchor="middle" x="344.5" y="-141.5" font-family="Helvetica,sans-Serif" font-size="10.00" fill="#000000">/avcpp/av/discid/toc.h</text>
</a>
</g>
</g>
<!-- Node6&#45;&gt;Node10 -->
<g id="edge4" class="edge">
<title>Node6&#45;&gt;Node10</title>
<path fill="none" stroke="#191970" d="M294.8024,-194.4965C305.601,-184.7193 318.0418,-173.4554 327.7747,-164.6432"/>
<polygon fill="#191970" stroke="#191970" points="292.3556,-191.9903 287.2917,-201.2967 297.0539,-197.1794 292.3556,-191.9903"/>
</g>
<!-- Node8 -->
<g id="node3" class="node">
<title>Node8</title>
<g id="a_node3"><a xlink:href="av_8h.html" target="_top" xlink:title="/home/etienne/Projects\l/avcpp/av/av.h">
<polygon fill="#ffffff" stroke="#000000" points="0,-67.5 0,-97.5 129,-97.5 129,-67.5 0,-67.5"/>
<text text-anchor="start" x="8" y="-85.5" font-family="Helvetica,sans-Serif" font-size="10.00" fill="#000000">/home/etienne/Projects</text>
<text text-anchor="middle" x="64.5" y="-74.5" font-family="Helvetica,sans-Serif" font-size="10.00" fill="#000000">/avcpp/av/av.h</text>
</a>
</g>
</g>
<!-- Node7&#45;&gt;Node8 -->
<g id="edge2" class="edge">
<title>Node7&#45;&gt;Node8</title>
<path fill="none" stroke="#191970" d="M158.6187,-129.9132C138.2357,-119.645 113.6428,-107.2561 94.7083,-97.7177"/>
<polygon fill="#191970" stroke="#191970" points="157.1467,-133.0906 167.6522,-134.4639 160.2961,-126.8391 157.1467,-133.0906"/>
</g>
<!-- Node9 -->
<g id="node4" class="node">
<title>Node9</title>
<g id="a_node4"><a xlink:href="resample_8h.html" target="_top" xlink:title="/home/etienne/Projects\l/avcpp/av/resample.h">
<polygon fill="#ffffff" stroke="#000000" points="147,-67.5 147,-97.5 276,-97.5 276,-67.5 147,-67.5"/>
<text text-anchor="start" x="155" y="-85.5" font-family="Helvetica,sans-Serif" font-size="10.00" fill="#000000">/home/etienne/Projects</text>
<text text-anchor="middle" x="211.5" y="-74.5" font-family="Helvetica,sans-Serif" font-size="10.00" fill="#000000">/avcpp/av/resample.h</text>
</a>
</g>
</g>
<!-- Node7&#45;&gt;Node9 -->
<g id="edge3" class="edge">
<title>Node7&#45;&gt;Node9</title>
<path fill="none" stroke="#191970" d="M202.7619,-124.3179C204.6376,-115.3414 206.691,-105.5143 208.3358,-97.6432"/>
<polygon fill="#191970" stroke="#191970" points="199.2963,-123.7922 200.6768,-134.2967 206.1483,-125.224 199.2963,-123.7922"/>
</g>
<!-- Node11 -->
<g id="node6" class="node">
<title>Node11</title>
<g id="a_node6"><a xlink:href="discid_8h.html" target="_top" xlink:title="/home/etienne/Projects\l/avcpp/av/discid/discid.h">
<polygon fill="#ffffff" stroke="#000000" points="359.5,-67.5 359.5,-97.5 495.5,-97.5 495.5,-67.5 359.5,-67.5"/>
<text text-anchor="start" x="367.5" y="-85.5" font-family="Helvetica,sans-Serif" font-size="10.00" fill="#000000">/home/etienne/Projects</text>
<text text-anchor="middle" x="427.5" y="-74.5" font-family="Helvetica,sans-Serif" font-size="10.00" fill="#000000">/avcpp/av/discid/discid.h</text>
</a>
</g>
</g>
<!-- Node10&#45;&gt;Node11 -->
<g id="edge5" class="edge">
<title>Node10&#45;&gt;Node11</title>
<path fill="none" stroke="#191970" d="M371.4058,-127.7808C383.5988,-117.9383 397.7179,-106.541 408.7405,-97.6432"/>
<polygon fill="#191970" stroke="#191970" points="368.9168,-125.292 363.334,-134.2967 373.3136,-130.7389 368.9168,-125.292"/>
</g>
<!-- Node12 -->
<g id="node7" class="node">
<title>Node12</title>
<g id="a_node7"><a xlink:href="cddb_8h.html" target="_top" xlink:title="/home/etienne/Projects\l/avcpp/av/discid/cddb.h">
<polygon fill="#ffffff" stroke="#000000" points="266,-.5 266,-30.5 397,-30.5 397,-.5 266,-.5"/>
<text text-anchor="start" x="274" y="-18.5" font-family="Helvetica,sans-Serif" font-size="10.00" fill="#000000">/home/etienne/Projects</text>
<text text-anchor="middle" x="331.5" y="-7.5" font-family="Helvetica,sans-Serif" font-size="10.00" fill="#000000">/avcpp/av/discid/cddb.h</text>
</a>
</g>
</g>
<!-- Node10&#45;&gt;Node12 -->
<g id="edge8" class="edge">
<title>Node10&#45;&gt;Node12</title>
<path fill="none" stroke="#191970" d="M342.0593,-124.3415C339.3886,-96.8131 335.1935,-53.5714 332.9806,-30.7614"/>
<polygon fill="#191970" stroke="#191970" points="338.5847,-124.7737 343.034,-134.389 345.5519,-124.0977 338.5847,-124.7737"/>
</g>
<!-- Node11&#45;&gt;Node12 -->
<g id="edge6" class="edge">
<title>Node11&#45;&gt;Node12</title>
<path fill="none" stroke="#191970" d="M397.1911,-61.3469C382.9067,-51.3776 366.1919,-39.7121 353.1977,-30.6432"/>
<polygon fill="#191970" stroke="#191970" points="395.5126,-64.4436 405.7161,-67.2967 399.5189,-58.7033 395.5126,-64.4436"/>
</g>
<!-- Node13 -->
<g id="node8" class="node">
<title>Node13</title>
<g id="a_node8"><a xlink:href="musicbrainz_8h.html" target="_top" xlink:title="/home/etienne/Projects\l/avcpp/av/discid/musicbrainz.h">
<polygon fill="#ffffff" stroke="#000000" points="415,-.5 415,-30.5 582,-30.5 582,-.5 415,-.5"/>
<text text-anchor="start" x="423" y="-18.5" font-family="Helvetica,sans-Serif" font-size="10.00" fill="#000000">/home/etienne/Projects</text>
<text text-anchor="middle" x="498.5" y="-7.5" font-family="Helvetica,sans-Serif" font-size="10.00" fill="#000000">/avcpp/av/discid/musicbrainz.h</text>
</a>
</g>
</g>
<!-- Node11&#45;&gt;Node13 -->
<g id="edge7" class="edge">
<title>Node11&#45;&gt;Node13</title>
<path fill="none" stroke="#191970" d="M451.1194,-60.2113C461.4095,-50.5009 473.2051,-39.3698 482.4528,-30.6432"/>
<polygon fill="#191970" stroke="#191970" points="448.4819,-57.8879 443.611,-67.2967 453.2861,-62.979 448.4819,-57.8879"/>
</g>
</g>
</svg>
