<?xml version="1.0" encoding="UTF-8" standalone="no"?>
<!DOCTYPE svg PUBLIC "-//W3C//DTD SVG 1.1//EN"
 "http://www.w3.org/Graphics/SVG/1.1/DTD/svg11.dtd">
<!-- Generated by graphviz version 2.40.1 (20161225.0304)
 -->
<!-- Title: /home/etienne/Projects/avcpp/av/metadata.h Pages: 1 -->
<svg width="326pt" height="95pt"
 viewBox="0.00 0.00 325.50 95.00" xmlns="http://www.w3.org/2000/svg" xmlns:xlink="http://www.w3.org/1999/xlink">
<g id="graph0" class="graph" transform="scale(1 1) rotate(0) translate(4 91)">
<title>/home/etienne/Projects/avcpp/av/metadata.h</title>
<polygon fill="#ffffff" stroke="transparent" points="-4,4 -4,-91 321.5,-91 321.5,4 -4,4"/>
<!-- Node0 -->
<g id="node1" class="node">
<title>Node0</title>
<polygon fill="#bfbfbf" stroke="#000000" points="91.5,-56.5 91.5,-86.5 220.5,-86.5 220.5,-56.5 91.5,-56.5"/>
<text text-anchor="start" x="99.5" y="-74.5" font-family="Helvetica,sans-Serif" font-size="10.00" fill="#000000">/home/etienne/Projects</text>
<text text-anchor="middle" x="156" y="-63.5" font-family="Helvetica,sans-Serif" font-size="10.00" fill="#000000">/avcpp/av/metadata.h</text>
</g>
<!-- Node1 -->
<g id="node2" class="node">
<title>Node1</title>
<polygon fill="#ffffff" stroke="#bfbfbf" points="0,-.5 0,-19.5 38,-19.5 38,-.5 0,-.5"/>
<text text-anchor="middle" x="19" y="-7.5" font-family="Helvetica,sans-Serif" font-size="10.00" fill="#000000">map</text>
</g>
<!-- Node0&#45;&gt;Node1 -->
<g id="edge1" class="edge">
<title>Node0&#45;&gt;Node1</title>
<path fill="none" stroke="#191970" d="M122.486,-56.4554C99.5418,-46.1556 69.4391,-32.6424 47.6198,-22.8476"/>
<polygon fill="#191970" stroke="#191970" points="48.7894,-19.5362 38.233,-18.6338 45.9226,-25.9222 48.7894,-19.5362"/>
</g>
<!-- Node2 -->
<g id="node3" class="node">
<title>Node2</title>
<polygon fill="#ffffff" stroke="#bfbfbf" points="56,-.5 56,-19.5 116,-19.5 116,-.5 56,-.5"/>
<text text-anchor="middle" x="86" y="-7.5" font-family="Helvetica,sans-Serif" font-size="10.00" fill="#000000">iostream</text>
</g>
<!-- Node0&#45;&gt;Node2 -->
<g id="edge2" class="edge">
<title>Node0&#45;&gt;Node2</title>
<path fill="none" stroke="#191970" d="M138.6966,-56.2977C128.4738,-47.3163 115.5177,-35.9334 105.0104,-26.702"/>
<polygon fill="#191970" stroke="#191970" points="107.0305,-23.8178 97.2079,-19.8469 102.4103,-29.0766 107.0305,-23.8178"/>
</g>
<!-- Node3 -->
<g id="node4" class="node">
<title>Node3</title>
<polygon fill="#ffffff" stroke="#bfbfbf" points="134,-.5 134,-19.5 178,-19.5 178,-.5 134,-.5"/>
<text text-anchor="middle" x="156" y="-7.5" font-family="Helvetica,sans-Serif" font-size="10.00" fill="#000000">string</text>
</g>
<!-- Node0&#45;&gt;Node3 -->
<g id="edge3" class="edge">
<title>Node0&#45;&gt;Node3</title>
<path fill="none" stroke="#191970" d="M156,-56.2977C156,-48.3834 156,-38.6043 156,-30.0759"/>
<polygon fill="#191970" stroke="#191970" points="159.5001,-29.8469 156,-19.8469 152.5001,-29.847 159.5001,-29.8469"/>
</g>
<!-- Node4 -->
<g id="node5" class="node">
<title>Node4</title>
<polygon fill="#ffffff" stroke="#bfbfbf" points="196,-.5 196,-19.5 252,-19.5 252,-.5 196,-.5"/>
<text text-anchor="middle" x="224" y="-7.5" font-family="Helvetica,sans-Serif" font-size="10.00" fill="#000000">sstream</text>
</g>
<!-- Node0&#45;&gt;Node4 -->
<g id="edge4" class="edge">
<title>Node0&#45;&gt;Node4</title>
<path fill="none" stroke="#191970" d="M172.809,-56.2977C182.7397,-47.3163 195.3257,-35.9334 205.5327,-26.702"/>
<polygon fill="#191970" stroke="#191970" points="208.0434,-29.1505 213.1123,-19.8469 203.348,-23.9588 208.0434,-29.1505"/>
</g>
<!-- Node5 -->
<g id="node6" class="node">
<title>Node5</title>
<polygon fill="#ffffff" stroke="#bfbfbf" points="270.5,-.5 270.5,-19.5 317.5,-19.5 317.5,-.5 270.5,-.5"/>
<text text-anchor="middle" x="294" y="-7.5" font-family="Helvetica,sans-Serif" font-size="10.00" fill="#000000">vector</text>
</g>
<!-- Node0&#45;&gt;Node5 -->
<g id="edge5" class="edge">
<title>Node0&#45;&gt;Node5</title>
<path fill="none" stroke="#191970" d="M189.7586,-56.4554C212.2793,-46.419 241.6467,-33.3314 263.4692,-23.6061"/>
<polygon fill="#191970" stroke="#191970" points="264.9056,-26.7979 272.6149,-19.5303 262.0561,-20.4041 264.9056,-26.7979"/>
</g>
</g>
</svg>
