<?xml version="1.0" encoding="UTF-8" standalone="no"?>
<!DOCTYPE svg PUBLIC "-//W3C//DTD SVG 1.1//EN"
 "http://www.w3.org/Graphics/SVG/1.1/DTD/svg11.dtd">
<!-- Generated by graphviz version 2.40.1 (20161225.0304)
 -->
<!-- Title: /home/etienne/Projects/avcpp/av/metadata.h Pages: 1 -->
<svg width="439pt" height="173pt"
 viewBox="0.00 0.00 438.50 173.00" xmlns="http://www.w3.org/2000/svg" xmlns:xlink="http://www.w3.org/1999/xlink">
<g id="graph0" class="graph" transform="scale(1 1) rotate(0) translate(4 169)">
<title>/home/etienne/Projects/avcpp/av/metadata.h</title>
<polygon fill="#ffffff" stroke="transparent" points="-4,4 -4,-169 434.5,-169 434.5,4 -4,4"/>
<!-- Node6 -->
<g id="node1" class="node">
<title>Node6</title>
<polygon fill="#bfbfbf" stroke="#000000" points="220,-134.5 220,-164.5 349,-164.5 349,-134.5 220,-134.5"/>
<text text-anchor="start" x="228" y="-152.5" font-family="Helvetica,sans-Serif" font-size="10.00" fill="#000000">/home/etienne/Projects</text>
<text text-anchor="middle" x="284.5" y="-141.5" font-family="Helvetica,sans-Serif" font-size="10.00" fill="#000000">/avcpp/av/metadata.h</text>
</g>
<!-- Node7 -->
<g id="node2" class="node">
<title>Node7</title>
<g id="a_node2"><a xlink:href="format_8h.html" target="_top" xlink:title="/home/etienne/Projects\l/avcpp/av/format.h">
<polygon fill="#ffffff" stroke="#000000" points="147,-67.5 147,-97.5 276,-97.5 276,-67.5 147,-67.5"/>
<text text-anchor="start" x="155" y="-85.5" font-family="Helvetica,sans-Serif" font-size="10.00" fill="#000000">/home/etienne/Projects</text>
<text text-anchor="middle" x="211.5" y="-74.5" font-family="Helvetica,sans-Serif" font-size="10.00" fill="#000000">/avcpp/av/format.h</text>
</a>
</g>
</g>
<!-- Node6&#45;&gt;Node7 -->
<g id="edge1" class="edge">
<title>Node6&#45;&gt;Node7</title>
<path fill="none" stroke="#191970" d="M260.526,-127.4965C249.8733,-117.7193 237.6007,-106.4554 227.9993,-97.6432"/>
<polygon fill="#191970" stroke="#191970" points="258.2011,-130.1134 267.9352,-134.2967 262.9344,-124.9562 258.2011,-130.1134"/>
</g>
<!-- Node10 -->
<g id="node5" class="node">
<title>Node10</title>
<g id="a_node5"><a xlink:href="toc_8h.html" target="_top" xlink:title="/home/etienne/Projects\l/avcpp/av/discid/toc.h">
<polygon fill="#ffffff" stroke="#000000" points="296,-67.5 296,-97.5 425,-97.5 425,-67.5 296,-67.5"/>
<text text-anchor="start" x="304" y="-85.5" font-family="Helvetica,sans-Serif" font-size="10.00" fill="#000000">/home/etienne/Projects</text>
<text text-anchor="middle" x="360.5" y="-74.5" font-family="Helvetica,sans-Serif" font-size="10.00" fill="#000000">/avcpp/av/discid/toc.h</text>
</a>
</g>
</g>
<!-- Node6&#45;&gt;Node10 -->
<g id="edge4" class="edge">
<title>Node6&#45;&gt;Node10</title>
<path fill="none" stroke="#191970" d="M309.4592,-127.4965C320.5497,-117.7193 333.3267,-106.4554 343.3227,-97.6432"/>
<polygon fill="#191970" stroke="#191970" points="306.9323,-125.0582 301.7456,-134.2967 311.5614,-130.3091 306.9323,-125.0582"/>
</g>
<!-- Node8 -->
<g id="node3" class="node">
<title>Node8</title>
<g id="a_node3"><a xlink:href="av_8h.html" target="_top" xlink:title="/home/etienne/Projects\l/avcpp/av/av.h">
<polygon fill="#ffffff" stroke="#000000" points="0,-.5 0,-30.5 129,-30.5 129,-.5 0,-.5"/>
<text text-anchor="start" x="8" y="-18.5" font-family="Helvetica,sans-Serif" font-size="10.00" fill="#000000">/home/etienne/Projects</text>
<text text-anchor="middle" x="64.5" y="-7.5" font-family="Helvetica,sans-Serif" font-size="10.00" fill="#000000">/avcpp/av/av.h</text>
</a>
</g>
</g>
<!-- Node7&#45;&gt;Node8 -->
<g id="edge2" class="edge">
<title>Node7&#45;&gt;Node8</title>
<path fill="none" stroke="#191970" d="M169.4036,-63.3132C146.6153,-52.9267 118.8667,-40.2794 97.6336,-30.6017"/>
<polygon fill="#191970" stroke="#191970" points="167.9593,-66.5013 178.5103,-67.4639 170.8625,-60.1317 167.9593,-66.5013"/>
</g>
<!-- Node9 -->
<g id="node4" class="node">
<title>Node9</title>
<g id="a_node4"><a xlink:href="resample_8h.html" target="_top" xlink:title="/home/etienne/Projects\l/avcpp/av/resample.h">
<polygon fill="#ffffff" stroke="#000000" points="147,-.5 147,-30.5 276,-30.5 276,-.5 147,-.5"/>
<text text-anchor="start" x="155" y="-18.5" font-family="Helvetica,sans-Serif" font-size="10.00" fill="#000000">/home/etienne/Projects</text>
<text text-anchor="middle" x="211.5" y="-7.5" font-family="Helvetica,sans-Serif" font-size="10.00" fill="#000000">/avcpp/av/resample.h</text>
</a>
</g>
</g>
<!-- Node7&#45;&gt;Node9 -->
<g id="edge3" class="edge">
<title>Node7&#45;&gt;Node9</title>
<path fill="none" stroke="#191970" d="M211.5,-57.0249C211.5,-48.128 211.5,-38.4287 211.5,-30.6432"/>
<polygon fill="#191970" stroke="#191970" points="208.0001,-57.2966 211.5,-67.2967 215.0001,-57.2967 208.0001,-57.2966"/>
</g>
<!-- Node11 -->
<g id="node6" class="node">
<title>Node11</title>
<g id="a_node6"><a xlink:href="discid_8h.html" target="_top" xlink:title="/home/etienne/Projects\l/avcpp/av/discid/discid.h">
<polygon fill="#ffffff" stroke="#000000" points="294.5,-.5 294.5,-30.5 430.5,-30.5 430.5,-.5 294.5,-.5"/>
<text text-anchor="start" x="302.5" y="-18.5" font-family="Helvetica,sans-Serif" font-size="10.00" fill="#000000">/home/etienne/Projects</text>
<text text-anchor="middle" x="362.5" y="-7.5" font-family="Helvetica,sans-Serif" font-size="10.00" fill="#000000">/avcpp/av/discid/discid.h</text>
</a>
</g>
</g>
<!-- Node10&#45;&gt;Node11 -->
<g id="edge5" class="edge">
<title>Node10&#45;&gt;Node11</title>
<path fill="none" stroke="#191970" d="M361.2605,-57.0249C361.526,-48.128 361.8156,-38.4287 362.048,-30.6432"/>
<polygon fill="#191970" stroke="#191970" points="357.7539,-57.1967 360.9538,-67.2967 364.7507,-57.4056 357.7539,-57.1967"/>
</g>
</g>
</svg>
