<?xml version="1.0" encoding="UTF-8" standalone="no"?>
<!DOCTYPE svg PUBLIC "-//W3C//DTD SVG 1.1//EN"
 "http://www.w3.org/Graphics/SVG/1.1/DTD/svg11.dtd">
<!-- Generated by graphviz version 2.40.1 (20161225.0304)
 -->
<!-- Title: /home/etienne/Projects/avcpp/av/discid/musicbrainz.h Pages: 1 -->
<svg width="457pt" height="263pt"
 viewBox="0.00 0.00 456.84 263.00" xmlns="http://www.w3.org/2000/svg" xmlns:xlink="http://www.w3.org/1999/xlink">
<g id="graph0" class="graph" transform="scale(1 1) rotate(0) translate(4 259)">
<title>/home/etienne/Projects/avcpp/av/discid/musicbrainz.h</title>
<polygon fill="#ffffff" stroke="transparent" points="-4,4 -4,-259 452.8417,-259 452.8417,4 -4,4"/>
<!-- Node0 -->
<g id="node1" class="node">
<title>Node0</title>
<polygon fill="#bfbfbf" stroke="#000000" points="191.5,-224.5 191.5,-254.5 358.5,-254.5 358.5,-224.5 191.5,-224.5"/>
<text text-anchor="start" x="199.5" y="-242.5" font-family="Helvetica,sans-Serif" font-size="10.00" fill="#000000">/home/etienne/Projects</text>
<text text-anchor="middle" x="275" y="-231.5" font-family="Helvetica,sans-Serif" font-size="10.00" fill="#000000">/avcpp/av/discid/musicbrainz.h</text>
</g>
<!-- Node1 -->
<g id="node2" class="node">
<title>Node1</title>
<polygon fill="#ffffff" stroke="#bfbfbf" points="0,-.5 0,-19.5 60,-19.5 60,-.5 0,-.5"/>
<text text-anchor="middle" x="30" y="-7.5" font-family="Helvetica,sans-Serif" font-size="10.00" fill="#000000">iostream</text>
</g>
<!-- Node0&#45;&gt;Node1 -->
<g id="edge1" class="edge">
<title>Node0&#45;&gt;Node1</title>
<path fill="none" stroke="#191970" d="M213.3582,-224.4364C188.1254,-216.3296 159.6095,-204.5198 137,-188 80.5602,-146.762 48.2403,-65.9035 35.8759,-29.0808"/>
<polygon fill="#191970" stroke="#191970" points="39.1995,-27.983 32.7937,-19.544 32.5387,-30.1357 39.1995,-27.983"/>
</g>
<!-- Node2 -->
<g id="node3" class="node">
<title>Node2</title>
<polygon fill="#ffffff" stroke="#bfbfbf" points="81,-.5 81,-19.5 125,-19.5 125,-.5 81,-.5"/>
<text text-anchor="middle" x="103" y="-7.5" font-family="Helvetica,sans-Serif" font-size="10.00" fill="#000000">string</text>
</g>
<!-- Node0&#45;&gt;Node2 -->
<g id="edge2" class="edge">
<title>Node0&#45;&gt;Node2</title>
<path fill="none" stroke="#191970" d="M233.1113,-224.3647C193.7955,-207.8908 136.5894,-177.6383 106,-132 85.2536,-101.0471 91.5973,-55.042 97.6006,-29.2761"/>
<polygon fill="#191970" stroke="#191970" points="100.9948,-30.1302 100.0727,-19.5756 94.2116,-28.4016 100.9948,-30.1302"/>
</g>
<!-- Node3 -->
<g id="node4" class="node">
<title>Node3</title>
<polygon fill="#ffffff" stroke="#bfbfbf" points="352.5,-112.5 352.5,-131.5 433.5,-131.5 433.5,-112.5 352.5,-112.5"/>
<text text-anchor="middle" x="393" y="-119.5" font-family="Helvetica,sans-Serif" font-size="10.00" fill="#000000">system_error</text>
</g>
<!-- Node0&#45;&gt;Node3 -->
<g id="edge3" class="edge">
<title>Node0&#45;&gt;Node3</title>
<path fill="none" stroke="#191970" d="M290.4264,-224.1389C312.5559,-202.1032 353.1637,-161.6675 376.088,-138.8403"/>
<polygon fill="#191970" stroke="#191970" points="378.7834,-141.0957 383.3998,-131.5595 373.8441,-136.1354 378.7834,-141.0957"/>
</g>
<!-- Node4 -->
<g id="node5" class="node">
<title>Node4</title>
<polygon fill="#ffffff" stroke="#bfbfbf" points="302.5,-.5 302.5,-19.5 349.5,-19.5 349.5,-.5 302.5,-.5"/>
<text text-anchor="middle" x="326" y="-7.5" font-family="Helvetica,sans-Serif" font-size="10.00" fill="#000000">vector</text>
</g>
<!-- Node0&#45;&gt;Node4 -->
<g id="edge4" class="edge">
<title>Node0&#45;&gt;Node4</title>
<path fill="none" stroke="#191970" d="M320.7832,-224.4897C361.0796,-208.5585 417.2316,-179.0809 443,-132 468.281,-85.8096 400.6461,-44.4353 357.9249,-23.8173"/>
<polygon fill="#191970" stroke="#191970" points="359.2509,-20.5735 348.7104,-19.5023 356.2823,-26.9129 359.2509,-20.5735"/>
</g>
<!-- Node5 -->
<g id="node6" class="node">
<title>Node5</title>
<g id="a_node6"><a xlink:href="discid_8h.html" target="_top" xlink:title="discid.h">
<polygon fill="#ffffff" stroke="#000000" points="248,-168.5 248,-187.5 302,-187.5 302,-168.5 248,-168.5"/>
<text text-anchor="middle" x="275" y="-175.5" font-family="Helvetica,sans-Serif" font-size="10.00" fill="#000000">discid.h</text>
</a>
</g>
</g>
<!-- Node0&#45;&gt;Node5 -->
<g id="edge5" class="edge">
<title>Node0&#45;&gt;Node5</title>
<path fill="none" stroke="#191970" d="M275,-224.2977C275,-216.3834 275,-206.6043 275,-198.0759"/>
<polygon fill="#191970" stroke="#191970" points="278.5001,-197.8469 275,-187.8469 271.5001,-197.847 278.5001,-197.8469"/>
</g>
<!-- Node5&#45;&gt;Node2 -->
<g id="edge6" class="edge">
<title>Node5&#45;&gt;Node2</title>
<path fill="none" stroke="#191970" d="M247.8696,-173.4025C208.5298,-166.1693 138.5335,-150.98 122,-132 97.1138,-103.4313 97.5347,-56.1554 100.1803,-29.6228"/>
<polygon fill="#191970" stroke="#191970" points="103.6621,-29.9835 101.3831,-19.6367 96.7123,-29.1464 103.6621,-29.9835"/>
</g>
<!-- Node5&#45;&gt;Node3 -->
<g id="edge8" class="edge">
<title>Node5&#45;&gt;Node3</title>
<path fill="none" stroke="#191970" d="M295.2849,-168.3733C314.1421,-159.4241 342.446,-145.9917 363.7455,-135.8835"/>
<polygon fill="#191970" stroke="#191970" points="365.4461,-138.9506 372.9798,-131.5011 362.4449,-132.6266 365.4461,-138.9506"/>
</g>
<!-- Node5&#45;&gt;Node4 -->
<g id="edge7" class="edge">
<title>Node5&#45;&gt;Node4</title>
<path fill="none" stroke="#191970" d="M282.9144,-168.3777C296.4614,-151.1605 323.4599,-113.3769 332,-76 335.5239,-60.5773 333.5314,-42.6818 330.9318,-29.4191"/>
<polygon fill="#191970" stroke="#191970" points="334.3163,-28.516 328.7131,-19.5241 327.4859,-30.0476 334.3163,-28.516"/>
</g>
<!-- Node6 -->
<g id="node7" class="node">
<title>Node6</title>
<g id="a_node7"><a xlink:href="toc_8h.html" target="_top" xlink:title="toc.h">
<polygon fill="#ffffff" stroke="#000000" points="254.5,-112.5 254.5,-131.5 295.5,-131.5 295.5,-112.5 254.5,-112.5"/>
<text text-anchor="middle" x="275" y="-119.5" font-family="Helvetica,sans-Serif" font-size="10.00" fill="#000000">toc.h</text>
</a>
</g>
</g>
<!-- Node5&#45;&gt;Node6 -->
<g id="edge9" class="edge">
<title>Node5&#45;&gt;Node6</title>
<path fill="none" stroke="#191970" d="M275,-168.2455C275,-160.9382 275,-150.6944 275,-141.7046"/>
<polygon fill="#191970" stroke="#191970" points="278.5001,-141.6426 275,-131.6427 271.5001,-141.6427 278.5001,-141.6426"/>
</g>
<!-- Node11 -->
<g id="node12" class="node">
<title>Node11</title>
<polygon fill="#ffffff" stroke="#bfbfbf" points="131.5,-112.5 131.5,-131.5 236.5,-131.5 236.5,-112.5 131.5,-112.5"/>
<text text-anchor="middle" x="184" y="-119.5" font-family="Helvetica,sans-Serif" font-size="10.00" fill="#000000">gtest/gtest_prod.h</text>
</g>
<!-- Node5&#45;&gt;Node11 -->
<g id="edge18" class="edge">
<title>Node5&#45;&gt;Node11</title>
<path fill="none" stroke="#191970" d="M259.149,-168.2455C245.1868,-159.6534 224.6272,-147.0014 208.5404,-137.1018"/>
<polygon fill="#191970" stroke="#191970" points="210.0203,-133.9029 199.6693,-131.6427 206.3516,-139.8645 210.0203,-133.9029"/>
</g>
<!-- Node6&#45;&gt;Node4 -->
<g id="edge11" class="edge">
<title>Node6&#45;&gt;Node4</title>
<path fill="none" stroke="#191970" d="M268.7175,-112.0636C261.109,-98.6539 250.4307,-74.3338 260,-56 267.1245,-42.3502 280.3523,-31.926 293.1056,-24.4806"/>
<polygon fill="#191970" stroke="#191970" points="295.0647,-27.4012 302.2141,-19.5822 291.7492,-21.2362 295.0647,-27.4012"/>
</g>
<!-- Node7 -->
<g id="node8" class="node">
<title>Node7</title>
<polygon fill="#ffffff" stroke="#bfbfbf" points="269,-56.5 269,-75.5 323,-75.5 323,-56.5 269,-56.5"/>
<text text-anchor="middle" x="296" y="-63.5" font-family="Helvetica,sans-Serif" font-size="10.00" fill="#000000">istream</text>
</g>
<!-- Node6&#45;&gt;Node7 -->
<g id="edge10" class="edge">
<title>Node6&#45;&gt;Node7</title>
<path fill="none" stroke="#191970" d="M278.6579,-112.2455C281.4584,-104.7776 285.409,-94.2427 288.8324,-85.1137"/>
<polygon fill="#191970" stroke="#191970" points="292.1499,-86.2349 292.384,-75.6427 285.5955,-83.777 292.1499,-86.2349"/>
</g>
<!-- Node8 -->
<g id="node9" class="node">
<title>Node8</title>
<g id="a_node9"><a xlink:href="metadata_8h.html" target="_top" xlink:title="../metadata.h">
<polygon fill="#ffffff" stroke="#000000" points="131,-56.5 131,-75.5 213,-75.5 213,-56.5 131,-56.5"/>
<text text-anchor="middle" x="172" y="-63.5" font-family="Helvetica,sans-Serif" font-size="10.00" fill="#000000">../metadata.h</text>
</a>
</g>
</g>
<!-- Node6&#45;&gt;Node8 -->
<g id="edge12" class="edge">
<title>Node6&#45;&gt;Node8</title>
<path fill="none" stroke="#191970" d="M257.0588,-112.2455C240.96,-103.4928 217.1121,-90.527 198.7609,-80.5496"/>
<polygon fill="#191970" stroke="#191970" points="200.1929,-77.3444 189.7356,-75.6427 196.8493,-83.4942 200.1929,-77.3444"/>
</g>
<!-- Node8&#45;&gt;Node1 -->
<g id="edge14" class="edge">
<title>Node8&#45;&gt;Node1</title>
<path fill="none" stroke="#191970" d="M147.5893,-56.3733C124.3858,-47.2226 89.2962,-33.3844 63.4858,-23.2057"/>
<polygon fill="#191970" stroke="#191970" points="64.6789,-19.9139 54.0921,-19.5011 62.1108,-26.4258 64.6789,-19.9139"/>
</g>
<!-- Node8&#45;&gt;Node2 -->
<g id="edge15" class="edge">
<title>Node8&#45;&gt;Node2</title>
<path fill="none" stroke="#191970" d="M159.9811,-56.2455C149.7902,-47.9746 134.9638,-35.9416 122.9893,-26.2232"/>
<polygon fill="#191970" stroke="#191970" points="124.8514,-23.2268 114.8812,-19.6427 120.4402,-28.662 124.8514,-23.2268"/>
</g>
<!-- Node8&#45;&gt;Node4 -->
<g id="edge17" class="edge">
<title>Node8&#45;&gt;Node4</title>
<path fill="none" stroke="#191970" d="M198.4735,-56.3733C224.629,-46.8622 264.7101,-32.2872 292.9432,-22.0207"/>
<polygon fill="#191970" stroke="#191970" points="294.1914,-25.2911 302.3932,-18.5843 291.7992,-18.7125 294.1914,-25.2911"/>
</g>
<!-- Node9 -->
<g id="node10" class="node">
<title>Node9</title>
<polygon fill="#ffffff" stroke="#bfbfbf" points="148,-.5 148,-19.5 186,-19.5 186,-.5 148,-.5"/>
<text text-anchor="middle" x="167" y="-7.5" font-family="Helvetica,sans-Serif" font-size="10.00" fill="#000000">map</text>
</g>
<!-- Node8&#45;&gt;Node9 -->
<g id="edge13" class="edge">
<title>Node8&#45;&gt;Node9</title>
<path fill="none" stroke="#191970" d="M171.1291,-56.2455C170.4766,-48.9382 169.562,-38.6944 168.7593,-29.7046"/>
<polygon fill="#191970" stroke="#191970" points="172.2365,-29.2918 167.861,-19.6427 165.2642,-29.9143 172.2365,-29.2918"/>
</g>
<!-- Node10 -->
<g id="node11" class="node">
<title>Node10</title>
<polygon fill="#ffffff" stroke="#bfbfbf" points="204,-.5 204,-19.5 260,-19.5 260,-.5 204,-.5"/>
<text text-anchor="middle" x="232" y="-7.5" font-family="Helvetica,sans-Serif" font-size="10.00" fill="#000000">sstream</text>
</g>
<!-- Node8&#45;&gt;Node10 -->
<g id="edge16" class="edge">
<title>Node8&#45;&gt;Node10</title>
<path fill="none" stroke="#191970" d="M182.4512,-56.2455C191.2269,-48.0549 203.9554,-36.1749 214.314,-26.5069"/>
<polygon fill="#191970" stroke="#191970" points="216.7461,-29.0246 221.6686,-19.6427 211.9699,-23.9072 216.7461,-29.0246"/>
</g>
</g>
</svg>
