<?xml version="1.0" encoding="UTF-8" standalone="no"?>
<!DOCTYPE svg PUBLIC "-//W3C//DTD SVG 1.1//EN"
 "http://www.w3.org/Graphics/SVG/1.1/DTD/svg11.dtd">
<!-- Generated by graphviz version 2.38.0 (20140413.2041)
 -->
<!-- Title: av::write_audio Pages: 1 -->
<svg width="258pt" height="294pt"
 viewBox="0.00 0.00 258.00 294.00" xmlns="http://www.w3.org/2000/svg" xmlns:xlink="http://www.w3.org/1999/xlink">
<g id="graph0" class="graph" transform="scale(1 1) rotate(0) translate(4 290)">
<title>av::write_audio</title>
<polygon fill="white" stroke="none" points="-4,4 -4,-290 254,-290 254,4 -4,4"/>
<!-- Node12 -->
<g id="node1" class="node"><title>Node12</title>
<polygon fill="#bfbfbf" stroke="black" points="0,-133.5 0,-152.5 83,-152.5 83,-133.5 0,-133.5"/>
<text text-anchor="middle" x="41.5" y="-140.5" font-family="Helvetica,sans-Serif" font-size="10.00">av::write_audio</text>
</g>
<!-- Node13 -->
<g id="node2" class="node"><title>Node13</title>
<g id="a_node2"><a xlink:href="classav_1_1_codec.html#ad8ad03d7ba76d2858aaf473ce99a6ae7" target="_top" xlink:title="Check if the sample format is planar. ">
<polygon fill="white" stroke="black" points="131,-266.5 131,-285.5 238,-285.5 238,-266.5 131,-266.5"/>
<text text-anchor="middle" x="184.5" y="-273.5" font-family="Helvetica,sans-Serif" font-size="10.00">av::Codec::is_planar</text>
</a>
</g>
</g>
<!-- Node12&#45;&gt;Node13 -->
<g id="edge1" class="edge"><title>Node12&#45;&gt;Node13</title>
<path fill="none" stroke="midnightblue" d="M46.2277,-152.6C55.2442,-174.543 80.3771,-228.655 119,-257 121.635,-258.934 124.465,-260.672 127.417,-262.234"/>
<polygon fill="midnightblue" stroke="midnightblue" points="126.009,-265.439 136.559,-266.412 128.918,-259.072 126.009,-265.439"/>
</g>
<!-- Node14 -->
<g id="node3" class="node"><title>Node14</title>
<g id="a_node3"><a xlink:href="classav_1_1_frame.html#a2a83133bffc6dbdf4a7b13318ce4fe0a" target="_top" xlink:title="number of audio samples (per channel) described by this frame. ">
<polygon fill="white" stroke="black" points="125,-228.5 125,-247.5 244,-247.5 244,-228.5 125,-228.5"/>
<text text-anchor="middle" x="184.5" y="-235.5" font-family="Helvetica,sans-Serif" font-size="10.00">av::Frame::nb_samples</text>
</a>
</g>
</g>
<!-- Node12&#45;&gt;Node14 -->
<g id="edge2" class="edge"><title>Node12&#45;&gt;Node14</title>
<path fill="none" stroke="midnightblue" d="M49.6102,-152.702C61.9391,-168.837 88.8705,-201.172 119,-219 122.617,-221.14 126.492,-223.054 130.481,-224.763"/>
<polygon fill="midnightblue" stroke="midnightblue" points="129.338,-228.073 139.929,-228.389 131.847,-221.538 129.338,-228.073"/>
</g>
<!-- Node15 -->
<g id="node4" class="node"><title>Node15</title>
<g id="a_node4"><a xlink:href="classav_1_1_codec.html#a83be833a6fa68899c25c6815021436ab" target="_top" xlink:title="Number of audio channels. ">
<polygon fill="white" stroke="black" points="131,-190.5 131,-209.5 238,-209.5 238,-190.5 131,-190.5"/>
<text text-anchor="middle" x="184.5" y="-197.5" font-family="Helvetica,sans-Serif" font-size="10.00">av::Codec::channels</text>
</a>
</g>
</g>
<!-- Node12&#45;&gt;Node15 -->
<g id="edge3" class="edge"><title>Node12&#45;&gt;Node15</title>
<path fill="none" stroke="midnightblue" d="M59.7283,-152.644C74.9806,-160.917 98.0152,-172.77 119,-181 124.848,-183.294 131.088,-185.462 137.296,-187.458"/>
<polygon fill="midnightblue" stroke="midnightblue" points="136.377,-190.837 146.964,-190.443 138.442,-184.149 136.377,-190.837"/>
</g>
<!-- Node16 -->
<g id="node5" class="node"><title>Node16</title>
<g id="a_node5"><a xlink:href="classav_1_1_frame.html#ab68a86b5f540741b123bdf42342c096b" target="_top" xlink:title="pointer to the picture/channel planes. ">
<polygon fill="white" stroke="black" points="141.5,-152.5 141.5,-171.5 227.5,-171.5 227.5,-152.5 141.5,-152.5"/>
<text text-anchor="middle" x="184.5" y="-159.5" font-family="Helvetica,sans-Serif" font-size="10.00">av::Frame::data</text>
</a>
</g>
</g>
<!-- Node12&#45;&gt;Node16 -->
<g id="edge4" class="edge"><title>Node12&#45;&gt;Node16</title>
<path fill="none" stroke="midnightblue" d="M83.283,-148.496C98.228,-150.509 115.354,-152.817 131.17,-154.948"/>
<polygon fill="midnightblue" stroke="midnightblue" points="130.961,-158.452 141.339,-156.319 131.896,-151.514 130.961,-158.452"/>
</g>
<!-- Node17 -->
<g id="node6" class="node"><title>Node17</title>
<g id="a_node6"><a xlink:href="namespaceav.html#a463142f8cba5ce2a0d982d4a6d0d95a5" target="_top" xlink:title="Number of bytes per sample. ">
<polygon fill="white" stroke="black" points="119,-114.5 119,-133.5 250,-133.5 250,-114.5 119,-114.5"/>
<text text-anchor="middle" x="184.5" y="-121.5" font-family="Helvetica,sans-Serif" font-size="10.00">av::get_bytes_per_sample</text>
</a>
</g>
</g>
<!-- Node12&#45;&gt;Node17 -->
<g id="edge5" class="edge"><title>Node12&#45;&gt;Node17</title>
<path fill="none" stroke="midnightblue" d="M83.283,-137.504C91.3789,-136.413 100.115,-135.236 108.936,-134.048"/>
<polygon fill="midnightblue" stroke="midnightblue" points="109.458,-137.509 118.901,-132.705 108.523,-130.572 109.458,-137.509"/>
</g>
<!-- Node18 -->
<g id="node7" class="node"><title>Node18</title>
<g id="a_node7"><a xlink:href="classav_1_1_codec.html#a50f4ce7b045be090c843f71071e820b2" target="_top" xlink:title="Audio sample format. ">
<polygon fill="white" stroke="black" points="125,-76.5 125,-95.5 244,-95.5 244,-76.5 125,-76.5"/>
<text text-anchor="middle" x="184.5" y="-83.5" font-family="Helvetica,sans-Serif" font-size="10.00">av::Codec::sample_fmt</text>
</a>
</g>
</g>
<!-- Node12&#45;&gt;Node18 -->
<g id="edge6" class="edge"><title>Node12&#45;&gt;Node18</title>
<path fill="none" stroke="midnightblue" d="M59.7283,-133.356C74.9806,-125.083 98.0152,-113.23 119,-105 124.848,-102.706 131.088,-100.538 137.296,-98.5423"/>
<polygon fill="midnightblue" stroke="midnightblue" points="138.442,-101.851 146.964,-95.5569 136.377,-95.163 138.442,-101.851"/>
</g>
<!-- Node19 -->
<g id="node8" class="node"><title>Node19</title>
<g id="a_node8"><a xlink:href="classav_1_1_frame.html#a18bb63c366095d58a5394bf7e9d7d179" target="_top" xlink:title="av::Frame::extended_data">
<polygon fill="white" stroke="black" points="119,-38.5 119,-57.5 250,-57.5 250,-38.5 119,-38.5"/>
<text text-anchor="middle" x="184.5" y="-45.5" font-family="Helvetica,sans-Serif" font-size="10.00">av::Frame::extended_data</text>
</a>
</g>
</g>
<!-- Node12&#45;&gt;Node19 -->
<g id="edge7" class="edge"><title>Node12&#45;&gt;Node19</title>
<path fill="none" stroke="midnightblue" d="M49.6102,-133.298C61.9391,-117.163 88.8705,-84.8277 119,-67 122.617,-64.8599 126.492,-62.946 130.481,-61.237"/>
<polygon fill="midnightblue" stroke="midnightblue" points="131.847,-64.4619 139.929,-57.6111 129.338,-57.9267 131.847,-64.4619"/>
</g>
<!-- Node20 -->
<g id="node9" class="node"><title>Node20</title>
<g id="a_node9"><a xlink:href="classav_1_1_frame.html#a623ab5cfb9babe5cf566af3fe174e439" target="_top" xlink:title="av::Frame::linesize">
<polygon fill="white" stroke="black" points="134.5,-0.5 134.5,-19.5 234.5,-19.5 234.5,-0.5 134.5,-0.5"/>
<text text-anchor="middle" x="184.5" y="-7.5" font-family="Helvetica,sans-Serif" font-size="10.00">av::Frame::linesize</text>
</a>
</g>
</g>
<!-- Node12&#45;&gt;Node20 -->
<g id="edge8" class="edge"><title>Node12&#45;&gt;Node20</title>
<path fill="none" stroke="midnightblue" d="M46.2277,-133.4C55.2442,-111.457 80.3771,-57.3454 119,-29 121.635,-27.0661 124.465,-25.3279 127.417,-23.7658"/>
<polygon fill="midnightblue" stroke="midnightblue" points="128.918,-26.9277 136.559,-19.588 126.009,-20.561 128.918,-26.9277"/>
</g>
</g>
</svg>
