<?xml version="1.0" encoding="UTF-8" standalone="no"?>
<!DOCTYPE svg PUBLIC "-//W3C//DTD SVG 1.1//EN"
 "http://www.w3.org/Graphics/SVG/1.1/DTD/svg11.dtd">
<!-- Generated by graphviz version 2.40.1 (20161225.0304)
 -->
<!-- Title: av::utils::write_audio Pages: 1 -->
<svg width="306pt" height="294pt"
 viewBox="0.00 0.00 306.00 294.00" xmlns="http://www.w3.org/2000/svg" xmlns:xlink="http://www.w3.org/1999/xlink">
<g id="graph0" class="graph" transform="scale(1 1) rotate(0) translate(4 290)">
<title>av::utils::write_audio</title>
<polygon fill="#ffffff" stroke="transparent" points="-4,4 -4,-290 302,-290 302,4 -4,4"/>
<!-- Node1 -->
<g id="node1" class="node">
<title>Node1</title>
<polygon fill="#bfbfbf" stroke="#000000" points="0,-133.5 0,-152.5 118,-152.5 118,-133.5 0,-133.5"/>
<text text-anchor="middle" x="59" y="-140.5" font-family="Helvetica,sans-Serif" font-size="10.00" fill="#000000">av::utils::write_audio</text>
</g>
<!-- Node2 -->
<g id="node2" class="node">
<title>Node2</title>
<g id="a_node2"><a xlink:href="classav_1_1_codec.html#ad8ad03d7ba76d2858aaf473ce99a6ae7" target="_top" xlink:title="Check if the sample format is planar. ">
<polygon fill="#ffffff" stroke="#000000" points="169,-266.5 169,-285.5 283,-285.5 283,-266.5 169,-266.5"/>
<text text-anchor="middle" x="226" y="-273.5" font-family="Helvetica,sans-Serif" font-size="10.00" fill="#000000">av::Codec::is_planar</text>
</a>
</g>
</g>
<!-- Node1&#45;&gt;Node2 -->
<g id="edge1" class="edge">
<title>Node1&#45;&gt;Node2</title>
<path fill="none" stroke="#191970" d="M64.2224,-152.6734C76.6668,-174.7708 110.3206,-229.1854 154,-257 157.3396,-259.1266 160.9105,-261.0163 164.6097,-262.6953"/>
<polygon fill="#191970" stroke="#191970" points="163.4253,-265.9911 174.0102,-266.4501 166.0218,-259.4904 163.4253,-265.9911"/>
</g>
<!-- Node3 -->
<g id="node3" class="node">
<title>Node3</title>
<g id="a_node3"><a xlink:href="classav_1_1_frame.html#a2a83133bffc6dbdf4a7b13318ce4fe0a" target="_top" xlink:title="number of audio samples (per channel) described by this frame. ">
<polygon fill="#ffffff" stroke="#000000" points="162,-228.5 162,-247.5 290,-247.5 290,-228.5 162,-228.5"/>
<text text-anchor="middle" x="226" y="-235.5" font-family="Helvetica,sans-Serif" font-size="10.00" fill="#000000">av::Frame::nb_samples</text>
</a>
</g>
</g>
<!-- Node1&#45;&gt;Node3 -->
<g id="edge2" class="edge">
<title>Node1&#45;&gt;Node3</title>
<path fill="none" stroke="#191970" d="M68.2954,-152.7167C84.2919,-168.8739 118.7211,-201.2401 154,-219 158.6442,-221.3379 163.6062,-223.4102 168.6716,-225.2426"/>
<polygon fill="#191970" stroke="#191970" points="167.8905,-228.6704 178.4836,-228.4776 170.0823,-222.0224 167.8905,-228.6704"/>
</g>
<!-- Node4 -->
<g id="node4" class="node">
<title>Node4</title>
<g id="a_node4"><a xlink:href="classav_1_1_codec.html#a83be833a6fa68899c25c6815021436ab" target="_top" xlink:title="Number of audio channels. ">
<polygon fill="#ffffff" stroke="#000000" points="169.5,-190.5 169.5,-209.5 282.5,-209.5 282.5,-190.5 169.5,-190.5"/>
<text text-anchor="middle" x="226" y="-197.5" font-family="Helvetica,sans-Serif" font-size="10.00" fill="#000000">av::Codec::channels</text>
</a>
</g>
</g>
<!-- Node1&#45;&gt;Node4 -->
<g id="edge3" class="edge">
<title>Node1&#45;&gt;Node4</title>
<path fill="none" stroke="#191970" d="M80.6042,-152.523C99.6793,-160.718 128.3638,-172.5256 154,-181 161.1692,-183.3699 168.8148,-185.6474 176.3463,-187.7513"/>
<polygon fill="#191970" stroke="#191970" points="175.564,-191.1655 186.1319,-190.4103 177.3996,-184.4105 175.564,-191.1655"/>
</g>
<!-- Node5 -->
<g id="node5" class="node">
<title>Node5</title>
<g id="a_node5"><a xlink:href="classav_1_1_frame.html#ab68a86b5f540741b123bdf42342c096b" target="_top" xlink:title="pointer to the picture/channel planes. ">
<polygon fill="#ffffff" stroke="#000000" points="180,-152.5 180,-171.5 272,-171.5 272,-152.5 180,-152.5"/>
<text text-anchor="middle" x="226" y="-159.5" font-family="Helvetica,sans-Serif" font-size="10.00" fill="#000000">av::Frame::data</text>
</a>
</g>
</g>
<!-- Node1&#45;&gt;Node5 -->
<g id="edge4" class="edge">
<title>Node1&#45;&gt;Node5</title>
<path fill="none" stroke="#191970" d="M118.3482,-149.7522C135.1179,-151.6601 153.3097,-153.7298 169.883,-155.6154"/>
<polygon fill="#191970" stroke="#191970" points="169.6344,-159.1096 179.9659,-156.7626 170.4257,-152.1545 169.6344,-159.1096"/>
</g>
<!-- Node6 -->
<g id="node6" class="node">
<title>Node6</title>
<g id="a_node6"><a xlink:href="namespaceav.html#a081d5d6050765210d5ca708d37031a8b" target="_top" xlink:title="Number of bytes per sample. ">
<polygon fill="#ffffff" stroke="#000000" points="154,-114.5 154,-133.5 298,-133.5 298,-114.5 154,-114.5"/>
<text text-anchor="middle" x="226" y="-121.5" font-family="Helvetica,sans-Serif" font-size="10.00" fill="#000000">av::get_bytes_per_sample</text>
</a>
</g>
</g>
<!-- Node1&#45;&gt;Node6 -->
<g id="edge5" class="edge">
<title>Node1&#45;&gt;Node6</title>
<path fill="none" stroke="#191970" d="M118.3482,-136.2478C126.6364,-135.3048 135.2719,-134.3224 143.8877,-133.3421"/>
<polygon fill="#191970" stroke="#191970" points="144.4307,-136.803 153.9709,-132.1949 143.6394,-129.8479 144.4307,-136.803"/>
</g>
<!-- Node7 -->
<g id="node7" class="node">
<title>Node7</title>
<g id="a_node7"><a xlink:href="classav_1_1_codec.html#afb04f2ba584a81de4bd0c9669d9477cf" target="_top" xlink:title="Audio sample format. ">
<polygon fill="#ffffff" stroke="#000000" points="162,-76.5 162,-95.5 290,-95.5 290,-76.5 162,-76.5"/>
<text text-anchor="middle" x="226" y="-83.5" font-family="Helvetica,sans-Serif" font-size="10.00" fill="#000000">av::Codec::sample_fmt</text>
</a>
</g>
</g>
<!-- Node1&#45;&gt;Node7 -->
<g id="edge6" class="edge">
<title>Node1&#45;&gt;Node7</title>
<path fill="none" stroke="#191970" d="M80.6042,-133.477C99.6793,-125.282 128.3638,-113.4744 154,-105 161.1692,-102.6301 168.8148,-100.3526 176.3463,-98.2487"/>
<polygon fill="#191970" stroke="#191970" points="177.3996,-101.5895 186.1319,-95.5897 175.564,-94.8345 177.3996,-101.5895"/>
</g>
<!-- Node8 -->
<g id="node8" class="node">
<title>Node8</title>
<g id="a_node8"><a xlink:href="classav_1_1_frame.html#a18bb63c366095d58a5394bf7e9d7d179" target="_top" xlink:title="av::Frame::extended_data">
<polygon fill="#ffffff" stroke="#000000" points="154.5,-38.5 154.5,-57.5 297.5,-57.5 297.5,-38.5 154.5,-38.5"/>
<text text-anchor="middle" x="226" y="-45.5" font-family="Helvetica,sans-Serif" font-size="10.00" fill="#000000">av::Frame::extended_data</text>
</a>
</g>
</g>
<!-- Node1&#45;&gt;Node8 -->
<g id="edge7" class="edge">
<title>Node1&#45;&gt;Node8</title>
<path fill="none" stroke="#191970" d="M68.2954,-133.2833C84.2919,-117.1261 118.7211,-84.7599 154,-67 158.6442,-64.6621 163.6062,-62.5898 168.6716,-60.7574"/>
<polygon fill="#191970" stroke="#191970" points="170.0823,-63.9776 178.4836,-57.5224 167.8905,-57.3296 170.0823,-63.9776"/>
</g>
<!-- Node9 -->
<g id="node9" class="node">
<title>Node9</title>
<g id="a_node9"><a xlink:href="classav_1_1_frame.html#a623ab5cfb9babe5cf566af3fe174e439" target="_top" xlink:title="av::Frame::linesize">
<polygon fill="#ffffff" stroke="#000000" points="172.5,-.5 172.5,-19.5 279.5,-19.5 279.5,-.5 172.5,-.5"/>
<text text-anchor="middle" x="226" y="-7.5" font-family="Helvetica,sans-Serif" font-size="10.00" fill="#000000">av::Frame::linesize</text>
</a>
</g>
</g>
<!-- Node1&#45;&gt;Node9 -->
<g id="edge8" class="edge">
<title>Node1&#45;&gt;Node9</title>
<path fill="none" stroke="#191970" d="M64.2224,-133.3266C76.6668,-111.2292 110.3206,-56.8146 154,-29 157.3396,-26.8734 160.9105,-24.9837 164.6097,-23.3047"/>
<polygon fill="#191970" stroke="#191970" points="166.0218,-26.5096 174.0102,-19.5499 163.4253,-20.0089 166.0218,-26.5096"/>
</g>
</g>
</svg>
