<?xml version="1.0" encoding="UTF-8" standalone="no"?>
<!DOCTYPE svg PUBLIC "-//W3C//DTD SVG 1.1//EN"
 "http://www.w3.org/Graphics/SVG/1.1/DTD/svg11.dtd">
<!-- Generated by graphviz version 2.38.0 (20140413.2041)
 -->
<!-- Title: av::utils::write_audio Pages: 1 -->
<svg width="282pt" height="294pt"
 viewBox="0.00 0.00 282.00 294.00" xmlns="http://www.w3.org/2000/svg" xmlns:xlink="http://www.w3.org/1999/xlink">
<g id="graph0" class="graph" transform="scale(1 1) rotate(0) translate(4 290)">
<title>av::utils::write_audio</title>
<polygon fill="white" stroke="none" points="-4,4 -4,-290 278,-290 278,4 -4,4"/>
<!-- Node1 -->
<g id="node1" class="node"><title>Node1</title>
<polygon fill="#bfbfbf" stroke="black" points="0,-133.5 0,-152.5 107,-152.5 107,-133.5 0,-133.5"/>
<text text-anchor="middle" x="53.5" y="-140.5" font-family="Helvetica,sans-Serif" font-size="10.00">av::utils::write_audio</text>
</g>
<!-- Node2 -->
<g id="node2" class="node"><title>Node2</title>
<g id="a_node2"><a xlink:href="classav_1_1_codec.html#ad8ad03d7ba76d2858aaf473ce99a6ae7" target="_top" xlink:title="Check if the sample format is planar. ">
<polygon fill="white" stroke="black" points="155,-266.5 155,-285.5 262,-285.5 262,-266.5 155,-266.5"/>
<text text-anchor="middle" x="208.5" y="-273.5" font-family="Helvetica,sans-Serif" font-size="10.00">av::Codec::is_planar</text>
</a>
</g>
</g>
<!-- Node1&#45;&gt;Node2 -->
<g id="edge1" class="edge"><title>Node1&#45;&gt;Node2</title>
<path fill="none" stroke="midnightblue" d="M59.2383,-152.596C70.5648,-174.529 101.394,-228.623 143,-257 145.934,-259.001 149.081,-260.795 152.35,-262.402"/>
<polygon fill="midnightblue" stroke="midnightblue" points="151.237,-265.733 161.807,-266.457 153.996,-259.3 151.237,-265.733"/>
</g>
<!-- Node3 -->
<g id="node3" class="node"><title>Node3</title>
<g id="a_node3"><a xlink:href="classav_1_1_frame.html#a2a83133bffc6dbdf4a7b13318ce4fe0a" target="_top" xlink:title="number of audio samples (per channel) described by this frame. ">
<polygon fill="white" stroke="black" points="149,-228.5 149,-247.5 268,-247.5 268,-228.5 149,-228.5"/>
<text text-anchor="middle" x="208.5" y="-235.5" font-family="Helvetica,sans-Serif" font-size="10.00">av::Frame::nb_samples</text>
</a>
</g>
</g>
<!-- Node1&#45;&gt;Node3 -->
<g id="edge2" class="edge"><title>Node1&#45;&gt;Node3</title>
<path fill="none" stroke="midnightblue" d="M63.0707,-152.645C77.8421,-168.695 109.728,-200.909 143,-219 147.032,-221.192 151.346,-223.159 155.762,-224.918"/>
<polygon fill="midnightblue" stroke="midnightblue" points="154.924,-228.337 165.518,-228.444 157.303,-221.754 154.924,-228.337"/>
</g>
<!-- Node4 -->
<g id="node4" class="node"><title>Node4</title>
<g id="a_node4"><a xlink:href="classav_1_1_codec.html#a83be833a6fa68899c25c6815021436ab" target="_top" xlink:title="Number of audio channels. ">
<polygon fill="white" stroke="black" points="155,-190.5 155,-209.5 262,-209.5 262,-190.5 155,-190.5"/>
<text text-anchor="middle" x="208.5" y="-197.5" font-family="Helvetica,sans-Serif" font-size="10.00">av::Codec::channels</text>
</a>
</g>
</g>
<!-- Node1&#45;&gt;Node4 -->
<g id="edge3" class="edge"><title>Node1&#45;&gt;Node4</title>
<path fill="none" stroke="midnightblue" d="M74.9642,-152.612C92.7252,-160.755 119.248,-172.437 143,-181 149.345,-183.288 156.112,-185.511 162.787,-187.581"/>
<polygon fill="midnightblue" stroke="midnightblue" points="161.856,-190.956 172.441,-190.497 163.88,-184.255 161.856,-190.956"/>
</g>
<!-- Node5 -->
<g id="node5" class="node"><title>Node5</title>
<g id="a_node5"><a xlink:href="classav_1_1_frame.html#ab68a86b5f540741b123bdf42342c096b" target="_top" xlink:title="pointer to the picture/channel planes. ">
<polygon fill="white" stroke="black" points="165.5,-152.5 165.5,-171.5 251.5,-171.5 251.5,-152.5 165.5,-152.5"/>
<text text-anchor="middle" x="208.5" y="-159.5" font-family="Helvetica,sans-Serif" font-size="10.00">av::Frame::data</text>
</a>
</g>
</g>
<!-- Node1&#45;&gt;Node5 -->
<g id="edge4" class="edge"><title>Node1&#45;&gt;Node5</title>
<path fill="none" stroke="midnightblue" d="M107.154,-149.539C122.754,-151.476 139.823,-153.596 155.389,-155.529"/>
<polygon fill="midnightblue" stroke="midnightblue" points="155.014,-159.009 165.369,-156.768 155.877,-152.062 155.014,-159.009"/>
</g>
<!-- Node6 -->
<g id="node6" class="node"><title>Node6</title>
<g id="a_node6"><a xlink:href="namespaceav.html#a081d5d6050765210d5ca708d37031a8b" target="_top" xlink:title="Number of bytes per sample. ">
<polygon fill="white" stroke="black" points="143,-114.5 143,-133.5 274,-133.5 274,-114.5 143,-114.5"/>
<text text-anchor="middle" x="208.5" y="-121.5" font-family="Helvetica,sans-Serif" font-size="10.00">av::get_bytes_per_sample</text>
</a>
</g>
</g>
<!-- Node1&#45;&gt;Node6 -->
<g id="edge5" class="edge"><title>Node1&#45;&gt;Node6</title>
<path fill="none" stroke="midnightblue" d="M107.154,-136.461C115.417,-135.435 124.093,-134.358 132.739,-133.284"/>
<polygon fill="midnightblue" stroke="midnightblue" points="133.356,-136.734 142.848,-132.029 132.493,-129.788 133.356,-136.734"/>
</g>
<!-- Node7 -->
<g id="node7" class="node"><title>Node7</title>
<g id="a_node7"><a xlink:href="classav_1_1_codec.html#afb04f2ba584a81de4bd0c9669d9477cf" target="_top" xlink:title="Audio sample format. ">
<polygon fill="white" stroke="black" points="149,-76.5 149,-95.5 268,-95.5 268,-76.5 149,-76.5"/>
<text text-anchor="middle" x="208.5" y="-83.5" font-family="Helvetica,sans-Serif" font-size="10.00">av::Codec::sample_fmt</text>
</a>
</g>
</g>
<!-- Node1&#45;&gt;Node7 -->
<g id="edge6" class="edge"><title>Node1&#45;&gt;Node7</title>
<path fill="none" stroke="midnightblue" d="M74.9642,-133.388C92.7252,-125.245 119.248,-113.563 143,-105 149.345,-102.712 156.112,-100.489 162.787,-98.4185"/>
<polygon fill="midnightblue" stroke="midnightblue" points="163.88,-101.745 172.441,-95.5035 161.856,-95.0437 163.88,-101.745"/>
</g>
<!-- Node8 -->
<g id="node8" class="node"><title>Node8</title>
<g id="a_node8"><a xlink:href="classav_1_1_frame.html#a18bb63c366095d58a5394bf7e9d7d179" target="_top" xlink:title="av::Frame::extended_data">
<polygon fill="white" stroke="black" points="143,-38.5 143,-57.5 274,-57.5 274,-38.5 143,-38.5"/>
<text text-anchor="middle" x="208.5" y="-45.5" font-family="Helvetica,sans-Serif" font-size="10.00">av::Frame::extended_data</text>
</a>
</g>
</g>
<!-- Node1&#45;&gt;Node8 -->
<g id="edge7" class="edge"><title>Node1&#45;&gt;Node8</title>
<path fill="none" stroke="midnightblue" d="M63.0707,-133.355C77.8421,-117.305 109.728,-85.0908 143,-67 147.032,-64.8078 151.346,-62.8409 155.762,-61.0817"/>
<polygon fill="midnightblue" stroke="midnightblue" points="157.303,-64.2462 165.518,-57.5555 154.924,-57.6629 157.303,-64.2462"/>
</g>
<!-- Node9 -->
<g id="node9" class="node"><title>Node9</title>
<g id="a_node9"><a xlink:href="classav_1_1_frame.html#a623ab5cfb9babe5cf566af3fe174e439" target="_top" xlink:title="av::Frame::linesize">
<polygon fill="white" stroke="black" points="158.5,-0.5 158.5,-19.5 258.5,-19.5 258.5,-0.5 158.5,-0.5"/>
<text text-anchor="middle" x="208.5" y="-7.5" font-family="Helvetica,sans-Serif" font-size="10.00">av::Frame::linesize</text>
</a>
</g>
</g>
<!-- Node1&#45;&gt;Node9 -->
<g id="edge8" class="edge"><title>Node1&#45;&gt;Node9</title>
<path fill="none" stroke="midnightblue" d="M59.2383,-133.404C70.5648,-111.471 101.394,-57.3768 143,-29 145.934,-26.999 149.081,-25.2052 152.35,-23.5977"/>
<polygon fill="midnightblue" stroke="midnightblue" points="153.996,-26.7005 161.807,-19.5432 151.237,-20.2668 153.996,-26.7005"/>
</g>
</g>
</svg>
