<?xml version="1.0" encoding="UTF-8" standalone="no"?>
<!DOCTYPE svg PUBLIC "-//W3C//DTD SVG 1.1//EN"
 "http://www.w3.org/Graphics/SVG/1.1/DTD/svg11.dtd">
<!-- Generated by graphviz version 2.38.0 (20140413.2041)
 -->
<!-- Title: /home/etienne/Projects/avcpp/av/option.h Pages: 1 -->
<svg width="189pt" height="95pt"
 viewBox="0.00 0.00 189.00 95.00" xmlns="http://www.w3.org/2000/svg" xmlns:xlink="http://www.w3.org/1999/xlink">
<g id="graph0" class="graph" transform="scale(1 1) rotate(0) translate(4 91)">
<title>/home/etienne/Projects/avcpp/av/option.h</title>
<polygon fill="white" stroke="none" points="-4,4 -4,-91 185,-91 185,4 -4,4"/>
<!-- Node0 -->
<g id="node1" class="node"><title>Node0</title>
<polygon fill="#bfbfbf" stroke="black" points="23,-56.5 23,-86.5 140,-86.5 140,-56.5 23,-56.5"/>
<text text-anchor="start" x="31" y="-74.5" font-family="Helvetica,sans-Serif" font-size="10.00">/home/etienne/Projects</text>
<text text-anchor="middle" x="81.5" y="-63.5" font-family="Helvetica,sans-Serif" font-size="10.00">/avcpp/av/option.h</text>
</g>
<!-- Node1 -->
<g id="node2" class="node"><title>Node1</title>
<polygon fill="white" stroke="#bfbfbf" points="0,-0.5 0,-19.5 41,-19.5 41,-0.5 0,-0.5"/>
<text text-anchor="middle" x="20.5" y="-7.5" font-family="Helvetica,sans-Serif" font-size="10.00">string</text>
</g>
<!-- Node0&#45;&gt;Node1 -->
<g id="edge1" class="edge"><title>Node0&#45;&gt;Node1</title>
<path fill="none" stroke="midnightblue" d="M67.0439,-56.3993C57.9057,-47.4859 46.0814,-35.9523 36.6376,-26.7408"/>
<polygon fill="midnightblue" stroke="midnightblue" points="38.9785,-24.1348 29.376,-19.6578 34.0907,-29.1458 38.9785,-24.1348"/>
</g>
<!-- Node2 -->
<g id="node3" class="node"><title>Node2</title>
<polygon fill="white" stroke="#bfbfbf" points="59.5,-0.5 59.5,-19.5 103.5,-19.5 103.5,-0.5 59.5,-0.5"/>
<text text-anchor="middle" x="81.5" y="-7.5" font-family="Helvetica,sans-Serif" font-size="10.00">vector</text>
</g>
<!-- Node0&#45;&gt;Node2 -->
<g id="edge2" class="edge"><title>Node0&#45;&gt;Node2</title>
<path fill="none" stroke="midnightblue" d="M81.5,-56.3993C81.5,-48.4664 81.5,-38.458 81.5,-29.8583"/>
<polygon fill="midnightblue" stroke="midnightblue" points="85.0001,-29.6577 81.5,-19.6578 78.0001,-29.6578 85.0001,-29.6577"/>
</g>
<!-- Node3 -->
<g id="node4" class="node"><title>Node3</title>
<polygon fill="white" stroke="#bfbfbf" points="122,-0.5 122,-19.5 181,-19.5 181,-0.5 122,-0.5"/>
<text text-anchor="middle" x="151.5" y="-7.5" font-family="Helvetica,sans-Serif" font-size="10.00">stdexcept</text>
</g>
<!-- Node0&#45;&gt;Node3 -->
<g id="edge3" class="edge"><title>Node0&#45;&gt;Node3</title>
<path fill="none" stroke="midnightblue" d="M98.089,-56.3993C108.785,-47.3076 122.688,-35.4899 133.628,-26.1909"/>
<polygon fill="midnightblue" stroke="midnightblue" points="135.962,-28.8011 141.314,-19.6578 131.428,-23.4675 135.962,-28.8011"/>
</g>
</g>
</svg>
