<?xml version="1.0" encoding="UTF-8" standalone="no"?>
<!DOCTYPE svg PUBLIC "-//W3C//DTD SVG 1.1//EN"
 "http://www.w3.org/Graphics/SVG/1.1/DTD/svg11.dtd">
<!-- Generated by graphviz version 2.40.1 (20161225.0304)
 -->
<!-- Title: /home/etienne/Projects/avcpp/av/option.h Pages: 1 -->
<svg width="294pt" height="240pt"
 viewBox="0.00 0.00 294.00 240.00" xmlns="http://www.w3.org/2000/svg" xmlns:xlink="http://www.w3.org/1999/xlink">
<g id="graph0" class="graph" transform="scale(1 1) rotate(0) translate(4 236)">
<title>/home/etienne/Projects/avcpp/av/option.h</title>
<polygon fill="#ffffff" stroke="transparent" points="-4,4 -4,-236 290,-236 290,4 -4,4"/>
<!-- Node4 -->
<g id="node1" class="node">
<title>Node4</title>
<polygon fill="#bfbfbf" stroke="#000000" points="120,-201.5 120,-231.5 249,-231.5 249,-201.5 120,-201.5"/>
<text text-anchor="start" x="128" y="-219.5" font-family="Helvetica,sans-Serif" font-size="10.00" fill="#000000">/home/etienne/Projects</text>
<text text-anchor="middle" x="184.5" y="-208.5" font-family="Helvetica,sans-Serif" font-size="10.00" fill="#000000">/avcpp/av/option.h</text>
</g>
<!-- Node5 -->
<g id="node2" class="node">
<title>Node5</title>
<g id="a_node2"><a xlink:href="codec_8h.html" target="_top" xlink:title="/home/etienne/Projects\l/avcpp/av/codec.h">
<polygon fill="#ffffff" stroke="#000000" points="74,-134.5 74,-164.5 203,-164.5 203,-134.5 74,-134.5"/>
<text text-anchor="start" x="82" y="-152.5" font-family="Helvetica,sans-Serif" font-size="10.00" fill="#000000">/home/etienne/Projects</text>
<text text-anchor="middle" x="138.5" y="-141.5" font-family="Helvetica,sans-Serif" font-size="10.00" fill="#000000">/avcpp/av/codec.h</text>
</a>
</g>
</g>
<!-- Node4&#45;&gt;Node5 -->
<g id="edge1" class="edge">
<title>Node4&#45;&gt;Node5</title>
<path fill="none" stroke="#191970" d="M168.2102,-192.7735C161.7852,-183.4154 154.5946,-172.9421 148.8968,-164.6432"/>
<polygon fill="#191970" stroke="#191970" points="165.5164,-195.0337 174.0619,-201.2967 171.2872,-191.0716 165.5164,-195.0337"/>
</g>
<!-- Node8 -->
<g id="node5" class="node">
<title>Node8</title>
<g id="a_node5"><a xlink:href="resample_8h.html" target="_top" xlink:title="/home/etienne/Projects\l/avcpp/av/resample.h">
<polygon fill="#ffffff" stroke="#000000" points="157,-.5 157,-30.5 286,-30.5 286,-.5 157,-.5"/>
<text text-anchor="start" x="165" y="-18.5" font-family="Helvetica,sans-Serif" font-size="10.00" fill="#000000">/home/etienne/Projects</text>
<text text-anchor="middle" x="221.5" y="-7.5" font-family="Helvetica,sans-Serif" font-size="10.00" fill="#000000">/avcpp/av/resample.h</text>
</a>
</g>
</g>
<!-- Node4&#45;&gt;Node8 -->
<g id="edge6" class="edge">
<title>Node4&#45;&gt;Node8</title>
<path fill="none" stroke="#191970" d="M199.6819,-192.5787C204.289,-184.173 208.8326,-174.4598 211.5,-165 224.9131,-117.4304 223.9246,-58.121 222.5233,-30.7014"/>
<polygon fill="#191970" stroke="#191970" points="196.5379,-191.0234 194.5502,-201.4302 202.5938,-194.5344 196.5379,-191.0234"/>
</g>
<!-- Node6 -->
<g id="node3" class="node">
<title>Node6</title>
<g id="a_node3"><a xlink:href="av_8h.html" target="_top" xlink:title="/home/etienne/Projects\l/avcpp/av/av.h">
<polygon fill="#ffffff" stroke="#000000" points="0,-.5 0,-30.5 129,-30.5 129,-.5 0,-.5"/>
<text text-anchor="start" x="8" y="-18.5" font-family="Helvetica,sans-Serif" font-size="10.00" fill="#000000">/home/etienne/Projects</text>
<text text-anchor="middle" x="64.5" y="-7.5" font-family="Helvetica,sans-Serif" font-size="10.00" fill="#000000">/avcpp/av/av.h</text>
</a>
</g>
</g>
<!-- Node5&#45;&gt;Node6 -->
<g id="edge2" class="edge">
<title>Node5&#45;&gt;Node6</title>
<path fill="none" stroke="#191970" d="M94.7207,-129.0259C82.734,-121.1243 71.2066,-110.8382 64.5,-98 53.4249,-76.7992 56.7994,-48.1507 60.4842,-30.7936"/>
<polygon fill="#191970" stroke="#191970" points="93.1077,-132.1417 103.4676,-134.3603 96.7524,-126.1654 93.1077,-132.1417"/>
</g>
<!-- Node7 -->
<g id="node4" class="node">
<title>Node7</title>
<g id="a_node4"><a xlink:href="format_8h.html" target="_top" xlink:title="/home/etienne/Projects\l/avcpp/av/format.h">
<polygon fill="#ffffff" stroke="#000000" points="74,-67.5 74,-97.5 203,-97.5 203,-67.5 74,-67.5"/>
<text text-anchor="start" x="82" y="-85.5" font-family="Helvetica,sans-Serif" font-size="10.00" fill="#000000">/home/etienne/Projects</text>
<text text-anchor="middle" x="138.5" y="-74.5" font-family="Helvetica,sans-Serif" font-size="10.00" fill="#000000">/avcpp/av/format.h</text>
</a>
</g>
</g>
<!-- Node5&#45;&gt;Node7 -->
<g id="edge3" class="edge">
<title>Node5&#45;&gt;Node7</title>
<path fill="none" stroke="#191970" d="M138.5,-124.0249C138.5,-115.128 138.5,-105.4287 138.5,-97.6432"/>
<polygon fill="#191970" stroke="#191970" points="135.0001,-124.2966 138.5,-134.2967 142.0001,-124.2967 135.0001,-124.2966"/>
</g>
<!-- Node7&#45;&gt;Node6 -->
<g id="edge4" class="edge">
<title>Node7&#45;&gt;Node6</title>
<path fill="none" stroke="#191970" d="M114.1976,-60.4965C103.399,-50.7193 90.9582,-39.4554 81.2253,-30.6432"/>
<polygon fill="#191970" stroke="#191970" points="111.9461,-63.1794 121.7083,-67.2967 116.6444,-57.9903 111.9461,-63.1794"/>
</g>
<!-- Node7&#45;&gt;Node8 -->
<g id="edge5" class="edge">
<title>Node7&#45;&gt;Node8</title>
<path fill="none" stroke="#191970" d="M165.4058,-60.7808C177.5988,-50.9383 191.7179,-39.541 202.7405,-30.6432"/>
<polygon fill="#191970" stroke="#191970" points="162.9168,-58.292 157.334,-67.2967 167.3136,-63.7389 162.9168,-58.292"/>
</g>
</g>
</svg>
