<?xml version="1.0" encoding="UTF-8" standalone="no"?>
<!DOCTYPE svg PUBLIC "-//W3C//DTD SVG 1.1//EN"
 "http://www.w3.org/Graphics/SVG/1.1/DTD/svg11.dtd">
<!-- Generated by graphviz version 2.38.0 (20140413.2041)
 -->
<!-- Title: /home/etienne/Projects/avcpp/av/option.h Pages: 1 -->
<svg width="270pt" height="240pt"
 viewBox="0.00 0.00 270.00 240.00" xmlns="http://www.w3.org/2000/svg" xmlns:xlink="http://www.w3.org/1999/xlink">
<g id="graph0" class="graph" transform="scale(1 1) rotate(0) translate(4 236)">
<title>/home/etienne/Projects/avcpp/av/option.h</title>
<polygon fill="white" stroke="none" points="-4,4 -4,-236 266,-236 266,4 -4,4"/>
<!-- Node4 -->
<g id="node1" class="node"><title>Node4</title>
<polygon fill="#bfbfbf" stroke="black" points="111,-201.5 111,-231.5 228,-231.5 228,-201.5 111,-201.5"/>
<text text-anchor="start" x="119" y="-219.5" font-family="Helvetica,sans-Serif" font-size="10.00">/home/etienne/Projects</text>
<text text-anchor="middle" x="169.5" y="-208.5" font-family="Helvetica,sans-Serif" font-size="10.00">/avcpp/av/option.h</text>
</g>
<!-- Node5 -->
<g id="node2" class="node"><title>Node5</title>
<g id="a_node2"><a xlink:href="codec_8h.html" target="_top" xlink:title="/home/etienne/Projects\l/avcpp/av/codec.h">
<polygon fill="white" stroke="black" points="68,-134.5 68,-164.5 185,-164.5 185,-134.5 68,-134.5"/>
<text text-anchor="start" x="76" y="-152.5" font-family="Helvetica,sans-Serif" font-size="10.00">/home/etienne/Projects</text>
<text text-anchor="middle" x="126.5" y="-141.5" font-family="Helvetica,sans-Serif" font-size="10.00">/avcpp/av/codec.h</text>
</a>
</g>
</g>
<!-- Node4&#45;&gt;Node5 -->
<g id="edge1" class="edge"><title>Node4&#45;&gt;Node5</title>
<path fill="none" stroke="midnightblue" d="M154.527,-192.867C148.304,-183.459 141.274,-172.833 135.812,-164.577"/>
<polygon fill="midnightblue" stroke="midnightblue" points="151.733,-194.987 160.17,-201.396 157.571,-191.125 151.733,-194.987"/>
</g>
<!-- Node8 -->
<g id="node5" class="node"><title>Node8</title>
<g id="a_node5"><a xlink:href="resample_8h.html" target="_top" xlink:title="/home/etienne/Projects\l/avcpp/av/resample.h">
<polygon fill="white" stroke="black" points="145,-0.5 145,-30.5 262,-30.5 262,-0.5 145,-0.5"/>
<text text-anchor="start" x="153" y="-18.5" font-family="Helvetica,sans-Serif" font-size="10.00">/home/etienne/Projects</text>
<text text-anchor="middle" x="203.5" y="-7.5" font-family="Helvetica,sans-Serif" font-size="10.00">/avcpp/av/resample.h</text>
</a>
</g>
</g>
<!-- Node4&#45;&gt;Node8 -->
<g id="edge6" class="edge"><title>Node4&#45;&gt;Node8</title>
<path fill="none" stroke="midnightblue" d="M182.745,-192.355C186.917,-183.994 191.067,-174.316 193.5,-165 206.036,-116.998 205.393,-57.4676 204.288,-30.7027"/>
<polygon fill="midnightblue" stroke="midnightblue" points="179.51,-190.986 177.939,-201.464 185.701,-194.253 179.51,-190.986"/>
</g>
<!-- Node6 -->
<g id="node3" class="node"><title>Node6</title>
<g id="a_node3"><a xlink:href="av_8h.html" target="_top" xlink:title="/home/etienne/Projects\l/avcpp/av/av.h">
<polygon fill="white" stroke="black" points="0,-0.5 0,-30.5 117,-30.5 117,-0.5 0,-0.5"/>
<text text-anchor="start" x="8" y="-18.5" font-family="Helvetica,sans-Serif" font-size="10.00">/home/etienne/Projects</text>
<text text-anchor="middle" x="58.5" y="-7.5" font-family="Helvetica,sans-Serif" font-size="10.00">/avcpp/av/av.h</text>
</a>
</g>
</g>
<!-- Node5&#45;&gt;Node6 -->
<g id="edge2" class="edge"><title>Node5&#45;&gt;Node6</title>
<path fill="none" stroke="midnightblue" d="M87.5999,-128.862C76.0894,-120.956 64.8709,-110.667 58.5,-98 47.692,-76.5111 51.2384,-47.6223 54.8408,-30.6378"/>
<polygon fill="midnightblue" stroke="midnightblue" points="86.0662,-132.034 96.3836,-134.442 89.82,-126.125 86.0662,-132.034"/>
</g>
<!-- Node7 -->
<g id="node4" class="node"><title>Node7</title>
<g id="a_node4"><a xlink:href="format_8h.html" target="_top" xlink:title="/home/etienne/Projects\l/avcpp/av/format.h">
<polygon fill="white" stroke="black" points="68,-67.5 68,-97.5 185,-97.5 185,-67.5 68,-67.5"/>
<text text-anchor="start" x="76" y="-85.5" font-family="Helvetica,sans-Serif" font-size="10.00">/home/etienne/Projects</text>
<text text-anchor="middle" x="126.5" y="-74.5" font-family="Helvetica,sans-Serif" font-size="10.00">/avcpp/av/format.h</text>
</a>
</g>
</g>
<!-- Node5&#45;&gt;Node7 -->
<g id="edge3" class="edge"><title>Node5&#45;&gt;Node7</title>
<path fill="none" stroke="midnightblue" d="M126.5,-124.108C126.5,-115.154 126.5,-105.323 126.5,-97.5765"/>
<polygon fill="midnightblue" stroke="midnightblue" points="123,-124.396 126.5,-134.396 130,-124.396 123,-124.396"/>
</g>
<!-- Node7&#45;&gt;Node6 -->
<g id="edge4" class="edge"><title>Node7&#45;&gt;Node6</title>
<path fill="none" stroke="midnightblue" d="M104.334,-60.3115C94.1333,-50.5612 82.3095,-39.259 73.2262,-30.5765"/>
<polygon fill="midnightblue" stroke="midnightblue" points="102.098,-63.0162 111.745,-67.396 106.935,-57.9561 102.098,-63.0162"/>
</g>
<!-- Node7&#45;&gt;Node8 -->
<g id="edge5" class="edge"><title>Node7&#45;&gt;Node8</title>
<path fill="none" stroke="midnightblue" d="M150.923,-60.8832C162.624,-51.0054 176.338,-39.4293 186.825,-30.5765"/>
<polygon fill="midnightblue" stroke="midnightblue" points="148.592,-58.2709 143.208,-67.396 153.107,-63.6199 148.592,-58.2709"/>
</g>
</g>
</svg>
