<?xml version="1.0" encoding="UTF-8" standalone="no"?>
<!DOCTYPE svg PUBLIC "-//W3C//DTD SVG 1.1//EN"
 "http://www.w3.org/Graphics/SVG/1.1/DTD/svg11.dtd">
<!-- Generated by graphviz version 2.40.1 (20161225.0304)
 -->
<!-- Title: /home/etienne/Projects/avcpp/av/packet.h Pages: 1 -->
<svg width="231pt" height="95pt"
 viewBox="0.00 0.00 231.00 95.00" xmlns="http://www.w3.org/2000/svg" xmlns:xlink="http://www.w3.org/1999/xlink">
<g id="graph0" class="graph" transform="scale(1 1) rotate(0) translate(4 91)">
<title>/home/etienne/Projects/avcpp/av/packet.h</title>
<polygon fill="#ffffff" stroke="transparent" points="-4,4 -4,-91 227,-91 227,4 -4,4"/>
<!-- Node0 -->
<g id="node1" class="node">
<title>Node0</title>
<polygon fill="#bfbfbf" stroke="#000000" points="33,-56.5 33,-86.5 162,-86.5 162,-56.5 33,-56.5"/>
<text text-anchor="start" x="41" y="-74.5" font-family="Helvetica,sans-Serif" font-size="10.00" fill="#000000">/home/etienne/Projects</text>
<text text-anchor="middle" x="97.5" y="-63.5" font-family="Helvetica,sans-Serif" font-size="10.00" fill="#000000">/avcpp/av/packet.h</text>
</g>
<!-- Node1 -->
<g id="node2" class="node">
<title>Node1</title>
<polygon fill="#ffffff" stroke="#bfbfbf" points="0,-.5 0,-19.5 53,-19.5 53,-.5 0,-.5"/>
<text text-anchor="middle" x="26.5" y="-7.5" font-family="Helvetica,sans-Serif" font-size="10.00" fill="#000000">cstddef</text>
</g>
<!-- Node0&#45;&gt;Node1 -->
<g id="edge1" class="edge">
<title>Node0&#45;&gt;Node1</title>
<path fill="none" stroke="#191970" d="M79.9494,-56.2977C69.4779,-47.2274 56.1789,-35.7077 45.4662,-26.4285"/>
<polygon fill="#191970" stroke="#191970" points="47.7182,-23.7487 37.868,-19.8469 43.1351,-29.0398 47.7182,-23.7487"/>
</g>
<!-- Node2 -->
<g id="node3" class="node">
<title>Node2</title>
<polygon fill="#ffffff" stroke="#bfbfbf" points="71,-.5 71,-19.5 124,-19.5 124,-.5 71,-.5"/>
<text text-anchor="middle" x="97.5" y="-7.5" font-family="Helvetica,sans-Serif" font-size="10.00" fill="#000000">stdint.h</text>
</g>
<!-- Node0&#45;&gt;Node2 -->
<g id="edge2" class="edge">
<title>Node0&#45;&gt;Node2</title>
<path fill="none" stroke="#191970" d="M97.5,-56.2977C97.5,-48.3834 97.5,-38.6043 97.5,-30.0759"/>
<polygon fill="#191970" stroke="#191970" points="101.0001,-29.8469 97.5,-19.8469 94.0001,-29.847 101.0001,-29.8469"/>
</g>
<!-- Node3 -->
<g id="node4" class="node">
<title>Node3</title>
<polygon fill="#ffffff" stroke="#bfbfbf" points="142,-.5 142,-19.5 223,-19.5 223,-.5 142,-.5"/>
<text text-anchor="middle" x="182.5" y="-7.5" font-family="Helvetica,sans-Serif" font-size="10.00" fill="#000000">system_error</text>
</g>
<!-- Node0&#45;&gt;Node3 -->
<g id="edge3" class="edge">
<title>Node0&#45;&gt;Node3</title>
<path fill="none" stroke="#191970" d="M118.5112,-56.2977C131.2934,-47.0495 147.5946,-35.2551 160.5448,-25.8853"/>
<polygon fill="#191970" stroke="#191970" points="162.8403,-28.5445 168.8904,-19.8469 158.737,-22.8732 162.8403,-28.5445"/>
</g>
</g>
</svg>
