<?xml version="1.0" encoding="UTF-8" standalone="no"?>
<!DOCTYPE svg PUBLIC "-//W3C//DTD SVG 1.1//EN"
 "http://www.w3.org/Graphics/SVG/1.1/DTD/svg11.dtd">
<!-- Generated by graphviz version 2.40.1 (20161225.0304)
 -->
<!-- Title: /home/etienne/Projects/avcpp/av/packet.h Pages: 1 -->
<svg width="284pt" height="240pt"
 viewBox="0.00 0.00 284.00 240.00" xmlns="http://www.w3.org/2000/svg" xmlns:xlink="http://www.w3.org/1999/xlink">
<g id="graph0" class="graph" transform="scale(1 1) rotate(0) translate(4 236)">
<title>/home/etienne/Projects/avcpp/av/packet.h</title>
<polygon fill="#ffffff" stroke="transparent" points="-4,4 -4,-236 280,-236 280,4 -4,4"/>
<!-- Node4 -->
<g id="node1" class="node">
<title>Node4</title>
<polygon fill="#bfbfbf" stroke="#000000" points="46,-201.5 46,-231.5 175,-231.5 175,-201.5 46,-201.5"/>
<text text-anchor="start" x="54" y="-219.5" font-family="Helvetica,sans-Serif" font-size="10.00" fill="#000000">/home/etienne/Projects</text>
<text text-anchor="middle" x="110.5" y="-208.5" font-family="Helvetica,sans-Serif" font-size="10.00" fill="#000000">/avcpp/av/packet.h</text>
</g>
<!-- Node5 -->
<g id="node2" class="node">
<title>Node5</title>
<g id="a_node2"><a xlink:href="codec_8h.html" target="_top" xlink:title="/home/etienne/Projects\l/avcpp/av/codec.h">
<polygon fill="#ffffff" stroke="#000000" points="0,-134.5 0,-164.5 129,-164.5 129,-134.5 0,-134.5"/>
<text text-anchor="start" x="8" y="-152.5" font-family="Helvetica,sans-Serif" font-size="10.00" fill="#000000">/home/etienne/Projects</text>
<text text-anchor="middle" x="64.5" y="-141.5" font-family="Helvetica,sans-Serif" font-size="10.00" fill="#000000">/avcpp/av/codec.h</text>
</a>
</g>
</g>
<!-- Node4&#45;&gt;Node5 -->
<g id="edge1" class="edge">
<title>Node4&#45;&gt;Node5</title>
<path fill="none" stroke="#191970" d="M94.2102,-192.7735C87.7852,-183.4154 80.5946,-172.9421 74.8968,-164.6432"/>
<polygon fill="#191970" stroke="#191970" points="91.5164,-195.0337 100.0619,-201.2967 97.2872,-191.0716 91.5164,-195.0337"/>
</g>
<!-- Node7 -->
<g id="node4" class="node">
<title>Node7</title>
<g id="a_node4"><a xlink:href="format_8h.html" target="_top" xlink:title="/home/etienne/Projects\l/avcpp/av/format.h">
<polygon fill="#ffffff" stroke="#000000" points="93,-67.5 93,-97.5 222,-97.5 222,-67.5 93,-67.5"/>
<text text-anchor="start" x="101" y="-85.5" font-family="Helvetica,sans-Serif" font-size="10.00" fill="#000000">/home/etienne/Projects</text>
<text text-anchor="middle" x="157.5" y="-74.5" font-family="Helvetica,sans-Serif" font-size="10.00" fill="#000000">/avcpp/av/format.h</text>
</a>
</g>
</g>
<!-- Node4&#45;&gt;Node7 -->
<g id="edge6" class="edge">
<title>Node4&#45;&gt;Node7</title>
<path fill="none" stroke="#191970" d="M124.7623,-192.2764C129.2996,-183.8478 134.0343,-174.1974 137.5,-165 146.0745,-142.2445 151.9043,-114.5501 154.9655,-97.7364"/>
<polygon fill="#191970" stroke="#191970" points="121.6092,-190.7446 119.8016,-201.1841 127.7248,-194.1504 121.6092,-190.7446"/>
</g>
<!-- Node6 -->
<g id="node3" class="node">
<title>Node6</title>
<g id="a_node3"><a xlink:href="av_8h.html" target="_top" xlink:title="/home/etienne/Projects\l/avcpp/av/av.h">
<polygon fill="#ffffff" stroke="#000000" points="0,-.5 0,-30.5 129,-30.5 129,-.5 0,-.5"/>
<text text-anchor="start" x="8" y="-18.5" font-family="Helvetica,sans-Serif" font-size="10.00" fill="#000000">/home/etienne/Projects</text>
<text text-anchor="middle" x="64.5" y="-7.5" font-family="Helvetica,sans-Serif" font-size="10.00" fill="#000000">/avcpp/av/av.h</text>
</a>
</g>
</g>
<!-- Node5&#45;&gt;Node6 -->
<g id="edge2" class="edge">
<title>Node5&#45;&gt;Node6</title>
<path fill="none" stroke="#191970" d="M64.5,-124.3415C64.5,-96.8131 64.5,-53.5714 64.5,-30.7614"/>
<polygon fill="#191970" stroke="#191970" points="61.0001,-124.3889 64.5,-134.389 68.0001,-124.389 61.0001,-124.3889"/>
</g>
<!-- Node5&#45;&gt;Node7 -->
<g id="edge3" class="edge">
<title>Node5&#45;&gt;Node7</title>
<path fill="none" stroke="#191970" d="M93.8618,-128.3469C107.6998,-118.3776 123.8922,-106.7121 136.4804,-97.6432"/>
<polygon fill="#191970" stroke="#191970" points="91.671,-125.6115 85.6031,-134.2967 95.7627,-131.2911 91.671,-125.6115"/>
</g>
<!-- Node7&#45;&gt;Node6 -->
<g id="edge4" class="edge">
<title>Node7&#45;&gt;Node6</title>
<path fill="none" stroke="#191970" d="M128.1382,-61.3469C114.3002,-51.3776 98.1078,-39.7121 85.5196,-30.6432"/>
<polygon fill="#191970" stroke="#191970" points="126.2373,-64.2911 136.3969,-67.2967 130.329,-58.6115 126.2373,-64.2911"/>
</g>
<!-- Node8 -->
<g id="node5" class="node">
<title>Node8</title>
<g id="a_node5"><a xlink:href="resample_8h.html" target="_top" xlink:title="/home/etienne/Projects\l/avcpp/av/resample.h">
<polygon fill="#ffffff" stroke="#000000" points="147,-.5 147,-30.5 276,-30.5 276,-.5 147,-.5"/>
<text text-anchor="start" x="155" y="-18.5" font-family="Helvetica,sans-Serif" font-size="10.00" fill="#000000">/home/etienne/Projects</text>
<text text-anchor="middle" x="211.5" y="-7.5" font-family="Helvetica,sans-Serif" font-size="10.00" fill="#000000">/avcpp/av/resample.h</text>
</a>
</g>
</g>
<!-- Node7&#45;&gt;Node8 -->
<g id="edge5" class="edge">
<title>Node7&#45;&gt;Node8</title>
<path fill="none" stroke="#191970" d="M176.1575,-59.3509C183.8164,-49.8482 192.4685,-39.1132 199.2951,-30.6432"/>
<polygon fill="#191970" stroke="#191970" points="173.3036,-57.3143 169.7534,-67.2967 178.7538,-61.707 173.3036,-57.3143"/>
</g>
</g>
</svg>
