<?xml version="1.0" encoding="UTF-8" standalone="no"?>
<!DOCTYPE svg PUBLIC "-//W3C//DTD SVG 1.1//EN"
 "http://www.w3.org/Graphics/SVG/1.1/DTD/svg11.dtd">
<!-- Generated by graphviz version 2.38.0 (20140413.2041)
 -->
<!-- Title: /home/etienne/Projects/avcpp/av/packet.h Pages: 1 -->
<svg width="217pt" height="95pt"
 viewBox="0.00 0.00 216.50 95.00" xmlns="http://www.w3.org/2000/svg" xmlns:xlink="http://www.w3.org/1999/xlink">
<g id="graph0" class="graph" transform="scale(1 1) rotate(0) translate(4 91)">
<title>/home/etienne/Projects/avcpp/av/packet.h</title>
<polygon fill="white" stroke="none" points="-4,4 -4,-91 212.5,-91 212.5,4 -4,4"/>
<!-- Node0 -->
<g id="node1" class="node"><title>Node0</title>
<polygon fill="#bfbfbf" stroke="black" points="33,-56.5 33,-86.5 150,-86.5 150,-56.5 33,-56.5"/>
<text text-anchor="start" x="41" y="-74.5" font-family="Helvetica,sans-Serif" font-size="10.00">/home/etienne/Projects</text>
<text text-anchor="middle" x="91.5" y="-63.5" font-family="Helvetica,sans-Serif" font-size="10.00">/avcpp/av/packet.h</text>
</g>
<!-- Node1 -->
<g id="node2" class="node"><title>Node1</title>
<polygon fill="white" stroke="#bfbfbf" points="0,-0.5 0,-19.5 49,-19.5 49,-0.5 0,-0.5"/>
<text text-anchor="middle" x="24.5" y="-7.5" font-family="Helvetica,sans-Serif" font-size="10.00">cstddef</text>
</g>
<!-- Node0&#45;&gt;Node1 -->
<g id="edge1" class="edge"><title>Node0&#45;&gt;Node1</title>
<path fill="none" stroke="midnightblue" d="M75.6219,-56.3993C65.4846,-47.3967 52.3375,-35.7214 41.9146,-26.4652"/>
<polygon fill="midnightblue" stroke="midnightblue" points="44.0504,-23.681 34.2491,-19.6578 39.4022,-28.915 44.0504,-23.681"/>
</g>
<!-- Node2 -->
<g id="node3" class="node"><title>Node2</title>
<polygon fill="white" stroke="#bfbfbf" points="67,-0.5 67,-19.5 116,-19.5 116,-0.5 67,-0.5"/>
<text text-anchor="middle" x="91.5" y="-7.5" font-family="Helvetica,sans-Serif" font-size="10.00">stdint.h</text>
</g>
<!-- Node0&#45;&gt;Node2 -->
<g id="edge2" class="edge"><title>Node0&#45;&gt;Node2</title>
<path fill="none" stroke="midnightblue" d="M91.5,-56.3993C91.5,-48.4664 91.5,-38.458 91.5,-29.8583"/>
<polygon fill="midnightblue" stroke="midnightblue" points="95.0001,-29.6577 91.5,-19.6578 88.0001,-29.6578 95.0001,-29.6577"/>
</g>
<!-- Node3 -->
<g id="node4" class="node"><title>Node3</title>
<polygon fill="white" stroke="#bfbfbf" points="134.5,-0.5 134.5,-19.5 208.5,-19.5 208.5,-0.5 134.5,-0.5"/>
<text text-anchor="middle" x="171.5" y="-7.5" font-family="Helvetica,sans-Serif" font-size="10.00">system_error</text>
</g>
<!-- Node0&#45;&gt;Node3 -->
<g id="edge3" class="edge"><title>Node0&#45;&gt;Node3</title>
<path fill="none" stroke="midnightblue" d="M110.459,-56.3993C122.923,-47.1293 139.197,-35.0254 151.807,-25.6469"/>
<polygon fill="midnightblue" stroke="midnightblue" points="153.924,-28.4341 159.859,-19.6578 149.747,-22.8173 153.924,-28.4341"/>
</g>
</g>
</svg>
