<?xml version="1.0" encoding="UTF-8" standalone="no"?>
<!DOCTYPE svg PUBLIC "-//W3C//DTD SVG 1.1//EN"
 "http://www.w3.org/Graphics/SVG/1.1/DTD/svg11.dtd">
<!-- Generated by graphviz version 2.38.0 (20140413.2041)
 -->
<!-- Title: /home/etienne/Projects/avcpp/av/packet.h Pages: 1 -->
<svg width="260pt" height="240pt"
 viewBox="0.00 0.00 260.00 240.00" xmlns="http://www.w3.org/2000/svg" xmlns:xlink="http://www.w3.org/1999/xlink">
<g id="graph0" class="graph" transform="scale(1 1) rotate(0) translate(4 236)">
<title>/home/etienne/Projects/avcpp/av/packet.h</title>
<polygon fill="white" stroke="none" points="-4,4 -4,-236 256,-236 256,4 -4,4"/>
<!-- Node4 -->
<g id="node1" class="node"><title>Node4</title>
<polygon fill="#bfbfbf" stroke="black" points="43,-201.5 43,-231.5 160,-231.5 160,-201.5 43,-201.5"/>
<text text-anchor="start" x="51" y="-219.5" font-family="Helvetica,sans-Serif" font-size="10.00">/home/etienne/Projects</text>
<text text-anchor="middle" x="101.5" y="-208.5" font-family="Helvetica,sans-Serif" font-size="10.00">/avcpp/av/packet.h</text>
</g>
<!-- Node5 -->
<g id="node2" class="node"><title>Node5</title>
<g id="a_node2"><a xlink:href="codec_8h.html" target="_top" xlink:title="/home/etienne/Projects\l/avcpp/av/codec.h">
<polygon fill="white" stroke="black" points="0,-134.5 0,-164.5 117,-164.5 117,-134.5 0,-134.5"/>
<text text-anchor="start" x="8" y="-152.5" font-family="Helvetica,sans-Serif" font-size="10.00">/home/etienne/Projects</text>
<text text-anchor="middle" x="58.5" y="-141.5" font-family="Helvetica,sans-Serif" font-size="10.00">/avcpp/av/codec.h</text>
</a>
</g>
</g>
<!-- Node4&#45;&gt;Node5 -->
<g id="edge1" class="edge"><title>Node4&#45;&gt;Node5</title>
<path fill="none" stroke="midnightblue" d="M86.5273,-192.867C80.3039,-183.459 73.2744,-172.833 67.8122,-164.577"/>
<polygon fill="midnightblue" stroke="midnightblue" points="83.7332,-194.987 92.1696,-201.396 89.5713,-191.125 83.7332,-194.987"/>
</g>
<!-- Node7 -->
<g id="node4" class="node"><title>Node7</title>
<g id="a_node4"><a xlink:href="format_8h.html" target="_top" xlink:title="/home/etienne/Projects\l/avcpp/av/format.h">
<polygon fill="white" stroke="black" points="87,-67.5 87,-97.5 204,-97.5 204,-67.5 87,-67.5"/>
<text text-anchor="start" x="95" y="-85.5" font-family="Helvetica,sans-Serif" font-size="10.00">/home/etienne/Projects</text>
<text text-anchor="middle" x="145.5" y="-74.5" font-family="Helvetica,sans-Serif" font-size="10.00">/avcpp/av/format.h</text>
</a>
</g>
</g>
<!-- Node4&#45;&gt;Node7 -->
<g id="edge6" class="edge"><title>Node4&#45;&gt;Node7</title>
<path fill="none" stroke="midnightblue" d="M113.847,-192.078C117.94,-183.693 122.27,-174.07 125.5,-165 133.712,-141.943 139.759,-114.049 142.946,-97.5966"/>
<polygon fill="midnightblue" stroke="midnightblue" points="110.602,-190.741 109.232,-201.246 116.855,-193.888 110.602,-190.741"/>
</g>
<!-- Node6 -->
<g id="node3" class="node"><title>Node6</title>
<g id="a_node3"><a xlink:href="av_8h.html" target="_top" xlink:title="/home/etienne/Projects\l/avcpp/av/av.h">
<polygon fill="white" stroke="black" points="0,-0.5 0,-30.5 117,-30.5 117,-0.5 0,-0.5"/>
<text text-anchor="start" x="8" y="-18.5" font-family="Helvetica,sans-Serif" font-size="10.00">/home/etienne/Projects</text>
<text text-anchor="middle" x="58.5" y="-7.5" font-family="Helvetica,sans-Serif" font-size="10.00">/avcpp/av/av.h</text>
</a>
</g>
</g>
<!-- Node5&#45;&gt;Node6 -->
<g id="edge2" class="edge"><title>Node5&#45;&gt;Node6</title>
<path fill="none" stroke="midnightblue" d="M58.5,-124.024C58.5,-96.5121 58.5,-52.7894 58.5,-30.5247"/>
<polygon fill="midnightblue" stroke="midnightblue" points="55.0001,-124.374 58.5,-134.374 62.0001,-124.374 55.0001,-124.374"/>
</g>
<!-- Node5&#45;&gt;Node7 -->
<g id="edge3" class="edge"><title>Node5&#45;&gt;Node7</title>
<path fill="none" stroke="midnightblue" d="M85.7141,-128.168C99.0175,-118.228 114.696,-106.514 126.659,-97.5765"/>
<polygon fill="midnightblue" stroke="midnightblue" points="83.2939,-125.607 77.3777,-134.396 87.4836,-131.215 83.2939,-125.607"/>
</g>
<!-- Node7&#45;&gt;Node6 -->
<g id="edge4" class="edge"><title>Node7&#45;&gt;Node6</title>
<path fill="none" stroke="midnightblue" d="M118.286,-61.1677C104.982,-51.2283 89.3039,-39.5144 77.3409,-30.5765"/>
<polygon fill="midnightblue" stroke="midnightblue" points="116.516,-64.2145 126.622,-67.396 120.706,-58.6068 116.516,-64.2145"/>
</g>
<!-- Node8 -->
<g id="node5" class="node"><title>Node8</title>
<g id="a_node5"><a xlink:href="resample_8h.html" target="_top" xlink:title="/home/etienne/Projects\l/avcpp/av/resample.h">
<polygon fill="white" stroke="black" points="135,-0.5 135,-30.5 252,-30.5 252,-0.5 135,-0.5"/>
<text text-anchor="start" x="143" y="-18.5" font-family="Helvetica,sans-Serif" font-size="10.00">/home/etienne/Projects</text>
<text text-anchor="middle" x="193.5" y="-7.5" font-family="Helvetica,sans-Serif" font-size="10.00">/avcpp/av/resample.h</text>
</a>
</g>
</g>
<!-- Node7&#45;&gt;Node8 -->
<g id="edge5" class="edge"><title>Node7&#45;&gt;Node8</title>
<path fill="none" stroke="midnightblue" d="M161.999,-59.1575C168.999,-49.6788 176.945,-38.9186 183.105,-30.5765"/>
<polygon fill="midnightblue" stroke="midnightblue" points="159.04,-57.2725 155.915,-67.396 164.671,-61.4308 159.04,-57.2725"/>
</g>
</g>
</svg>
