<?xml version="1.0" encoding="UTF-8" standalone="no"?>
<!DOCTYPE svg PUBLIC "-//W3C//DTD SVG 1.1//EN"
 "http://www.w3.org/Graphics/SVG/1.1/DTD/svg11.dtd">
<!-- Generated by graphviz version 2.38.0 (20140413.2041)
 -->
<!-- Title: /home/etienne/Projects/avcpp/av/resample.h Pages: 1 -->
<svg width="827pt" height="319pt"
 viewBox="0.00 0.00 826.63 319.00" xmlns="http://www.w3.org/2000/svg" xmlns:xlink="http://www.w3.org/1999/xlink">
<g id="graph0" class="graph" transform="scale(1 1) rotate(0) translate(4 315)">
<title>/home/etienne/Projects/avcpp/av/resample.h</title>
<polygon fill="white" stroke="none" points="-4,4 -4,-315 822.629,-315 822.629,4 -4,4"/>
<!-- Node0 -->
<g id="node1" class="node"><title>Node0</title>
<polygon fill="#bfbfbf" stroke="black" points="340.129,-280.5 340.129,-310.5 457.129,-310.5 457.129,-280.5 340.129,-280.5"/>
<text text-anchor="start" x="348.129" y="-298.5" font-family="Helvetica,sans-Serif" font-size="10.00">/home/etienne/Projects</text>
<text text-anchor="middle" x="398.629" y="-287.5" font-family="Helvetica,sans-Serif" font-size="10.00">/avcpp/av/resample.h</text>
</g>
<!-- Node1 -->
<g id="node2" class="node"><title>Node1</title>
<polygon fill="white" stroke="#bfbfbf" points="48.6289,-56.5 48.6289,-75.5 122.629,-75.5 122.629,-56.5 48.6289,-56.5"/>
<text text-anchor="middle" x="85.6289" y="-63.5" font-family="Helvetica,sans-Serif" font-size="10.00">system_error</text>
</g>
<!-- Node0&#45;&gt;Node1 -->
<g id="edge1" class="edge"><title>Node0&#45;&gt;Node1</title>
<path fill="none" stroke="midnightblue" d="M340.07,-292.955C244.651,-286.729 60.4597,-258.157 2.6289,-132 -8.51105,-107.698 20.0803,-89.9679 46.6916,-79.2212"/>
<polygon fill="midnightblue" stroke="midnightblue" points="48.2122,-82.3882 56.3288,-75.5786 45.7372,-75.8403 48.2122,-82.3882"/>
</g>
<!-- Node2 -->
<g id="node3" class="node"><title>Node2</title>
<g id="a_node3"><a xlink:href="format_8h.html" target="_top" xlink:title="format.h">
<polygon fill="white" stroke="black" points="372.129,-224.5 372.129,-243.5 425.129,-243.5 425.129,-224.5 372.129,-224.5"/>
<text text-anchor="middle" x="398.629" y="-231.5" font-family="Helvetica,sans-Serif" font-size="10.00">format.h</text>
</a>
</g>
</g>
<!-- Node0&#45;&gt;Node2 -->
<g id="edge2" class="edge"><title>Node0&#45;&gt;Node2</title>
<path fill="none" stroke="midnightblue" d="M398.629,-280.399C398.629,-272.466 398.629,-262.458 398.629,-253.858"/>
<polygon fill="midnightblue" stroke="midnightblue" points="402.129,-253.658 398.629,-243.658 395.129,-253.658 402.129,-253.658"/>
</g>
<!-- Node17 -->
<g id="node18" class="node"><title>Node17</title>
<g id="a_node18"><a xlink:href="option_8h.html" target="_top" xlink:title="option.h">
<polygon fill="white" stroke="black" points="594.129,-112.5 594.129,-131.5 645.129,-131.5 645.129,-112.5 594.129,-112.5"/>
<text text-anchor="middle" x="619.629" y="-119.5" font-family="Helvetica,sans-Serif" font-size="10.00">option.h</text>
</a>
</g>
</g>
<!-- Node0&#45;&gt;Node17 -->
<g id="edge36" class="edge"><title>Node0&#45;&gt;Node17</title>
<path fill="none" stroke="midnightblue" d="M457.403,-293.507C530.38,-288.727 652.227,-268.332 709.629,-188 727.705,-162.703 687.265,-143.478 654.877,-132.717"/>
<polygon fill="midnightblue" stroke="midnightblue" points="655.748,-129.321 645.158,-129.652 653.642,-135.997 655.748,-129.321"/>
</g>
<!-- Node2&#45;&gt;Node1 -->
<g id="edge8" class="edge"><title>Node2&#45;&gt;Node1</title>
<path fill="none" stroke="midnightblue" d="M372.007,-230.379C291.546,-221.84 53.7702,-191.855 10.6289,-132 -4.80443,-110.587 25.0877,-91.5264 51.587,-79.6699"/>
<polygon fill="midnightblue" stroke="midnightblue" points="53.2639,-82.7606 61.1061,-75.6367 50.533,-76.3153 53.2639,-82.7606"/>
</g>
<!-- Node3 -->
<g id="node4" class="node"><title>Node3</title>
<polygon fill="white" stroke="#bfbfbf" points="187.629,-168.5 187.629,-187.5 243.629,-187.5 243.629,-168.5 187.629,-168.5"/>
<text text-anchor="middle" x="215.629" y="-175.5" font-family="Helvetica,sans-Serif" font-size="10.00">algorithm</text>
</g>
<!-- Node2&#45;&gt;Node3 -->
<g id="edge3" class="edge"><title>Node2&#45;&gt;Node3</title>
<path fill="none" stroke="midnightblue" d="M372.019,-225.148C340.892,-215.963 289.123,-200.687 253.738,-190.245"/>
<polygon fill="midnightblue" stroke="midnightblue" points="254.356,-186.778 243.774,-187.305 252.375,-193.492 254.356,-186.778"/>
</g>
<!-- Node4 -->
<g id="node5" class="node"><title>Node4</title>
<polygon fill="white" stroke="#bfbfbf" points="258.129,-112.5 258.129,-131.5 317.129,-131.5 317.129,-112.5 258.129,-112.5"/>
<text text-anchor="middle" x="287.629" y="-119.5" font-family="Helvetica,sans-Serif" font-size="10.00">functional</text>
</g>
<!-- Node2&#45;&gt;Node4 -->
<g id="edge4" class="edge"><title>Node2&#45;&gt;Node4</title>
<path fill="none" stroke="midnightblue" d="M389.919,-224.368C371.277,-205.894 327.279,-162.293 303.516,-138.744"/>
<polygon fill="midnightblue" stroke="midnightblue" points="305.865,-136.144 296.298,-131.591 300.938,-141.117 305.865,-136.144"/>
</g>
<!-- Node5 -->
<g id="node6" class="node"><title>Node5</title>
<polygon fill="white" stroke="#bfbfbf" points="556.129,-168.5 556.129,-187.5 603.129,-187.5 603.129,-168.5 556.129,-168.5"/>
<text text-anchor="middle" x="579.629" y="-175.5" font-family="Helvetica,sans-Serif" font-size="10.00">iterator</text>
</g>
<!-- Node2&#45;&gt;Node5 -->
<g id="edge5" class="edge"><title>Node2&#45;&gt;Node5</title>
<path fill="none" stroke="midnightblue" d="M425.336,-225.032C457.467,-215.446 511.426,-199.348 546.267,-188.953"/>
<polygon fill="midnightblue" stroke="midnightblue" points="547.405,-192.266 555.987,-186.053 545.403,-185.559 547.405,-192.266"/>
</g>
<!-- Node6 -->
<g id="node7" class="node"><title>Node6</title>
<polygon fill="white" stroke="#bfbfbf" points="203.629,-0.5 203.629,-19.5 255.629,-19.5 255.629,-0.5 203.629,-0.5"/>
<text text-anchor="middle" x="229.629" y="-7.5" font-family="Helvetica,sans-Serif" font-size="10.00">memory</text>
</g>
<!-- Node2&#45;&gt;Node6 -->
<g id="edge6" class="edge"><title>Node2&#45;&gt;Node6</title>
<path fill="none" stroke="midnightblue" d="M401.79,-224.428C411.455,-196.578 437.552,-107.481 396.629,-56 380.455,-35.6537 309.784,-22.2465 265.72,-15.6981"/>
<polygon fill="midnightblue" stroke="midnightblue" points="266.074,-12.213 255.678,-14.2553 265.078,-19.1418 266.074,-12.213"/>
</g>
<!-- Node7 -->
<g id="node8" class="node"><title>Node7</title>
<polygon fill="white" stroke="#bfbfbf" points="538.129,-56.5 538.129,-75.5 579.129,-75.5 579.129,-56.5 538.129,-56.5"/>
<text text-anchor="middle" x="558.629" y="-63.5" font-family="Helvetica,sans-Serif" font-size="10.00">string</text>
</g>
<!-- Node2&#45;&gt;Node7 -->
<g id="edge7" class="edge"><title>Node2&#45;&gt;Node7</title>
<path fill="none" stroke="midnightblue" d="M409.193,-224.362C429.468,-207.562 474.82,-168.888 508.629,-132 522.697,-116.65 537.01,-97.6243 546.696,-84.1327"/>
<polygon fill="midnightblue" stroke="midnightblue" points="549.681,-85.9736 552.603,-75.7896 543.968,-81.9287 549.681,-85.9736"/>
</g>
<!-- Node8 -->
<g id="node9" class="node"><title>Node8</title>
<polygon fill="white" stroke="#bfbfbf" points="774.629,-56.5 774.629,-75.5 818.629,-75.5 818.629,-56.5 774.629,-56.5"/>
<text text-anchor="middle" x="796.629" y="-63.5" font-family="Helvetica,sans-Serif" font-size="10.00">vector</text>
</g>
<!-- Node2&#45;&gt;Node8 -->
<g id="edge9" class="edge"><title>Node2&#45;&gt;Node8</title>
<path fill="none" stroke="midnightblue" d="M425.367,-232.914C480.378,-231.932 609.473,-225.449 709.629,-188 752.701,-171.895 774.605,-172.367 796.629,-132 804.314,-117.914 803.462,-99.4238 801.186,-85.7666"/>
<polygon fill="midnightblue" stroke="midnightblue" points="804.544,-84.7205 799.095,-75.6342 797.688,-86.1353 804.544,-84.7205"/>
</g>
<!-- Node9 -->
<g id="node10" class="node"><title>Node9</title>
<g id="a_node10"><a xlink:href="codec_8h.html" target="_top" xlink:title="codec.h">
<polygon fill="white" stroke="black" points="262.129,-168.5 262.129,-187.5 313.129,-187.5 313.129,-168.5 262.129,-168.5"/>
<text text-anchor="middle" x="287.629" y="-175.5" font-family="Helvetica,sans-Serif" font-size="10.00">codec.h</text>
</a>
</g>
</g>
<!-- Node2&#45;&gt;Node9 -->
<g id="edge10" class="edge"><title>Node2&#45;&gt;Node9</title>
<path fill="none" stroke="midnightblue" d="M380.795,-224.324C362.913,-215.625 335.154,-202.12 314.583,-192.113"/>
<polygon fill="midnightblue" stroke="midnightblue" points="315.942,-188.882 305.419,-187.655 312.88,-195.177 315.942,-188.882"/>
</g>
<!-- Node14 -->
<g id="node15" class="node"><title>Node14</title>
<g id="a_node15"><a xlink:href="packet_8h.html" target="_top" xlink:title="packet.h">
<polygon fill="white" stroke="black" points="335.629,-112.5 335.629,-131.5 389.629,-131.5 389.629,-112.5 335.629,-112.5"/>
<text text-anchor="middle" x="362.629" y="-119.5" font-family="Helvetica,sans-Serif" font-size="10.00">packet.h</text>
</a>
</g>
</g>
<!-- Node2&#45;&gt;Node14 -->
<g id="edge29" class="edge"><title>Node2&#45;&gt;Node14</title>
<path fill="none" stroke="midnightblue" d="M395.804,-224.368C389.968,-206.537 376.471,-165.295 368.609,-141.272"/>
<polygon fill="midnightblue" stroke="midnightblue" points="371.877,-140.007 365.441,-131.591 365.225,-142.184 371.877,-140.007"/>
</g>
<!-- Node19 -->
<g id="node20" class="node"><title>Node19</title>
<g id="a_node20"><a xlink:href="metadata_8h.html" target="_top" xlink:title="metadata.h">
<polygon fill="white" stroke="black" points="635.129,-168.5 635.129,-187.5 700.129,-187.5 700.129,-168.5 635.129,-168.5"/>
<text text-anchor="middle" x="667.629" y="-175.5" font-family="Helvetica,sans-Serif" font-size="10.00">metadata.h</text>
</a>
</g>
</g>
<!-- Node2&#45;&gt;Node19 -->
<g id="edge30" class="edge"><title>Node2&#45;&gt;Node19</title>
<path fill="none" stroke="midnightblue" d="M425.405,-227.625C472.069,-218.257 568.659,-198.868 624.744,-187.609"/>
<polygon fill="midnightblue" stroke="midnightblue" points="625.609,-191.005 634.724,-185.605 624.231,-184.142 625.609,-191.005"/>
</g>
<!-- Node9&#45;&gt;Node1 -->
<g id="edge15" class="edge"><title>Node9&#45;&gt;Node1</title>
<path fill="none" stroke="midnightblue" d="M262.024,-170.375C258.862,-169.569 255.672,-168.761 252.629,-168 186.957,-151.57 153.58,-178.76 104.629,-132 92.1516,-120.081 87.736,-100.465 86.2395,-85.894"/>
<polygon fill="midnightblue" stroke="midnightblue" points="89.7075,-85.2861 85.5669,-75.5339 82.7222,-85.7397 89.7075,-85.2861"/>
</g>
<!-- Node9&#45;&gt;Node4 -->
<g id="edge12" class="edge"><title>Node9&#45;&gt;Node4</title>
<path fill="none" stroke="midnightblue" d="M287.629,-168.083C287.629,-161.006 287.629,-150.861 287.629,-141.986"/>
<polygon fill="midnightblue" stroke="midnightblue" points="291.129,-141.751 287.629,-131.751 284.129,-141.751 291.129,-141.751"/>
</g>
<!-- Node9&#45;&gt;Node6 -->
<g id="edge14" class="edge"><title>Node9&#45;&gt;Node6</title>
<path fill="none" stroke="midnightblue" d="M277.536,-168.46C268.42,-160.137 255.424,-146.626 248.629,-132 233.005,-98.3708 229.85,-54.4116 229.427,-29.8"/>
<polygon fill="midnightblue" stroke="midnightblue" points="232.927,-29.6684 229.393,-19.6804 225.927,-29.6922 232.927,-29.6684"/>
</g>
<!-- Node10 -->
<g id="node11" class="node"><title>Node10</title>
<polygon fill="white" stroke="#bfbfbf" points="19.6289,-112.5 19.6289,-131.5 57.6289,-131.5 57.6289,-112.5 19.6289,-112.5"/>
<text text-anchor="middle" x="38.6289" y="-119.5" font-family="Helvetica,sans-Serif" font-size="10.00">array</text>
</g>
<!-- Node9&#45;&gt;Node10 -->
<g id="edge11" class="edge"><title>Node9&#45;&gt;Node10</title>
<path fill="none" stroke="midnightblue" d="M262.054,-170.25C258.887,-169.465 255.688,-168.697 252.629,-168 172.658,-149.78 151.465,-150.802 71.6289,-132 70.3609,-131.701 69.0678,-131.388 67.7633,-131.064"/>
<polygon fill="midnightblue" stroke="midnightblue" points="68.3251,-127.594 57.7659,-128.463 66.5622,-134.368 68.3251,-127.594"/>
</g>
<!-- Node11 -->
<g id="node12" class="node"><title>Node11</title>
<polygon fill="white" stroke="#bfbfbf" points="445.629,-112.5 445.629,-131.5 499.629,-131.5 499.629,-112.5 445.629,-112.5"/>
<text text-anchor="middle" x="472.629" y="-119.5" font-family="Helvetica,sans-Serif" font-size="10.00">iostream</text>
</g>
<!-- Node9&#45;&gt;Node11 -->
<g id="edge13" class="edge"><title>Node9&#45;&gt;Node11</title>
<path fill="none" stroke="midnightblue" d="M313.352,-169.492C345.206,-160.194 399.681,-144.293 435.92,-133.715"/>
<polygon fill="midnightblue" stroke="midnightblue" points="437.004,-137.045 445.623,-130.883 435.043,-130.325 437.004,-137.045"/>
</g>
<!-- Node12 -->
<g id="node13" class="node"><title>Node12</title>
<g id="a_node13"><a xlink:href="frame_8h.html" target="_top" xlink:title="frame.h">
<polygon fill="white" stroke="black" points="113.629,-112.5 113.629,-131.5 163.629,-131.5 163.629,-112.5 113.629,-112.5"/>
<text text-anchor="middle" x="138.629" y="-119.5" font-family="Helvetica,sans-Serif" font-size="10.00">frame.h</text>
</a>
</g>
</g>
<!-- Node9&#45;&gt;Node12 -->
<g id="edge16" class="edge"><title>Node9&#45;&gt;Node12</title>
<path fill="none" stroke="midnightblue" d="M264.019,-168.444C239.171,-159.438 199.854,-145.189 171.875,-135.049"/>
<polygon fill="midnightblue" stroke="midnightblue" points="172.722,-131.633 162.128,-131.516 170.337,-138.214 172.722,-131.633"/>
</g>
<!-- Node13 -->
<g id="node14" class="node"><title>Node13</title>
<g id="a_node14"><a xlink:href="utils_8h.html" target="_top" xlink:title="utils.h">
<polygon fill="white" stroke="black" points="158.129,-56.5 158.129,-75.5 201.129,-75.5 201.129,-56.5 158.129,-56.5"/>
<text text-anchor="middle" x="179.629" y="-63.5" font-family="Helvetica,sans-Serif" font-size="10.00">utils.h</text>
</a>
</g>
</g>
<!-- Node9&#45;&gt;Node13 -->
<g id="edge28" class="edge"><title>Node9&#45;&gt;Node13</title>
<path fill="none" stroke="midnightblue" d="M268.645,-168.495C252.949,-160.734 230.845,-148.042 215.629,-132 202.754,-118.426 192.912,-99.3702 186.8,-85.4003"/>
<polygon fill="midnightblue" stroke="midnightblue" points="189.92,-83.7869 182.864,-75.8838 183.452,-86.4624 189.92,-83.7869"/>
</g>
<!-- Node9&#45;&gt;Node14 -->
<g id="edge20" class="edge"><title>Node9&#45;&gt;Node14</title>
<path fill="none" stroke="midnightblue" d="M299.679,-168.324C311.092,-160.107 328.46,-147.602 342.064,-137.807"/>
<polygon fill="midnightblue" stroke="midnightblue" points="344.289,-140.517 350.36,-131.834 340.199,-134.837 344.289,-140.517"/>
</g>
<!-- Node9&#45;&gt;Node17 -->
<g id="edge24" class="edge"><title>Node9&#45;&gt;Node17</title>
<path fill="none" stroke="midnightblue" d="M313.129,-172.852C371.79,-163.311 516.432,-139.785 583.901,-128.811"/>
<polygon fill="midnightblue" stroke="midnightblue" points="584.733,-132.222 594.042,-127.162 583.61,-125.313 584.733,-132.222"/>
</g>
<!-- Node12&#45;&gt;Node1 -->
<g id="edge17" class="edge"><title>Node12&#45;&gt;Node1</title>
<path fill="none" stroke="midnightblue" d="M129.877,-112.083C122.159,-104.22 110.724,-92.5688 101.412,-83.0813"/>
<polygon fill="midnightblue" stroke="midnightblue" points="103.721,-80.4363 94.2179,-75.7511 98.7247,-85.3396 103.721,-80.4363"/>
</g>
<!-- Node12&#45;&gt;Node13 -->
<g id="edge18" class="edge"><title>Node12&#45;&gt;Node13</title>
<path fill="none" stroke="midnightblue" d="M145.399,-112.083C151.191,-104.455 159.687,-93.2645 166.766,-83.9408"/>
<polygon fill="midnightblue" stroke="midnightblue" points="169.725,-85.8321 172.985,-75.7511 164.15,-81.5991 169.725,-85.8321"/>
</g>
<!-- Node13&#45;&gt;Node6 -->
<g id="edge19" class="edge"><title>Node13&#45;&gt;Node6</title>
<path fill="none" stroke="midnightblue" d="M187.885,-56.083C195.094,-48.2982 205.739,-36.8015 214.475,-27.3665"/>
<polygon fill="midnightblue" stroke="midnightblue" points="217.3,-29.4666 221.526,-19.7511 212.164,-24.7108 217.3,-29.4666"/>
</g>
<!-- Node14&#45;&gt;Node1 -->
<g id="edge23" class="edge"><title>Node14&#45;&gt;Node1</title>
<path fill="none" stroke="midnightblue" d="M335.589,-114.247C332.241,-113.463 328.86,-112.695 325.629,-112 258.886,-97.6361 181.138,-83.5358 132.644,-75.052"/>
<polygon fill="midnightblue" stroke="midnightblue" points="133.207,-71.5974 122.755,-73.3288 132.005,-78.4935 133.207,-71.5974"/>
</g>
<!-- Node15 -->
<g id="node16" class="node"><title>Node15</title>
<polygon fill="white" stroke="#bfbfbf" points="339.129,-56.5 339.129,-75.5 388.129,-75.5 388.129,-56.5 339.129,-56.5"/>
<text text-anchor="middle" x="363.629" y="-63.5" font-family="Helvetica,sans-Serif" font-size="10.00">cstddef</text>
</g>
<!-- Node14&#45;&gt;Node15 -->
<g id="edge21" class="edge"><title>Node14&#45;&gt;Node15</title>
<path fill="none" stroke="midnightblue" d="M362.794,-112.083C362.925,-105.006 363.113,-94.8611 363.277,-85.9865"/>
<polygon fill="midnightblue" stroke="midnightblue" points="366.781,-85.8142 363.467,-75.7511 359.782,-85.6845 366.781,-85.8142"/>
</g>
<!-- Node16 -->
<g id="node17" class="node"><title>Node16</title>
<polygon fill="white" stroke="#bfbfbf" points="272.129,-56.5 272.129,-75.5 321.129,-75.5 321.129,-56.5 272.129,-56.5"/>
<text text-anchor="middle" x="296.629" y="-63.5" font-family="Helvetica,sans-Serif" font-size="10.00">stdint.h</text>
</g>
<!-- Node14&#45;&gt;Node16 -->
<g id="edge22" class="edge"><title>Node14&#45;&gt;Node16</title>
<path fill="none" stroke="midnightblue" d="M352.025,-112.324C342.173,-104.263 327.278,-92.0765 315.414,-82.3695"/>
<polygon fill="midnightblue" stroke="midnightblue" points="317.382,-79.4575 307.426,-75.8339 312.949,-84.8752 317.382,-79.4575"/>
</g>
<!-- Node17&#45;&gt;Node7 -->
<g id="edge25" class="edge"><title>Node17&#45;&gt;Node7</title>
<path fill="none" stroke="midnightblue" d="M609.828,-112.324C600.811,-104.341 587.223,-92.3128 576.311,-82.6529"/>
<polygon fill="midnightblue" stroke="midnightblue" points="578.416,-79.8416 568.608,-75.8339 573.776,-85.083 578.416,-79.8416"/>
</g>
<!-- Node17&#45;&gt;Node8 -->
<g id="edge26" class="edge"><title>Node17&#45;&gt;Node8</title>
<path fill="none" stroke="midnightblue" d="M645.366,-113.148C676.908,-103.525 730.363,-87.2168 764.551,-76.7866"/>
<polygon fill="midnightblue" stroke="midnightblue" points="765.953,-80.0181 774.496,-73.7523 763.91,-73.3228 765.953,-80.0181"/>
</g>
<!-- Node18 -->
<g id="node19" class="node"><title>Node18</title>
<polygon fill="white" stroke="#bfbfbf" points="597.129,-56.5 597.129,-75.5 656.129,-75.5 656.129,-56.5 597.129,-56.5"/>
<text text-anchor="middle" x="626.629" y="-63.5" font-family="Helvetica,sans-Serif" font-size="10.00">stdexcept</text>
</g>
<!-- Node17&#45;&gt;Node18 -->
<g id="edge27" class="edge"><title>Node17&#45;&gt;Node18</title>
<path fill="none" stroke="midnightblue" d="M620.785,-112.083C621.712,-104.927 623.047,-94.6353 624.206,-85.6911"/>
<polygon fill="midnightblue" stroke="midnightblue" points="627.68,-86.1181 625.495,-75.7511 620.738,-85.2181 627.68,-86.1181"/>
</g>
<!-- Node19&#45;&gt;Node7 -->
<g id="edge33" class="edge"><title>Node19&#45;&gt;Node7</title>
<path fill="none" stroke="midnightblue" d="M641.731,-168.368C623.612,-161.162 599.994,-149.265 584.629,-132 572.897,-118.818 566.11,-99.6812 562.432,-85.5837"/>
<polygon fill="midnightblue" stroke="midnightblue" points="565.779,-84.5215 560.114,-75.5683 558.959,-86.1 565.779,-84.5215"/>
</g>
<!-- Node19&#45;&gt;Node8 -->
<g id="edge35" class="edge"><title>Node19&#45;&gt;Node8</title>
<path fill="none" stroke="midnightblue" d="M700.187,-171.551C724.746,-165.79 757.532,-154.303 777.629,-132 789.056,-119.319 793.633,-100.115 795.454,-85.8654"/>
<polygon fill="midnightblue" stroke="midnightblue" points="798.956,-86.0013 796.402,-75.719 791.987,-85.35 798.956,-86.0013"/>
</g>
<!-- Node19&#45;&gt;Node11 -->
<g id="edge32" class="edge"><title>Node19&#45;&gt;Node11</title>
<path fill="none" stroke="midnightblue" d="M636.731,-168.444C602.275,-158.902 546.564,-143.474 509.766,-133.284"/>
<polygon fill="midnightblue" stroke="midnightblue" points="510.493,-129.854 499.922,-130.558 508.625,-136.6 510.493,-129.854"/>
</g>
<!-- Node20 -->
<g id="node21" class="node"><title>Node20</title>
<polygon fill="white" stroke="#bfbfbf" points="663.129,-112.5 663.129,-131.5 698.129,-131.5 698.129,-112.5 663.129,-112.5"/>
<text text-anchor="middle" x="680.629" y="-119.5" font-family="Helvetica,sans-Serif" font-size="10.00">map</text>
</g>
<!-- Node19&#45;&gt;Node20 -->
<g id="edge31" class="edge"><title>Node19&#45;&gt;Node20</title>
<path fill="none" stroke="midnightblue" d="M669.776,-168.083C671.498,-160.927 673.976,-150.635 676.129,-141.691"/>
<polygon fill="midnightblue" stroke="midnightblue" points="679.584,-142.293 678.522,-131.751 672.779,-140.654 679.584,-142.293"/>
</g>
<!-- Node21 -->
<g id="node22" class="node"><title>Node21</title>
<polygon fill="white" stroke="#bfbfbf" points="716.629,-112.5 716.629,-131.5 768.629,-131.5 768.629,-112.5 716.629,-112.5"/>
<text text-anchor="middle" x="742.629" y="-119.5" font-family="Helvetica,sans-Serif" font-size="10.00">sstream</text>
</g>
<!-- Node19&#45;&gt;Node21 -->
<g id="edge34" class="edge"><title>Node19&#45;&gt;Node21</title>
<path fill="none" stroke="midnightblue" d="M679.679,-168.324C691.092,-160.107 708.46,-147.602 722.064,-137.807"/>
<polygon fill="midnightblue" stroke="midnightblue" points="724.289,-140.517 730.36,-131.834 720.199,-134.837 724.289,-140.517"/>
</g>
</g>
</svg>
