<?xml version="1.0" encoding="UTF-8" standalone="no"?>
<!DOCTYPE svg PUBLIC "-//W3C//DTD SVG 1.1//EN"
 "http://www.w3.org/Graphics/SVG/1.1/DTD/svg11.dtd">
<!-- Generated by graphviz version 2.38.0 (20140413.2041)
 -->
<!-- Title: /home/etienne/Projects/avcpp/av/resample.h Pages: 1 -->
<svg width="876pt" height="319pt"
 viewBox="0.00 0.00 876.06 319.00" xmlns="http://www.w3.org/2000/svg" xmlns:xlink="http://www.w3.org/1999/xlink">
<g id="graph0" class="graph" transform="scale(1 1) rotate(0) translate(4 315)">
<title>/home/etienne/Projects/avcpp/av/resample.h</title>
<polygon fill="white" stroke="none" points="-4,4 -4,-315 872.057,-315 872.057,4 -4,4"/>
<!-- Node0 -->
<g id="node1" class="node"><title>Node0</title>
<polygon fill="#bfbfbf" stroke="black" points="609.557,-280.5 609.557,-310.5 726.557,-310.5 726.557,-280.5 609.557,-280.5"/>
<text text-anchor="start" x="617.557" y="-298.5" font-family="Helvetica,sans-Serif" font-size="10.00">/home/etienne/Projects</text>
<text text-anchor="middle" x="668.057" y="-287.5" font-family="Helvetica,sans-Serif" font-size="10.00">/avcpp/av/resample.h</text>
</g>
<!-- Node1 -->
<g id="node2" class="node"><title>Node1</title>
<polygon fill="white" stroke="#bfbfbf" points="279.057,-0.5 279.057,-19.5 353.057,-19.5 353.057,-0.5 279.057,-0.5"/>
<text text-anchor="middle" x="316.057" y="-7.5" font-family="Helvetica,sans-Serif" font-size="10.00">system_error</text>
</g>
<!-- Node0&#45;&gt;Node1 -->
<g id="edge1" class="edge"><title>Node0&#45;&gt;Node1</title>
<path fill="none" stroke="midnightblue" d="M726.713,-286.005C785.727,-273.753 868.057,-244.858 868.057,-179 868.057,-179 868.057,-179 868.057,-121 868.057,-85.6087 852.739,-73.6409 822.057,-56 744.749,-11.5501 473.827,-9.24561 363.422,-10.2387"/>
<polygon fill="midnightblue" stroke="midnightblue" points="363.214,-6.74057 353.251,-10.3438 363.287,-13.7402 363.214,-6.74057"/>
</g>
<!-- Node2 -->
<g id="node3" class="node"><title>Node2</title>
<g id="a_node3"><a xlink:href="format_8h.html" target="_top" xlink:title="format.h">
<polygon fill="white" stroke="black" points="369.557,-224.5 369.557,-243.5 422.557,-243.5 422.557,-224.5 369.557,-224.5"/>
<text text-anchor="middle" x="396.057" y="-231.5" font-family="Helvetica,sans-Serif" font-size="10.00">format.h</text>
</a>
</g>
</g>
<!-- Node0&#45;&gt;Node2 -->
<g id="edge2" class="edge"><title>Node0&#45;&gt;Node2</title>
<path fill="none" stroke="midnightblue" d="M609.372,-281.663C555.764,-269.936 478.156,-252.959 432.825,-243.043"/>
<polygon fill="midnightblue" stroke="midnightblue" points="433.363,-239.578 422.846,-240.86 431.867,-246.416 433.363,-239.578"/>
</g>
<!-- Node17 -->
<g id="node18" class="node"><title>Node17</title>
<g id="a_node18"><a xlink:href="option_8h.html" target="_top" xlink:title="option.h">
<polygon fill="white" stroke="black" points="642.557,-112.5 642.557,-131.5 693.557,-131.5 693.557,-112.5 642.557,-112.5"/>
<text text-anchor="middle" x="668.057" y="-119.5" font-family="Helvetica,sans-Serif" font-size="10.00">option.h</text>
</a>
</g>
</g>
<!-- Node0&#45;&gt;Node17 -->
<g id="edge37" class="edge"><title>Node0&#45;&gt;Node17</title>
<path fill="none" stroke="midnightblue" d="M668.057,-280.465C668.057,-249.704 668.057,-176.329 668.057,-141.7"/>
<polygon fill="midnightblue" stroke="midnightblue" points="671.557,-141.56 668.057,-131.56 664.557,-141.56 671.557,-141.56"/>
</g>
<!-- Node2&#45;&gt;Node1 -->
<g id="edge8" class="edge"><title>Node2&#45;&gt;Node1</title>
<path fill="none" stroke="midnightblue" d="M369.32,-229.268C322.804,-221.15 228.303,-197.073 190.057,-132 172.929,-102.857 167.483,-83.5599 187.057,-56 205.468,-30.0795 239.964,-18.9659 268.654,-14.2596"/>
<polygon fill="midnightblue" stroke="midnightblue" points="269.513,-17.6728 278.921,-12.8001 268.528,-10.7425 269.513,-17.6728"/>
</g>
<!-- Node3 -->
<g id="node4" class="node"><title>Node3</title>
<polygon fill="white" stroke="#bfbfbf" points="479.057,-168.5 479.057,-187.5 535.057,-187.5 535.057,-168.5 479.057,-168.5"/>
<text text-anchor="middle" x="507.057" y="-175.5" font-family="Helvetica,sans-Serif" font-size="10.00">algorithm</text>
</g>
<!-- Node2&#45;&gt;Node3 -->
<g id="edge3" class="edge"><title>Node2&#45;&gt;Node3</title>
<path fill="none" stroke="midnightblue" d="M413.891,-224.324C431.773,-215.625 459.532,-202.12 480.103,-192.113"/>
<polygon fill="midnightblue" stroke="midnightblue" points="481.806,-195.177 489.268,-187.655 478.744,-188.882 481.806,-195.177"/>
</g>
<!-- Node4 -->
<g id="node5" class="node"><title>Node4</title>
<polygon fill="white" stroke="#bfbfbf" points="15.5573,-112.5 15.5573,-131.5 74.5573,-131.5 74.5573,-112.5 15.5573,-112.5"/>
<text text-anchor="middle" x="45.0573" y="-119.5" font-family="Helvetica,sans-Serif" font-size="10.00">functional</text>
</g>
<!-- Node2&#45;&gt;Node4 -->
<g id="edge4" class="edge"><title>Node2&#45;&gt;Node4</title>
<path fill="none" stroke="midnightblue" d="M369.418,-233.474C296.878,-234.172 98.2992,-231.944 54.0573,-188 42.0771,-176.1 40.9525,-156.191 42.1292,-141.536"/>
<polygon fill="midnightblue" stroke="midnightblue" points="45.608,-141.921 43.3359,-131.573 38.6588,-141.079 45.608,-141.921"/>
</g>
<!-- Node5 -->
<g id="node6" class="node"><title>Node5</title>
<polygon fill="white" stroke="#bfbfbf" points="63.5573,-168.5 63.5573,-187.5 110.557,-187.5 110.557,-168.5 63.5573,-168.5"/>
<text text-anchor="middle" x="87.0573" y="-175.5" font-family="Helvetica,sans-Serif" font-size="10.00">iterator</text>
</g>
<!-- Node2&#45;&gt;Node5 -->
<g id="edge5" class="edge"><title>Node2&#45;&gt;Node5</title>
<path fill="none" stroke="midnightblue" d="M369.406,-229.189C320.701,-222.089 214.127,-205.921 125.057,-188 123.603,-187.707 122.121,-187.399 120.624,-187.08"/>
<polygon fill="midnightblue" stroke="midnightblue" points="121.242,-183.632 110.719,-184.867 119.715,-190.463 121.242,-183.632"/>
</g>
<!-- Node6 -->
<g id="node7" class="node"><title>Node6</title>
<polygon fill="white" stroke="#bfbfbf" points="115.057,-0.5 115.057,-19.5 167.057,-19.5 167.057,-0.5 115.057,-0.5"/>
<text text-anchor="middle" x="141.057" y="-7.5" font-family="Helvetica,sans-Serif" font-size="10.00">memory</text>
</g>
<!-- Node2&#45;&gt;Node6 -->
<g id="edge6" class="edge"><title>Node2&#45;&gt;Node6</title>
<path fill="none" stroke="midnightblue" d="M369.464,-232.578C296.424,-230.966 94.5432,-223.343 40.0573,-188 9.01286,-167.862 -10.5109,-145.087 6.05735,-112 27.7073,-68.7641 77.6297,-39.2715 110.322,-23.7885"/>
<polygon fill="midnightblue" stroke="midnightblue" points="111.816,-26.9539 119.456,-19.6133 108.906,-20.5875 111.816,-26.9539"/>
</g>
<!-- Node7 -->
<g id="node8" class="node"><title>Node7</title>
<polygon fill="white" stroke="#bfbfbf" points="771.557,-56.5 771.557,-75.5 812.557,-75.5 812.557,-56.5 771.557,-56.5"/>
<text text-anchor="middle" x="792.057" y="-63.5" font-family="Helvetica,sans-Serif" font-size="10.00">string</text>
</g>
<!-- Node2&#45;&gt;Node7 -->
<g id="edge7" class="edge"><title>Node2&#45;&gt;Node7</title>
<path fill="none" stroke="midnightblue" d="M422.789,-230.6C504.758,-222.61 749.642,-193.847 793.057,-132 802.369,-118.734 800.919,-99.8971 797.851,-85.9139"/>
<polygon fill="midnightblue" stroke="midnightblue" points="801.154,-84.715 795.218,-75.9394 794.386,-86.5016 801.154,-84.715"/>
</g>
<!-- Node8 -->
<g id="node9" class="node"><title>Node8</title>
<polygon fill="white" stroke="#bfbfbf" points="540.057,-56.5 540.057,-75.5 584.057,-75.5 584.057,-56.5 540.057,-56.5"/>
<text text-anchor="middle" x="562.057" y="-63.5" font-family="Helvetica,sans-Serif" font-size="10.00">vector</text>
</g>
<!-- Node2&#45;&gt;Node8 -->
<g id="edge9" class="edge"><title>Node2&#45;&gt;Node8</title>
<path fill="none" stroke="midnightblue" d="M399.378,-224.236C407.975,-202.573 432.908,-145.813 470.057,-112 487.413,-96.2027 511.329,-84.7327 530.426,-77.3273"/>
<polygon fill="midnightblue" stroke="midnightblue" points="531.745,-80.5714 539.914,-73.8238 529.32,-74.0048 531.745,-80.5714"/>
</g>
<!-- Node9 -->
<g id="node10" class="node"><title>Node9</title>
<g id="a_node10"><a xlink:href="codec_8h.html" target="_top" xlink:title="codec.h">
<polygon fill="white" stroke="black" points="288.557,-168.5 288.557,-187.5 339.557,-187.5 339.557,-168.5 288.557,-168.5"/>
<text text-anchor="middle" x="314.057" y="-175.5" font-family="Helvetica,sans-Serif" font-size="10.00">codec.h</text>
</a>
</g>
</g>
<!-- Node2&#45;&gt;Node9 -->
<g id="edge10" class="edge"><title>Node2&#45;&gt;Node9</title>
<path fill="none" stroke="midnightblue" d="M382.883,-224.324C370.211,-215.979 350.824,-203.212 335.852,-193.352"/>
<polygon fill="midnightblue" stroke="midnightblue" points="337.476,-190.231 327.199,-187.655 333.626,-196.078 337.476,-190.231"/>
</g>
<!-- Node14 -->
<g id="node15" class="node"><title>Node14</title>
<g id="a_node15"><a xlink:href="packet_8h.html" target="_top" xlink:title="packet.h">
<polygon fill="white" stroke="black" points="369.057,-112.5 369.057,-131.5 423.057,-131.5 423.057,-112.5 369.057,-112.5"/>
<text text-anchor="middle" x="396.057" y="-119.5" font-family="Helvetica,sans-Serif" font-size="10.00">packet.h</text>
</a>
</g>
</g>
<!-- Node2&#45;&gt;Node14 -->
<g id="edge30" class="edge"><title>Node2&#45;&gt;Node14</title>
<path fill="none" stroke="midnightblue" d="M396.057,-224.368C396.057,-206.617 396.057,-165.666 396.057,-141.597"/>
<polygon fill="midnightblue" stroke="midnightblue" points="399.557,-141.591 396.057,-131.591 392.557,-141.591 399.557,-141.591"/>
</g>
<!-- Node19 -->
<g id="node20" class="node"><title>Node19</title>
<g id="a_node20"><a xlink:href="metadata_8h.html" target="_top" xlink:title="metadata.h">
<polygon fill="white" stroke="black" points="564.557,-168.5 564.557,-187.5 629.557,-187.5 629.557,-168.5 564.557,-168.5"/>
<text text-anchor="middle" x="597.057" y="-175.5" font-family="Helvetica,sans-Serif" font-size="10.00">metadata.h</text>
</a>
</g>
</g>
<!-- Node2&#45;&gt;Node19 -->
<g id="edge31" class="edge"><title>Node2&#45;&gt;Node19</title>
<path fill="none" stroke="midnightblue" d="M422.749,-225.829C456.712,-216.705 515.741,-200.846 555.59,-190.141"/>
<polygon fill="midnightblue" stroke="midnightblue" points="556.531,-193.512 565.28,-187.537 554.715,-186.752 556.531,-193.512"/>
</g>
<!-- Node9&#45;&gt;Node1 -->
<g id="edge15" class="edge"><title>Node9&#45;&gt;Node1</title>
<path fill="none" stroke="midnightblue" d="M316.044,-168.433C318.024,-159.424 320.928,-144.805 322.057,-132 325.249,-95.8097 321.402,-53.369 318.562,-29.5894"/>
<polygon fill="midnightblue" stroke="midnightblue" points="322.015,-29.0034 317.284,-19.524 315.071,-29.8853 322.015,-29.0034"/>
</g>
<!-- Node9&#45;&gt;Node4 -->
<g id="edge12" class="edge"><title>Node9&#45;&gt;Node4</title>
<path fill="none" stroke="midnightblue" d="M288.264,-171.822C241.098,-162.354 140.661,-142.192 84.7359,-130.965"/>
<polygon fill="midnightblue" stroke="midnightblue" points="85.3277,-127.514 74.8344,-128.978 83.95,-134.377 85.3277,-127.514"/>
</g>
<!-- Node9&#45;&gt;Node6 -->
<g id="edge14" class="edge"><title>Node9&#45;&gt;Node6</title>
<path fill="none" stroke="midnightblue" d="M288.504,-173.926C260.911,-169.339 217.262,-158.226 190.057,-132 160.92,-103.911 148.59,-56.1327 143.797,-29.8014"/>
<polygon fill="midnightblue" stroke="midnightblue" points="147.205,-28.9565 142.134,-19.6541 140.297,-30.0885 147.205,-28.9565"/>
</g>
<!-- Node10 -->
<g id="node11" class="node"><title>Node10</title>
<polygon fill="white" stroke="#bfbfbf" points="207.057,-112.5 207.057,-131.5 245.057,-131.5 245.057,-112.5 207.057,-112.5"/>
<text text-anchor="middle" x="226.057" y="-119.5" font-family="Helvetica,sans-Serif" font-size="10.00">array</text>
</g>
<!-- Node9&#45;&gt;Node10 -->
<g id="edge11" class="edge"><title>Node9&#45;&gt;Node10</title>
<path fill="none" stroke="midnightblue" d="M299.919,-168.324C286.191,-159.9 265.121,-146.971 248.993,-137.074"/>
<polygon fill="midnightblue" stroke="midnightblue" points="250.515,-133.902 240.161,-131.655 246.854,-139.868 250.515,-133.902"/>
</g>
<!-- Node11 -->
<g id="node12" class="node"><title>Node11</title>
<polygon fill="white" stroke="#bfbfbf" points="479.057,-112.5 479.057,-131.5 533.057,-131.5 533.057,-112.5 479.057,-112.5"/>
<text text-anchor="middle" x="506.057" y="-119.5" font-family="Helvetica,sans-Serif" font-size="10.00">iostream</text>
</g>
<!-- Node9&#45;&gt;Node11 -->
<g id="edge13" class="edge"><title>Node9&#45;&gt;Node11</title>
<path fill="none" stroke="midnightblue" d="M339.951,-169.717C373.308,-160.336 431.494,-143.971 469.389,-133.313"/>
<polygon fill="midnightblue" stroke="midnightblue" points="470.351,-136.678 479.03,-130.601 468.456,-129.94 470.351,-136.678"/>
</g>
<!-- Node12 -->
<g id="node13" class="node"><title>Node12</title>
<g id="a_node13"><a xlink:href="frame_8h.html" target="_top" xlink:title="frame.h">
<polygon fill="white" stroke="black" points="263.057,-112.5 263.057,-131.5 313.057,-131.5 313.057,-112.5 263.057,-112.5"/>
<text text-anchor="middle" x="288.057" y="-119.5" font-family="Helvetica,sans-Serif" font-size="10.00">frame.h</text>
</a>
</g>
</g>
<!-- Node9&#45;&gt;Node12 -->
<g id="edge16" class="edge"><title>Node9&#45;&gt;Node12</title>
<path fill="none" stroke="midnightblue" d="M309.764,-168.083C306.205,-160.691 301.035,-149.953 296.633,-140.811"/>
<polygon fill="midnightblue" stroke="midnightblue" points="299.763,-139.243 292.271,-131.751 293.456,-142.279 299.763,-139.243"/>
</g>
<!-- Node13 -->
<g id="node14" class="node"><title>Node13</title>
<g id="a_node14"><a xlink:href="utils_8h.html" target="_top" xlink:title="utils.h">
<polygon fill="white" stroke="black" points="196.557,-56.5 196.557,-75.5 239.557,-75.5 239.557,-56.5 196.557,-56.5"/>
<text text-anchor="middle" x="218.057" y="-63.5" font-family="Helvetica,sans-Serif" font-size="10.00">utils.h</text>
</a>
</g>
</g>
<!-- Node9&#45;&gt;Node13 -->
<g id="edge29" class="edge"><title>Node9&#45;&gt;Node13</title>
<path fill="none" stroke="midnightblue" d="M288.138,-175.132C260.561,-171.602 218.193,-161.409 198.057,-132 188.194,-117.594 196.399,-98.1425 205.089,-84.2815"/>
<polygon fill="midnightblue" stroke="midnightblue" points="208.198,-85.9359 210.967,-75.7091 202.425,-81.9772 208.198,-85.9359"/>
</g>
<!-- Node9&#45;&gt;Node14 -->
<g id="edge21" class="edge"><title>Node9&#45;&gt;Node14</title>
<path fill="none" stroke="midnightblue" d="M327.232,-168.324C339.904,-159.979 359.291,-147.212 374.263,-137.352"/>
<polygon fill="midnightblue" stroke="midnightblue" points="376.489,-140.078 382.915,-131.655 372.639,-134.231 376.489,-140.078"/>
</g>
<!-- Node9&#45;&gt;Node17 -->
<g id="edge25" class="edge"><title>Node9&#45;&gt;Node17</title>
<path fill="none" stroke="midnightblue" d="M339.858,-174.349C392.794,-168.699 517.644,-154.296 632.503,-131.897"/>
<polygon fill="midnightblue" stroke="midnightblue" points="633.387,-135.29 642.519,-129.918 632.03,-128.423 633.387,-135.29"/>
</g>
<!-- Node12&#45;&gt;Node1 -->
<g id="edge17" class="edge"><title>Node12&#45;&gt;Node1</title>
<path fill="none" stroke="midnightblue" d="M290.254,-112.368C294.773,-94.617 305.197,-53.6664 311.323,-29.5974"/>
<polygon fill="midnightblue" stroke="midnightblue" points="314.795,-30.1458 313.87,-19.5914 308.012,-28.419 314.795,-30.1458"/>
</g>
<!-- Node12&#45;&gt;Node13 -->
<g id="edge18" class="edge"><title>Node12&#45;&gt;Node13</title>
<path fill="none" stroke="midnightblue" d="M276.811,-112.324C266.26,-104.185 250.257,-91.8395 237.615,-82.0874"/>
<polygon fill="midnightblue" stroke="midnightblue" points="239.564,-79.1707 229.509,-75.8339 235.289,-84.7132 239.564,-79.1707"/>
</g>
<!-- Node13&#45;&gt;Node1 -->
<g id="edge20" class="edge"><title>Node13&#45;&gt;Node1</title>
<path fill="none" stroke="midnightblue" d="M233.803,-56.324C249.376,-47.7428 273.435,-34.486 291.517,-24.5224"/>
<polygon fill="midnightblue" stroke="midnightblue" points="293.282,-27.546 300.351,-19.6545 289.903,-21.4152 293.282,-27.546"/>
</g>
<!-- Node13&#45;&gt;Node6 -->
<g id="edge19" class="edge"><title>Node13&#45;&gt;Node6</title>
<path fill="none" stroke="midnightblue" d="M205.686,-56.324C193.899,-48.0577 175.925,-35.4527 161.922,-25.6322"/>
<polygon fill="midnightblue" stroke="midnightblue" points="163.595,-22.5307 153.398,-19.6545 159.576,-28.2619 163.595,-22.5307"/>
</g>
<!-- Node14&#45;&gt;Node1 -->
<g id="edge24" class="edge"><title>Node14&#45;&gt;Node1</title>
<path fill="none" stroke="midnightblue" d="M390.765,-112.395C382.909,-99.7658 367.53,-75.5888 353.057,-56 345.92,-46.3398 337.443,-35.9589 330.405,-27.6046"/>
<polygon fill="midnightblue" stroke="midnightblue" points="332.858,-25.0873 323.708,-19.7472 327.531,-29.6282 332.858,-25.0873"/>
</g>
<!-- Node15 -->
<g id="node16" class="node"><title>Node15</title>
<polygon fill="white" stroke="#bfbfbf" points="405.557,-56.5 405.557,-75.5 454.557,-75.5 454.557,-56.5 405.557,-56.5"/>
<text text-anchor="middle" x="430.057" y="-63.5" font-family="Helvetica,sans-Serif" font-size="10.00">cstddef</text>
</g>
<!-- Node14&#45;&gt;Node15 -->
<g id="edge22" class="edge"><title>Node14&#45;&gt;Node15</title>
<path fill="none" stroke="midnightblue" d="M401.672,-112.083C406.425,-104.534 413.375,-93.4948 419.209,-84.2298"/>
<polygon fill="midnightblue" stroke="midnightblue" points="422.181,-86.0783 424.547,-75.7511 416.257,-82.3486 422.181,-86.0783"/>
</g>
<!-- Node16 -->
<g id="node17" class="node"><title>Node16</title>
<polygon fill="white" stroke="#bfbfbf" points="472.557,-56.5 472.557,-75.5 521.557,-75.5 521.557,-56.5 472.557,-56.5"/>
<text text-anchor="middle" x="497.057" y="-63.5" font-family="Helvetica,sans-Serif" font-size="10.00">stdint.h</text>
</g>
<!-- Node14&#45;&gt;Node16 -->
<g id="edge23" class="edge"><title>Node14&#45;&gt;Node16</title>
<path fill="none" stroke="midnightblue" d="M412.285,-112.324C428.408,-103.703 453.358,-90.3643 472.021,-80.3855"/>
<polygon fill="midnightblue" stroke="midnightblue" points="473.702,-83.456 480.87,-75.6545 470.401,-77.283 473.702,-83.456"/>
</g>
<!-- Node17&#45;&gt;Node7 -->
<g id="edge26" class="edge"><title>Node17&#45;&gt;Node7</title>
<path fill="none" stroke="midnightblue" d="M687.706,-112.444C708.022,-103.596 739.96,-89.6875 763.155,-79.5865"/>
<polygon fill="midnightblue" stroke="midnightblue" points="764.73,-82.7181 772.501,-75.5164 761.935,-76.3002 764.73,-82.7181"/>
</g>
<!-- Node17&#45;&gt;Node8 -->
<g id="edge27" class="edge"><title>Node17&#45;&gt;Node8</title>
<path fill="none" stroke="midnightblue" d="M651.027,-112.324C634.028,-103.664 607.681,-90.2424 588.065,-80.249"/>
<polygon fill="midnightblue" stroke="midnightblue" points="589.545,-77.0752 579.046,-75.6545 586.367,-83.3125 589.545,-77.0752"/>
</g>
<!-- Node18 -->
<g id="node19" class="node"><title>Node18</title>
<polygon fill="white" stroke="#bfbfbf" points="638.557,-56.5 638.557,-75.5 697.557,-75.5 697.557,-56.5 638.557,-56.5"/>
<text text-anchor="middle" x="668.057" y="-63.5" font-family="Helvetica,sans-Serif" font-size="10.00">stdexcept</text>
</g>
<!-- Node17&#45;&gt;Node18 -->
<g id="edge28" class="edge"><title>Node17&#45;&gt;Node18</title>
<path fill="none" stroke="midnightblue" d="M668.057,-112.083C668.057,-105.006 668.057,-94.8611 668.057,-85.9865"/>
<polygon fill="midnightblue" stroke="midnightblue" points="671.557,-85.751 668.057,-75.7511 664.557,-85.7511 671.557,-85.751"/>
</g>
<!-- Node19&#45;&gt;Node7 -->
<g id="edge34" class="edge"><title>Node19&#45;&gt;Node7</title>
<path fill="none" stroke="midnightblue" d="M629.901,-177.8C669.161,-176.923 734.392,-169.37 773.057,-132 785.465,-120.008 789.89,-100.402 791.409,-85.8542"/>
<polygon fill="midnightblue" stroke="midnightblue" points="794.925,-85.7243 792.099,-75.5132 787.94,-85.2576 794.925,-85.7243"/>
</g>
<!-- Node19&#45;&gt;Node8 -->
<g id="edge36" class="edge"><title>Node19&#45;&gt;Node8</title>
<path fill="none" stroke="midnightblue" d="M593.563,-168.456C589.95,-159.465 584.258,-144.861 580.057,-132 575.002,-116.521 570.127,-98.6788 566.729,-85.6081"/>
<polygon fill="midnightblue" stroke="midnightblue" points="570.117,-84.7296 564.25,-75.9077 563.335,-86.4629 570.117,-84.7296"/>
</g>
<!-- Node19&#45;&gt;Node11 -->
<g id="edge33" class="edge"><title>Node19&#45;&gt;Node11</title>
<path fill="none" stroke="midnightblue" d="M582.437,-168.324C568.108,-159.822 546.045,-146.729 529.309,-136.797"/>
<polygon fill="midnightblue" stroke="midnightblue" points="531.028,-133.748 520.642,-131.655 527.456,-139.768 531.028,-133.748"/>
</g>
<!-- Node20 -->
<g id="node21" class="node"><title>Node20</title>
<polygon fill="white" stroke="#bfbfbf" points="589.557,-112.5 589.557,-131.5 624.557,-131.5 624.557,-112.5 589.557,-112.5"/>
<text text-anchor="middle" x="607.057" y="-119.5" font-family="Helvetica,sans-Serif" font-size="10.00">map</text>
</g>
<!-- Node19&#45;&gt;Node20 -->
<g id="edge32" class="edge"><title>Node19&#45;&gt;Node20</title>
<path fill="none" stroke="midnightblue" d="M598.709,-168.083C600.034,-160.927 601.94,-150.635 603.596,-141.691"/>
<polygon fill="midnightblue" stroke="midnightblue" points="607.057,-142.221 605.437,-131.751 600.174,-140.947 607.057,-142.221"/>
</g>
<!-- Node21 -->
<g id="node22" class="node"><title>Node21</title>
<polygon fill="white" stroke="#bfbfbf" points="712.057,-112.5 712.057,-131.5 764.057,-131.5 764.057,-112.5 712.057,-112.5"/>
<text text-anchor="middle" x="738.057" y="-119.5" font-family="Helvetica,sans-Serif" font-size="10.00">sstream</text>
</g>
<!-- Node19&#45;&gt;Node21 -->
<g id="edge35" class="edge"><title>Node19&#45;&gt;Node21</title>
<path fill="none" stroke="midnightblue" d="M619.399,-168.444C642.81,-159.478 679.793,-145.314 706.247,-135.183"/>
<polygon fill="midnightblue" stroke="midnightblue" points="707.733,-138.361 715.82,-131.516 705.23,-131.824 707.733,-138.361"/>
</g>
</g>
</svg>
