<?xml version="1.0" encoding="UTF-8" standalone="no"?>
<!DOCTYPE svg PUBLIC "-//W3C//DTD SVG 1.1//EN"
 "http://www.w3.org/Graphics/SVG/1.1/DTD/svg11.dtd">
<!-- Generated by graphviz version 2.40.1 (20161225.0304)
 -->
<!-- Title: /home/etienne/Projects/avcpp/av/resample.h Pages: 1 -->
<svg width="915pt" height="319pt"
 viewBox="0.00 0.00 915.01 319.00" xmlns="http://www.w3.org/2000/svg" xmlns:xlink="http://www.w3.org/1999/xlink">
<g id="graph0" class="graph" transform="scale(1 1) rotate(0) translate(4 315)">
<title>/home/etienne/Projects/avcpp/av/resample.h</title>
<polygon fill="#ffffff" stroke="transparent" points="-4,4 -4,-315 911.0052,-315 911.0052,4 -4,4"/>
<!-- Node0 -->
<g id="node1" class="node">
<title>Node0</title>
<polygon fill="#bfbfbf" stroke="#000000" points="636.5052,-280.5 636.5052,-310.5 765.5052,-310.5 765.5052,-280.5 636.5052,-280.5"/>
<text text-anchor="start" x="644.5052" y="-298.5" font-family="Helvetica,sans-Serif" font-size="10.00" fill="#000000">/home/etienne/Projects</text>
<text text-anchor="middle" x="701.0052" y="-287.5" font-family="Helvetica,sans-Serif" font-size="10.00" fill="#000000">/avcpp/av/resample.h</text>
</g>
<!-- Node1 -->
<g id="node2" class="node">
<title>Node1</title>
<polygon fill="#ffffff" stroke="#bfbfbf" points="292.5052,-.5 292.5052,-19.5 373.5052,-19.5 373.5052,-.5 292.5052,-.5"/>
<text text-anchor="middle" x="333.0052" y="-7.5" font-family="Helvetica,sans-Serif" font-size="10.00" fill="#000000">system_error</text>
</g>
<!-- Node0&#45;&gt;Node1 -->
<g id="edge1" class="edge">
<title>Node0&#45;&gt;Node1</title>
<path fill="none" stroke="#191970" d="M765.6197,-286.2334C826.0328,-273.4892 907.0052,-244.0821 907.0052,-178 907.0052,-178 907.0052,-178 907.0052,-122 907.0052,-86.4973 892.6452,-73.9343 862.0052,-56 821.33,-32.1918 508.068,-17.067 383.6775,-11.9452"/>
<polygon fill="#191970" stroke="#191970" points="383.7789,-8.4466 373.6448,-11.537 383.4942,-15.4408 383.7789,-8.4466"/>
</g>
<!-- Node2 -->
<g id="node3" class="node">
<title>Node2</title>
<g id="a_node3"><a xlink:href="format_8h.html" target="_top" xlink:title="format.h">
<polygon fill="#ffffff" stroke="#000000" points="385.5052,-224.5 385.5052,-243.5 444.5052,-243.5 444.5052,-224.5 385.5052,-224.5"/>
<text text-anchor="middle" x="415.0052" y="-231.5" font-family="Helvetica,sans-Serif" font-size="10.00" fill="#000000">format.h</text>
</a>
</g>
</g>
<!-- Node0&#45;&gt;Node2 -->
<g id="edge2" class="edge">
<title>Node0&#45;&gt;Node2</title>
<path fill="none" stroke="#191970" d="M636.4647,-281.6215C580.5946,-269.6075 501.5818,-252.617 454.5927,-242.5127"/>
<polygon fill="#191970" stroke="#191970" points="455.3006,-239.085 444.7882,-240.4044 453.8289,-245.9285 455.3006,-239.085"/>
</g>
<!-- Node17 -->
<g id="node18" class="node">
<title>Node17</title>
<g id="a_node18"><a xlink:href="option_8h.html" target="_top" xlink:title="option.h">
<polygon fill="#ffffff" stroke="#000000" points="673.0052,-112.5 673.0052,-131.5 729.0052,-131.5 729.0052,-112.5 673.0052,-112.5"/>
<text text-anchor="middle" x="701.0052" y="-119.5" font-family="Helvetica,sans-Serif" font-size="10.00" fill="#000000">option.h</text>
</a>
</g>
</g>
<!-- Node0&#45;&gt;Node17 -->
<g id="edge37" class="edge">
<title>Node0&#45;&gt;Node17</title>
<path fill="none" stroke="#191970" d="M701.0052,-280.4065C701.0052,-249.1485 701.0052,-177.3214 701.0052,-142.1492"/>
<polygon fill="#191970" stroke="#191970" points="704.5053,-141.738 701.0052,-131.738 697.5053,-141.738 704.5053,-141.738"/>
</g>
<!-- Node2&#45;&gt;Node1 -->
<g id="edge8" class="edge">
<title>Node2&#45;&gt;Node1</title>
<path fill="none" stroke="#191970" d="M385.2038,-230.6873C335.0588,-223.2869 235.4319,-200.2872 196.0052,-132 187.8897,-117.9438 183.1904,-77.9108 200.0052,-56 210.4187,-42.4307 249.2266,-29.9441 282.2541,-21.4149"/>
<polygon fill="#191970" stroke="#191970" points="283.4336,-24.7275 292.2805,-18.8982 281.7293,-17.9381 283.4336,-24.7275"/>
</g>
<!-- Node3 -->
<g id="node4" class="node">
<title>Node3</title>
<polygon fill="#ffffff" stroke="#bfbfbf" points="501.0052,-168.5 501.0052,-187.5 565.0052,-187.5 565.0052,-168.5 501.0052,-168.5"/>
<text text-anchor="middle" x="533.0052" y="-175.5" font-family="Helvetica,sans-Serif" font-size="10.00" fill="#000000">algorithm</text>
</g>
<!-- Node2&#45;&gt;Node3 -->
<g id="edge3" class="edge">
<title>Node2&#45;&gt;Node3</title>
<path fill="none" stroke="#191970" d="M435.2902,-224.3733C454.1473,-215.4241 482.4512,-201.9917 503.7507,-191.8835"/>
<polygon fill="#191970" stroke="#191970" points="505.4514,-194.9506 512.985,-187.5011 502.4501,-188.6266 505.4514,-194.9506"/>
</g>
<!-- Node4 -->
<g id="node5" class="node">
<title>Node4</title>
<polygon fill="#ffffff" stroke="#bfbfbf" points="15.5052,-112.5 15.5052,-131.5 80.5052,-131.5 80.5052,-112.5 15.5052,-112.5"/>
<text text-anchor="middle" x="48.0052" y="-119.5" font-family="Helvetica,sans-Serif" font-size="10.00" fill="#000000">functional</text>
</g>
<!-- Node2&#45;&gt;Node4 -->
<g id="edge4" class="edge">
<title>Node2&#45;&gt;Node4</title>
<path fill="none" stroke="#191970" d="M385.4859,-232.2734C303.781,-227.2134 79.1416,-211.2946 56.0052,-188 44.2088,-176.1229 43.2108,-156.5202 44.5621,-141.7575"/>
<polygon fill="#191970" stroke="#191970" points="48.0613,-141.9947 45.9134,-131.6199 41.1227,-141.0698 48.0613,-141.9947"/>
</g>
<!-- Node5 -->
<g id="node6" class="node">
<title>Node5</title>
<polygon fill="#ffffff" stroke="#bfbfbf" points="65.5052,-168.5 65.5052,-187.5 118.5052,-187.5 118.5052,-168.5 65.5052,-168.5"/>
<text text-anchor="middle" x="92.0052" y="-175.5" font-family="Helvetica,sans-Serif" font-size="10.00" fill="#000000">iterator</text>
</g>
<!-- Node2&#45;&gt;Node5 -->
<g id="edge5" class="edge">
<title>Node2&#45;&gt;Node5</title>
<path fill="none" stroke="#191970" d="M385.2292,-229.9181C333.641,-222.6734 224.3958,-206.5699 133.0052,-188 131.5692,-187.7082 130.1074,-187.401 128.6324,-187.0825"/>
<polygon fill="#191970" stroke="#191970" points="129.3712,-183.6612 118.8446,-184.8619 127.8223,-190.4877 129.3712,-183.6612"/>
</g>
<!-- Node6 -->
<g id="node7" class="node">
<title>Node6</title>
<polygon fill="#ffffff" stroke="#bfbfbf" points="118.0052,-.5 118.0052,-19.5 176.0052,-19.5 176.0052,-.5 118.0052,-.5"/>
<text text-anchor="middle" x="147.0052" y="-7.5" font-family="Helvetica,sans-Serif" font-size="10.00" fill="#000000">memory</text>
</g>
<!-- Node2&#45;&gt;Node6 -->
<g id="edge6" class="edge">
<title>Node2&#45;&gt;Node6</title>
<path fill="none" stroke="#191970" d="M385.3466,-233.4833C307.6395,-231.6421 100.1801,-223.4471 43.0052,-188 11.0757,-168.2045 -11.0847,-145.4558 6.0052,-112 28.2416,-68.4695 78.6884,-39.2208 112.807,-23.5885"/>
<polygon fill="#191970" stroke="#191970" points="114.2306,-26.786 121.9601,-19.5399 111.399,-20.3842 114.2306,-26.786"/>
</g>
<!-- Node7 -->
<g id="node8" class="node">
<title>Node7</title>
<polygon fill="#ffffff" stroke="#bfbfbf" points="809.0052,-56.5 809.0052,-75.5 853.0052,-75.5 853.0052,-56.5 809.0052,-56.5"/>
<text text-anchor="middle" x="831.0052" y="-63.5" font-family="Helvetica,sans-Serif" font-size="10.00" fill="#000000">string</text>
</g>
<!-- Node2&#45;&gt;Node7 -->
<g id="edge7" class="edge">
<title>Node2&#45;&gt;Node7</title>
<path fill="none" stroke="#191970" d="M444.5471,-231.624C531.9084,-223.8995 785.7469,-196.1942 831.0052,-132 840.4756,-118.5672 839.3334,-99.4673 836.4981,-85.268"/>
<polygon fill="#191970" stroke="#191970" points="839.8984,-84.4381 834.1475,-75.5399 833.0942,-86.0822 839.8984,-84.4381"/>
</g>
<!-- Node8 -->
<g id="node9" class="node">
<title>Node8</title>
<polygon fill="#ffffff" stroke="#bfbfbf" points="565.5052,-56.5 565.5052,-75.5 612.5052,-75.5 612.5052,-56.5 565.5052,-56.5"/>
<text text-anchor="middle" x="589.0052" y="-63.5" font-family="Helvetica,sans-Serif" font-size="10.00" fill="#000000">vector</text>
</g>
<!-- Node2&#45;&gt;Node8 -->
<g id="edge9" class="edge">
<title>Node2&#45;&gt;Node8</title>
<path fill="none" stroke="#191970" d="M418.7845,-224.485C428.0917,-202.1185 454.1461,-145.5619 492.0052,-112 502.118,-103.0351 531.9009,-89.4656 555.8231,-79.3852"/>
<polygon fill="#191970" stroke="#191970" points="557.4218,-82.511 565.3105,-75.4385 554.7332,-76.0479 557.4218,-82.511"/>
</g>
<!-- Node9 -->
<g id="node10" class="node">
<title>Node9</title>
<g id="a_node10"><a xlink:href="codec_8h.html" target="_top" xlink:title="codec.h">
<polygon fill="#ffffff" stroke="#000000" points="302.0052,-168.5 302.0052,-187.5 356.0052,-187.5 356.0052,-168.5 302.0052,-168.5"/>
<text text-anchor="middle" x="329.0052" y="-175.5" font-family="Helvetica,sans-Serif" font-size="10.00" fill="#000000">codec.h</text>
</a>
</g>
</g>
<!-- Node2&#45;&gt;Node9 -->
<g id="edge10" class="edge">
<title>Node2&#45;&gt;Node9</title>
<path fill="none" stroke="#191970" d="M400.0252,-224.2455C386.8301,-215.6534 367.4002,-203.0014 352.1973,-193.1018"/>
<polygon fill="#191970" stroke="#191970" points="354.1035,-190.1665 343.8136,-187.6427 350.2838,-196.0325 354.1035,-190.1665"/>
</g>
<!-- Node14 -->
<g id="node15" class="node">
<title>Node14</title>
<g id="a_node15"><a xlink:href="packet_8h.html" target="_top" xlink:title="packet.h">
<polygon fill="#ffffff" stroke="#000000" points="385.5052,-112.5 385.5052,-131.5 444.5052,-131.5 444.5052,-112.5 385.5052,-112.5"/>
<text text-anchor="middle" x="415.0052" y="-119.5" font-family="Helvetica,sans-Serif" font-size="10.00" fill="#000000">packet.h</text>
</a>
</g>
</g>
<!-- Node2&#45;&gt;Node14 -->
<g id="edge30" class="edge">
<title>Node2&#45;&gt;Node14</title>
<path fill="none" stroke="#191970" d="M415.0052,-224.4509C415.0052,-206.184 415.0052,-165.9553 415.0052,-141.6976"/>
<polygon fill="#191970" stroke="#191970" points="418.5053,-141.5249 415.0052,-131.5249 411.5053,-141.5249 418.5053,-141.5249"/>
</g>
<!-- Node19 -->
<g id="node20" class="node">
<title>Node19</title>
<g id="a_node20"><a xlink:href="metadata_8h.html" target="_top" xlink:title="metadata.h">
<polygon fill="#ffffff" stroke="#000000" points="591.5052,-168.5 591.5052,-187.5 664.5052,-187.5 664.5052,-168.5 591.5052,-168.5"/>
<text text-anchor="middle" x="628.0052" y="-175.5" font-family="Helvetica,sans-Serif" font-size="10.00" fill="#000000">metadata.h</text>
</a>
</g>
</g>
<!-- Node2&#45;&gt;Node19 -->
<g id="edge31" class="edge">
<title>Node2&#45;&gt;Node19</title>
<path fill="none" stroke="#191970" d="M444.622,-226.2134C480.1044,-216.8847 539.9668,-201.1463 581.6061,-190.1988"/>
<polygon fill="#191970" stroke="#191970" points="582.729,-193.5226 591.5103,-187.5949 580.949,-186.7527 582.729,-193.5226"/>
</g>
<!-- Node9&#45;&gt;Node1 -->
<g id="edge15" class="edge">
<title>Node9&#45;&gt;Node1</title>
<path fill="none" stroke="#191970" d="M331.4917,-168.2105C333.7066,-158.9529 336.7808,-144.6354 338.0052,-132 341.5002,-95.9347 338.099,-53.6411 335.4525,-29.5149"/>
<polygon fill="#191970" stroke="#191970" points="338.9211,-29.0414 334.2823,-19.5161 331.9685,-29.8551 338.9211,-29.0414"/>
</g>
<!-- Node9&#45;&gt;Node4 -->
<g id="edge12" class="edge">
<title>Node9&#45;&gt;Node4</title>
<path fill="none" stroke="#191970" d="M301.8065,-172.5796C252.8216,-162.8175 149.4296,-142.2127 90.8505,-130.5386"/>
<polygon fill="#191970" stroke="#191970" points="91.2963,-127.0587 80.8051,-128.5366 89.9282,-133.9237 91.2963,-127.0587"/>
</g>
<!-- Node9&#45;&gt;Node6 -->
<g id="edge14" class="edge">
<title>Node9&#45;&gt;Node6</title>
<path fill="none" stroke="#191970" d="M301.8716,-175.2726C272.2956,-170.9403 225.2884,-159.8842 196.0052,-132 166.7889,-104.1794 154.5582,-56.6186 149.7857,-29.8379"/>
<polygon fill="#191970" stroke="#191970" points="153.2075,-29.071 148.1691,-19.7508 146.2957,-30.1787 153.2075,-29.071"/>
</g>
<!-- Node10 -->
<g id="node11" class="node">
<title>Node10</title>
<polygon fill="#ffffff" stroke="#bfbfbf" points="213.0052,-112.5 213.0052,-131.5 255.0052,-131.5 255.0052,-112.5 213.0052,-112.5"/>
<text text-anchor="middle" x="234.0052" y="-119.5" font-family="Helvetica,sans-Serif" font-size="10.00" fill="#000000">array</text>
</g>
<!-- Node9&#45;&gt;Node10 -->
<g id="edge11" class="edge">
<title>Node9&#45;&gt;Node10</title>
<path fill="none" stroke="#191970" d="M312.4575,-168.2455C297.7454,-159.5731 276.0165,-146.7645 259.1548,-136.825"/>
<polygon fill="#191970" stroke="#191970" points="260.7554,-133.7057 250.3634,-131.6427 257.2007,-139.736 260.7554,-133.7057"/>
</g>
<!-- Node11 -->
<g id="node12" class="node">
<title>Node11</title>
<polygon fill="#ffffff" stroke="#bfbfbf" points="501.0052,-112.5 501.0052,-131.5 561.0052,-131.5 561.0052,-112.5 501.0052,-112.5"/>
<text text-anchor="middle" x="531.0052" y="-119.5" font-family="Helvetica,sans-Serif" font-size="10.00" fill="#000000">iostream</text>
</g>
<!-- Node9&#45;&gt;Node11 -->
<g id="edge13" class="edge">
<title>Node9&#45;&gt;Node11</title>
<path fill="none" stroke="#191970" d="M356.2479,-170.4476C390.9948,-160.8148 451.3501,-144.0826 491.2384,-133.0245"/>
<polygon fill="#191970" stroke="#191970" points="492.2089,-136.3875 500.9104,-130.3431 490.3388,-129.6419 492.2089,-136.3875"/>
</g>
<!-- Node12 -->
<g id="node13" class="node">
<title>Node12</title>
<g id="a_node13"><a xlink:href="frame_8h.html" target="_top" xlink:title="frame.h">
<polygon fill="#ffffff" stroke="#000000" points="273.5052,-112.5 273.5052,-131.5 328.5052,-131.5 328.5052,-112.5 273.5052,-112.5"/>
<text text-anchor="middle" x="301.0052" y="-119.5" font-family="Helvetica,sans-Serif" font-size="10.00" fill="#000000">frame.h</text>
</a>
</g>
</g>
<!-- Node9&#45;&gt;Node12 -->
<g id="edge16" class="edge">
<title>Node9&#45;&gt;Node12</title>
<path fill="none" stroke="#191970" d="M324.128,-168.2455C320.3539,-160.6973 315.0131,-150.0158 310.4151,-140.8197"/>
<polygon fill="#191970" stroke="#191970" points="313.4293,-139.0217 305.8266,-131.6427 307.1683,-142.1522 313.4293,-139.0217"/>
</g>
<!-- Node13 -->
<g id="node14" class="node">
<title>Node13</title>
<g id="a_node14"><a xlink:href="utils_8h.html" target="_top" xlink:title="utils.h">
<polygon fill="#ffffff" stroke="#000000" points="209.5052,-56.5 209.5052,-75.5 256.5052,-75.5 256.5052,-56.5 209.5052,-56.5"/>
<text text-anchor="middle" x="233.0052" y="-63.5" font-family="Helvetica,sans-Serif" font-size="10.00" fill="#000000">utils.h</text>
</a>
</g>
</g>
<!-- Node9&#45;&gt;Node13 -->
<g id="edge29" class="edge">
<title>Node9&#45;&gt;Node13</title>
<path fill="none" stroke="#191970" d="M302.0026,-171.8733C268.8179,-163.7332 215.4821,-148.4528 204.0052,-132 193.4503,-116.8688 204.6655,-97.2804 216.0797,-83.3846"/>
<polygon fill="#191970" stroke="#191970" points="219.0033,-85.3629 223.0195,-75.5588 213.7659,-80.7185 219.0033,-85.3629"/>
</g>
<!-- Node9&#45;&gt;Node14 -->
<g id="edge21" class="edge">
<title>Node9&#45;&gt;Node14</title>
<path fill="none" stroke="#191970" d="M343.9853,-168.2455C357.1803,-159.6534 376.6103,-147.0014 391.8132,-137.1018"/>
<polygon fill="#191970" stroke="#191970" points="393.7267,-140.0325 400.1969,-131.6427 389.907,-134.1665 393.7267,-140.0325"/>
</g>
<!-- Node9&#45;&gt;Node17 -->
<g id="edge25" class="edge">
<title>Node9&#45;&gt;Node17</title>
<path fill="none" stroke="#191970" d="M356.1245,-175.4612C411.8174,-169.9955 543.2178,-155.8048 662.76,-132.044"/>
<polygon fill="#191970" stroke="#191970" points="663.7009,-135.4248 672.8118,-130.0174 662.3173,-128.5629 663.7009,-135.4248"/>
</g>
<!-- Node12&#45;&gt;Node1 -->
<g id="edge17" class="edge">
<title>Node12&#45;&gt;Node1</title>
<path fill="none" stroke="#191970" d="M303.7335,-112.4509C308.9763,-94.1013 320.5507,-53.5908 327.4712,-29.3693"/>
<polygon fill="#191970" stroke="#191970" points="330.9019,-30.1017 330.2838,-19.5249 324.1712,-28.1786 330.9019,-30.1017"/>
</g>
<!-- Node12&#45;&gt;Node13 -->
<g id="edge18" class="edge">
<title>Node12&#45;&gt;Node13</title>
<path fill="none" stroke="#191970" d="M289.1606,-112.2455C279.1173,-103.9746 264.5058,-91.9416 252.7049,-82.2232"/>
<polygon fill="#191970" stroke="#191970" points="254.6585,-79.298 244.7142,-75.6427 250.2085,-84.7015 254.6585,-79.298"/>
</g>
<!-- Node13&#45;&gt;Node1 -->
<g id="edge20" class="edge">
<title>Node13&#45;&gt;Node1</title>
<path fill="none" stroke="#191970" d="M250.4239,-56.2455C266.0538,-47.4928 289.2071,-34.527 307.0238,-24.5496"/>
<polygon fill="#191970" stroke="#191970" points="308.7712,-27.5825 315.7862,-19.6427 305.351,-21.475 308.7712,-27.5825"/>
</g>
<!-- Node13&#45;&gt;Node6 -->
<g id="edge19" class="edge">
<title>Node13&#45;&gt;Node6</title>
<path fill="none" stroke="#191970" d="M218.0252,-56.2455C204.8301,-47.6534 185.4002,-35.0014 170.1973,-25.1018"/>
<polygon fill="#191970" stroke="#191970" points="172.1035,-22.1665 161.8136,-19.6427 168.2838,-28.0325 172.1035,-22.1665"/>
</g>
<!-- Node14&#45;&gt;Node1 -->
<g id="edge24" class="edge">
<title>Node14&#45;&gt;Node1</title>
<path fill="none" stroke="#191970" d="M409.0363,-112.3912C400.8392,-99.3527 385.4646,-75.4519 371.0052,-56 363.775,-46.2733 355.2163,-35.8291 348.0537,-27.3548"/>
<polygon fill="#191970" stroke="#191970" points="350.6151,-24.9647 341.4573,-19.6368 345.2938,-29.5127 350.6151,-24.9647"/>
</g>
<!-- Node15 -->
<g id="node16" class="node">
<title>Node15</title>
<polygon fill="#ffffff" stroke="#bfbfbf" points="423.5052,-56.5 423.5052,-75.5 476.5052,-75.5 476.5052,-56.5 423.5052,-56.5"/>
<text text-anchor="middle" x="450.0052" y="-63.5" font-family="Helvetica,sans-Serif" font-size="10.00" fill="#000000">cstddef</text>
</g>
<!-- Node14&#45;&gt;Node15 -->
<g id="edge22" class="edge">
<title>Node14&#45;&gt;Node15</title>
<path fill="none" stroke="#191970" d="M421.1018,-112.2455C425.9198,-104.5367 432.7804,-93.5598 438.6085,-84.2348"/>
<polygon fill="#191970" stroke="#191970" points="441.6465,-85.9777 443.9786,-75.6427 435.7105,-82.2677 441.6465,-85.9777"/>
</g>
<!-- Node16 -->
<g id="node17" class="node">
<title>Node16</title>
<polygon fill="#ffffff" stroke="#bfbfbf" points="494.5052,-56.5 494.5052,-75.5 547.5052,-75.5 547.5052,-56.5 494.5052,-56.5"/>
<text text-anchor="middle" x="521.0052" y="-63.5" font-family="Helvetica,sans-Serif" font-size="10.00" fill="#000000">stdint.h</text>
</g>
<!-- Node14&#45;&gt;Node16 -->
<g id="edge23" class="edge">
<title>Node14&#45;&gt;Node16</title>
<path fill="none" stroke="#191970" d="M433.469,-112.2455C450.1127,-103.4527 474.8045,-90.4079 493.7244,-80.4125"/>
<polygon fill="#191970" stroke="#191970" points="495.546,-83.4086 502.753,-75.6427 492.2762,-77.2193 495.546,-83.4086"/>
</g>
<!-- Node17&#45;&gt;Node7 -->
<g id="edge26" class="edge">
<title>Node17&#45;&gt;Node7</title>
<path fill="none" stroke="#191970" d="M723.353,-112.3733C744.4086,-103.3032 776.1548,-89.6279 799.7227,-79.4755"/>
<polygon fill="#191970" stroke="#191970" points="801.1496,-82.6719 808.9491,-75.5011 798.3802,-76.243 801.1496,-82.6719"/>
</g>
<!-- Node17&#45;&gt;Node8 -->
<g id="edge27" class="edge">
<title>Node17&#45;&gt;Node8</title>
<path fill="none" stroke="#191970" d="M681.7518,-112.3733C663.9341,-103.4644 637.2306,-90.1127 617.0458,-80.0203"/>
<polygon fill="#191970" stroke="#191970" points="618.517,-76.8428 608.0075,-75.5011 615.3865,-83.1038 618.517,-76.8428"/>
</g>
<!-- Node18 -->
<g id="node19" class="node">
<title>Node18</title>
<polygon fill="#ffffff" stroke="#bfbfbf" points="668.5052,-56.5 668.5052,-75.5 733.5052,-75.5 733.5052,-56.5 668.5052,-56.5"/>
<text text-anchor="middle" x="701.0052" y="-63.5" font-family="Helvetica,sans-Serif" font-size="10.00" fill="#000000">stdexcept</text>
</g>
<!-- Node17&#45;&gt;Node18 -->
<g id="edge28" class="edge">
<title>Node17&#45;&gt;Node18</title>
<path fill="none" stroke="#191970" d="M701.0052,-112.2455C701.0052,-104.9382 701.0052,-94.6944 701.0052,-85.7046"/>
<polygon fill="#191970" stroke="#191970" points="704.5053,-85.6426 701.0052,-75.6427 697.5053,-85.6427 704.5053,-85.6426"/>
</g>
<!-- Node19&#45;&gt;Node7 -->
<g id="edge34" class="edge">
<title>Node19&#45;&gt;Node7</title>
<path fill="none" stroke="#191970" d="M664.5732,-173.2268C712.0065,-166.3199 791.1573,-152.1243 812.0052,-132 824.4473,-119.9898 828.89,-100.4049 830.4036,-85.6825"/>
<polygon fill="#191970" stroke="#191970" points="833.9042,-85.7879 831.0742,-75.5781 826.9196,-85.3243 833.9042,-85.7879"/>
</g>
<!-- Node19&#45;&gt;Node8 -->
<g id="edge36" class="edge">
<title>Node19&#45;&gt;Node8</title>
<path fill="none" stroke="#191970" d="M623.3385,-168.2783C619.0235,-159.0686 612.6024,-144.7835 608.0052,-132 602.4572,-116.5722 597.3877,-98.6771 593.8833,-85.4159"/>
<polygon fill="#191970" stroke="#191970" points="597.2181,-84.3312 591.3315,-75.5222 590.4399,-86.0794 597.2181,-84.3312"/>
</g>
<!-- Node19&#45;&gt;Node11 -->
<g id="edge33" class="edge">
<title>Node19&#45;&gt;Node11</title>
<path fill="none" stroke="#191970" d="M611.1091,-168.2455C596.0873,-159.5731 573.9009,-146.7645 556.6842,-136.825"/>
<polygon fill="#191970" stroke="#191970" points="558.1181,-133.6114 547.7077,-131.6427 554.6182,-139.6737 558.1181,-133.6114"/>
</g>
<!-- Node20 -->
<g id="node21" class="node">
<title>Node20</title>
<polygon fill="#ffffff" stroke="#bfbfbf" points="617.0052,-112.5 617.0052,-131.5 655.0052,-131.5 655.0052,-112.5 617.0052,-112.5"/>
<text text-anchor="middle" x="636.0052" y="-119.5" font-family="Helvetica,sans-Serif" font-size="10.00" fill="#000000">map</text>
</g>
<!-- Node19&#45;&gt;Node20 -->
<g id="edge32" class="edge">
<title>Node19&#45;&gt;Node20</title>
<path fill="none" stroke="#191970" d="M629.3987,-168.2455C630.4426,-160.9382 631.9061,-150.6944 633.1903,-141.7046"/>
<polygon fill="#191970" stroke="#191970" points="636.6782,-142.0372 634.6277,-131.6427 629.7486,-141.0472 636.6782,-142.0372"/>
</g>
<!-- Node21 -->
<g id="node22" class="node">
<title>Node21</title>
<polygon fill="#ffffff" stroke="#bfbfbf" points="747.0052,-112.5 747.0052,-131.5 803.0052,-131.5 803.0052,-112.5 747.0052,-112.5"/>
<text text-anchor="middle" x="775.0052" y="-119.5" font-family="Helvetica,sans-Serif" font-size="10.00" fill="#000000">sstream</text>
</g>
<!-- Node19&#45;&gt;Node21 -->
<g id="edge35" class="edge">
<title>Node19&#45;&gt;Node21</title>
<path fill="none" stroke="#191970" d="M653.2754,-168.3733C677.4019,-159.1822 713.9415,-145.2624 740.693,-135.0713"/>
<polygon fill="#191970" stroke="#191970" points="741.9659,-138.3318 750.0648,-131.5011 739.4739,-131.7904 741.9659,-138.3318"/>
</g>
</g>
</svg>
