<?xml version="1.0" encoding="UTF-8" standalone="no"?>
<!DOCTYPE svg PUBLIC "-//W3C//DTD SVG 1.1//EN"
 "http://www.w3.org/Graphics/SVG/1.1/DTD/svg11.dtd">
<!-- Generated by graphviz version 2.38.0 (20140413.2041)
 -->
<!-- Title: /home/etienne/Projects/avcpp/av/scale.h Pages: 1 -->
<svg width="152pt" height="151pt"
 viewBox="0.00 0.00 152.00 151.00" xmlns="http://www.w3.org/2000/svg" xmlns:xlink="http://www.w3.org/1999/xlink">
<g id="graph0" class="graph" transform="scale(1 1) rotate(0) translate(4 147)">
<title>/home/etienne/Projects/avcpp/av/scale.h</title>
<polygon fill="white" stroke="none" points="-4,4 -4,-147 148,-147 148,4 -4,4"/>
<!-- Node0 -->
<g id="node1" class="node"><title>Node0</title>
<polygon fill="#bfbfbf" stroke="black" points="3.5,-112.5 3.5,-142.5 120.5,-142.5 120.5,-112.5 3.5,-112.5"/>
<text text-anchor="start" x="11.5" y="-130.5" font-family="Helvetica,sans-Serif" font-size="10.00">/home/etienne/Projects</text>
<text text-anchor="middle" x="62" y="-119.5" font-family="Helvetica,sans-Serif" font-size="10.00">/avcpp/av/scale.h</text>
</g>
<!-- Node1 -->
<g id="node2" class="node"><title>Node1</title>
<polygon fill="white" stroke="#bfbfbf" points="0,-0.5 0,-19.5 74,-19.5 74,-0.5 0,-0.5"/>
<text text-anchor="middle" x="37" y="-7.5" font-family="Helvetica,sans-Serif" font-size="10.00">system_error</text>
</g>
<!-- Node0&#45;&gt;Node1 -->
<g id="edge1" class="edge"><title>Node0&#45;&gt;Node1</title>
<path fill="none" stroke="midnightblue" d="M58.9345,-112.337C54.4301,-91.5271 46.018,-52.6632 41.0224,-29.5834"/>
<polygon fill="midnightblue" stroke="midnightblue" points="44.4129,-28.7027 38.8765,-19.6695 37.5713,-30.1836 44.4129,-28.7027"/>
</g>
<!-- Node2 -->
<g id="node3" class="node"><title>Node2</title>
<g id="a_node3"><a xlink:href="utils_8h.html" target="_top" xlink:title="utils.h">
<polygon fill="white" stroke="black" points="65.5,-56.5 65.5,-75.5 108.5,-75.5 108.5,-56.5 65.5,-56.5"/>
<text text-anchor="middle" x="87" y="-63.5" font-family="Helvetica,sans-Serif" font-size="10.00">utils.h</text>
</a>
</g>
</g>
<!-- Node0&#45;&gt;Node2 -->
<g id="edge2" class="edge"><title>Node0&#45;&gt;Node2</title>
<path fill="none" stroke="midnightblue" d="M67.9247,-112.399C71.3702,-104.199 75.7475,-93.7809 79.4397,-84.9936"/>
<polygon fill="midnightblue" stroke="midnightblue" points="82.7153,-86.2328 83.3623,-75.6578 76.2618,-83.5213 82.7153,-86.2328"/>
</g>
<!-- Node2&#45;&gt;Node1 -->
<g id="edge4" class="edge"><title>Node2&#45;&gt;Node1</title>
<path fill="none" stroke="midnightblue" d="M78.7435,-56.083C71.5353,-48.2982 60.8902,-36.8015 52.1542,-27.3665"/>
<polygon fill="midnightblue" stroke="midnightblue" points="54.4651,-24.7108 45.1028,-19.7511 49.3288,-29.4666 54.4651,-24.7108"/>
</g>
<!-- Node3 -->
<g id="node4" class="node"><title>Node3</title>
<polygon fill="white" stroke="#bfbfbf" points="92,-0.5 92,-19.5 144,-19.5 144,-0.5 92,-0.5"/>
<text text-anchor="middle" x="118" y="-7.5" font-family="Helvetica,sans-Serif" font-size="10.00">memory</text>
</g>
<!-- Node2&#45;&gt;Node3 -->
<g id="edge3" class="edge"><title>Node2&#45;&gt;Node3</title>
<path fill="none" stroke="midnightblue" d="M92.119,-56.083C96.4075,-48.6127 102.658,-37.7244 107.942,-28.5199"/>
<polygon fill="midnightblue" stroke="midnightblue" points="111.033,-30.1662 112.976,-19.7511 104.962,-26.6811 111.033,-30.1662"/>
</g>
</g>
</svg>
