<?xml version="1.0" encoding="UTF-8" standalone="no"?>
<!DOCTYPE svg PUBLIC "-//W3C//DTD SVG 1.1//EN"
 "http://www.w3.org/Graphics/SVG/1.1/DTD/svg11.dtd">
<!-- Generated by graphviz version 2.40.1 (20161225.0304)
 -->
<!-- Title: /home/etienne/Projects/avcpp/av/discid/sha1.h Pages: 1 -->
<svg width="209pt" height="95pt"
 viewBox="0.00 0.00 209.00 95.00" xmlns="http://www.w3.org/2000/svg" xmlns:xlink="http://www.w3.org/1999/xlink">
<g id="graph0" class="graph" transform="scale(1 1) rotate(0) translate(4 91)">
<title>/home/etienne/Projects/avcpp/av/discid/sha1.h</title>
<polygon fill="#ffffff" stroke="transparent" points="-4,4 -4,-91 205,-91 205,4 -4,4"/>
<!-- Node0 -->
<g id="node1" class="node">
<title>Node0</title>
<polygon fill="#bfbfbf" stroke="#000000" points="31,-56.5 31,-86.5 162,-86.5 162,-56.5 31,-56.5"/>
<text text-anchor="start" x="39" y="-74.5" font-family="Helvetica,sans-Serif" font-size="10.00" fill="#000000">/home/etienne/Projects</text>
<text text-anchor="middle" x="96.5" y="-63.5" font-family="Helvetica,sans-Serif" font-size="10.00" fill="#000000">/avcpp/av/discid/sha1.h</text>
</g>
<!-- Node1 -->
<g id="node2" class="node">
<title>Node1</title>
<polygon fill="#ffffff" stroke="#bfbfbf" points="0,-.5 0,-19.5 53,-19.5 53,-.5 0,-.5"/>
<text text-anchor="middle" x="26.5" y="-7.5" font-family="Helvetica,sans-Serif" font-size="10.00" fill="#000000">stdlib.h</text>
</g>
<!-- Node0&#45;&gt;Node1 -->
<g id="edge1" class="edge">
<title>Node0&#45;&gt;Node1</title>
<path fill="none" stroke="#191970" d="M79.1966,-56.2977C68.9738,-47.3163 56.0177,-35.9334 45.5104,-26.702"/>
<polygon fill="#191970" stroke="#191970" points="47.5305,-23.8178 37.7079,-19.8469 42.9103,-29.0766 47.5305,-23.8178"/>
</g>
<!-- Node2 -->
<g id="node3" class="node">
<title>Node2</title>
<polygon fill="#ffffff" stroke="#bfbfbf" points="71.5,-.5 71.5,-19.5 121.5,-19.5 121.5,-.5 71.5,-.5"/>
<text text-anchor="middle" x="96.5" y="-7.5" font-family="Helvetica,sans-Serif" font-size="10.00" fill="#000000">stdio.h</text>
</g>
<!-- Node0&#45;&gt;Node2 -->
<g id="edge2" class="edge">
<title>Node0&#45;&gt;Node2</title>
<path fill="none" stroke="#191970" d="M96.5,-56.2977C96.5,-48.3834 96.5,-38.6043 96.5,-30.0759"/>
<polygon fill="#191970" stroke="#191970" points="100.0001,-29.8469 96.5,-19.8469 93.0001,-29.847 100.0001,-29.8469"/>
</g>
<!-- Node3 -->
<g id="node4" class="node">
<title>Node3</title>
<g id="a_node4"><a xlink:href="base64_8h.html" target="_top" xlink:title="base64.h">
<polygon fill="#ffffff" stroke="#000000" points="140,-.5 140,-19.5 201,-19.5 201,-.5 140,-.5"/>
<text text-anchor="middle" x="170.5" y="-7.5" font-family="Helvetica,sans-Serif" font-size="10.00" fill="#000000">base64.h</text>
</a>
</g>
</g>
<!-- Node0&#45;&gt;Node3 -->
<g id="edge3" class="edge">
<title>Node0&#45;&gt;Node3</title>
<path fill="none" stroke="#191970" d="M114.7921,-56.2977C125.7061,-47.2274 139.5671,-35.7077 150.7324,-26.4285"/>
<polygon fill="#191970" stroke="#191970" points="153.198,-28.9303 158.6517,-19.8469 148.7238,-23.5468 153.198,-28.9303"/>
</g>
</g>
</svg>
