<?xml version="1.0" encoding="UTF-8" standalone="no"?>
<!DOCTYPE svg PUBLIC "-//W3C//DTD SVG 1.1//EN"
 "http://www.w3.org/Graphics/SVG/1.1/DTD/svg11.dtd">
<!-- Generated by graphviz version 2.40.1 (20161225.0304)
 -->
<!-- Title: av::Metadata::~Metadata Pages: 1 -->
<svg width="324pt" height="104pt"
 viewBox="0.00 0.00 324.00 104.00" xmlns="http://www.w3.org/2000/svg" xmlns:xlink="http://www.w3.org/1999/xlink">
<g id="graph0" class="graph" transform="scale(1 1) rotate(0) translate(4 100)">
<title>av::Metadata::~Metadata</title>
<polygon fill="#ffffff" stroke="transparent" points="-4,4 -4,-100 320,-100 320,4 -4,4"/>
<!-- Node1 -->
<g id="node1" class="node">
<title>Node1</title>
<polygon fill="#bfbfbf" stroke="#000000" points="0,-38.5 0,-57.5 140,-57.5 140,-38.5 0,-38.5"/>
<text text-anchor="middle" x="70" y="-45.5" font-family="Helvetica,sans-Serif" font-size="10.00" fill="#000000">av::Metadata::~Metadata</text>
</g>
<!-- Node2 -->
<g id="node2" class="node">
<title>Node2</title>
<g id="a_node2"><a xlink:href="structav_1_1_metadata.html#aeb06b78338d106e311a4cf38864fb033" target="_top" xlink:title="av::Metadata::tagname">
<polygon fill="#ffffff" stroke="#000000" points="181.5,-76.5 181.5,-95.5 310.5,-95.5 310.5,-76.5 181.5,-76.5"/>
<text text-anchor="middle" x="246" y="-83.5" font-family="Helvetica,sans-Serif" font-size="10.00" fill="#000000">av::Metadata::tagname</text>
</a>
</g>
</g>
<!-- Node1&#45;&gt;Node2 -->
<g id="edge1" class="edge">
<title>Node1&#45;&gt;Node2</title>
<path fill="none" stroke="#191970" d="M114.4122,-57.589C137.9512,-62.6713 167.0567,-68.9554 191.9048,-74.3203"/>
<polygon fill="#191970" stroke="#191970" points="191.3937,-77.7906 201.9071,-76.4799 192.8711,-70.9482 191.3937,-77.7906"/>
</g>
<!-- Node3 -->
<g id="node3" class="node">
<title>Node3</title>
<g id="a_node3"><a xlink:href="structav_1_1_metadata.html#a3dadcc64a2b69b2c26c628b1c3c71bc3" target="_top" xlink:title="get the metadata key type as string. ">
<polygon fill="#ffffff" stroke="#000000" points="189.5,-38.5 189.5,-57.5 302.5,-57.5 302.5,-38.5 189.5,-38.5"/>
<text text-anchor="middle" x="246" y="-45.5" font-family="Helvetica,sans-Serif" font-size="10.00" fill="#000000">av::Metadata::name</text>
</a>
</g>
</g>
<!-- Node1&#45;&gt;Node3 -->
<g id="edge2" class="edge">
<title>Node1&#45;&gt;Node3</title>
<path fill="none" stroke="#191970" d="M140.0656,-48C153,-48 166.4743,-48 179.3056,-48"/>
<polygon fill="#191970" stroke="#191970" points="179.4357,-51.5001 189.4356,-48 179.4356,-44.5001 179.4357,-51.5001"/>
</g>
<!-- Node4 -->
<g id="node4" class="node">
<title>Node4</title>
<g id="a_node4"><a xlink:href="structav_1_1_metadata.html#a4c77c0ebe8c218cdeb119527bebc524a" target="_top" xlink:title="get keys of valid metadata elments. ">
<polygon fill="#ffffff" stroke="#000000" points="176,-.5 176,-19.5 316,-19.5 316,-.5 176,-.5"/>
<text text-anchor="middle" x="246" y="-7.5" font-family="Helvetica,sans-Serif" font-size="10.00" fill="#000000">av::Metadata::tag_names</text>
</a>
</g>
</g>
<!-- Node1&#45;&gt;Node4 -->
<g id="edge3" class="edge">
<title>Node1&#45;&gt;Node4</title>
<path fill="none" stroke="#191970" d="M114.4122,-38.411C137.9512,-33.3287 167.0567,-27.0446 191.9048,-21.6797"/>
<polygon fill="#191970" stroke="#191970" points="192.8711,-25.0518 201.9071,-19.5201 191.3937,-18.2094 192.8711,-25.0518"/>
</g>
</g>
</svg>
