<?xml version="1.0" encoding="UTF-8" standalone="no"?>
<!DOCTYPE svg PUBLIC "-//W3C//DTD SVG 1.1//EN"
 "http://www.w3.org/Graphics/SVG/1.1/DTD/svg11.dtd">
<!-- Generated by graphviz version 2.40.1 (20161225.0304)
 -->
<!-- Title: discid::toc Pages: 1 -->
<svg width="180pt" height="106pt"
 viewBox="0.00 0.00 180.00 106.00" xmlns="http://www.w3.org/2000/svg" xmlns:xlink="http://www.w3.org/1999/xlink">
<g id="graph0" class="graph" transform="scale(1 1) rotate(0) translate(4 102)">
<title>discid::toc</title>
<polygon fill="#ffffff" stroke="transparent" points="-4,4 -4,-102 176,-102 176,4 -4,4"/>
<!-- Node1 -->
<g id="node1" class="node">
<title>Node1</title>
<polygon fill="#bfbfbf" stroke="#000000" points="51,-.5 51,-19.5 117,-19.5 117,-.5 51,-.5"/>
<text text-anchor="middle" x="84" y="-7.5" font-family="Helvetica,sans-Serif" font-size="10.00" fill="#000000">discid::toc</text>
</g>
<!-- Node2 -->
<g id="node2" class="node">
<title>Node2</title>
<g id="a_node2"><a xlink:href="structdiscid_1_1time.html" target="_top" xlink:title="Time structure for disk table of contents. ">
<polygon fill="#ffffff" stroke="#000000" points="0,-78.5 0,-97.5 74,-97.5 74,-78.5 0,-78.5"/>
<text text-anchor="middle" x="37" y="-85.5" font-family="Helvetica,sans-Serif" font-size="10.00" fill="#000000">discid::time</text>
</a>
</g>
</g>
<!-- Node2&#45;&gt;Node1 -->
<g id="edge1" class="edge">
<title>Node2&#45;&gt;Node1</title>
<path fill="none" stroke="#9a32cd" stroke-dasharray="5,2" d="M48.0686,-69.6308C57.5046,-53.9711 70.6956,-32.0796 78.1897,-19.6426"/>
<polygon fill="#9a32cd" stroke="#9a32cd" points="44.9264,-68.064 42.7631,-78.4357 50.9221,-71.6768 44.9264,-68.064"/>
<text text-anchor="middle" x="78.5" y="-52" font-family="Helvetica,sans-Serif" font-size="10.00" fill="#000000"> end</text>
<text text-anchor="middle" x="78.5" y="-41" font-family="Helvetica,sans-Serif" font-size="10.00" fill="#000000">start</text>
</g>
<!-- Node3 -->
<g id="node3" class="node">
<title>Node3</title>
<g id="a_node3"><a xlink:href="structav_1_1_metadata.html" target="_top" xlink:title="The Metadata information. ">
<polygon fill="#ffffff" stroke="#000000" points="92,-78.5 92,-97.5 172,-97.5 172,-78.5 92,-78.5"/>
<text text-anchor="middle" x="132" y="-85.5" font-family="Helvetica,sans-Serif" font-size="10.00" fill="#000000">av::Metadata</text>
</a>
</g>
</g>
<!-- Node3&#45;&gt;Node1 -->
<g id="edge2" class="edge">
<title>Node3&#45;&gt;Node1</title>
<path fill="none" stroke="#9a32cd" stroke-dasharray="5,2" d="M120.6959,-69.6308C111.0591,-53.9711 97.5875,-32.0796 89.9339,-19.6426"/>
<polygon fill="#9a32cd" stroke="#9a32cd" points="117.8924,-71.7534 126.1143,-78.4357 123.854,-68.0847 117.8924,-71.7534"/>
<text text-anchor="middle" x="138.5" y="-46.5" font-family="Helvetica,sans-Serif" font-size="10.00" fill="#000000"> metadata</text>
</g>
</g>
</svg>
