<?xml version="1.0" encoding="UTF-8" standalone="no"?>
<!DOCTYPE svg PUBLIC "-//W3C//DTD SVG 1.1//EN"
 "http://www.w3.org/Graphics/SVG/1.1/DTD/svg11.dtd">
<!-- Generated by graphviz version 2.38.0 (20140413.2041)
 -->
<!-- Title: CuesheetItem Pages: 1 -->
<svg width="103pt" height="218pt"
 viewBox="0.00 0.00 103.00 218.00" xmlns="http://www.w3.org/2000/svg" xmlns:xlink="http://www.w3.org/1999/xlink">
<g id="graph0" class="graph" transform="scale(1 1) rotate(0) translate(4 214)">
<title>CuesheetItem</title>
<polygon fill="white" stroke="none" points="-4,4 -4,-214 99,-214 99,4 -4,4"/>
<!-- Node1 -->
<g id="node1" class="node"><title>Node1</title>
<polygon fill="#bfbfbf" stroke="black" points="8.5,-0.5 8.5,-19.5 86.5,-19.5 86.5,-0.5 8.5,-0.5"/>
<text text-anchor="middle" x="47.5" y="-7.5" font-family="Helvetica,sans-Serif" font-size="10.00">CuesheetItem</text>
</g>
<!-- Node2 -->
<g id="node2" class="node"><title>Node2</title>
<g id="a_node2"><a xlink:title="STL class. ">
<polygon fill="white" stroke="#bfbfbf" points="17.5,-122.5 17.5,-141.5 77.5,-141.5 77.5,-122.5 17.5,-122.5"/>
<text text-anchor="middle" x="47.5" y="-129.5" font-family="Helvetica,sans-Serif" font-size="10.00">std::string</text>
</a>
</g>
</g>
<!-- Node2&#45;&gt;Node1 -->
<g id="edge1" class="edge"><title>Node2&#45;&gt;Node1</title>
<path fill="none" stroke="#9a32cd" stroke-dasharray="5,2" d="M47.5,-112.145C47.5,-85.7231 47.5,-38.7637 47.5,-19.5519"/>
<polygon fill="#9a32cd" stroke="#9a32cd" points="44.0001,-112.37 47.5,-122.37 51.0001,-112.37 44.0001,-112.37"/>
<text text-anchor="middle" x="68.5" y="-96" font-family="Helvetica,sans-Serif" font-size="10.00"> title</text>
<text text-anchor="middle" x="68.5" y="-85" font-family="Helvetica,sans-Serif" font-size="10.00">track</text>
<text text-anchor="middle" x="68.5" y="-74" font-family="Helvetica,sans-Serif" font-size="10.00">performer</text>
<text text-anchor="middle" x="68.5" y="-63" font-family="Helvetica,sans-Serif" font-size="10.00">type</text>
<text text-anchor="middle" x="68.5" y="-52" font-family="Helvetica,sans-Serif" font-size="10.00">index</text>
<text text-anchor="middle" x="68.5" y="-41" font-family="Helvetica,sans-Serif" font-size="10.00">start</text>
</g>
<!-- Node3 -->
<g id="node3" class="node"><title>Node3</title>
<polygon fill="white" stroke="#bfbfbf" points="0,-179.5 0,-209.5 95,-209.5 95,-179.5 0,-179.5"/>
<text text-anchor="start" x="8" y="-197.5" font-family="Helvetica,sans-Serif" font-size="10.00">std::basic_string&lt;</text>
<text text-anchor="middle" x="47.5" y="-186.5" font-family="Helvetica,sans-Serif" font-size="10.00"> char &gt;</text>
</g>
<!-- Node3&#45;&gt;Node2 -->
<g id="edge2" class="edge"><title>Node3&#45;&gt;Node2</title>
<path fill="none" stroke="midnightblue" d="M47.5,-169.352C47.5,-159.513 47.5,-148.775 47.5,-141.54"/>
<polygon fill="midnightblue" stroke="midnightblue" points="44.0001,-169.468 47.5,-179.468 51.0001,-169.468 44.0001,-169.468"/>
</g>
</g>
</svg>
