<?xml version="1.0" encoding="UTF-8" standalone="no"?>
<!DOCTYPE svg PUBLIC "-//W3C//DTD SVG 1.1//EN"
 "http://www.w3.org/Graphics/SVG/1.1/DTD/svg11.dtd">
<!-- Generated by graphviz version 2.40.1 (20161225.0304)
 -->
<!-- Title: discid::toc Pages: 1 -->
<svg width="306pt" height="341pt"
 viewBox="0.00 0.00 306.00 341.00" xmlns="http://www.w3.org/2000/svg" xmlns:xlink="http://www.w3.org/1999/xlink">
<g id="graph0" class="graph" transform="scale(1 1) rotate(0) translate(4 337)">
<title>discid::toc</title>
<polygon fill="#ffffff" stroke="transparent" points="-4,4 -4,-337 302,-337 302,4 -4,4"/>
<!-- Node1 -->
<g id="node1" class="node">
<title>Node1</title>
<polygon fill="#bfbfbf" stroke="#000000" points="130,-.5 130,-19.5 196,-19.5 196,-.5 130,-.5"/>
<text text-anchor="middle" x="163" y="-7.5" font-family="Helvetica,sans-Serif" font-size="10.00" fill="#000000">discid::toc</text>
</g>
<!-- Node2 -->
<g id="node2" class="node">
<title>Node2</title>
<polygon fill="#ffffff" stroke="#bfbfbf" points="0,-78.5 0,-108.5 108,-108.5 108,-78.5 0,-78.5"/>
<text text-anchor="start" x="8" y="-96.5" font-family="Helvetica,sans-Serif" font-size="10.00" fill="#000000">std::vector&lt; discid</text>
<text text-anchor="middle" x="54" y="-85.5" font-family="Helvetica,sans-Serif" font-size="10.00" fill="#000000">::artist &gt;</text>
</g>
<!-- Node2&#45;&gt;Node1 -->
<g id="edge1" class="edge">
<title>Node2&#45;&gt;Node1</title>
<path fill="none" stroke="#9a32cd" stroke-dasharray="5,2" d="M81.3433,-71.8329C94.4776,-61.5004 110.4835,-49.0184 125,-38 133.094,-31.8565 142.2625,-25.0951 149.5655,-19.7559"/>
<polygon fill="#9a32cd" stroke="#9a32cd" points="78.8575,-69.3357 73.1713,-78.2754 83.1913,-74.8328 78.8575,-69.3357"/>
<text text-anchor="middle" x="142" y="-46.5" font-family="Helvetica,sans-Serif" font-size="10.00" fill="#000000"> artists</text>
</g>
<!-- Node3 -->
<g id="node3" class="node">
<title>Node3</title>
<g id="a_node3"><a xlink:href="structdiscid_1_1artist.html" target="_top" xlink:title="Time artist for disk table of contents. ">
<polygon fill="#ffffff" stroke="#000000" points="15.5,-156.5 15.5,-175.5 92.5,-175.5 92.5,-156.5 15.5,-156.5"/>
<text text-anchor="middle" x="54" y="-163.5" font-family="Helvetica,sans-Serif" font-size="10.00" fill="#000000">discid::artist</text>
</a>
</g>
</g>
<!-- Node3&#45;&gt;Node2 -->
<g id="edge2" class="edge">
<title>Node3&#45;&gt;Node2</title>
<path fill="none" stroke="#9a32cd" stroke-dasharray="5,2" d="M54,-146.0177C54,-134.2164 54,-119.513 54,-108.668"/>
<polygon fill="#9a32cd" stroke="#9a32cd" points="50.5001,-146.2223 54,-156.2223 57.5001,-146.2224 50.5001,-146.2223"/>
<text text-anchor="middle" x="78.5" y="-130" font-family="Helvetica,sans-Serif" font-size="10.00" fill="#000000"> elements</text>
</g>
<!-- Node4 -->
<g id="node4" class="node">
<title>Node4</title>
<g id="a_node4"><a xlink:title="STL class. ">
<polygon fill="#ffffff" stroke="#bfbfbf" points="21.5,-245.5 21.5,-264.5 86.5,-264.5 86.5,-245.5 21.5,-245.5"/>
<text text-anchor="middle" x="54" y="-252.5" font-family="Helvetica,sans-Serif" font-size="10.00" fill="#000000">std::string</text>
</a>
</g>
</g>
<!-- Node4&#45;&gt;Node3 -->
<g id="edge3" class="edge">
<title>Node4&#45;&gt;Node3</title>
<path fill="none" stroke="#9a32cd" stroke-dasharray="5,2" d="M54,-235.2379C54,-216.7654 54,-189.957 54,-175.7259"/>
<polygon fill="#9a32cd" stroke="#9a32cd" points="50.5001,-235.4754 54,-245.4754 57.5001,-235.4755 50.5001,-235.4754"/>
<text text-anchor="middle" x="80" y="-219" font-family="Helvetica,sans-Serif" font-size="10.00" fill="#000000"> id</text>
<text text-anchor="middle" x="80" y="-208" font-family="Helvetica,sans-Serif" font-size="10.00" fill="#000000">name</text>
<text text-anchor="middle" x="80" y="-197" font-family="Helvetica,sans-Serif" font-size="10.00" fill="#000000">sort_name</text>
</g>
<!-- Node5 -->
<g id="node5" class="node">
<title>Node5</title>
<polygon fill="#ffffff" stroke="#bfbfbf" points="2,-302.5 2,-332.5 106,-332.5 106,-302.5 2,-302.5"/>
<text text-anchor="start" x="10" y="-320.5" font-family="Helvetica,sans-Serif" font-size="10.00" fill="#000000">std::basic_string&lt;</text>
<text text-anchor="middle" x="54" y="-309.5" font-family="Helvetica,sans-Serif" font-size="10.00" fill="#000000"> char &gt;</text>
</g>
<!-- Node5&#45;&gt;Node4 -->
<g id="edge4" class="edge">
<title>Node5&#45;&gt;Node4</title>
<path fill="none" stroke="#191970" d="M54,-292.3498C54,-282.6481 54,-272.1303 54,-264.7356"/>
<polygon fill="#191970" stroke="#191970" points="50.5001,-292.3705 54,-302.3705 57.5001,-292.3705 50.5001,-292.3705"/>
</g>
<!-- Node6 -->
<g id="node6" class="node">
<title>Node6</title>
<g id="a_node6"><a xlink:href="structdiscid_1_1time.html" target="_top" xlink:title="Time structure for disk table of contents. ">
<polygon fill="#ffffff" stroke="#000000" points="126,-84 126,-103 200,-103 200,-84 126,-84"/>
<text text-anchor="middle" x="163" y="-91" font-family="Helvetica,sans-Serif" font-size="10.00" fill="#000000">discid::time</text>
</a>
</g>
</g>
<!-- Node6&#45;&gt;Node1 -->
<g id="edge5" class="edge">
<title>Node6&#45;&gt;Node1</title>
<path fill="none" stroke="#9a32cd" stroke-dasharray="5,2" d="M163,-73.9172C163,-56.8939 163,-32.9456 163,-19.724"/>
<polygon fill="#9a32cd" stroke="#9a32cd" points="159.5001,-73.9215 163,-83.9215 166.5001,-73.9215 159.5001,-73.9215"/>
<text text-anchor="middle" x="174.5" y="-52" font-family="Helvetica,sans-Serif" font-size="10.00" fill="#000000"> end</text>
<text text-anchor="middle" x="174.5" y="-41" font-family="Helvetica,sans-Serif" font-size="10.00" fill="#000000">start</text>
</g>
<!-- Node7 -->
<g id="node7" class="node">
<title>Node7</title>
<g id="a_node7"><a xlink:href="structav_1_1_metadata.html" target="_top" xlink:title="The Metadata information. ">
<polygon fill="#ffffff" stroke="#000000" points="218,-84 218,-103 298,-103 298,-84 218,-84"/>
<text text-anchor="middle" x="258" y="-91" font-family="Helvetica,sans-Serif" font-size="10.00" fill="#000000">av::Metadata</text>
</a>
</g>
</g>
<!-- Node7&#45;&gt;Node1 -->
<g id="edge6" class="edge">
<title>Node7&#45;&gt;Node1</title>
<path fill="none" stroke="#9a32cd" stroke-dasharray="5,2" d="M239.4827,-77.2242C220.0395,-60.1347 190.1085,-33.827 174.0632,-19.724"/>
<polygon fill="#9a32cd" stroke="#9a32cd" points="237.2806,-79.9485 247.1023,-83.9215 241.9019,-74.6908 237.2806,-79.9485"/>
<text text-anchor="middle" x="244.5" y="-46.5" font-family="Helvetica,sans-Serif" font-size="10.00" fill="#000000"> metadata</text>
</g>
</g>
</svg>
