<?xml version="1.0" encoding="UTF-8" standalone="no"?>
<!DOCTYPE svg PUBLIC "-//W3C//DTD SVG 1.1//EN"
 "http://www.w3.org/Graphics/SVG/1.1/DTD/svg11.dtd">
<!-- Generated by graphviz version 2.40.1 (20161225.0304)
 -->
<!-- Title: discid::time::operator== Pages: 1 -->
<svg width="310pt" height="66pt"
 viewBox="0.00 0.00 310.00 66.00" xmlns="http://www.w3.org/2000/svg" xmlns:xlink="http://www.w3.org/1999/xlink">
<g id="graph0" class="graph" transform="scale(1 1) rotate(0) translate(4 62)">
<title>discid::time::operator==</title>
<polygon fill="#ffffff" stroke="transparent" points="-4,4 -4,-62 306,-62 306,4 -4,4"/>
<!-- Node6 -->
<g id="node1" class="node">
<title>Node6</title>
<polygon fill="#bfbfbf" stroke="#000000" points="0,-19.5 0,-38.5 137,-38.5 137,-19.5 0,-19.5"/>
<text text-anchor="middle" x="68.5" y="-26.5" font-family="Helvetica,sans-Serif" font-size="10.00" fill="#000000">discid::time::operator==</text>
</g>
<!-- Node7 -->
<g id="node2" class="node">
<title>Node7</title>
<g id="a_node2"><a xlink:href="structdiscid_1_1time.html#a8de67775b47f9664c8223fe8e47663b9" target="_top" xlink:title="discid::time::operator&#45;">
<polygon fill="#ffffff" stroke="#000000" points="175.5,-38.5 175.5,-57.5 299.5,-57.5 299.5,-38.5 175.5,-38.5"/>
<text text-anchor="middle" x="237.5" y="-45.5" font-family="Helvetica,sans-Serif" font-size="10.00" fill="#000000">discid::time::operator&#45;</text>
</a>
</g>
</g>
<!-- Node6&#45;&gt;Node7 -->
<g id="edge1" class="edge">
<title>Node6&#45;&gt;Node7</title>
<path fill="none" stroke="#191970" d="M137.2388,-36.728C146.5,-37.7692 156.023,-38.8399 165.3415,-39.8875"/>
<polygon fill="#191970" stroke="#191970" points="165.0221,-43.3736 175.3505,-41.0128 165.8042,-36.4174 165.0221,-43.3736"/>
</g>
<!-- Node8 -->
<g id="node3" class="node">
<title>Node8</title>
<g id="a_node3"><a xlink:href="structdiscid_1_1time.html#a306df81f9905e52a941c91d97dfd8b0e" target="_top" xlink:title="discid::time::operator+">
<polygon fill="#ffffff" stroke="#000000" points="173,-.5 173,-19.5 302,-19.5 302,-.5 173,-.5"/>
<text text-anchor="middle" x="237.5" y="-7.5" font-family="Helvetica,sans-Serif" font-size="10.00" fill="#000000">discid::time::operator+</text>
</a>
</g>
</g>
<!-- Node6&#45;&gt;Node8 -->
<g id="edge2" class="edge">
<title>Node6&#45;&gt;Node8</title>
<path fill="none" stroke="#191970" d="M137.2388,-21.272C145.7118,-20.3194 154.404,-19.3422 162.9581,-18.3804"/>
<polygon fill="#191970" stroke="#191970" points="163.3688,-21.8564 172.9151,-17.261 162.5867,-14.9002 163.3688,-21.8564"/>
</g>
</g>
</svg>
