<?xml version="1.0" encoding="UTF-8" standalone="no"?>
<!DOCTYPE svg PUBLIC "-//W3C//DTD SVG 1.1//EN"
 "http://www.w3.org/Graphics/SVG/1.1/DTD/svg11.dtd">
<!-- Generated by graphviz version 2.38.0 (20140413.2041)
 -->
<!-- Title: Cuesheet Pages: 1 -->
<svg width="211pt" height="385pt"
 viewBox="0.00 0.00 211.00 385.00" xmlns="http://www.w3.org/2000/svg" xmlns:xlink="http://www.w3.org/1999/xlink">
<g id="graph0" class="graph" transform="scale(1 1) rotate(0) translate(4 381)">
<title>Cuesheet</title>
<polygon fill="white" stroke="none" points="-4,4 -4,-381 207,-381 207,4 -4,4"/>
<!-- Node1 -->
<g id="node1" class="node"><title>Node1</title>
<polygon fill="#bfbfbf" stroke="black" points="35,-0.5 35,-19.5 94,-19.5 94,-0.5 35,-0.5"/>
<text text-anchor="middle" x="64.5" y="-7.5" font-family="Helvetica,sans-Serif" font-size="10.00">Cuesheet</text>
</g>
<!-- Node2 -->
<g id="node2" class="node"><title>Node2</title>
<polygon fill="white" stroke="#bfbfbf" points="60,-67.5 60,-86.5 203,-86.5 203,-67.5 60,-67.5"/>
<text text-anchor="middle" x="131.5" y="-74.5" font-family="Helvetica,sans-Serif" font-size="10.00">std::vector&lt; CuesheetItem &gt;</text>
</g>
<!-- Node2&#45;&gt;Node1 -->
<g id="edge1" class="edge"><title>Node2&#45;&gt;Node1</title>
<path fill="none" stroke="#9a32cd" stroke-dasharray="5,2" d="M115.004,-59.9968C101.865,-47.2496 83.9761,-29.8947 73.3928,-19.6273"/>
<polygon fill="#9a32cd" stroke="#9a32cd" points="112.85,-62.7827 122.464,-67.2338 117.724,-57.7586 112.85,-62.7827"/>
<text text-anchor="middle" x="118" y="-41" font-family="Helvetica,sans-Serif" font-size="10.00"> tracks</text>
</g>
<!-- Node3 -->
<g id="node3" class="node"><title>Node3</title>
<g id="a_node3"><a xlink:href="struct_cuesheet_item.html" target="_top" xlink:title="CuesheetItem">
<polygon fill="white" stroke="black" points="75.5,-167.5 75.5,-186.5 153.5,-186.5 153.5,-167.5 75.5,-167.5"/>
<text text-anchor="middle" x="114.5" y="-174.5" font-family="Helvetica,sans-Serif" font-size="10.00">CuesheetItem</text>
</a>
</g>
</g>
<!-- Node3&#45;&gt;Node2 -->
<g id="edge2" class="edge"><title>Node3&#45;&gt;Node2</title>
<path fill="none" stroke="#9a32cd" stroke-dasharray="5,2" d="M117.758,-157.22C121.447,-135.951 127.299,-102.22 130.019,-86.5374"/>
<polygon fill="#9a32cd" stroke="#9a32cd" points="114.269,-156.852 116.009,-167.303 121.166,-158.049 114.269,-156.852"/>
<text text-anchor="middle" x="147" y="-124.5" font-family="Helvetica,sans-Serif" font-size="10.00"> elements</text>
</g>
<!-- Node4 -->
<g id="node4" class="node"><title>Node4</title>
<g id="a_node4"><a xlink:title="STL class. ">
<polygon fill="white" stroke="#bfbfbf" points="17.5,-289.5 17.5,-308.5 77.5,-308.5 77.5,-289.5 17.5,-289.5"/>
<text text-anchor="middle" x="47.5" y="-296.5" font-family="Helvetica,sans-Serif" font-size="10.00">std::string</text>
</a>
</g>
</g>
<!-- Node4&#45;&gt;Node1 -->
<g id="edge5" class="edge"><title>Node4&#45;&gt;Node1</title>
<path fill="none" stroke="#9a32cd" stroke-dasharray="5,2" d="M46.2712,-279.087C44.0238,-239.52 40.358,-145.194 50.5,-67 52.7171,-49.9063 58.2748,-30.503 61.6833,-19.6099"/>
<polygon fill="#9a32cd" stroke="#9a32cd" points="42.7816,-279.366 46.8807,-289.136 49.7688,-278.942 42.7816,-279.366"/>
<text text-anchor="middle" x="68.5" y="-141" font-family="Helvetica,sans-Serif" font-size="10.00"> title</text>
<text text-anchor="middle" x="68.5" y="-130" font-family="Helvetica,sans-Serif" font-size="10.00">performer</text>
<text text-anchor="middle" x="68.5" y="-119" font-family="Helvetica,sans-Serif" font-size="10.00">type</text>
<text text-anchor="middle" x="68.5" y="-108" font-family="Helvetica,sans-Serif" font-size="10.00">file</text>
</g>
<!-- Node4&#45;&gt;Node3 -->
<g id="edge3" class="edge"><title>Node4&#45;&gt;Node3</title>
<path fill="none" stroke="#9a32cd" stroke-dasharray="5,2" d="M57.2445,-280.547C71.8341,-254.417 98.8062,-206.108 109.725,-186.552"/>
<polygon fill="#9a32cd" stroke="#9a32cd" points="54.1375,-278.932 52.3185,-289.37 60.2494,-282.345 54.1375,-278.932"/>
<text text-anchor="middle" x="119.5" y="-263" font-family="Helvetica,sans-Serif" font-size="10.00"> title</text>
<text text-anchor="middle" x="119.5" y="-252" font-family="Helvetica,sans-Serif" font-size="10.00">track</text>
<text text-anchor="middle" x="119.5" y="-241" font-family="Helvetica,sans-Serif" font-size="10.00">performer</text>
<text text-anchor="middle" x="119.5" y="-230" font-family="Helvetica,sans-Serif" font-size="10.00">type</text>
<text text-anchor="middle" x="119.5" y="-219" font-family="Helvetica,sans-Serif" font-size="10.00">index</text>
<text text-anchor="middle" x="119.5" y="-208" font-family="Helvetica,sans-Serif" font-size="10.00">start</text>
</g>
<!-- Node5 -->
<g id="node5" class="node"><title>Node5</title>
<polygon fill="white" stroke="#bfbfbf" points="0,-346.5 0,-376.5 95,-376.5 95,-346.5 0,-346.5"/>
<text text-anchor="start" x="8" y="-364.5" font-family="Helvetica,sans-Serif" font-size="10.00">std::basic_string&lt;</text>
<text text-anchor="middle" x="47.5" y="-353.5" font-family="Helvetica,sans-Serif" font-size="10.00"> char &gt;</text>
</g>
<!-- Node5&#45;&gt;Node4 -->
<g id="edge4" class="edge"><title>Node5&#45;&gt;Node4</title>
<path fill="none" stroke="midnightblue" d="M47.5,-336.352C47.5,-326.513 47.5,-315.775 47.5,-308.54"/>
<polygon fill="midnightblue" stroke="midnightblue" points="44.0001,-336.468 47.5,-346.468 51.0001,-336.468 44.0001,-336.468"/>
</g>
</g>
</svg>
