<?xml version="1.0" encoding="UTF-8" standalone="no"?>
<!DOCTYPE svg PUBLIC "-//W3C//DTD SVG 1.1//EN"
 "http://www.w3.org/Graphics/SVG/1.1/DTD/svg11.dtd">
<!-- Generated by graphviz version 2.40.1 (20161225.0304)
 -->
<!-- Title: /home/etienne/Projects/avcpp/av/discid/toc.h Pages: 1 -->
<svg width="324pt" height="173pt"
 viewBox="0.00 0.00 324.00 173.00" xmlns="http://www.w3.org/2000/svg" xmlns:xlink="http://www.w3.org/1999/xlink">
<g id="graph0" class="graph" transform="scale(1 1) rotate(0) translate(4 169)">
<title>/home/etienne/Projects/avcpp/av/discid/toc.h</title>
<polygon fill="#ffffff" stroke="transparent" points="-4,4 -4,-169 320,-169 320,4 -4,4"/>
<!-- Node8 -->
<g id="node1" class="node">
<title>Node8</title>
<polygon fill="#bfbfbf" stroke="#000000" points="49,-134.5 49,-164.5 178,-164.5 178,-134.5 49,-134.5"/>
<text text-anchor="start" x="57" y="-152.5" font-family="Helvetica,sans-Serif" font-size="10.00" fill="#000000">/home/etienne/Projects</text>
<text text-anchor="middle" x="113.5" y="-141.5" font-family="Helvetica,sans-Serif" font-size="10.00" fill="#000000">/avcpp/av/discid/toc.h</text>
</g>
<!-- Node9 -->
<g id="node2" class="node">
<title>Node9</title>
<g id="a_node2"><a xlink:href="discid_8h.html" target="_top" xlink:title="/home/etienne/Projects\l/avcpp/av/discid/discid.h">
<polygon fill="#ffffff" stroke="#000000" points="93.5,-67.5 93.5,-97.5 229.5,-97.5 229.5,-67.5 93.5,-67.5"/>
<text text-anchor="start" x="101.5" y="-85.5" font-family="Helvetica,sans-Serif" font-size="10.00" fill="#000000">/home/etienne/Projects</text>
<text text-anchor="middle" x="161.5" y="-74.5" font-family="Helvetica,sans-Serif" font-size="10.00" fill="#000000">/avcpp/av/discid/discid.h</text>
</a>
</g>
</g>
<!-- Node8&#45;&gt;Node9 -->
<g id="edge1" class="edge">
<title>Node8&#45;&gt;Node9</title>
<path fill="none" stroke="#191970" d="M130.291,-126.0626C137.0476,-116.6315 144.6444,-106.0276 150.6512,-97.6432"/>
<polygon fill="#191970" stroke="#191970" points="127.3706,-124.1292 124.3919,-134.2967 133.061,-128.2059 127.3706,-124.1292"/>
</g>
<!-- Node10 -->
<g id="node3" class="node">
<title>Node10</title>
<g id="a_node3"><a xlink:href="cddb_8h.html" target="_top" xlink:title="/home/etienne/Projects\l/avcpp/av/discid/cddb.h">
<polygon fill="#ffffff" stroke="#000000" points="0,-.5 0,-30.5 131,-30.5 131,-.5 0,-.5"/>
<text text-anchor="start" x="8" y="-18.5" font-family="Helvetica,sans-Serif" font-size="10.00" fill="#000000">/home/etienne/Projects</text>
<text text-anchor="middle" x="65.5" y="-7.5" font-family="Helvetica,sans-Serif" font-size="10.00" fill="#000000">/avcpp/av/discid/cddb.h</text>
</a>
</g>
</g>
<!-- Node8&#45;&gt;Node10 -->
<g id="edge4" class="edge">
<title>Node8&#45;&gt;Node10</title>
<path fill="none" stroke="#191970" d="M98.208,-125.6836C93.2762,-117.2023 88.1477,-107.4156 84.5,-98 75.7393,-75.3862 70.3787,-47.6508 67.6746,-30.7901"/>
<polygon fill="#191970" stroke="#191970" points="95.2405,-127.5403 103.403,-134.2948 101.2343,-123.9243 95.2405,-127.5403"/>
</g>
<!-- Node9&#45;&gt;Node10 -->
<g id="edge2" class="edge">
<title>Node9&#45;&gt;Node10</title>
<path fill="none" stroke="#191970" d="M131.1911,-61.3469C116.9067,-51.3776 100.1919,-39.7121 87.1977,-30.6432"/>
<polygon fill="#191970" stroke="#191970" points="129.5126,-64.4436 139.7161,-67.2967 133.5189,-58.7033 129.5126,-64.4436"/>
</g>
<!-- Node11 -->
<g id="node4" class="node">
<title>Node11</title>
<g id="a_node4"><a xlink:href="musicbrainz_8h.html" target="_top" xlink:title="/home/etienne/Projects\l/avcpp/av/discid/musicbrainz.h">
<polygon fill="#ffffff" stroke="#000000" points="149,-.5 149,-30.5 316,-30.5 316,-.5 149,-.5"/>
<text text-anchor="start" x="157" y="-18.5" font-family="Helvetica,sans-Serif" font-size="10.00" fill="#000000">/home/etienne/Projects</text>
<text text-anchor="middle" x="232.5" y="-7.5" font-family="Helvetica,sans-Serif" font-size="10.00" fill="#000000">/avcpp/av/discid/musicbrainz.h</text>
</a>
</g>
</g>
<!-- Node9&#45;&gt;Node11 -->
<g id="edge3" class="edge">
<title>Node9&#45;&gt;Node11</title>
<path fill="none" stroke="#191970" d="M185.1194,-60.2113C195.4095,-50.5009 207.2051,-39.3698 216.4528,-30.6432"/>
<polygon fill="#191970" stroke="#191970" points="182.4819,-57.8879 177.611,-67.2967 187.2861,-62.979 182.4819,-57.8879"/>
</g>
</g>
</svg>
