<?xml version="1.0" encoding="UTF-8" standalone="no"?>
<!DOCTYPE svg PUBLIC "-//W3C//DTD SVG 1.1//EN"
 "http://www.w3.org/Graphics/SVG/1.1/DTD/svg11.dtd">
<!-- Generated by graphviz version 2.40.1 (20161225.0304)
 -->
<!-- Title: /home/etienne/Projects/avcpp/av/discid/toc.h Pages: 1 -->
<svg width="369pt" height="151pt"
 viewBox="0.00 0.00 369.00 151.00" xmlns="http://www.w3.org/2000/svg" xmlns:xlink="http://www.w3.org/1999/xlink">
<g id="graph0" class="graph" transform="scale(1 1) rotate(0) translate(4 147)">
<title>/home/etienne/Projects/avcpp/av/discid/toc.h</title>
<polygon fill="#ffffff" stroke="transparent" points="-4,4 -4,-147 365,-147 365,4 -4,4"/>
<!-- Node0 -->
<g id="node1" class="node">
<title>Node0</title>
<polygon fill="#bfbfbf" stroke="#000000" points="17.5,-112.5 17.5,-142.5 146.5,-142.5 146.5,-112.5 17.5,-112.5"/>
<text text-anchor="start" x="25.5" y="-130.5" font-family="Helvetica,sans-Serif" font-size="10.00" fill="#000000">/home/etienne/Projects</text>
<text text-anchor="middle" x="82" y="-119.5" font-family="Helvetica,sans-Serif" font-size="10.00" fill="#000000">/avcpp/av/discid/toc.h</text>
</g>
<!-- Node1 -->
<g id="node2" class="node">
<title>Node1</title>
<polygon fill="#ffffff" stroke="#bfbfbf" points="0,-56.5 0,-75.5 54,-75.5 54,-56.5 0,-56.5"/>
<text text-anchor="middle" x="27" y="-63.5" font-family="Helvetica,sans-Serif" font-size="10.00" fill="#000000">istream</text>
</g>
<!-- Node0&#45;&gt;Node1 -->
<g id="edge1" class="edge">
<title>Node0&#45;&gt;Node1</title>
<path fill="none" stroke="#191970" d="M68.4045,-112.2977C60.6109,-103.5831 50.7953,-92.6075 42.6774,-83.5302"/>
<polygon fill="#191970" stroke="#191970" points="45.0813,-80.9678 35.8062,-75.8469 39.8635,-85.6341 45.0813,-80.9678"/>
</g>
<!-- Node2 -->
<g id="node3" class="node">
<title>Node2</title>
<polygon fill="#ffffff" stroke="#bfbfbf" points="43.5,-.5 43.5,-19.5 90.5,-19.5 90.5,-.5 43.5,-.5"/>
<text text-anchor="middle" x="67" y="-7.5" font-family="Helvetica,sans-Serif" font-size="10.00" fill="#000000">vector</text>
</g>
<!-- Node0&#45;&gt;Node2 -->
<g id="edge2" class="edge">
<title>Node0&#45;&gt;Node2</title>
<path fill="none" stroke="#191970" d="M80.039,-112.1389C77.3365,-90.9692 72.4661,-52.8174 69.5036,-29.6112"/>
<polygon fill="#191970" stroke="#191970" points="72.9586,-29.0357 68.2204,-19.5595 66.0149,-29.9222 72.9586,-29.0357"/>
</g>
<!-- Node3 -->
<g id="node4" class="node">
<title>Node3</title>
<g id="a_node4"><a xlink:href="metadata_8h.html" target="_top" xlink:title="../metadata.h">
<polygon fill="#ffffff" stroke="#000000" points="139,-56.5 139,-75.5 221,-75.5 221,-56.5 139,-56.5"/>
<text text-anchor="middle" x="180" y="-63.5" font-family="Helvetica,sans-Serif" font-size="10.00" fill="#000000">../metadata.h</text>
</a>
</g>
</g>
<!-- Node0&#45;&gt;Node3 -->
<g id="edge3" class="edge">
<title>Node0&#45;&gt;Node3</title>
<path fill="none" stroke="#191970" d="M105.9735,-112.4554C121.1776,-102.9141 140.7759,-90.6151 155.9875,-81.0691"/>
<polygon fill="#191970" stroke="#191970" points="158.2037,-83.8105 164.8135,-75.5303 154.4828,-77.8813 158.2037,-83.8105"/>
</g>
<!-- Node3&#45;&gt;Node2 -->
<g id="edge8" class="edge">
<title>Node3&#45;&gt;Node2</title>
<path fill="none" stroke="#191970" d="M160.5746,-56.3733C142.5979,-47.4644 115.6559,-34.1127 95.291,-24.0203"/>
<polygon fill="#191970" stroke="#191970" points="96.6861,-20.8055 86.1719,-19.5011 93.5778,-27.0776 96.6861,-20.8055"/>
</g>
<!-- Node4 -->
<g id="node5" class="node">
<title>Node4</title>
<polygon fill="#ffffff" stroke="#bfbfbf" points="109,-.5 109,-19.5 147,-19.5 147,-.5 109,-.5"/>
<text text-anchor="middle" x="128" y="-7.5" font-family="Helvetica,sans-Serif" font-size="10.00" fill="#000000">map</text>
</g>
<!-- Node3&#45;&gt;Node4 -->
<g id="edge4" class="edge">
<title>Node3&#45;&gt;Node4</title>
<path fill="none" stroke="#191970" d="M170.9423,-56.2455C163.4858,-48.2155 152.7366,-36.6394 143.8583,-27.0781"/>
<polygon fill="#191970" stroke="#191970" points="146.3232,-24.589 136.9539,-19.6427 141.1937,-29.3522 146.3232,-24.589"/>
</g>
<!-- Node5 -->
<g id="node6" class="node">
<title>Node5</title>
<polygon fill="#ffffff" stroke="#bfbfbf" points="165,-.5 165,-19.5 225,-19.5 225,-.5 165,-.5"/>
<text text-anchor="middle" x="195" y="-7.5" font-family="Helvetica,sans-Serif" font-size="10.00" fill="#000000">iostream</text>
</g>
<!-- Node3&#45;&gt;Node5 -->
<g id="edge5" class="edge">
<title>Node3&#45;&gt;Node5</title>
<path fill="none" stroke="#191970" d="M182.6128,-56.2455C184.5916,-48.8579 187.3744,-38.4689 189.8012,-29.4087"/>
<polygon fill="#191970" stroke="#191970" points="193.2105,-30.2078 192.4171,-19.6427 186.4489,-28.3966 193.2105,-30.2078"/>
</g>
<!-- Node6 -->
<g id="node7" class="node">
<title>Node6</title>
<polygon fill="#ffffff" stroke="#bfbfbf" points="243,-.5 243,-19.5 287,-19.5 287,-.5 243,-.5"/>
<text text-anchor="middle" x="265" y="-7.5" font-family="Helvetica,sans-Serif" font-size="10.00" fill="#000000">string</text>
</g>
<!-- Node3&#45;&gt;Node6 -->
<g id="edge6" class="edge">
<title>Node3&#45;&gt;Node6</title>
<path fill="none" stroke="#191970" d="M194.8059,-56.2455C207.7256,-47.7337 226.6931,-35.2375 241.6552,-25.3801"/>
<polygon fill="#191970" stroke="#191970" points="243.9387,-28.067 250.3638,-19.6427 240.0876,-22.2216 243.9387,-28.067"/>
</g>
<!-- Node7 -->
<g id="node8" class="node">
<title>Node7</title>
<polygon fill="#ffffff" stroke="#bfbfbf" points="305,-.5 305,-19.5 361,-19.5 361,-.5 305,-.5"/>
<text text-anchor="middle" x="333" y="-7.5" font-family="Helvetica,sans-Serif" font-size="10.00" fill="#000000">sstream</text>
</g>
<!-- Node3&#45;&gt;Node7 -->
<g id="edge7" class="edge">
<title>Node3&#45;&gt;Node7</title>
<path fill="none" stroke="#191970" d="M206.3016,-56.3733C231.4128,-47.1822 269.4438,-33.2624 297.2872,-23.0713"/>
<polygon fill="#191970" stroke="#191970" points="298.8538,-26.2251 307.0416,-19.5011 296.4478,-19.6516 298.8538,-26.2251"/>
</g>
</g>
</svg>
