<?xml version="1.0" encoding="UTF-8" standalone="no"?>
<!DOCTYPE svg PUBLIC "-//W3C//DTD SVG 1.1//EN"
 "http://www.w3.org/Graphics/SVG/1.1/DTD/svg11.dtd">
<!-- Generated by graphviz version 2.38.0 (20140413.2041)
 -->
<!-- Title: /home/etienne/Projects/avcpp/av/utils.h Pages: 1 -->
<svg width="152pt" height="95pt"
 viewBox="0.00 0.00 152.00 95.00" xmlns="http://www.w3.org/2000/svg" xmlns:xlink="http://www.w3.org/1999/xlink">
<g id="graph0" class="graph" transform="scale(1 1) rotate(0) translate(4 91)">
<title>/home/etienne/Projects/avcpp/av/utils.h</title>
<polygon fill="white" stroke="none" points="-4,4 -4,-91 148,-91 148,4 -4,4"/>
<!-- Node0 -->
<g id="node1" class="node"><title>Node0</title>
<polygon fill="#bfbfbf" stroke="black" points="7.5,-56.5 7.5,-86.5 124.5,-86.5 124.5,-56.5 7.5,-56.5"/>
<text text-anchor="start" x="15.5" y="-74.5" font-family="Helvetica,sans-Serif" font-size="10.00">/home/etienne/Projects</text>
<text text-anchor="middle" x="66" y="-63.5" font-family="Helvetica,sans-Serif" font-size="10.00">/avcpp/av/utils.h</text>
</g>
<!-- Node1 -->
<g id="node2" class="node"><title>Node1</title>
<polygon fill="white" stroke="#bfbfbf" points="0,-0.5 0,-19.5 52,-19.5 52,-0.5 0,-0.5"/>
<text text-anchor="middle" x="26" y="-7.5" font-family="Helvetica,sans-Serif" font-size="10.00">memory</text>
</g>
<!-- Node0&#45;&gt;Node1 -->
<g id="edge1" class="edge"><title>Node0&#45;&gt;Node1</title>
<path fill="none" stroke="midnightblue" d="M56.5206,-56.3993C50.8279,-47.9315 43.5456,-37.0991 37.5222,-28.1393"/>
<polygon fill="midnightblue" stroke="midnightblue" points="40.3042,-26.0041 31.8204,-19.6578 34.4949,-29.9095 40.3042,-26.0041"/>
</g>
<!-- Node2 -->
<g id="node3" class="node"><title>Node2</title>
<polygon fill="white" stroke="#bfbfbf" points="70,-0.5 70,-19.5 144,-19.5 144,-0.5 70,-0.5"/>
<text text-anchor="middle" x="107" y="-7.5" font-family="Helvetica,sans-Serif" font-size="10.00">system_error</text>
</g>
<!-- Node0&#45;&gt;Node2 -->
<g id="edge2" class="edge"><title>Node0&#45;&gt;Node2</title>
<path fill="none" stroke="midnightblue" d="M75.7164,-56.3993C81.5514,-47.9315 89.0157,-37.0991 95.1897,-28.1393"/>
<polygon fill="midnightblue" stroke="midnightblue" points="98.242,-29.8781 101.034,-19.6578 92.478,-25.9062 98.242,-29.8781"/>
</g>
</g>
</svg>
