<?xml version="1.0" encoding="UTF-8" standalone="no"?>
<!DOCTYPE svg PUBLIC "-//W3C//DTD SVG 1.1//EN"
 "http://www.w3.org/Graphics/SVG/1.1/DTD/svg11.dtd">
<!-- Generated by graphviz version 2.38.0 (20140413.2041)
 -->
<!-- Title: /home/etienne/Projects/avcpp/av/utils.h Pages: 1 -->
<svg width="458pt" height="307pt"
 viewBox="0.00 0.00 458.00 307.00" xmlns="http://www.w3.org/2000/svg" xmlns:xlink="http://www.w3.org/1999/xlink">
<g id="graph0" class="graph" transform="scale(1 1) rotate(0) translate(4 303)">
<title>/home/etienne/Projects/avcpp/av/utils.h</title>
<polygon fill="white" stroke="none" points="-4,4 -4,-303 454,-303 454,4 -4,4"/>
<!-- Node3 -->
<g id="node1" class="node"><title>Node3</title>
<polygon fill="#bfbfbf" stroke="black" points="163,-268.5 163,-298.5 280,-298.5 280,-268.5 163,-268.5"/>
<text text-anchor="start" x="171" y="-286.5" font-family="Helvetica,sans-Serif" font-size="10.00">/home/etienne/Projects</text>
<text text-anchor="middle" x="221.5" y="-275.5" font-family="Helvetica,sans-Serif" font-size="10.00">/avcpp/av/utils.h</text>
</g>
<!-- Node4 -->
<g id="node2" class="node"><title>Node4</title>
<g id="a_node2"><a xlink:href="frame_8h.html" target="_top" xlink:title="/home/etienne/Projects\l/avcpp/av/frame.h">
<polygon fill="white" stroke="black" points="76,-201.5 76,-231.5 193,-231.5 193,-201.5 76,-201.5"/>
<text text-anchor="start" x="84" y="-219.5" font-family="Helvetica,sans-Serif" font-size="10.00">/home/etienne/Projects</text>
<text text-anchor="middle" x="134.5" y="-208.5" font-family="Helvetica,sans-Serif" font-size="10.00">/avcpp/av/frame.h</text>
</a>
</g>
</g>
<!-- Node3&#45;&gt;Node4 -->
<g id="edge1" class="edge"><title>Node3&#45;&gt;Node4</title>
<path fill="none" stroke="midnightblue" d="M194.286,-262.168C180.982,-252.228 165.304,-240.514 153.341,-231.577"/>
<polygon fill="midnightblue" stroke="midnightblue" points="192.516,-265.215 202.622,-268.396 196.706,-259.607 192.516,-265.215"/>
</g>
<!-- Node5 -->
<g id="node3" class="node"><title>Node5</title>
<g id="a_node3"><a xlink:href="codec_8h.html" target="_top" xlink:title="/home/etienne/Projects\l/avcpp/av/codec.h">
<polygon fill="white" stroke="black" points="19,-134.5 19,-164.5 136,-164.5 136,-134.5 19,-134.5"/>
<text text-anchor="start" x="27" y="-152.5" font-family="Helvetica,sans-Serif" font-size="10.00">/home/etienne/Projects</text>
<text text-anchor="middle" x="77.5" y="-141.5" font-family="Helvetica,sans-Serif" font-size="10.00">/avcpp/av/codec.h</text>
</a>
</g>
</g>
<!-- Node3&#45;&gt;Node5 -->
<g id="edge8" class="edge"><title>Node3&#45;&gt;Node5</title>
<path fill="none" stroke="midnightblue" d="M152.566,-277.957C120.969,-272.01 86.2284,-259.177 66.5,-232 52.0734,-212.127 61.9982,-182.168 70.0645,-164.647"/>
<polygon fill="midnightblue" stroke="midnightblue" points="152.25,-281.453 162.691,-279.655 153.408,-274.549 152.25,-281.453"/>
</g>
<!-- Node6 -->
<g id="node4" class="node"><title>Node6</title>
<g id="a_node4"><a xlink:href="av_8h.html" target="_top" xlink:title="/home/etienne/Projects\l/avcpp/av/av.h">
<polygon fill="white" stroke="black" points="149,-0.5 149,-30.5 266,-30.5 266,-0.5 149,-0.5"/>
<text text-anchor="start" x="157" y="-18.5" font-family="Helvetica,sans-Serif" font-size="10.00">/home/etienne/Projects</text>
<text text-anchor="middle" x="207.5" y="-7.5" font-family="Helvetica,sans-Serif" font-size="10.00">/avcpp/av/av.h</text>
</a>
</g>
</g>
<!-- Node3&#45;&gt;Node6 -->
<g id="edge11" class="edge"><title>Node3&#45;&gt;Node6</title>
<path fill="none" stroke="midnightblue" d="M220.214,-258.065C217.346,-203.572 210.501,-73.521 208.239,-30.5492"/>
<polygon fill="midnightblue" stroke="midnightblue" points="216.726,-258.396 220.747,-268.199 223.717,-258.029 216.726,-258.396"/>
</g>
<!-- Node9 -->
<g id="node7" class="node"><title>Node9</title>
<g id="a_node7"><a xlink:href="scale_8h.html" target="_top" xlink:title="/home/etienne/Projects\l/avcpp/av/scale.h">
<polygon fill="white" stroke="black" points="250,-134.5 250,-164.5 367,-164.5 367,-134.5 250,-134.5"/>
<text text-anchor="start" x="258" y="-152.5" font-family="Helvetica,sans-Serif" font-size="10.00">/home/etienne/Projects</text>
<text text-anchor="middle" x="308.5" y="-141.5" font-family="Helvetica,sans-Serif" font-size="10.00">/avcpp/av/scale.h</text>
</a>
</g>
</g>
<!-- Node3&#45;&gt;Node9 -->
<g id="edge9" class="edge"><title>Node3&#45;&gt;Node9</title>
<path fill="none" stroke="midnightblue" d="M236.439,-259.834C254.477,-232.466 284.256,-187.284 299.256,-164.525"/>
<polygon fill="midnightblue" stroke="midnightblue" points="233.391,-258.098 230.811,-268.374 239.236,-261.95 233.391,-258.098"/>
</g>
<!-- Node10 -->
<g id="node8" class="node"><title>Node10</title>
<g id="a_node8"><a xlink:href="dynamicrange_8h.html" target="_top" xlink:title="/home/etienne/Projects\l/avcpp/av/dynamicrange.h">
<polygon fill="white" stroke="black" points="319,-67.5 319,-97.5 450,-97.5 450,-67.5 319,-67.5"/>
<text text-anchor="start" x="327" y="-85.5" font-family="Helvetica,sans-Serif" font-size="10.00">/home/etienne/Projects</text>
<text text-anchor="middle" x="384.5" y="-74.5" font-family="Helvetica,sans-Serif" font-size="10.00">/avcpp/av/dynamicrange.h</text>
</a>
</g>
</g>
<!-- Node3&#45;&gt;Node10 -->
<g id="edge12" class="edge"><title>Node3&#45;&gt;Node10</title>
<path fill="none" stroke="midnightblue" d="M262.022,-263.86C298.68,-244.661 350.741,-211.05 376.5,-165 388.299,-143.906 387.955,-114.888 386.393,-97.7716"/>
<polygon fill="midnightblue" stroke="midnightblue" points="260.379,-260.77 253.06,-268.43 263.559,-267.006 260.379,-260.77"/>
</g>
<!-- Node4&#45;&gt;Node5 -->
<g id="edge2" class="edge"><title>Node4&#45;&gt;Node5</title>
<path fill="none" stroke="midnightblue" d="M115.415,-193.736C106.981,-184.119 97.3086,-173.089 89.844,-164.577"/>
<polygon fill="midnightblue" stroke="midnightblue" points="112.907,-196.185 122.132,-201.396 118.17,-191.57 112.907,-196.185"/>
</g>
<!-- Node4&#45;&gt;Node6 -->
<g id="edge7" class="edge"><title>Node4&#45;&gt;Node6</title>
<path fill="none" stroke="midnightblue" d="M143.195,-191.798C158.523,-150.013 189.903,-64.4701 202.298,-30.6819"/>
<polygon fill="midnightblue" stroke="midnightblue" points="139.908,-190.595 139.75,-201.188 146.48,-193.006 139.908,-190.595"/>
</g>
<!-- Node5&#45;&gt;Node6 -->
<g id="edge3" class="edge"><title>Node5&#45;&gt;Node6</title>
<path fill="none" stroke="midnightblue" d="M98.4329,-127.245C125.222,-100.044 170.883,-53.68 193.688,-30.5247"/>
<polygon fill="midnightblue" stroke="midnightblue" points="95.9355,-124.793 91.4123,-134.374 100.923,-129.705 95.9355,-124.793"/>
</g>
<!-- Node7 -->
<g id="node5" class="node"><title>Node7</title>
<g id="a_node5"><a xlink:href="format_8h.html" target="_top" xlink:title="/home/etienne/Projects\l/avcpp/av/format.h">
<polygon fill="white" stroke="black" points="0,-67.5 0,-97.5 117,-97.5 117,-67.5 0,-67.5"/>
<text text-anchor="start" x="8" y="-85.5" font-family="Helvetica,sans-Serif" font-size="10.00">/home/etienne/Projects</text>
<text text-anchor="middle" x="58.5" y="-74.5" font-family="Helvetica,sans-Serif" font-size="10.00">/avcpp/av/format.h</text>
</a>
</g>
</g>
<!-- Node5&#45;&gt;Node7 -->
<g id="edge4" class="edge"><title>Node5&#45;&gt;Node7</title>
<path fill="none" stroke="midnightblue" d="M70.5422,-124.697C67.8793,-115.587 64.9287,-105.493 62.6147,-97.5765"/>
<polygon fill="midnightblue" stroke="midnightblue" points="67.2121,-125.78 73.3773,-134.396 73.931,-123.816 67.2121,-125.78"/>
</g>
<!-- Node7&#45;&gt;Node6 -->
<g id="edge5" class="edge"><title>Node7&#45;&gt;Node6</title>
<path fill="none" stroke="midnightblue" d="M100.292,-63.2687C124.024,-52.9159 153.28,-40.1528 175.232,-30.5765"/>
<polygon fill="midnightblue" stroke="midnightblue" points="98.5971,-60.1894 90.8308,-67.396 101.396,-66.6054 98.5971,-60.1894"/>
</g>
<!-- Node8 -->
<g id="node6" class="node"><title>Node8</title>
<g id="a_node6"><a xlink:href="resample_8h.html" target="_top" xlink:title="/home/etienne/Projects\l/avcpp/av/resample.h">
<polygon fill="white" stroke="black" points="0,-0.5 0,-30.5 117,-30.5 117,-0.5 0,-0.5"/>
<text text-anchor="start" x="8" y="-18.5" font-family="Helvetica,sans-Serif" font-size="10.00">/home/etienne/Projects</text>
<text text-anchor="middle" x="58.5" y="-7.5" font-family="Helvetica,sans-Serif" font-size="10.00">/avcpp/av/resample.h</text>
</a>
</g>
</g>
<!-- Node7&#45;&gt;Node8 -->
<g id="edge6" class="edge"><title>Node7&#45;&gt;Node8</title>
<path fill="none" stroke="midnightblue" d="M58.5,-57.1081C58.5,-48.1539 58.5,-38.3227 58.5,-30.5765"/>
<polygon fill="midnightblue" stroke="midnightblue" points="55.0001,-57.3959 58.5,-67.396 62.0001,-57.396 55.0001,-57.3959"/>
</g>
<!-- Node9&#45;&gt;Node6 -->
<g id="edge10" class="edge"><title>Node9&#45;&gt;Node6</title>
<path fill="none" stroke="midnightblue" d="M291.429,-126.189C270.517,-98.8592 235.721,-53.3831 218.231,-30.5247"/>
<polygon fill="midnightblue" stroke="midnightblue" points="288.835,-128.559 297.691,-134.374 294.394,-124.305 288.835,-128.559"/>
</g>
<!-- Node10&#45;&gt;Node6 -->
<g id="edge13" class="edge"><title>Node10&#45;&gt;Node6</title>
<path fill="none" stroke="midnightblue" d="M336.352,-63.8185C307.902,-53.3707 272.372,-40.3231 245.831,-30.5765"/>
<polygon fill="midnightblue" stroke="midnightblue" points="335.5,-67.2342 346.094,-67.396 337.913,-60.6632 335.5,-67.2342"/>
</g>
</g>
</svg>
