<?xml version="1.0" encoding="UTF-8" standalone="no"?>
<!DOCTYPE svg PUBLIC "-//W3C//DTD SVG 1.1//EN"
 "http://www.w3.org/Graphics/SVG/1.1/DTD/svg11.dtd">
<!-- Generated by graphviz version 2.40.1 (20161225.0304)
 -->
<!-- Title: /home/etienne/Projects/avcpp/av/utils.h Pages: 1 -->
<svg width="489pt" height="307pt"
 viewBox="0.00 0.00 488.50 307.00" xmlns="http://www.w3.org/2000/svg" xmlns:xlink="http://www.w3.org/1999/xlink">
<g id="graph0" class="graph" transform="scale(1 1) rotate(0) translate(4 303)">
<title>/home/etienne/Projects/avcpp/av/utils.h</title>
<polygon fill="#ffffff" stroke="transparent" points="-4,4 -4,-303 484.5,-303 484.5,4 -4,4"/>
<!-- Node3 -->
<g id="node1" class="node">
<title>Node3</title>
<polygon fill="#bfbfbf" stroke="#000000" points="169,-268.5 169,-298.5 298,-298.5 298,-268.5 169,-268.5"/>
<text text-anchor="start" x="177" y="-286.5" font-family="Helvetica,sans-Serif" font-size="10.00" fill="#000000">/home/etienne/Projects</text>
<text text-anchor="middle" x="233.5" y="-275.5" font-family="Helvetica,sans-Serif" font-size="10.00" fill="#000000">/avcpp/av/utils.h</text>
</g>
<!-- Node4 -->
<g id="node2" class="node">
<title>Node4</title>
<g id="a_node2"><a xlink:href="frame_8h.html" target="_top" xlink:title="/home/etienne/Projects\l/avcpp/av/frame.h">
<polygon fill="#ffffff" stroke="#000000" points="76,-201.5 76,-231.5 205,-231.5 205,-201.5 76,-201.5"/>
<text text-anchor="start" x="84" y="-219.5" font-family="Helvetica,sans-Serif" font-size="10.00" fill="#000000">/home/etienne/Projects</text>
<text text-anchor="middle" x="140.5" y="-208.5" font-family="Helvetica,sans-Serif" font-size="10.00" fill="#000000">/avcpp/av/frame.h</text>
</a>
</g>
</g>
<!-- Node3&#45;&gt;Node4 -->
<g id="edge1" class="edge">
<title>Node3&#45;&gt;Node4</title>
<path fill="none" stroke="#191970" d="M204.1382,-262.3469C190.3002,-252.3776 174.1078,-240.7121 161.5196,-231.6432"/>
<polygon fill="#191970" stroke="#191970" points="202.2373,-265.2911 212.3969,-268.2967 206.329,-259.6115 202.2373,-265.2911"/>
</g>
<!-- Node5 -->
<g id="node3" class="node">
<title>Node5</title>
<g id="a_node3"><a xlink:href="codec_8h.html" target="_top" xlink:title="/home/etienne/Projects\l/avcpp/av/codec.h">
<polygon fill="#ffffff" stroke="#000000" points="19,-134.5 19,-164.5 148,-164.5 148,-134.5 19,-134.5"/>
<text text-anchor="start" x="27" y="-152.5" font-family="Helvetica,sans-Serif" font-size="10.00" fill="#000000">/home/etienne/Projects</text>
<text text-anchor="middle" x="83.5" y="-141.5" font-family="Helvetica,sans-Serif" font-size="10.00" fill="#000000">/avcpp/av/codec.h</text>
</a>
</g>
</g>
<!-- Node3&#45;&gt;Node5 -->
<g id="edge8" class="edge">
<title>Node3&#45;&gt;Node5</title>
<path fill="none" stroke="#191970" d="M158.7765,-269.4969C119.873,-260.5264 78.0439,-247.6403 66.5,-232 51.8235,-212.1154 63.9333,-182.5307 73.8592,-164.7189"/>
<polygon fill="#191970" stroke="#191970" points="158.0609,-272.9233 168.584,-271.6925 159.5902,-266.0923 158.0609,-272.9233"/>
</g>
<!-- Node6 -->
<g id="node4" class="node">
<title>Node6</title>
<g id="a_node4"><a xlink:href="av_8h.html" target="_top" xlink:title="/home/etienne/Projects\l/avcpp/av/av.h">
<polygon fill="#ffffff" stroke="#000000" points="158,-.5 158,-30.5 287,-30.5 287,-.5 158,-.5"/>
<text text-anchor="start" x="166" y="-18.5" font-family="Helvetica,sans-Serif" font-size="10.00" fill="#000000">/home/etienne/Projects</text>
<text text-anchor="middle" x="222.5" y="-7.5" font-family="Helvetica,sans-Serif" font-size="10.00" fill="#000000">/avcpp/av/av.h</text>
</a>
</g>
</g>
<!-- Node3&#45;&gt;Node6 -->
<g id="edge11" class="edge">
<title>Node3&#45;&gt;Node6</title>
<path fill="none" stroke="#191970" d="M232.4555,-258.0511C230.1972,-203.0306 224.9187,-74.4277 223.1161,-30.5103"/>
<polygon fill="#191970" stroke="#191970" points="228.9698,-258.4753 232.8771,-268.3233 235.9639,-258.1881 228.9698,-258.4753"/>
</g>
<!-- Node9 -->
<g id="node7" class="node">
<title>Node9</title>
<g id="a_node7"><a xlink:href="scale_8h.html" target="_top" xlink:title="/home/etienne/Projects\l/avcpp/av/scale.h">
<polygon fill="#ffffff" stroke="#000000" points="262,-134.5 262,-164.5 391,-164.5 391,-134.5 262,-134.5"/>
<text text-anchor="start" x="270" y="-152.5" font-family="Helvetica,sans-Serif" font-size="10.00" fill="#000000">/home/etienne/Projects</text>
<text text-anchor="middle" x="326.5" y="-141.5" font-family="Helvetica,sans-Serif" font-size="10.00" fill="#000000">/avcpp/av/scale.h</text>
</a>
</g>
</g>
<!-- Node3&#45;&gt;Node9 -->
<g id="edge9" class="edge">
<title>Node3&#45;&gt;Node9</title>
<path fill="none" stroke="#191970" d="M249.709,-260.1452C268.7314,-232.7365 299.7271,-188.076 315.9081,-164.7614"/>
<polygon fill="#191970" stroke="#191970" points="246.8138,-258.1781 243.9875,-268.389 252.5646,-262.1693 246.8138,-258.1781"/>
</g>
<!-- Node10 -->
<g id="node8" class="node">
<title>Node10</title>
<g id="a_node8"><a xlink:href="dynamicrange_8h.html" target="_top" xlink:title="/home/etienne/Projects\l/avcpp/av/dynamicrange.h">
<polygon fill="#ffffff" stroke="#000000" points="334.5,-67.5 334.5,-97.5 480.5,-97.5 480.5,-67.5 334.5,-67.5"/>
<text text-anchor="start" x="342.5" y="-85.5" font-family="Helvetica,sans-Serif" font-size="10.00" fill="#000000">/home/etienne/Projects</text>
<text text-anchor="middle" x="407.5" y="-74.5" font-family="Helvetica,sans-Serif" font-size="10.00" fill="#000000">/avcpp/av/dynamicrange.h</text>
</a>
</g>
</g>
<!-- Node3&#45;&gt;Node10 -->
<g id="edge12" class="edge">
<title>Node3&#45;&gt;Node10</title>
<path fill="none" stroke="#191970" d="M280.2909,-264.0574C319.6363,-245.022 373.6384,-212.0066 400.5,-165 412.4815,-144.033 411.7519,-115.0554 409.8346,-97.6108"/>
<polygon fill="#191970" stroke="#191970" points="278.691,-260.942 271.1322,-268.366 281.6708,-267.2761 278.691,-260.942"/>
</g>
<!-- Node4&#45;&gt;Node5 -->
<g id="edge2" class="edge">
<title>Node4&#45;&gt;Node5</title>
<path fill="none" stroke="#191970" d="M121.0506,-193.6385C112.9063,-184.0653 103.6616,-173.1987 96.383,-164.6432"/>
<polygon fill="#191970" stroke="#191970" points="118.4202,-195.948 127.5658,-201.2967 123.7518,-191.4121 118.4202,-195.948"/>
</g>
<!-- Node4&#45;&gt;Node6 -->
<g id="edge7" class="edge">
<title>Node4&#45;&gt;Node6</title>
<path fill="none" stroke="#191970" d="M150.5419,-191.8851C167.7426,-149.7224 202.343,-64.9092 216.377,-30.5088"/>
<polygon fill="#191970" stroke="#191970" points="147.2,-190.8111 146.6633,-201.3923 153.6814,-193.4553 147.2,-190.8111"/>
</g>
<!-- Node5&#45;&gt;Node6 -->
<g id="edge3" class="edge">
<title>Node5&#45;&gt;Node6</title>
<path fill="none" stroke="#191970" d="M106.8498,-127.3164C116.3736,-118.2462 127.4816,-107.6388 137.5,-98 161.8041,-74.6167 189.8526,-47.3353 206.8736,-30.7466"/>
<polygon fill="#191970" stroke="#191970" points="104.4339,-124.7839 99.6027,-134.2131 109.2596,-129.8547 104.4339,-124.7839"/>
</g>
<!-- Node7 -->
<g id="node5" class="node">
<title>Node7</title>
<g id="a_node5"><a xlink:href="format_8h.html" target="_top" xlink:title="/home/etienne/Projects\l/avcpp/av/format.h">
<polygon fill="#ffffff" stroke="#000000" points="0,-67.5 0,-97.5 129,-97.5 129,-67.5 0,-67.5"/>
<text text-anchor="start" x="8" y="-85.5" font-family="Helvetica,sans-Serif" font-size="10.00" fill="#000000">/home/etienne/Projects</text>
<text text-anchor="middle" x="64.5" y="-74.5" font-family="Helvetica,sans-Serif" font-size="10.00" fill="#000000">/avcpp/av/format.h</text>
</a>
</g>
</g>
<!-- Node5&#45;&gt;Node7 -->
<g id="edge4" class="edge">
<title>Node5&#45;&gt;Node7</title>
<path fill="none" stroke="#191970" d="M76.4417,-124.6103C73.8739,-115.5553 71.0507,-105.5998 68.7943,-97.6432"/>
<polygon fill="#191970" stroke="#191970" points="73.0931,-125.6309 79.1886,-134.2967 79.8275,-123.7211 73.0931,-125.6309"/>
</g>
<!-- Node7&#45;&gt;Node6 -->
<g id="edge5" class="edge">
<title>Node7&#45;&gt;Node6</title>
<path fill="none" stroke="#191970" d="M109.4202,-63.4516C133.9748,-53.0392 163.9636,-40.3224 186.8871,-30.6017"/>
<polygon fill="#191970" stroke="#191970" points="107.7983,-60.3376 99.9583,-67.4639 110.5312,-66.7821 107.7983,-60.3376"/>
</g>
<!-- Node8 -->
<g id="node6" class="node">
<title>Node8</title>
<g id="a_node6"><a xlink:href="resample_8h.html" target="_top" xlink:title="/home/etienne/Projects\l/avcpp/av/resample.h">
<polygon fill="#ffffff" stroke="#000000" points="0,-.5 0,-30.5 129,-30.5 129,-.5 0,-.5"/>
<text text-anchor="start" x="8" y="-18.5" font-family="Helvetica,sans-Serif" font-size="10.00" fill="#000000">/home/etienne/Projects</text>
<text text-anchor="middle" x="64.5" y="-7.5" font-family="Helvetica,sans-Serif" font-size="10.00" fill="#000000">/avcpp/av/resample.h</text>
</a>
</g>
</g>
<!-- Node7&#45;&gt;Node8 -->
<g id="edge6" class="edge">
<title>Node7&#45;&gt;Node8</title>
<path fill="none" stroke="#191970" d="M64.5,-57.0249C64.5,-48.128 64.5,-38.4287 64.5,-30.6432"/>
<polygon fill="#191970" stroke="#191970" points="61.0001,-57.2966 64.5,-67.2967 68.0001,-57.2967 61.0001,-57.2966"/>
</g>
<!-- Node9&#45;&gt;Node6 -->
<g id="edge10" class="edge">
<title>Node9&#45;&gt;Node6</title>
<path fill="none" stroke="#191970" d="M308.3739,-126.1452C287.1014,-98.7365 252.4396,-54.076 234.3447,-30.7614"/>
<polygon fill="#191970" stroke="#191970" points="305.8758,-128.635 314.772,-134.389 311.4057,-124.3431 305.8758,-128.635"/>
</g>
<!-- Node10&#45;&gt;Node6 -->
<g id="edge13" class="edge">
<title>Node10&#45;&gt;Node6</title>
<path fill="none" stroke="#191970" d="M356.4241,-64.0023C327.3985,-53.4903 291.5146,-40.4945 264.1987,-30.6017"/>
<polygon fill="#191970" stroke="#191970" points="355.3882,-67.3495 365.9824,-67.4639 357.7718,-60.7678 355.3882,-67.3495"/>
</g>
</g>
</svg>
