<?xml version="1.0" encoding="UTF-8" standalone="no"?>
<!DOCTYPE svg PUBLIC "-//W3C//DTD SVG 1.1//EN"
 "http://www.w3.org/Graphics/SVG/1.1/DTD/svg11.dtd">
<!-- Generated by graphviz version 2.40.1 (20161225.0304)
 -->
<!-- Title: /home/etienne/Projects/avcpp/av/utils.h Pages: 1 -->
<svg width="166pt" height="95pt"
 viewBox="0.00 0.00 165.50 95.00" xmlns="http://www.w3.org/2000/svg" xmlns:xlink="http://www.w3.org/1999/xlink">
<g id="graph0" class="graph" transform="scale(1 1) rotate(0) translate(4 91)">
<title>/home/etienne/Projects/avcpp/av/utils.h</title>
<polygon fill="#ffffff" stroke="transparent" points="-4,4 -4,-91 161.5,-91 161.5,4 -4,4"/>
<!-- Node0 -->
<g id="node1" class="node">
<title>Node0</title>
<polygon fill="#bfbfbf" stroke="#000000" points="8.5,-56.5 8.5,-86.5 137.5,-86.5 137.5,-56.5 8.5,-56.5"/>
<text text-anchor="start" x="16.5" y="-74.5" font-family="Helvetica,sans-Serif" font-size="10.00" fill="#000000">/home/etienne/Projects</text>
<text text-anchor="middle" x="73" y="-63.5" font-family="Helvetica,sans-Serif" font-size="10.00" fill="#000000">/avcpp/av/utils.h</text>
</g>
<!-- Node1 -->
<g id="node2" class="node">
<title>Node1</title>
<polygon fill="#ffffff" stroke="#bfbfbf" points="0,-.5 0,-19.5 58,-19.5 58,-.5 0,-.5"/>
<text text-anchor="middle" x="29" y="-7.5" font-family="Helvetica,sans-Serif" font-size="10.00" fill="#000000">memory</text>
</g>
<!-- Node0&#45;&gt;Node1 -->
<g id="edge1" class="edge">
<title>Node0&#45;&gt;Node1</title>
<path fill="none" stroke="#191970" d="M62.1236,-56.2977C56.0159,-47.7609 48.3561,-37.0545 41.9412,-28.0883"/>
<polygon fill="#191970" stroke="#191970" points="44.7101,-25.9433 36.045,-19.8469 39.0171,-30.0163 44.7101,-25.9433"/>
</g>
<!-- Node2 -->
<g id="node3" class="node">
<title>Node2</title>
<polygon fill="#ffffff" stroke="#bfbfbf" points="76.5,-.5 76.5,-19.5 157.5,-19.5 157.5,-.5 76.5,-.5"/>
<text text-anchor="middle" x="117" y="-7.5" font-family="Helvetica,sans-Serif" font-size="10.00" fill="#000000">system_error</text>
</g>
<!-- Node0&#45;&gt;Node2 -->
<g id="edge2" class="edge">
<title>Node0&#45;&gt;Node2</title>
<path fill="none" stroke="#191970" d="M83.8764,-56.2977C89.9841,-47.7609 97.6439,-37.0545 104.0588,-28.0883"/>
<polygon fill="#191970" stroke="#191970" points="106.9829,-30.0163 109.955,-19.8469 101.2899,-25.9433 106.9829,-30.0163"/>
</g>
</g>
</svg>
