<?xml version="1.0" encoding="UTF-8" standalone="no"?>
<!DOCTYPE svg PUBLIC "-//W3C//DTD SVG 1.1//EN"
 "http://www.w3.org/Graphics/SVG/1.1/DTD/svg11.dtd">
<!-- Generated by graphviz version 2.38.0 (20140413.2041)
 -->
<!-- Title: /home/etienne/Projects/avcpp/av/utils.h Pages: 1 -->
<svg width="279pt" height="307pt"
 viewBox="0.00 0.00 279.00 307.00" xmlns="http://www.w3.org/2000/svg" xmlns:xlink="http://www.w3.org/1999/xlink">
<g id="graph0" class="graph" transform="scale(1 1) rotate(0) translate(4 303)">
<title>/home/etienne/Projects/avcpp/av/utils.h</title>
<polygon fill="white" stroke="none" points="-4,4 -4,-303 275,-303 275,4 -4,4"/>
<!-- Node2 -->
<g id="node1" class="node"><title>Node2</title>
<polygon fill="#bfbfbf" stroke="black" points="110,-268.5 110,-298.5 227,-298.5 227,-268.5 110,-268.5"/>
<text text-anchor="start" x="118" y="-286.5" font-family="Helvetica,sans-Serif" font-size="10.00">/home/etienne/Projects</text>
<text text-anchor="middle" x="168.5" y="-275.5" font-family="Helvetica,sans-Serif" font-size="10.00">/avcpp/av/utils.h</text>
</g>
<!-- Node3 -->
<g id="node2" class="node"><title>Node3</title>
<g id="a_node2"><a xlink:href="frame_8h.html" target="_top" xlink:title="/home/etienne/Projects\l/avcpp/av/frame.h">
<polygon fill="white" stroke="black" points="154,-201.5 154,-231.5 271,-231.5 271,-201.5 154,-201.5"/>
<text text-anchor="start" x="162" y="-219.5" font-family="Helvetica,sans-Serif" font-size="10.00">/home/etienne/Projects</text>
<text text-anchor="middle" x="212.5" y="-208.5" font-family="Helvetica,sans-Serif" font-size="10.00">/avcpp/av/frame.h</text>
</a>
</g>
</g>
<!-- Node2&#45;&gt;Node3 -->
<g id="edge1" class="edge"><title>Node2&#45;&gt;Node3</title>
<path fill="none" stroke="midnightblue" d="M183.821,-259.867C190.189,-250.459 197.382,-239.833 202.971,-231.577"/>
<polygon fill="midnightblue" stroke="midnightblue" points="180.755,-258.153 178.047,-268.396 186.551,-262.077 180.755,-258.153"/>
</g>
<!-- Node4 -->
<g id="node3" class="node"><title>Node4</title>
<g id="a_node3"><a xlink:href="codec_8h.html" target="_top" xlink:title="/home/etienne/Projects\l/avcpp/av/codec.h">
<polygon fill="white" stroke="black" points="67,-134.5 67,-164.5 184,-164.5 184,-134.5 67,-134.5"/>
<text text-anchor="start" x="75" y="-152.5" font-family="Helvetica,sans-Serif" font-size="10.00">/home/etienne/Projects</text>
<text text-anchor="middle" x="125.5" y="-141.5" font-family="Helvetica,sans-Serif" font-size="10.00">/avcpp/av/codec.h</text>
</a>
</g>
</g>
<!-- Node2&#45;&gt;Node4 -->
<g id="edge8" class="edge"><title>Node2&#45;&gt;Node4</title>
<path fill="none" stroke="midnightblue" d="M156.094,-259.099C151.996,-250.716 147.678,-241.089 144.5,-232 136.444,-208.959 130.779,-181.06 127.836,-164.603"/>
<polygon fill="midnightblue" stroke="midnightblue" points="153.089,-260.914 160.721,-268.263 159.338,-257.759 153.089,-260.914"/>
</g>
<!-- Node3&#45;&gt;Node4 -->
<g id="edge2" class="edge"><title>Node3&#45;&gt;Node4</title>
<path fill="none" stroke="midnightblue" d="M185.286,-195.168C171.982,-185.228 156.304,-173.514 144.341,-164.577"/>
<polygon fill="midnightblue" stroke="midnightblue" points="183.516,-198.215 193.622,-201.396 187.706,-192.607 183.516,-198.215"/>
</g>
<!-- Node5 -->
<g id="node4" class="node"><title>Node5</title>
<g id="a_node4"><a xlink:href="av_8h.html" target="_top" xlink:title="/home/etienne/Projects\l/avcpp/av/av.h">
<polygon fill="white" stroke="black" points="135,-0.5 135,-30.5 252,-30.5 252,-0.5 135,-0.5"/>
<text text-anchor="start" x="143" y="-18.5" font-family="Helvetica,sans-Serif" font-size="10.00">/home/etienne/Projects</text>
<text text-anchor="middle" x="193.5" y="-7.5" font-family="Helvetica,sans-Serif" font-size="10.00">/avcpp/av/av.h</text>
</a>
</g>
</g>
<!-- Node3&#45;&gt;Node5 -->
<g id="edge7" class="edge"><title>Node3&#45;&gt;Node5</title>
<path fill="none" stroke="midnightblue" d="M210.161,-190.998C206.144,-148.93 198.06,-64.2558 194.854,-30.6819"/>
<polygon fill="midnightblue" stroke="midnightblue" points="206.699,-191.566 211.134,-201.188 213.667,-190.901 206.699,-191.566"/>
</g>
<!-- Node4&#45;&gt;Node5 -->
<g id="edge3" class="edge"><title>Node4&#45;&gt;Node5</title>
<path fill="none" stroke="midnightblue" d="M139.246,-125.407C144.197,-116.873 149.734,-107.07 154.5,-98 166.758,-74.6721 179.723,-46.8629 187.188,-30.5007"/>
<polygon fill="midnightblue" stroke="midnightblue" points="136.203,-123.678 134.168,-134.075 142.243,-127.216 136.203,-123.678"/>
</g>
<!-- Node6 -->
<g id="node5" class="node"><title>Node6</title>
<g id="a_node5"><a xlink:href="format_8h.html" target="_top" xlink:title="/home/etienne/Projects\l/avcpp/av/format.h">
<polygon fill="white" stroke="black" points="29,-67.5 29,-97.5 146,-97.5 146,-67.5 29,-67.5"/>
<text text-anchor="start" x="37" y="-85.5" font-family="Helvetica,sans-Serif" font-size="10.00">/home/etienne/Projects</text>
<text text-anchor="middle" x="87.5" y="-74.5" font-family="Helvetica,sans-Serif" font-size="10.00">/avcpp/av/format.h</text>
</a>
</g>
</g>
<!-- Node4&#45;&gt;Node6 -->
<g id="edge4" class="edge"><title>Node4&#45;&gt;Node6</title>
<path fill="none" stroke="midnightblue" d="M112.098,-125.576C106.641,-116.241 100.507,-105.748 95.7293,-97.5765"/>
<polygon fill="midnightblue" stroke="midnightblue" points="109.186,-127.529 117.255,-134.396 115.229,-123.997 109.186,-127.529"/>
</g>
<!-- Node6&#45;&gt;Node5 -->
<g id="edge5" class="edge"><title>Node6&#45;&gt;Node5</title>
<path fill="none" stroke="midnightblue" d="M119.275,-62.0151C135.771,-51.8999 155.552,-39.7698 170.544,-30.5765"/>
<polygon fill="midnightblue" stroke="midnightblue" points="117.196,-59.1847 110.5,-67.396 120.855,-65.1521 117.196,-59.1847"/>
</g>
<!-- Node7 -->
<g id="node6" class="node"><title>Node7</title>
<g id="a_node6"><a xlink:href="resample_8h.html" target="_top" xlink:title="/home/etienne/Projects\l/avcpp/av/resample.h">
<polygon fill="white" stroke="black" points="0,-0.5 0,-30.5 117,-30.5 117,-0.5 0,-0.5"/>
<text text-anchor="start" x="8" y="-18.5" font-family="Helvetica,sans-Serif" font-size="10.00">/home/etienne/Projects</text>
<text text-anchor="middle" x="58.5" y="-7.5" font-family="Helvetica,sans-Serif" font-size="10.00">/avcpp/av/resample.h</text>
</a>
</g>
</g>
<!-- Node6&#45;&gt;Node7 -->
<g id="edge6" class="edge"><title>Node6&#45;&gt;Node7</title>
<path fill="none" stroke="midnightblue" d="M77.0112,-57.9907C72.9127,-48.8044 68.3502,-38.5781 64.7803,-30.5765"/>
<polygon fill="midnightblue" stroke="midnightblue" points="73.9366,-59.6897 81.2074,-67.396 80.3293,-56.8376 73.9366,-59.6897"/>
</g>
</g>
</svg>
